<?xml version="1.0" encoding="utf-8"?>
<!-- Generator: Adobe Illustrator 20.1.0, SVG Export Plug-In . SVG Version: 6.00 Build 0)  -->
<svg version="1.1" id="Layer_1" xmlns="http://www.w3.org/2000/svg" xmlns:xlink="http://www.w3.org/1999/xlink" x="0px" y="0px"
	 viewBox="0 0 581.4 365.4" style="enable-background:new 0 0 581.4 365.4;" xml:space="preserve">
<style type="text/css">
	.st0{fill:#F6958C;stroke:#FFFFFF;stroke-width:0.7;stroke-linecap:round;stroke-linejoin:round;stroke-miterlimit:10;}
	.st1{fill:#F9BAB4;stroke:#FFFFFF;stroke-width:0.7;stroke-linecap:round;stroke-linejoin:round;stroke-miterlimit:10;}
	.st2{fill:#F26E60;stroke:#FFFFFF;stroke-width:0.7;stroke-linecap:round;stroke-linejoin:round;stroke-miterlimit:10;}
	.st3{fill:#F8E2E0;stroke:#FFFFFF;stroke-width:0.7;stroke-linecap:round;stroke-linejoin:round;}
	.st4{fill:#F0513B;stroke:#FFFFFF;stroke-width:0.7;stroke-linecap:round;stroke-linejoin:round;stroke-miterlimit:10;}
</style>
<g transform="matrix(0.999751,0,0,0.999751,-54.8748,-49.3873)">
	<path vector-effect="none" class="st0" d="M56.2,159.2l1.5-1.8l2-2.1l1.2-1.8l0.2-0.8l-0.1-0.6l0.1-0.7l0.6-0.6l0.7-1.2l0.9-2
		l0.1-0.4l0.2-1.2l0-1.2l0.1-1.2l0-0.3l-0.3-0.2l-0.3-0.9l0.5-0.7l0.5-1.2l0.2-0.8l2.1,0.7l1.8,0.5l1.6,0.5l1.4,0.4l0.8,0.2l0.9,0.3
		l1.2,0.3l0.9,0.2l1,0.4l2.4,0.7l3,0.8l2.1,0.6l0,0l1.9,0.6l2.5,0.7l1.7,0.5l2.3,0.7l0.1,0l1.9,0.5l2.1,0.6l1.6,0.4l1.9,0.5l1.9,0.5
		l3.2,0.8l1.8,0.5l-0.4,1.6l-0.9,3.5l-1.5,5.9l-1.1,4.3l-0.5,2l-1.4,5.5l-0.7,2.7l-0.6,2.3l-0.8,3.2l-0.7,2.5l-0.3,1.3l-0.5,1.7
		l-0.1,0.3l-0.4,1.7l-0.2,0.7l-0.2,0.6l-0.2,0.9l0.8,1.2l2.6,3.8l0,0l2.1,3.1l0.4,0.6l1,1.5l1.7,2.5l3.7,5.5l0.6,0.9l3.4,5.1
		l1.6,2.4l1.3,1.9l3.7,5.5l0.7,1l1.4,2.1l4.4,6.6l1,1.5l2.4,3.7l1.7,2.6l0.4,0.6l1.7,2.6l0,0l2.1,3.2l0.9,1.3l1.3,1.9l1,1.5l2.1,3.2
		l1.5,2.3l-0.1,0.8l-0.2,1l0.5,0.9l0.7,1.4l0.2,0.5l0.2,1.6l0.3,1l-0.2,0.9l0.5,0.1l0.7,0.8l0.9,1l0.3,0.6l0,0l-0.1,0.6L144,272
		l-0.7,0.6l-0.8,0.1l-0.7,0.3l-0.7,0.2l-0.3,0.2l-0.1,0.2l-0.2,0.5l-0.3,0.4l-0.8,0.6l-0.4,0.3l0.2,0.4l-0.1,0.5l-0.3,0.5l0,1l0,0.6
		l-0.2,0.3l-0.3,0.4l-0.2,0.7l-0.1,0.8l-1,0.7l-0.5,0.7l-0.1,0.1l-0.5,0l-0.6,0.1l0.1,0.4l-0.2,0.7l-0.3,0.5l0.5,0.6l-0.1,0.3
		l-0.2,1l-0.5,0.7l0.2,1l0.5,0.2l0.6,0l0.6,0.3l0.1,0l0.2,0.8l-0.1,0.7l0.1,0.3l-0.2,0.8l-0.9,0.7l-0.5,0.4l-0.6,0l-0.6,0l-0.4-0.2
		l-0.2,0.3l-3.3-0.4l-5.4-0.6l-6.8-0.8l-0.7-0.1l-5.1-0.6l-1-0.1l-2.7-0.3l-3.1-0.4l0.1-0.7l0-0.5l-0.2-0.8l-0.3-0.3l-0.6,0.1l0-0.4
		l0.3-1.2l-0.2-0.5l0-0.2l0.1-0.1l0.1,0.1l0.1-0.1h0l0.1-0.5l0-1.1l0-0.5l-0.1-1.2l-0.3-1.1l-0.6-1.6l-0.9-1.6l-0.5-0.4v0l-0.4-0.9
		l-0.7-0.5l-0.1-0.3l-0.1-0.1l-0.7-1.1l-0.2-0.4l-0.9-0.7l-0.7-0.9l-0.8-1.3l-0.2-0.3l-0.2-0.2l-0.6,0.1l-0.6,0.2l-0.3,0.1l-0.6-0.3
		l-0.2-0.2l-0.2-0.2l-0.5-0.2l-0.2-0.6l0.5-0.3l0.1-1.1l-0.3-1.3l-0.5-1l-0.9-0.4l-0.9-0.1l-0.7-0.2l-0.8,0.3l-0.4-0.6l-1-0.4
		l-0.1,0l-1.1-0.9l-0.4-0.2l-1.1-1.2l-0.1-0.8l0-0.6l-0.1-0.1l-0.3-0.4l-0.5-0.8l-0.8-1l-0.2-0.1l-0.6-0.4l-0.8-0.6l-0.8,0l-0.3,0.1
		l-0.8-0.5l-0.6-0.1l-0.4,0l-1-0.8l-0.8-0.5l-1-0.4l-1.7-0.4l-1.8-0.1l-0.4-1.2l-0.4-0.4l-0.3-0.3l-0.5-0.1l-0.2-0.4l0.9-1.4l0-0.6
		l-0.1-0.1l0.6-1.6l-0.5-0.8l0.5-0.9l0.4-0.7l0.2-0.6l0.1-0.6l-0.3-0.5l-0.3-0.4l-0.5,0.1l-0.8-0.9l-0.4-0.7l0.4-0.6l0.4-0.9l0-1
		l-0.7-0.5l-0.5-0.2l-0.8-1.8l-0.3-1l-1-0.7l-0.3-0.8l0.1-1l-0.1-0.2l-0.5-0.9l-0.4-0.7l0.1-1.2l-0.3-0.7l-0.4-0.3l-0.2-1.2
		l-0.4-1.1l-0.8-1.1l-0.4-0.3l-0.4-1l0.2-1.3l-0.1-1.4l0.1-1.4l0.7-0.6l0.6,0.5l0.8-0.8l0.5-1.2l0.2-0.5l-0.1-0.5l-0.2-1.3l-0.3-0.6
		l-0.5-0.2l-0.9,0l-0.4-0.2l-0.4-0.1l-0.8-1.1l-0.4-1l-0.1-0.5l-0.1-0.1l-0.3-0.2l-0.1-0.5l-0.4-0.7l0-0.9l0.4-0.9l0.1-0.3l0.1-0.5
		l-0.1-0.9l0.1-0.4l-0.4-0.6l-0.1-0.5l0.2-0.7l0.4-0.4l0.3-1l0-0.3l0.1-0.4l0.1-0.5l0.6-0.3l0.7,0.1L66,202l-0.1,0.7l0.2,0.2
		l-0.1,0.2l-0.3,0h0l-0.1,1.7l1.1,0.8l0.6,1l0.5-0.1l0.2-0.1l-0.1-0.8l0.1-0.8v-0.4v0l-0.4-0.6l-0.3-0.5l0.1-0.4l-0.6-0.5l-0.1-0.5
		l0.4-0.2l0-0.9v-0.2l-0.5-0.1l-0.3-0.8l0.7-0.1l0.1-0.4l0.3,0.1l0.2,0l0.8-0.4l0-0.1l-0.2-0.7l-0.8-0.8l0,0l-1.1,0.2l0,0l-0.4,1
		L66,199l-0.5,0.3l-0.1,0.6l0.3,0.5l0.2,0.6l-0.8,0.2l-0.6-0.2l-0.5-0.8l-0.7-0.7l-0.3,0.1l-0.4-0.7l-0.3-0.7l-0.5-0.7l-0.8-0.5
		l-0.5,0.4l-0.3-0.3l1-1.3l0.3-0.8l-0.1-0.9l0.1-0.5l-0.1-0.4l0,0l-0.5-0.2l0-0.5l0-0.8l-0.5-1.4l-0.7-0.7l-0.6-1l-0.1-0.5l-0.5-1.7
		l-0.6-0.8l-0.2-0.4l-0.2-0.5l-0.5-0.8l-0.1-0.5l-0.4-0.7l-0.1-0.6l0.7-0.8l0.1-1.5l-0.2-1.1l0-1.2l0.1-1.3l0.5-1.1l0.9-1.3l0.1-1
		l0.1-0.9l-0.2-0.6l0.2-1.5l-0.4-0.6l-0.2-0.9l-0.4-1.3l-0.1-0.2l-0.3-0.2l0-0.8l-0.4-0.7l-0.4-0.3l-0.5-0.9l-0.6-1.1l-0.1-0.3
		l0.4-0.9l0.1-0.6l-0.2-1L56.2,159.2"/>
	<path vector-effect="none" class="st0" d="M74,258.4l1.3,0.6l1.1,0.7l0.9,0.1l0.6,0.9l0,0.6l-0.9,0.2l-0.9,0l-0.5-0.6l-0.1-0.5
		l-1.7-1l-0.9-0.8L74,258.4"/>
	<path vector-effect="none" class="st0" d="M90.4,277.6l0.4,0.9l0.8,1.4l0.8,1.3l-0.9,0.1l-0.6-0.8l-0.8-1.4l-0.4-1.3L90.4,277.6"/>
	<path vector-effect="none" class="st0" d="M79,260l0.7,0l1.2,0.6l1.9,0.4l1.1,0.3l0.3,0.1l0.9,0.3l-0.2,0.7h-0.3l-1.1-0.3l-0.7-0.2
		l-1.3-0.1l-0.7,0.2l-0.8-0.3l-0.8-0.5l0.1-0.6L79,260"/>
	<path vector-effect="none" class="st0" d="M91.9,271.8l1.3,0l1,1.4l0.8,1l-0.6,0.6l-0.5-0.4l-1-0.3l0-0.6l-0.7-1.1L91.9,271.8"/>
	<path vector-effect="none" class="st0" d="M80.1,271.6l0.9-0.2l0.8,0.8l-0.2,0.5l-0.4,0.1l-0.9-0.5L80.1,271.6"/>
</g>
<g transform="matrix(0.999751,0,0,0.999751,-54.8748,-49.3873)">
	<path vector-effect="none" class="st1" d="M210.3,222.2L210.3,222.2l1.3-8.7l0.5-3.4l0.3-1.8l0.3-2.3l0.4-3l0.6-4.3l0.1-0.6l0.9-6
		l0-0.1l0.3-2.3l0.3-2.4l8.3,1.1l3.5,0.4l5.7,0.7l0.5,0.1l4.8,0.6l5.6,0.7l1.1,0.1l0.3,0l9.5,1h0l3.5,0.3l0.9,0.1l3.7,0.3l4.6,0.4
		l5,0.4h0l2,0.2l3.2,0.2l4.4,0.3l0.3,0l0.7,0l5.3,0.3h0l-0.2,3.6l0,0l0,0.7l-0.2,3.6l-0.1,1.3l0,0.2l-0.3,4.7l-0.2,2.6l-0.2,3.4
		l0,0.1l-0.2,2.7l-0.2,3.4l-0.1,1.2l-0.3,4.9l-0.1,1.2l-0.2,3.2l-0.1,1.6l0,0.1l-0.1,2.1l-0.3,5.3l0,0.2l-0.1,1.1l-0.2,3.6l-0.1,1.8
		l-0.1,2.1l-0.1,1l0,0.6l-3.5-0.2l-3.8-0.3l-1.6-0.2l-1.8-0.1l-0.9-0.1l-7.2-0.5l-3-0.2l-3.7-0.3l-4.3-0.4l-4.3-0.4l-0.4,0l-0.7-0.1
		l-0.3,0l-1.9-0.2l-1.3-0.1l-2-0.2h0l-3.1-0.3l-0.1,0l-3.7-0.4l-1.5-0.2l-4.3-0.5l-0.1-0.1l-6-0.7l0,0l-0.7-0.1l-5.7-0.7l-4.2-0.5
		l-2.6-0.3l-4.7-0.6l1-6.8l0.8-5.5l0.5-3.8l0-0.2l0-1.6L210.3,222.2"/>
</g>
<g transform="matrix(0.999751,0,0,0.999751,-54.8748,-49.3873)">
	<path vector-effect="none" class="st0" d="M554.5,205.6l0.7-1l0.5,0.3l1.2,0.8l-0.6,0.9l-0.5,0.8l-0.1-0.7l-0.1-0.4l-0.6-0.4
		L554.5,205.6"/>
</g>
<g transform="matrix(0.999751,0,0,0.999751,-54.8748,-49.3873)">
	<path vector-effect="none" class="st1" d="M141.2,125.4l0.4-0.4l0.1-0.7l0.7-0.5l0.3-0.4l0.8-1.2l0.5-1l0.6-0.3l0.9-0.2l0.6-0.6
		l0.3-0.4l0.5-0.7l-0.1-0.7l0.3-0.7l0.7-0.5l0,0l0.4-0.4l1-1.8l0.1-0.2l0.3-0.6l1.2-1.6l1.2-1.5l0.5-0.6l-0.4-1l0.1-0.7l-0.4-0.7
		l-0.7-0.2l-0.5-0.8l-0.4-0.3l-0.1-0.2l-0.4-0.9l-0.1-0.8l-0.2-0.6l-0.1-1l-0.3-0.4l0.6-0.7l0.2-0.4l-0.3-0.5l0.2-0.7l-0.2-0.7
		L149,99l0.4-0.7l0-0.2l0.1-0.6l0.2-1l1.8-8l0.1-0.4l0.3-1.4l0.3-1.4l1.1-5l0.7-3.3l0.2-0.9l0.2-1.1l1-4l0.7-3.2l0.6-2.6l0.5-2.1
		l2.5,0.5l3.1,0.7l3.4,0.7l-1.4,6.7l-0.1,0.3l-0.5,2.3l-0.3,1.3l-0.3,1.2l-0.4,1.7l0.1,0.2l0,0.2l0.4,1.2l0.4,0.9l0.4,0.5l-0.1,0.8
		l0.9,1.1l-0.2,0.5l0.3,0.5l-0.4,0.6l-0.1,0.6l0.6,0.9l-0.6,0.2l-0.3,0.5l1.1,0.9l0.3,0.8l0.5,0.5l0.9,0.5l0.4,0.2l0.2,0.7l0.2,0.5
		l0.5,0.7l0.4,1.1l0.4,0.6l0.2,0.8l0.6,0.7l0.3,0.3l-0.3,0.6l0.4,0.9l0.8,0.6l0.1,0.6l0.7,0.1l0.2,0.2l0.4,0.4l-0.1,0.8l0.3,0.1
		l0.4,0.2l0.9,0.1l0.9-0.1l0.2,0.2l0.1,0.1l-0.3,0.9l-0.4,0.9l-0.5,0l-0.1,1.2l-0.4,0.3l-0.3,1l-0.2,0.5l-0.2,0.5l-0.1,0.9l-0.7,0
		l-0.2,0.6l0.5,0.5l-0.4,0.9l0.3,0.6l0.3,0.4l-0.2,0.7l0.2,0.4l-0.4,0.3l-1,0.1l-0.6,0.7l0.4,0.9l-0.1,0.7l-0.4,0.2l-0.1,0.6
		l0.1,0.3l0.1,0.4l0.4,0.3l0.7,0.9l0.8,0.3l0.4-0.7l0.7,0l1.2-0.6l0.8-0.6l0.1-0.6l0.4,0l0.2,0.3l0.4,0.6l0.3,0.4l0.5,0.4l-0.2,1.1
		l0.3,0.7l-0.2,0.7l0.2,0.6l-0.2,0.8l0.6,1.4l0.5,1.6l0.5,0.5l0.5,0.7l0,0.7l-0.2,0.7l-0.4,0.5l0.3,1l0.4,0.2l0.6,0.6l0.6-0.2l1,1
		l0.2,0.8l0.3,1.2l-0.2,0.7l0.4,0.9l-0.1,0.6l0.4,0.9l0.6,0.6l0.6-0.2l0.1,0l0-0.5l1.1-0.6l0.3,0l1,0.3l1.2,0.4l0.8,0.6l0.5-1.1
		l0.8-0.4l0.6,0.5l0.9,0.4l0.9,0l1.7-0.1l0.5,0.8l1.1-0.5l0.9,0.2l0.5,0.1l0.5-0.3l0.7-1.3l0.2-0.2l0.2-0.3l0.6-0.4l0.1,0.1l0.5,0.5
		l0.4,0.9l0.3,0.7l0.1,0.7l0.5,0.6l0.1,0.6l0.7,0.4l-0.2,1.4l-0.6,3.6l-0.3,1.8l-0.2,1l-0.5,3.1l-0.4,2.6l-0.4,2.6l-0.5,3.4
		l-0.1,0.7l-0.1,0.8l-0.5,3.4l-0.5,2.9l-0.4,2.3l-0.8,4.8l-3.3-0.5l-1-0.1l-0.4-0.1l0,0l-2.5-0.4l-3.7-0.6h0l-0.5-0.1l-1.1-0.2
		l-3.9-0.7l-3.6-0.6l0,0l-2.5-0.4l-2.5-0.4l-3.3-0.5l-2.3-0.5l-2.4-0.5l0,0l-3.2-0.6l-3-0.7l-1.4-0.3l-2.8-0.5l-3.2-0.7l-2.5-0.5
		l-4.7-1l-3-0.7l-4-0.9l-0.1,0l1.2-5.2l1.3-5.9l0.7-3l1.8-7.8l0.3-1.2l0.5-2l0.6-0.7l0.1-0.2l0.4-1.2l0.4-0.6l-0.2-0.9l1-0.7l0,0
		l0-0.4l-0.6-0.3l0.1-0.6l-0.8-0.2l-0.5-0.7l-0.5,0.1l-0.4-0.5l0.1-0.1l0.3-0.4l-0.1-0.5L141.2,125.4"/>
</g>
<g transform="matrix(0.999751,0,0,0.999751,-54.8748,-49.3873)">
	<path vector-effect="none" class="st0" d="M399.5,206.8l0.1-0.7l0-0.3l0.2-0.8l0.5-0.8l0.5-0.3l-0.1-0.7l0.1-0.8l-0.3-0.3l0.2-0.7
		l0.3-0.5l1-0.4l0.6,0l0,0l0.7-0.5l0-0.4l0-0.4l0.2-0.8l0-0.6l0.5-0.7l0.6-0.6l0.3-0.6l0-0.9l-0.1-0.7l0,0l-0.1-0.5l-0.5-0.7l-0.5,0
		l-0.5-0.7l-0.4-0.5l0.4-1.2l0,0l0-0.1l0-0.4l0.3-0.8l0.6-0.1l0.4,0.1l0.6-0.4l0.8-0.1l0.9-0.1l0.8-0.5l0.5-0.5l0.6-0.1l0.5-0.1
		l0.4-0.6l0.5-0.3l0.2-0.3l0-0.9l0.2-0.4v-0.5v-0.2l0.6-0.6l0.1,0l0.6-0.4l0-0.5l0.1-0.6l0-0.7l0-0.1l0.1-0.8l-0.2-0.5l0-0.1l0-0.9
		l-0.5-0.6l-0.7-0.3l-0.5-0.2l-0.2-0.1l-0.7-0.5l-0.3-0.5l0.1-0.6l-0.3-0.5l-0.4-0.3l-0.4-0.3l-0.5-0.5l-0.3-0.1l-0.6-0.3l0-0.5
		l2.1-0.1l0.1,0l2.1-0.1l3-0.2h0l0.9,0l3.5-0.2l0.9-0.1l0.4,0l3.3-0.2l0.5,0l0.5,0l1.7-0.1l0.7,0l0,0l2.1-0.2l2.1-0.2l0.9-0.1l0.2,0
		l3.1-0.2l1-0.1l0.1,1l-0.1,0.8l-0.1,0.9l0,0.1l0.4,1.2l0,0l0.5,0.7l0.2,0.3l0,0l0,0l0.6,0.6l0.1,0.1l0.2,0.6l0.5,1.3l0.1,0.4l0,0
		l0.1,0.1l0,0.1l0,0.2l0.1,0.4l0.3,0.5l0.1,0.1l0.3,0.5l0.3,0.2l0.1,0.3l0,0.2l0.2,2.5l0.1,0.8l0.2,2.4v0l0.2,1.9l0.2,2l0,0.2
		l0.1,1.6l0.2,2.2l0.3,2.8l0,0.6l0,0.2l0.3,3.2l0.1,1.4l0.2,1.9l0.2,1.8l0.3,3.1l0.1,0.8l0.2,1.8l0,0.1l0.2,1.7l-0.5,0.1l-0.2,0.4
		l0.1,0.7l0,0.2l0.2,0.5l-0.6,0.7l0,0.1l0.2,0.8l0.6,0.6v0.8l0.6,0.4l0.1,0.9l0,0l-0.2,0.4l0.2,0.3l0.2,0.3l0.3,0.9l-0.4,1.2
		l-0.8,0.6l-0.1,0.7l-0.1,0.3l-0.1,0.4l0.1,0.4l-0.6,0.5l-0.2,0.7l-0.1,0.2l-0.3,0.7l-0.5,0.9l-0.8,0.6l-0.6,0.5l0,0.1l0,0.5
		l0.6,0.6l-0.3,0.8l-0.2,0.7l-0.4,0.4l0.2,1l-0.2,1l-0.2,0.4l-0.1,0.2l0.5,0.8l-0.3,0.8l-0.7,0.7l-0.3,0.6l0.4,1.1l0,0l0.7,0.6
		l0.1,0.3l0.1,0.2l-1,0.4l-1.4,0.3L436,244l-0.7-0.2l0,0l-0.5,0.3l-0.2,0.9l-0.2,0.7l0.5,1l0.6,0.9l-0.2,0.7l-0.3,0.5l-0.1,0l-0.1,0
		l-0.5,0l-0.3-0.2l-0.6-0.4l-0.9-0.3l-0.7-0.1l-0.9-0.5l-1.1-0.3l0,0l0,0l-0.7,0.1l-0.6,0.5l-0.4,0.7l-0.7,1l0,0l0.5,0.7l0,0.5
		l-0.7-0.1l-0.7-0.3l-0.6-0.1l-0.6-0.2l-0.3-0.8l-0.9-1.1l-0.2-0.9l-0.1-0.1l-0.4-0.3l0.2-0.6l0.2-0.2l0.5-0.3l0-0.7l-0.6-0.8
		l-0.5-0.9l0.1-0.4l0-0.2l0-0.1l-0.2-0.6l-0.2-1l-0.8-0.3l-0.9-0.4l-0.2-0.5l-0.1-0.2l-1-0.5l-0.8-0.6l-0.8,0.5l-0.1-0.1l-0.5-0.5
		l0.2-0.7l-0.6,0l-0.8-0.6l-0.5-0.5l-0.9-0.5l-0.1-0.1l-0.4-0.4v0l-0.8-0.7l-0.3-0.5l-0.2-0.2l-0.2-1.2l0.2-0.8l0.1-0.1l0,0l0.5-0.8
		l0.1-0.8l0.1-0.3l0.1-0.2l0.1-0.2l0.6-1l0-0.7l0,0l-0.2-0.4l-0.2-0.5l0.4-0.7l0,0l0.5-0.5l0-0.6l-1.1-0.6l-0.3-0.2l-0.5-0.1l-0.2,0
		l-1.1-0.5l-0.6,0l-0.2,0l-0.3,0.7l-0.6,0.6l-0.4,0l-0.7-0.6l-0.1-0.2l-0.2-0.7l-0.5-1l0.3-0.7l-0.3-0.7l-0.2-1l-0.1-0.4l-1.2-1.1
		l-1.1-0.8l0,0l-1.1-0.6l-0.3-0.6l-0.4-0.6l-0.5-0.1l-0.3-0.6l-0.1-0.1l-1-0.9L402,214l-0.7-0.6l0-0.4l0-0.4l-0.4-0.5l-0.4-0.3
		l0-0.9l-0.1-0.5l0,0l-0.5-1l-0.2-0.8l-0.2-1.3L399.5,206.8"/>
</g>
<g transform="matrix(0.999751,0,0,0.999751,-54.8748,-49.3873)">
	<path vector-effect="none" class="st1" d="M345.4,171.6l0.5-0.7l0.4-0.7l0-0.4l0-0.2l0.4-0.5l-0.2-0.3l0.3-0.4l-0.2-0.5l0.5-0.4
		l0.1-0.2l0.1-0.4l-0.2-0.4l-0.2-1.1h-0.5l-0.3-0.4l-0.1-0.1l-0.2-0.5l0.5-0.1l0.1-0.7l0-0.5l-0.7-0.7l0.1-0.5l-0.1-0.4l1.5,0l2.6,0
		l1.5,0h1.9h0.3l3.5,0l0.3,0l0.7,0l1.7,0l3,0l0.4,0h0.2l4.2-0.1l0.5,0l1.4,0l2.8,0l0,0l3.3-0.1l0.7,0l0.8,0l2.7-0.1l1.8-0.1l0.3,0
		l1.6,0l3.2-0.1l0,0l1.1,0l2.7-0.1l1,0l2.6-0.1l1,0l1.2-0.1l1.2-0.1l2.8-0.1l-0.1,0.7l0.2,0.4l0.1,0.2l-0.1,0.4l0.6,0.5l0.5,0.3
		l0.5,0.8l-0.3,0.5l-0.4,0.7l-0.4,0.6l0,0.8l0,0.6l0.2,0.7l0,0.2l0.2,1l0.4,0.5l0.4,1.2l0.6,0.8l0.8,0.5l0.5,0.1l0.5,0.1l1.1,0.2
		l0.5,0.2l0.3,0.7l0.4,0.9l0,0.5l0.6,0.3l0.3,0.1l0.5,0.5l0.4,0.3l0.4,0.3l0.3,0.5l-0.1,0.6l0.3,0.5l0.7,0.5l0.2,0.1l0.5,0.2
		l0.7,0.3l0.5,0.6l0,0.9l0,0.1l0.2,0.5l-0.1,0.8l0,0.1l0,0.7l-0.1,0.6l0,0.5l-0.6,0.4l-0.1,0l-0.6,0.6v0.2v0.5l-0.2,0.4l0,0.9
		l-0.2,0.3l-0.5,0.3l-0.4,0.6l-0.5,0.1l-0.6,0.1l-0.5,0.5l-0.8,0.5l-0.9,0.1l-0.8,0.1l-0.6,0.4l-0.4-0.1l-0.6,0.1l-0.3,0.8l0,0.4
		l0,0.1l0,0l-0.4,1.2l0.4,0.5l0.5,0.7l0.5,0l0.5,0.7l0.1,0.5l0,0l0.1,0.7l0,0.9l-0.3,0.6l-0.6,0.6l-0.5,0.7l0,0.6l-0.2,0.8l0,0.4
		l0,0.4l-0.7,0.5l0,0l-0.6,0l-1,0.4l-0.3,0.5l-0.2,0.7l0.3,0.3l-0.1,0.8l0.1,0.7l-0.5,0.3l-0.8-0.3l-0.2-0.4l-0.5-0.4l-0.5-0.5
		l-0.1-0.5l-0.6-0.1l-0.2-0.4l-0.3-0.3l-0.1-0.1l-2.2,0.2l0,0l-2.5,0.2l-1.8,0.1l-1.1,0.1l-1.9,0.1l-0.5,0l-0.3,0l-2.4,0.1l-1.6,0.1
		l-0.4,0l-2.2,0.1l-0.3,0l-1.9,0.1l-0.4,0l-1.9,0.1l-0.7,0l-1.8,0.1l-0.8,0l-1.5,0l-0.8,0l-1.7,0l-0.7,0l-1,0l-2,0l-1,0l-1.6,0
		l-1.4,0l-1.4,0l-0.4,0l-1.7,0l-2.5,0l0.2-0.3l-0.4-0.7l-0.7-0.4l-0.4-0.8l0.6-0.7v0l-0.1-0.9l0.3-0.6l-0.1-0.2l-0.2-0.4l0.1-0.7
		l-0.4-0.6l0-0.5l0-0.4l-0.1-0.6l0.1-0.5l0.1-0.4l-0.6,0l0-0.1l0-0.7l0.2-0.6l-0.4-0.6l0-0.7l0-0.3l0.1-0.9l-0.6-0.2l-0.1-0.5
		l-0.1-0.5l-0.8,0.2l-0.1-0.5l-0.3-0.7l0.1-0.8l0-0.1l0.2-0.6l0.2-1l-0.4-0.7l-0.2-0.4l-0.3-0.6l0.3-0.9l-0.9-0.7l-0.5-0.3l0-0.9
		l-0.8-0.8l0.1-0.7l0-0.1l0-0.6l-0.2-0.2l-0.6-0.8l0-1l0.3-0.7l-0.7-0.4l-0.3-0.3l-0.2-0.1l0.2-0.5l0-0.1l-0.5-1.1l-0.7-0.7
		l-0.3-0.5L345.4,171.6"/>
</g>
<g transform="matrix(0.999751,0,0,0.999751,-54.8748,-49.3873)">
	<path vector-effect="none" class="st0" d="M423.8,256.6l0.7,0.1h0.8l0.3-0.9l0.6-0.1l0,0l0.6,0.6l0.6,0.1l0.3-0.8l0.2-0.4l0.1-0.2
		l-0.5-0.7l0.5-0.6l0-0.4l0,0l0-0.8l0.3-0.7l0.1-0.8l0-0.2l-0.4-0.3l0-0.5l-0.5-0.7l0,0l0.7-1l0.4-0.7l0.6-0.5l0.7-0.1l0,0l0,0
		l1.1,0.3l0.9,0.5l0.7,0.1l0.9,0.3l0.6,0.4l0.3,0.2l0.5,0l0.1,0l0.1,0l0.3-0.5l0.2-0.7l-0.6-0.9l-0.5-1l0.2-0.7l0.2-0.9l0.5-0.3l0,0
		l0.7,0.2l0.8-0.7l1.4-0.3l1-0.4l-0.1-0.2L439,242l-0.7-0.6l0,0l-0.4-1.1l0.3-0.6l0.7-0.7l0.3-0.8l0.7,0.2l0.4-0.1l0.3-0.4l-0.4-0.7
		l0.1-0.4l0-0.1l0.5-0.2l0.8,0.6l0.9-0.3l0.1,0.1l0.4,0.3l0.6,0l0.1-0.7l0.6-0.4l0.7,0l0.4-0.2l0.3-0.2l1,0.4l0.3,0.2l0.4,0.2
		l0.2,0.1l0.9,0.3l0.5,0.4l0.4,0.5l0.4-0.9l0.1-0.7l0.3-0.7l0.3-0.1l0.5-0.2l0.5-0.6l0.6-0.4l0,0l0.4,0.5l0.7,0.8l0.7,0.3l0.1,0.1
		l0.4,0.1l0.1-0.8l1,0l-0.3-0.9l-0.1-1l0.4-0.1l0.2-0.1l0.4-0.6l0,0l0.5-0.6l0.3-0.2l0.4-0.2l0.5,0.6l0.9,1l1.2,0.1l0.7,0.5l0.4-0.3
		l0.2-0.2l0.2-0.2l0.3-0.2l0.1-1.2l0-1v-0.1l0.5-0.8l0.2-0.6l0.2,0l0.5,0.1l0.7-0.5l0.3-0.7l0.1-0.5l0.1-0.6l0.3-0.5l0.9-0.4
		l0.2-0.5l0.4-0.3l0,0l0.2-0.3l-0.2-0.5l-0.1-0.2l-0.1-0.9l-0.2-0.7l0.5-0.4l0.6,0l0.1,0l0.6-0.2l0.4,0.2l0.4,0.3l0.2,0.1l0.4-0.2
		l0.7-0.7l0.5-0.3l0.6-0.3l1.1-0.3l0.5,0l0-0.9l0-0.1l0.1-0.3l-0.5-0.2l-0.4-0.2l-0.2-0.1l0.4-0.6l-0.2-0.5l-0.3-0.4l-0.2-0.3
		l0.3-0.4l0.4-0.4l0.7-0.7l0.4,0.2l0.4,0.4l0.6,0.2l0.2,0.1l0.6-0.4l0.5-0.1l0.1,0l0.1,0l0.1-0.2l0.2-0.1l0.2,0.1l0.2,0.4l0.4,0.5
		l0.8,0.2l0.1,0.1l0.3,0.4l0.2,0.5l0.7,1l0,0.1l0,0.4l0.1,0.2l0.2,0.3l0.9,0.1l0.9,0.1l0,0l0.8-0.3l0.6,0.1l0.3,0.1l0.6,0.2l0.3,0.5
		l0.6,0.2l0.2,0.5l0.8,0.2l0.3,0.1l0.3-0.2l0,0l0.1-0.5l1-0.4l1.1,0.3l0.7,0l0.7,0.5l0.4,0.3l0.2-0.2l0.2-0.3l0.7,0l0.4-0.3l0.1-0.5
		l0.7-0.6l0.1-0.1l0.2-0.2l0.7-0.3l0.6-0.3l0.1,0.2l0.2,0.3l0.1,0.6l0.3,1l0.5,0.4l0.1,0.1l0.8,0l0.6,0.5l0.1,0.1l0.6,0.4l0.4,0.7
		l0.1,0.6l0,0.5l0.3,0.4l0,1l0,0.1l-0.1,0.6l-0.2,1l1,0.9l1.1,1.1l-0.1,0.6l0,0.3l0.8,0.5l0.3,0.4l0.4,0.5l0.5,0.5l0.1,0.2l0.4,0.8
		l0.8,0.3l1,0.7l0.9,0.6l1.1-0.1l-2.2,2.6l-1,1.2l0,0.1l-0.4,0.5l-1,0.4l-1.1,0.8l0,0l-0.1,0.1l-1.6,1.4l0.1,0.7l-0.2,0.5l-0.7,0.3
		l-0.5,0.5l0.1,0.7l-0.2,0.4l-0.1,0.2l-1.2,0.7l-0.7,0l-0.3,0.8l-0.1,0.8l-1.1,0.4l-1.6,0.8l-0.5,0.4l-0.3,0l-0.7,0.1l-0.9,0.6
		l-0.6,0.5l-0.1,0.3l-2.3,0.2l-0.4,0l-0.6,0.1h0l-2.7,0.3l0,0l-0.4,0l-2.6,0.3l-3.1,0.3l-0.1,0l0,0l-1.8,0.1l-0.3,0l-1.4,0l-2,0.2
		l-0.2,0l-0.1,0l-1.5,0.3l-0.6,0.1l-2.7,0.2l-0.6,0.1l-0.9,0.1l-1.1,0l-1.2,0.1l-1.4,0.1l-2.3,0.1l-1.1,0l-0.5,0.3l-0.1,0l-0.5-0.1
		l-1.7,0.2l-0.5,0.1l-2.7,0.3l-0.6,0.1l-2.4,0.3l-0.1,0l-3.3,0.3l0,0l-0.6,0.1l-1.8,0.2l0-0.4l-1.8,0l-0.7,0l0.2,0.7l0.3,1.1
		l-0.1,0.7l0,0l-0.8,0.1l-4,0.3l-0.3,0l0,0l-3.3,0.3l-0.1,0l-0.1,0l-1.4,0.1l-2.8,0.2l-1.5,0.2l-0.8,0.1l-1.4,0.1l-0.4-0.5
		L423.8,256.6"/>
</g>
<g transform="matrix(0.999751,0,0,0.999751,-54.8748,-49.3873)">
	<path vector-effect="none" class="st0" d="M528.4,204.6l-0.4-2.6l-0.4-2.6l0.9-0.2l3.6-0.7l1.2-0.2l1.3-0.2l0.9-0.2l3.6-0.7
		l0.4-0.1h0l2.6-0.5l0.2,0l3.2-0.6l3.1-0.6l0,0l0.1,0l2.3-0.5l0.2,0l2.3-0.5l0.1,0l2.1-0.4l0.7-0.2l1.5-0.3l1.6-0.3l1.9-0.4l0.1,0h0
		l1-0.2l3.4-0.7l0.2-0.1l1.3,4.7v0l0.3,1.1l0.2,0.7l0.4,1.4l1.2,4.3l0.7,2.6l0,0l0.3,1l0.1,0.2l0.3,1.1l2.3-0.4l1.5-0.3l1.7-0.3
		l1.4-0.3l0,1.8l-0.1,0.2l-0.1,1.3l-0.1,1.3l-0.1,0.5l-0.3,1.1l-4,1.3l-0.4,0.7l-0.6-0.2l-0.7,0.1l-0.7,0.9l-0.3,0.1l-0.2-0.8l0.3-1
		l-0.1-0.3l-0.2-0.5l-0.9-0.2l-0.2-0.9l0.8-0.4l-0.2-0.2l-0.2-0.3l-0.4,0l-0.2,0l-1,0.1l0.3,0.9l0.4,0.9l0.2,0.6l-0.5,0l-0.6-0.4
		l-0.1-0.9l-0.6-0.4l-1.1-0.8l-0.5-0.2l0-0.5l-0.4-0.5L564,210l0.5-0.8l-0.2-0.3l0-0.6l0.5-0.2l0.3,0l0.4-0.1l-0.1-0.4l-0.1-0.4
		l-0.3,0.1l-0.5-0.5l-0.4,0.1l-0.4,0.6l-0.3,0l0-0.6l-0.6-0.3l0-0.5l0.7-0.3l0.2-0.8l0.7,0.4l0.2-0.3l-0.1-0.3l-0.2-0.5l-0.1-0.5
		l-0.5,0.1l-0.7,0.4l0,0.7l-0.4,0.2l-0.1-1.3l0.2-1l0.1-0.5l0.4,0.1l0.4,0.1l-0.2-1l-0.2-0.4l-0.4-0.3l0.2-1l0.2-0.9l0.3-0.5
		l0.1-0.6l0.4-0.6l0.5-0.3l0.2-0.1l0.3-0.4l-0.2-0.5l-0.3,0.1l-0.2,0.1l-0.8,0.8l-0.7,0.9l-0.6,0.9l-0.2,0.5l-0.2,0.4l-0.4,0.3
		l-0.2,0.4l-0.4,0.1l-0.4,0.1l0,0.1l-0.2,0.3l1.2,0.4l0.2,0.7l0.1,0.5l0.4,0.4l-0.5,0.5l-0.2,0.4l0.3,0.2l-0.1,0.5l0,0.1l-0.1,0.3
		l-0.2,0.5l0.3,0.1l-0.2,0.8l-0.2,0.5l0.4,0.4l0,0.2l0.1,0.7l0.3,0.6l0.2,1.1l0.4,0.7l0.6,0.5l0.8,0.6l0.1,0.4l0,0.6l0,0.1l0.3,0.1
		l0,0.8l0.6,0.8l0.5,0.5v0.6l0.3,0.8l-0.7-0.5l-0.7-0.4l-0.5,0.2l-0.7-0.4l-0.7-0.7l-0.9-0.1l-0.7,0.1l-0.8-0.1l-0.2,0l-0.4-0.1
		l-0.7-0.5l-0.7-0.4l-0.5-1l-0.2-0.3l-0.6,0.4l-0.5,0.3l-0.9,0.6l-0.7-0.7l-0.1-1.4l0.5-1l0.5-0.3l-0.1-0.3l-0.1-0.5l0.4-0.5
		l0.1-0.1l0.3-0.1l0-0.4l0-0.1l-0.1-0.5l0-0.1l0.5-0.8l0.6-0.9l-1.2-0.8l-0.5-0.3l-0.7,1l-0.4-0.4l-0.6,0.1l-0.5-0.1l-0.1-0.6l0,0
		l-0.7-0.2l-0.2,0l-0.3,0l-1.1,0l-0.3-0.4l-0.4-0.1l-0.1-0.6l0.3-0.4l0.2-0.5h0l-0.5-0.4l-0.7-0.3l-0.4-0.2l-0.9,0l-0.1,0l-0.5,0
		l-0.4-0.4l-0.1-0.7l-0.8-0.9l-0.2-0.3l-0.2-0.3l-0.2-0.8l-1.1-0.1l-0.8,0.3L543,198l-0.7-0.6l-1.5,0.5l-0.9,0.6l-0.2,0.1l-0.5,0.2
		l-0.4,0.9l-0.1,0.6l-0.1,0l-1.3,0.2l-0.7-0.1l-0.6-0.1l-0.5-0.7l-0.4-0.3l-0.6,1.3l-0.8,1.2l0,0.6l-0.9-0.3l-0.3,0.1l-0.2,0.1
		l-0.6,1.1l-0.8,1.2l-0.2,0.3l-0.7,0.6l-0.6,0.8l-0.6,0.4L528.4,204.6"/>
	<path vector-effect="none" class="st0" d="M568.5,215.8l0.4-0.2l0.4,0.4l0.1,0.9l-0.7-0.1L568.5,215.8"/>
</g>
<g transform="matrix(0.999751,0,0,0.999751,-54.8748,-49.3873)">
	<path vector-effect="none" class="st1" d="M340.4,84.7l2.8,0l4.9,0l4,0l5.9,0l0.2,0l1.5,0l0-2.6l0-1.7l0-1l0.9,0.4l0.6-0.2l0.3,0
		l0.7,0.5l0.6,0.2l0.2,1.5l0.2,1.2l0.2,0.3l0.3,1.4l0.4,1.6l0,0.6l-0.1,0.7l0.7,0.7l1,0.5l0.6,0.1l0.2-0.1l0.4-0.2l1,0.1l0.3,0.3
		l0,0.4l1.5,0.1l1.5,0.1l0.8,0l0.4,0.8l-0.1,0.6l1.3,0.1l1.1-0.2l0.9-0.3l0-0.6l0.9-0.2l0.2-0.3l1.3-0.3l0.6,0.2l0.5,0l1.2-0.1
		l0.6,0.5l1.6,0.7l0.9-0.1l0.1,0.5l-0.2,0.6L384,92l0.6-0.1l0.6,0.5l-0.1,0.9l0.5,0.8l0.5,1l0.5-0.3l0.2-0.5l0-0.6L387,93l0.9-0.2
		l1,0l0.5,0.5l0.2,1l0.8,0.1l0.9,0.4l0.2,0.1l0.6,0l0.3,1.1l1.3,0.1l0.2,0.8l0.7-0.2l1.2-0.1l0.8-0.2l0.8-0.8l1.1-0.7l0,0l1.2-0.7
		l0.6-0.1l0.4,0.9l0.3,0.8l0.7,0.3l1.3-0.4l0.9,0.2l1.5-0.1l1.7-0.2l1,0.3l0.6,0.9l1,0.4l1.1-0.5l1.2,0.1l1.3-0.1l-0.6,0.6l-1,0.4
		l-0.7,0.5l-0.5,0.4l-1.2,0.5l-0.5,0.5l-0.9,0.3l-1.1,0.5l-1.3,0.4l-0.9,0.3l-1.1,0.5l-1,0.7l-0.8,0.5l-1.2,1l-1.4,1.4l0,0l-1.1,1.2
		l-1,1.5l-1.1,1.3l-0.6,0.7l-1.1,0.7l-0.6,0.9l-0.9,0.6l-0.5,0.6l-0.1,0.1l-0.9,0.6l-1,0.8l-0.5,0.4l0.5,1.3l-0.3,0l-0.5-0.3
		l-0.4,0.1l-0.4,0.5l-0.2,0.4l-0.8,0.1l0.1,2.3l0,1.1l0.1,2.4l0,1.2l0,1.2l-0.4,0.3l-0.1,0.5l-0.4,0l-0.5,0.3l-0.2,0.4l-0.7,0.1
		l-0.3,0.3l-0.7,0.3l-0.6,0.6l-0.4,0.7l-0.1,0.6l-0.5,0.8l-0.1,0.1l-0.3,0.2l-0.1,1l0,0.1l0.1,0.9l0.8,0.1l0.4,0.1l0.3,0.4l0.4,0.7
		l0.4,0.5l-0.1,0.6l-0.4,0.8l-0.5,0.6l-0.1,0.2l0,1l0,0.2l0.3,1l0,0.1l-0.6,0.7l0.4,0.6l0.1,1.1l-0.1,1.1v0l0,0.1l-0.3,1.2l0.1,0.1
		l0.6,0.6l0.4,0.3l0.8,1l0.7,0.5l1.5,0.2l0.4,0l0.5,0.3l0,0l0.3,0.7l0.5,0.4l0.1,0.1l1.2,0.4l0.3,0.1l1.2,0.5l0.5,0.6l0.3,1.2
		l0.4,0.5l0.4,0.4l1,0.5l0.8,0.9l0.8,0.5l0.1,0l1.2,0.3l0.2,0.2l0.7,0.9l0.7,0.9l0,0.1l0.5,1l-0.1,0.7l-0.1,0.8l0.2,0.9l0.2,0.5
		l0.2,0.9l-2.8,0.1l-1.2,0.1l-1.2,0.1l-1,0l-2.6,0.1l-1,0l-2.7,0.1l-1.1,0l0,0l-3.2,0.1l-1.6,0l-0.3,0l-1.8,0.1l-2.7,0.1l-0.8,0
		l-0.7,0l-3.3,0.1l0,0l-2.8,0l-1.4,0l-0.5,0l-4.2,0.1h-0.2l-0.4,0l-3,0l-1.7,0l-0.7,0l-0.3,0l-3.5,0h-0.3h-1.9l-1.5,0l-2.6,0v-0.7
		l0-4.2l0,0l0-4.9l0,0l0-2.3v-2.6l0-1.2v-2.4v-2.4l0-4.1v-0.5l-0.1-0.3l-0.1-0.3l-0.4-0.4l-0.4-0.1l-0.5-0.3l-0.6,0l-0.3-0.4
		l-0.3-0.6l-0.4-0.8l-0.5-0.7l-0.1-0.1l-0.1-0.4l0.3-0.5l0.8-0.7l0.7-0.4l0.4-0.7l0.4-0.5l0.2-0.8l0.1-0.9l-0.1-1.1l0-0.1l0.2-0.9
		l-0.4-1.9l0-1.4l-0.4-0.5l-0.6-1.1l-0.3-1.8l-0.4-0.9l0-0.1l0,0l0-0.8l0-1.2l0.3-1.9l-0.7-1.4l0.1-1l-0.1-1l-0.1-1.2l0-0.5
		l-0.1-2.3l0-0.8l0-1l-0.3-1.1l-0.1-0.3l-0.3-1l-0.6-1.4l-0.4-1.2l-0.3-1.3l-0.3-0.9l-0.4-1.1l0-0.1l0-0.3l0.1-0.9l-0.1-1.2l0-1.2
		l-0.1-1.4l0-0.1l0,0l0.1-0.6l0.4-1.2l-0.2-0.6l-0.3-0.8l-0.3-1.3l-0.4-1.1V84.7"/>
</g>
<g transform="matrix(0.999751,0,0,0.999751,-54.8748,-49.3873)">
	<path vector-effect="none" class="st0" d="M354.3,202.5l2.5,0l1.7,0l0.4,0l1.4,0l1.4,0l1.6,0l1,0l2,0l1,0l0.7,0l1.7,0l0.8,0l1.5,0
		l0.8,0l1.8-0.1l0.7,0l1.9-0.1l0.4,0l1.9-0.1l0.3,0l2.2-0.1l0.4,0l1.6-0.1l2.4-0.1l0.3,0l0.5,0l1.9-0.1l1.1-0.1l1.8-0.1l2.5-0.2l0,0
		l2.2-0.2l0.1,0.1l0.3,0.3l0.2,0.4l0.6,0.1l0.1,0.5l0.5,0.5l0.5,0.4l0.2,0.4l0.8,0.3l-0.5,0.8l-0.2,0.8l0,0.3l-0.1,0.7l0,0.4
		l0.2,1.3l0.2,0.8l0.5,1l0,0l0.1,0.5l0,0.9l0.4,0.3l0.4,0.5l0,0.4l0,0.4l0.7,0.6l0.3,0.3l1,0.9l0.1,0.1l0.3,0.6l0.5,0.1l0.4,0.6
		l0.3,0.6l1.1,0.6l0,0l1.1,0.8l1.2,1.1l0.1,0.4l0.2,1l0.3,0.7l-0.3,0.7l0.5,1l0.2,0.7l0.1,0.2l0.7,0.6l0.4,0l0.6-0.6l0.3-0.7l0.2,0
		l0.6,0l1.1,0.5l0.2,0l0.5,0.1l0.3,0.2l1.1,0.6l0,0.6l-0.5,0.5l0,0l-0.4,0.7l0.2,0.5l0.2,0.4l0,0l0,0.7l-0.6,1l-0.1,0.2l-0.1,0.2
		l-0.1,0.3l-0.1,0.8l-0.5,0.8l0,0l-0.1,0.1l-0.2,0.8l0.2,1.2l0.2,0.2l0.3,0.5l0.8,0.7v0l0.4,0.4l0.1,0.1l0.9,0.5l0.5,0.5l0.8,0.6
		l0.6,0l-0.2,0.7l0.5,0.5l0.1,0.1l0.8-0.5l0.8,0.6l1,0.5l0.1,0.2l0.2,0.5l0.9,0.4l0.8,0.3l0.2,1l0.2,0.6l0,0.1l0,0.2l-0.1,0.4
		l0.5,0.9l0.6,0.8l0,0.7l-0.5,0.3l-0.2,0.2l-0.2,0.6l0.4,0.3l0.1,0.1l0.2,0.9l0.9,1.1l0.3,0.8l0.6,0.2l0.6,0.1l0.7,0.3l0.7,0.1
		l0.4,0.3l0,0.2l-0.1,0.8l-0.3,0.7l0,0.8l0,0l0,0.4l-0.5,0.6l0.5,0.7l-0.1,0.2l-0.2,0.4l-0.3,0.8l-0.6-0.1l-0.6-0.6l0,0l-0.6,0.1
		l-0.3,0.9h-0.8l-0.7-0.1l-0.3,0.5l0.4,0.5l0.2,0.5l-0.2,0.6l0.4,0.6l-0.1,0.5l-0.2,0l-0.6,0.1l-0.1,0.5l0.7,0.4l-0.5,0.6l-0.9-0.1
		l-0.1,0.3l0.8,0.5l0,0l0.4,0.6l-0.5,0.5l-0.4,0.3l-0.1,0.9l-0.4,0.3l-1.9,0.1l-0.7,0l-1.6,0.1l-2.1,0.1l-0.9,0.1l0.3-0.7l0.4-1
		l0.6-0.4l0.1-0.7l0.3-0.2l0.4-0.2l0.4-0.8l0.5-0.6l0-0.8l-0.1-0.4l-0.8-0.4l-0.2-0.6l-0.2-0.5l-0.7,0l-3.1,0.1l-0.9,0.1l-2.1,0.1
		l-0.2,0l-2.6,0.1l-1.2,0.1l-3.1,0.2h0l-0.5,0l-2.2,0.1l-0.3,0l-3.5,0.2l-1.5,0.1l-0.3,0l-2.2,0.1l-2,0.1l-0.4,0l-2.3,0.1l-0.7,0
		l-0.2,0l-3,0.1l-1.9,0.1l-0.2,0l-1.2,0l-1.8,0l-1.3,0l-1.9,0l-1,0l-1.3,0l-3.2,0.1l-2.9,0l0-1.6l0-0.8l0-1.4l0-3.3l0-0.8l0-1.5
		l0-2.5l0-0.4l0-0.7l-0.1-3.4l0-0.3v-0.1l0-4.3l0-0.7l0-0.3l0-2.5l0-2.1l0-1.3l0,0l0-1l0-2.7v0l0-1.5l0-1.9l0-0.9l0-1l0.2-0.6
		l-0.1,0l-0.2,0l-0.6-0.4l-0.7,0.2l-0.5-0.4l-0.1-0.1l-0.3-0.5l-0.3-0.4l-0.6-0.7l0.2-1l-0.6-0.1l-0.2-0.3l-0.2-0.3l-0.7-0.8
		l-0.4-0.5l-0.2-0.3l0.4-0.3l0.3-0.3l0-0.3l0.1-0.6l0.7-0.5l0-0.5l0.8,0l0.4-0.4l-0.1-0.3l-0.1-0.7l0-0.1l-0.5-0.7l-0.2-0.3l-0.4,0
		l-0.3,0l-0.7,0.5l-0.7-0.5l-1-0.7l-0.8-0.8l-0.4-0.4l-0.4,0l-0.3-0.6l0.2-0.5l-0.4-0.5l-0.5-0.7l0.1-0.7l-0.8-0.3l0-0.1l0,0
		l-0.1-0.4l-0.5-0.3l-0.6-0.2l0.1-0.6l-0.1-0.4l-0.4-0.9l-0.1-0.4l-0.2-0.4l0-0.1l-0.5,0L354.3,202.5"/>
	<path vector-effect="none" class="st0" d="M518.4,164.5l1.2-1l1.6-1.5l0.6-0.9l0.9-0.8l0.8-0.6l0.5-0.4l0-0.1l0.1-0.7l0.4-0.5
		l0-0.6l0.7-0.5l0.6-0.5l0.4-0.7l-0.1-0.2l-0.1-0.3l-0.3-0.5l-0.3-0.2l-0.1-0.7l-0.2-0.2l-0.4,0l-0.7-0.4l0-0.9l-0.2-0.1l0,0
		l-0.6-0.1l0-0.7l0-0.1l0.1-0.3l-0.3-0.9l-0.3-0.5l2.2-1.2l2.7-1.2l0.8-0.2l1.4-0.3l1.8-0.4l1.5-0.1l0,0l1.8,0l0.1,0l0.5-0.1
		l1.2,0.6l1.2,0.4l0.5-0.3l1.2-0.6l0.3-0.2l0.8-0.1l1.3-0.4l1.3-0.1l0.5-0.1l1-0.7l0.7-0.3l0.4-0.4l0.3-0.3l0.4-0.9l0.1-0.1l0.9-0.9
		l0.8-0.9l0.4-0.2l0,0l0.5,0.1l0.8-0.4l0.2-0.7l-0.1-1l-0.1-0.4l-0.3-1l-0.3-0.7l-0.8-0.6l-0.7-0.1l-0.8,0l0.2-0.6l1.2-0.9l-0.4-0.7
		l-0.7,0.1l0-0.6l-0.2-0.4l0.1-0.5l0.1-0.5l0.4-0.6l0.8-0.3l0.3-0.4l-0.1-0.6l0.6-0.4l0.8-0.9l0.5-0.1l0.7-1l0.2-0.3l0.1-0.7
		l0.3-0.7l1.5-2.4l1.1-1.6l0.7-0.9l0.6-0.9l1-0.8l0.7-0.6l0.5-0.5l0.1-0.3l0.8-0.3l0.6-0.6l0.9,0.1l0.2-0.1l0.8-0.3l0.3-0.1l1.7-0.3
		l2-0.4l2-0.5l1.5-0.4l2.3-0.6l2.8-0.8l0.1,0.6l0.2,0.7l-0.2,0.9l0.2,0.4l0.3,0.2l0.1,0.1l-0.1,0.8l0.1,0.7l0,1.2l0.4,0.7l0.1,0.1
		l0.2,0.2l0.5,0.4l0.4,0.9l-0.1,0.9l0,0.4l0.3,0.6l0.2,0.6l0,0.1l-0.2,0.5l-0.2,1l0,0.2l0,0.8l0,0.8l0.4,0.4l0.1,0.5l0.2,0.6
		l0.5,0.7l0,0.8l0.1,0.1l0.4,0.4l0,0.3l-0.1,0.8l-0.1,0.6l0.1,0.8l0.4,0.3l0.5-1l0.5,0.5l0.7,0.6l0.5,2.4l0.1,0.7l0.8,3.8l0,0.1
		l0.3,1.2l0.3,1.5l0,0.5l0.4,0.7l0,1.6l0,1.8l0,0l0,1.2l0,1.1l-0.1,3.9l0.3,0.4l0,0.1l0.6,3.1l0.4,2.2l0.1,0.4l0.3,1.6l0.2,1.2
		l0.2,0.9v0l0,0l0,0.1l0.2,1l1,1l-1.9,1.9l-0.3,0.3l1,1l0,0.2l0.1,0.2v0l-0.3,0.7l-0.5,0.5l0,0.5l0.3,0l0.3,0l0.6-0.3l0.3-0.4
		l1.1-0.6l0-0.1l0-0.3l0.5,0l0.4-0.4l0.7,0.2l1.1,0.1l0.1,0l0.7-0.5l0-0.4l0.3-0.3l0.7-0.1l1.8-0.5l1.5-0.5l1.2-0.6l0.7-0.8l0.5-0.7
		l0.5-0.4l0.3-0.5l0.6-0.4l0.9-0.8l0.1,0.2l-0.5,1.1l-0.1,0.7l0.8,0.2l0.5-0.3l0.1-0.9l0.5,0.1l0.1,0.7l0.6,0.3l0.8-0.9l0.4-0.2
		l0.7,0l-0.6,1.1l-1.5,1.1l-1.9,1.3l-0.9,0.8l-3.3,2.3l-1.5,1.1l-0.8,0.7l-1.3,0.8l-0.6,0.4l-1,0.4l-0.5,0l-0.7,0.4l-0.6,0.3
		l-0.2,0.1l-1.3,0.5l-1.1,0.2l-0.3,0l-0.5,0.3l-1.1,0.7l-0.4-0.2l-0.2-0.1l-0.5-0.1l0,0l-0.2-0.1l-0.4,0.8l-0.8,0.7l-0.6,0.3l0-0.6
		l0.3-0.3l0-0.5l-0.1-0.5l0,0l0.3-0.3l0.1,0l0.7-0.3l0.1-0.3l0-0.1l0.1-0.3v0l0-0.2l0-0.3l0-0.2l0-0.1l0-0.3l0.2-0.6l0.1-0.3l0-0.1
		l0-0.1l0.1-0.5l0-0.3l0-0.1l0-0.5l0-0.1l0-0.5l0-0.7l0,0l-1.7-0.5l-2-0.6l-0.3-0.1l0,0l-0.8-0.2l-0.8-0.3l-1.1-0.4l-2.8-0.9
		l-0.6-0.8l-0.2,0l-0.5,0l-1-0.1l-1.1-0.4l-0.9-0.9l-0.1-0.4l-0.1-0.5l-0.4-1.5l-0.4-0.6l-0.5-0.4l-0.4-0.1l-0.5-0.1l-0.8-0.1
		l-0.5-0.8l-0.6-0.5l-0.2,0l-1.2,0.2l-0.1,0l-0.7,0.2l-3.2,0.7l-2.4,0.5l-0.4,0.1l-3.2,0.7l-0.1,0l-0.9,0.2h0l-3.7,0.8l-0.4,0.1
		l-0.4,0.1l-6.1,1.2l-1.4,0.3l-0.8,0.2l-2,0.4l-1.8,0.3l-0.7,0.1l-0.4,0.1l-2.9,0.5l-3.3,0.6l-0.7,0.1l-0.8,0.1l-4.2,0.8l-1.4,0.2
		l-1.5,0.3l-0.3-1.8L518.4,164.5"/>
	<path vector-effect="none" class="st0" d="M599.9,161.4l0.9-0.5l0.2,0.5l-1.1,0.5L599.9,161.4"/>
	<path vector-effect="none" class="st0" d="M64.2,127.3l1.2-1.3l0,0l0.9-1.4l0.6-1.1l0.4-0.8l0.3-0.6l0-0.5l0.6-0.4l1-1.1l1-1.5
		l0.4-0.7l0.6-1.2l1-2l0.3-0.6l1.1-2.5l0.6-1.7l0.1-0.6l0-0.1l0.8-1.6l0.4-1.1l0.7-1.7l0.3-0.9l0.3-1.3l0.3-0.5l0.8-1.4l0.5-1.2l0,0
		l0.7-1.2l0.3-0.9l0.4-0.8l0.1-1l0.5-1.1l0.1-0.8l0.6-0.9l0.5-1.3l0.2-0.6l-0.1-0.7l0.1-0.3l0.3-0.7l0.2-1l-0.1-0.6L83,87l0.3-0.8
		l0.1-1.4l-0.5-1l0.6-0.4l0.6,1l0.7,0l0.8,0l0.3,0.4l0.6-0.2l0.7,0l0.5-0.3l0.7,0.1l0.3,0.7l-0.2,0.6l0.4,0.6l0.1,0l0.8,0.2l0.7-0.2
		l0.5-0.1l0.5,0.2l0.8,1l0.3,0.5l0.5,0.4l0.2,1.1l0.2,0.8L93.3,91l0.1,0.7l-0.1,0.2L93,92.4l0.1,0.8L93,93.6l-0.3,0.6l0.1,0.3
		l0.1,0.3l0.8,0.7l1.3,0.8l0.4,0.4l0.6,0l0.4,0.5l0.6,0.2l0.1,0l0.7-0.2l0.8,0.1l1.1-0.2l0.6-0.3l0.3-0.1l0.2,0l0.4-0.3l0.6,0
		l0.7,0.4l0.7,0l1.4,0.1l0.1,0.1l0.7,0.6l0.1,0.1l0.9,0.1l1,0.8l0.1,1l0.6,0l0.5-0.3l1.4,0.2l0.3,0.2l0.2,0.1l0.5-0.3l1.7-0.2
		L113,99l0.2-0.1l0.4,0.1l0.6,0.8l0.2,0l0.8,0.2l1.2,0l0.7,0.1l0.8-0.5l0.7,0l0.8-0.2l0.4-0.1l1,0.1l0.7,0l1.3,0.2l0.9-0.7l0.3,0
		l0.7,0.5l0.6,0l0.7,0l1.1,0l1.2,0.4l0.7-0.2l0.8-0.4l0,0l2.9,0.7l0.7,0.2l2.3,0.6l3.5,0.8l0.2,0l2.5,0.6l1.1,0.3l1.2,0.3l1.2,0.3
		l4.2,1l0.2,0.6l0.1,0.8l0.4,0.9l0.1,0.2l0.4,0.3l0.5,0.8l0.7,0.2l0.4,0.7l-0.1,0.7l0.4,1l-0.5,0.6l-1.2,1.5l-1.2,1.6l-0.3,0.6
		l-0.1,0.2l-1,1.8l-0.4,0.4l0,0l-0.7,0.5l-0.3,0.7l0.1,0.7l-0.5,0.7L146,120l-0.6,0.6l-0.9,0.2l-0.6,0.3l-0.5,1l-0.8,1.2l-0.3,0.4
		l-0.7,0.5l-0.1,0.7l-0.4,0.4l0.2,0.5l0.1,0.5l-0.3,0.4l-0.1,0.1l0.4,0.5l0.5-0.1l0.5,0.7l0.8,0.2l-0.1,0.6l0.6,0.3l0,0.4l0,0
		l-1,0.7l0.2,0.9l-0.4,0.6l-0.4,1.2l-0.1,0.2l-0.6,0.7l-0.5,2l-0.3,1.2l-1.8,7.8l-0.7,3l-1.3,5.9l-1.2,5.2l-1.7-0.4l-2.1-0.5
		l-2.2-0.5l-2.5-0.6l-3.3-0.8l0,0l-3.1-0.7l-2.8-0.6L116,154l-2.1-0.5l-1.2-0.3l-0.4-0.1l-3.7-1l-2.7-0.7l-1.8-0.5l-3.2-0.8
		l-1.9-0.5l-1.9-0.5l-1.6-0.4l-2.1-0.6l-1.9-0.5l-0.1,0l-2.3-0.7l-1.7-0.5l-2.5-0.7l-1.9-0.6l0,0l-2.1-0.6l-3-0.8l-2.4-0.7l-1-0.4
		l-0.9-0.2l-1.2-0.3l-0.9-0.3l-0.8-0.2l-1.4-0.4l-1.6-0.5l-1.8-0.5l-2.1-0.7l-0.4-0.8l-0.3-0.4l-0.1-0.9l0.1-0.7l0-0.7l-0.2-0.4
		l0.2-0.8l0-0.6l0.3-1.2l0.8-1.2l0.2-0.8l0.1-0.8l-0.3-0.4l0.1-0.2l-0.4-0.8L64.2,127.3"/>
	<path vector-effect="none" class="st0" d="M416.7,278.9l0.4-0.2l0.8-0.2l0.1-0.6l0.2-0.5l0.8,0.1l-0.1-0.6l0-0.5l-0.1-0.7l-0.8-0.3
		l0.5-0.5l0.3-0.9l-0.3-0.6l0.5-0.2l0.3,0.1l0.2-0.6l-0.3-0.5l0-0.8l0.9,0.1l0.1-0.3l0.1-0.7l0.6-0.3l-0.3-0.3l-0.7-0.6l0.4-0.9
		l0.6,0.1l0.7-0.5l0.8-0.4l-0.1-0.5l0.1-0.4l0.8-0.4l0-0.1l-0.1-0.2l-0.4-0.3l-0.6-0.7l0.4-0.3l0.1-0.9l0.4-0.3l0.5-0.5l-0.4-0.6
		l0,0l-0.8-0.5l0.1-0.3l0.9,0.1l0.5-0.6l-0.7-0.4l0.1-0.5l0.6-0.1l0.2,0l0.1-0.5l-0.4-0.6l0.2-0.6l-0.2-0.5l1.4-0.1l0.8-0.1l1.5-0.2
		l2.8-0.2l1.4-0.1l0.1,0l0.1,0l3.3-0.3l0,0l0.3,0l4-0.3l0.8-0.1l0,0l0.1-0.7l-0.3-1.1l-0.2-0.7l0.7,0l1.8,0l0,0.4l1.8-0.2l0.6-0.1
		l0,0l3.3-0.3l0.1,0l2.4-0.3l0.6-0.1l2.7-0.3l0.5-0.1l1.7-0.2l0.5,0.1l0.1,0l0.5-0.3l1.1,0l2.3-0.1l1.4-0.1l1.2-0.1l1.1,0l0.9-0.1
		l0.6-0.1l2.7-0.2l0.6-0.1l1.5-0.3l0.1,0l0.2,0l2-0.2l1.4,0l0.3,0l1.8-0.1l0,0l0.1,0l3.1-0.3l2.6-0.3l0.4,0l0,0l2.7-0.3h0l0.6-0.1
		l0.4,0l2.3-0.2l0.1-0.3l2.3-0.3l2.2-0.3l3.2-0.4l1.7-0.2l2.4-0.4l1.3-0.2l2.1-0.3l0.6-0.1l0.8-0.1l0.3,0l2.3-0.3l0.1-0.3l1.1-0.1
		l2-0.3l-0.3,0.4l-0.1,0.8l0.2,1l-0.3,0.8l0.1,0.3l0.3,0.7l-0.7,0.1l-0.7,0l-0.7,0.8l-0.1,0.2l-0.1,0.3l-0.2,0.6l-0.5,1.6l-0.5,0.3
		l0,0l-0.5,0.1l-0.2-0.4l-0.8-0.2l-0.1,0.1l-0.4,0.4l-0.4,0l-0.5,0.3l-0.6,0.5l-0.1,0.2l-0.4,1l-0.4,0.4l-0.5,0.5l-0.6-0.2l0.1-0.7
		l-0.1-0.1l-0.3-0.3l-1,0.8l-0.6,0.4l0,0.6l-0.3,0.4l-0.5-0.3l-0.3,0.2l-0.2,0.1l0.2,0.7l-0.3,0.7l-0.3,0.5l-0.1,0.2l-0.8,0
		l-0.5,0.2l-0.7,0.3l-0.3,0.6l-0.6,0.2l0,0l-0.1,0.2l-0.3,0.7l-0.6,0l-0.7,0.8l-0.3,0.2l-0.4,0.6l-1,0.1l-0.7,0.1l-0.1,0l-1.2,0.2
		l-0.8,0.7l-0.7,0.7l-0.4,0.2l-0.1,0l-0.2,0.1l-0.5,0.7l0.2,0.5l-0.3,0.4l0.3,0.7l-0.1,0.1l-0.7,0.7l-0.9,0.2l-0.6-0.3l-0.6,0.7v0.3
		l0,3.1l-2.1,0.3l-1.3,0.1l-1.2,0.1l-0.5,0.1l-0.4,0l-0.6,0.1l-1.3,0.2l0,0l-0.7,0.1l-2.5,0.3l-0.1,0l-1,0.1l-0.2,0l-1,0.1L470,275
		l-2.9,0.3l-5.1,0.5l-0.1,0l-1.7,0.2l-3.6,0.3l0,0l-0.6,0l-4.3,0.3l-0.1,0l-0.1,0l-4.3,0.3l-0.2,0l-2.6,0.2l-1.5,0.1l-0.2,0
		l-2.3,0.2l0,0.2l-0.7,0.1l-1.2,0.1l-0.2,0l-1,0.1l-3.6,0.3l-0.4,0l-2.2,0.2l-0.1,0l-2,0.1l-1.8,0.1l-0.9,0.1l-2.4,0.2l-0.9,0.1
		l-0.4,0l-0.4,0l-5.8,0.3L416.7,278.9"/>
	<path vector-effect="none" class="st0" d="M226.2,317.6l0-0.8l0.2-0.4l2.8,0.3l2.1,0.2l2.4,0.3l2.9,0.3l7,0.7l2.8,0.3l0.8,0.1
		l2.4,0.2l7.3,0.6l0.5,0l3,0.2l4.7,0.4l3.1,0.2l0.1-1.2l0.1-0.8l0.4-5.3l0.1-0.9l0.3-3.7l0.1-1.5l0.3-3.6l0.2-2.4l0.2-2.5l0,0
		l0.3-3.6l0,0l0.3-3.6l0-0.5l0.2-2.7l0-0.1l0.1-0.9l0.3-3.4l0.1-1.8l0.2-2.9l0.2-2.7l0-0.5l0.5-6.2l0,0l0.1-1.6l0.3-4.4l0.5-6.3
		l0.4,0l9.4,0.7l1.4,0.1l2.3,0.2l2.3,0.1l6,0.3l1.5,0.1l0.8,0l3.3,0.2l0.5,0l2.6,0.1l3.4,0.2h0l-0.3,6.3l-0.1,2.5l-0.2,3.7l-0.1,2.8
		l-0.1,3.4l-0.1,2.1l-0.2,4l-0.1,2.6l0,0l0.8-0.2l1,1l0.3,0.3l0.6,0.8l0.8,0.8l1.1,0.1l0.2-0.5l1.3,0.2l0,0l0.6,0.2l0.3-0.9l0.5,0.1
		l0.8,0.7l0.6,0.9l0.1,0.2l0.2,1.4l0.7,0.1l0.8,0.1l0.6-0.1l0.6,0.1l0.1,0l0.8,0.6l0.8,0.1l0.8,0.4l0.5,0l0.5-0.4l0.4,0.1l0.4,0.1
		l0.5,0.8l0.6,0.4l0.6-0.2l0.1,0l0.2-0.6l0.4-0.4l0.5,0.2l1.1,0.3l0.6,0.2l0.4-0.4l0.2-0.2l0.3,0.7l0,0.8l0.2,0.7l0.9,0.1l0.7,0.1
		l-0.1,0.9l0,0.5l0,0.2l1,0.4l0.7-0.4l0.5-0.6l1-0.9l0.7,0.3l0.1,0.6l0.4,0.3l0,0l0.8-0.3l0,0l0.4,0.6l0.1,0.7l0.8,0.1l0.6-0.6
		l0.8-0.5l0.5-0.2l0.4,0.9l-0.5,0.5l0.6,1.2l0.7-0.2l0-0.5l0.1-0.5l0.3-0.6l0.8-0.4l0-0.4l0.4-0.4l0.1,0l0.1,0l0.3,0l0.1,0.6
		l0.5,0.8l0.7-0.3l0.2,0.4l0.7,0.2l0.4-0.6l0.3-0.6l0.8,0.5l0.1,0l0,0.7l0.2,0.2l0.6,0l0.2,0.6l0.8-0.1l0.4,0.5l0.3,0.4l0.2,0.3
		l0.7-0.6l0.3-0.5l0.6,0.3l0.7-0.7l0.2-0.4l1-0.1l1.5-0.5l0.6,0.2l0.5,0l0.3,0l0.4-0.2l0.6-0.3l0.8-0.1l0.8-0.3h0.5l0.4,0.6l0.9,0.2
		l1.1,0l0.5-0.1l0.3-0.1l0.3-0.7l0.3-0.5l0.8,0.3l0.1,0l0.6,0.4l0.6,0.6l0.8,0.1l0.5,0.6l0.4,0.5l0.7,0.5l0.9-0.1l0.4,0.4l0.2,0.2
		l1,0.5l0.7,0l0.5,0.7l0.5-0.2l0.8,0.8l0.4,0.2l0.4,0.1l0.2-0.2l0.4,0l0.8-0.2l0.3,0.1l0.3-0.3l0.5,0.2l0.8,0.1l0.3,0.3l0,0l0,1.6
		l0,1.5l0,0.8l0,1.6l0,2l0,1.9l0,1.2l0,1.5l0,1.8l0.1,2.4l0,0.4l0.1,2.4l0,0.8l0.1,2l0.2,0.2l0.6,0.7l0.8,0.4l0.4,0.7l0.3,0.5
		l0.6,1.5l-0.1,1.1l-0.2,0.5l0,0l0.6,0.8l0.7,0.3l-0.3,0.5l0.6,0.5l0.4,0.7l-0.1,1l0.7,0.6l0.2,1.1l0,0l0.6,0l0.2,0l0,0.8l0.1,1.1
		l-0.1,0.6l-0.1,0.6l0.2,0.6l-0.3,0.7l0,0.1l-0.1,0.9l-0.6,0.9l-0.1,0.8l-0.6,0.8l0,0.5l-0.5,0.7l0.2,0.5l0.1,1.1l-0.4,0.4l-0.1,0.1
		l-0.2,0.9l0.7,0.7l0,0.4l0,0.3l0.1,0.7l0,0.9v0.8l0,0l-0.4,0.4l-0.8,1l-0.3,0.8l-0.3,0.3l-0.2,0.3l-0.7,0.7l0.5,0.6l0.3,0.5
		l0.3,0.5l-0.3,0.2l-1.2,0l-1.1,0.2l-1.3,0.5l-2.3,1.1l-0.2,0.1l-1.6,0.7l-1.1,0.5l-0.9,0.5l-0.7,0.9l0.1,0.5l-1,0.7l-2.7,1.9
		l-1.1,1l-0.1,0.1l-0.8,0.6l-1.3,1.3l-1,0.9l-0.7,0.1l-0.8,0.5l-1,0.6l-1.2,0.7l-1.6,1l-2.3,1.1l-2.4,1.2l-1.7,1.1l-0.6,0.5
		l-0.1,0.1l-0.7,0.9l-2.3,1.3l-1.1,0.8l-0.9,0.7l-0.8,0.7l-0.4,0.4l-1.5,1.7l-0.5,1l0,0l-0.6,0.7l-0.6,1l-0.9,1.7l-0.1,0.3l-0.4,0.9
		l-0.5,1.2l-0.5,1.5l-0.1,0.5l-0.2,0.6l-0.3,2.4l0.1,2.4l0.5,2.6l0.4,1.4l0.4,1.3l0.3,1.3l0.4,1.5l0.4,3.1l0.1,0.9l0.1,0.6l-0.1,0.3
		l-0.6-0.2l-0.9,0.3l-0.8,0.2l-0.4,0.3l0.1,0.5l-0.2,0.4l-0.6,0l-0.4-0.5l-0.5,0l-0.6-0.6l-0.5-0.3l-0.8-1l-0.7-0.2l-0.8-0.1
		L329,406l-0.9,0l-0.1,0l-0.9,0l-0.8-0.1l-0.4,0.3l-0.7-0.3l-0.7,0l-0.6,0l-0.1,0l-0.6-0.2l-0.7-0.5l-0.1,0l-1-0.6l-0.7-0.6
		l-0.8-0.2l-0.9-0.3l-0.2-0.1l-0.3-0.1l-0.5,0.2l-0.6-0.4l-1-0.9l-0.3-0.6l-1.1,0.1l-0.8-0.5l-0.9-0.3l-0.6,0.2l-0.4-0.4l0.3-0.7
		l-0.2-0.3l-0.8-0.7l-0.1-0.3l-0.3-1.2l-0.1-1l-0.4-0.9l-0.3-0.8l-0.7-0.5l-0.4-0.7l-0.3-0.8l-0.7-0.6l0.1-1.1l0.2-0.7l-0.2-0.9
		l-0.2-0.5l0-0.1l-0.3-0.4l-0.5-0.2l0.6-1.5l-0.1-0.5l0-0.7l-0.4,0l0-1.1l-0.3-0.5l-0.8-0.3l-1-0.3l-0.6-0.9l-0.5-0.4l-0.5-0.5
		l-0.4-0.6l-0.3-0.7l-0.1-0.6l-0.2-0.7l-0.6-0.3l-0.5-1.2l-0.5-0.7l-1.2-0.8l-0.3-0.3l-0.8-0.8l-0.2-0.7l-0.4-0.9l-0.2-0.9l-0.4-0.7
		l-0.2-0.5l-0.1-0.8l-0.6-0.6l-0.6-0.7l0-0.8l-0.3-0.7l0-0.6l-0.5-0.4l-0.6-1l-0.2-0.8l-0.1-1l-0.1-0.7l0-0.2l-0.6-0.4l-0.5-0.6
		l-0.2-0.8l-0.1-0.1l-0.5-0.6l-0.4-0.5l-1.3-0.8l-0.7-1.4l-0.9-0.3l-0.6-0.7l-0.8,0l-0.6-0.8l0-0.9l-0.7-0.4l-0.3-1.1l-0.6-0.3
		l-0.6-0.1l-0.7-0.5l-1.2,0.3l-0.7-0.1l-0.6-0.2l-0.6-0.2l-0.8-0.1l-1.1-0.3l-0.7,0L278,352l-0.5-0.1l-0.5-0.4l-0.8-0.4l-0.9-0.5
		l-0.2,0.1l-0.4,0.1l-0.3,0.6l-0.3,0.7l-0.9-0.3l-0.5,0l-0.5,0.4l-0.8,0l-0.8,0.1l-0.3,0.8l-0.6,0.7l-0.5,0.9l-0.4,0.4l-0.3,1.1
		l0,0.6l-0.6,0.6l-0.3,0.9l0.2,0.7l-0.6,0.7l-1,0.3l-0.5,0.8l-0.5,0.2l-0.4,0.8l-0.4,0.6l-1.2-0.2l-0.7,0.1l-1-0.6l-1.2-0.8
		l-0.7-0.8l-0.8-0.5l-0.8-0.4l-0.8-0.3l-0.7-1l-0.1,0l-0.7-0.4l-1.4-0.3l-0.9-0.6l-1-0.8l-0.4-0.6l-0.5-0.8l-0.9-0.7l-0.7-0.3
		l-0.9-0.9l-1-1.1l-0.2-1.3l-0.6-1.1l-0.6-1l-0.1-1.1l-0.2-0.5l0.3-1.1l0-1.5l-0.4-0.7l-0.2-0.6l-0.7-1L245,341l0-1l-0.1-1.1l-0.3-1
		l-0.6-0.1l-0.1-0.3l-0.2-0.6l-0.7-0.3l-0.4-0.5l-0.7-0.6l-0.6-0.7l-1.1-0.3l-0.9-0.6l0-0.5l-1-0.9l-0.8-0.7l-0.2-0.7l-0.5-0.9
		l-0.9-0.6l-0.7-0.5l-0.2-0.5l-0.8-1.3l-0.8-0.5l-0.1-0.7l-0.5-0.4l-0.1-0.1l-0.9-0.2l-1-0.9l-0.6-0.9l-0.4-0.7l-0.2-0.8l-0.5-1
		l-0.2-0.4l-0.5-0.6l-0.6-0.2l-0.2,0.1l-0.5-0.5l-0.6-0.5l-0.5-0.9L226.2,317.6"/>
</g>
<g transform="matrix(0.999751,0,0,0.999751,-54.8748,-49.3873)">
	<path vector-effect="none" class="st1" d="M489.5,249.3l0.9-0.6l0.7-0.1l0.3,0l0.5-0.4l1.6-0.8l1.1-0.4l0.1-0.8l0.3-0.8l0.7,0
		l1.2-0.7l0.1-0.2l0.2-0.4l-0.1-0.7l0.5-0.5l0.7-0.3l0.2-0.5l-0.1-0.7l1.6-1.4l0.1-0.1l0,0l1.1-0.8l1-0.4l0.4-0.5l0-0.1l1-1.2
		l2.2-2.6l0.4,0.3l-0.5,0.9l0.6,0.4l0.1,0.4l0.5,0.7l0.6,0.6l0.8,0l0.4,0.4l0.1,0l0.7,0.4l1.3-0.3l0.3-0.3l0.5-0.5l0.6-0.4l0.6-1
		l1.7,1.2l1.1-0.8l1.2-0.5l0.2,0l0.7-0.2l0.9-0.5l-0.6-0.6l0.1-0.5l0.1,0l0,0l0.2-0.1l0.8,0.6l1.1-0.8l1.2-1.1l0.9,0.5l0.1,0
		l0.6-0.6l1-1.2l0-0.7l0.6-0.6l0,0l-0.9-0.7l0,0l0.3-0.5l0.3-0.9l0.1-0.7l0.6-1l0.7-1l0.2-0.3l0.5-1.2l0.1-0.3l0.1-0.7l0.1-1.1
		l0.6-0.8l0.5-0.6l0.1-0.1l-0.3-0.5l0.6-0.7l0.3-1.1l-0.1-0.4l0.1-0.7l0-1.2l1.2,0.3l0.9,1.2l1.2,0.2l0.7,0l0.1,0l0.6-0.9l0-0.1
		l0.2-0.7l0.3-1.2l0.5-0.9l0-0.4l0.1-1.1l0.3-0.6l0.2-0.6l1.6,0.8l0.3-1l0.4-1l0.9-0.6l0.5-0.9l0.6-0.5l0.2-0.7l0.2-0.5l0.8-1.2
		l-0.2-0.4l0.1-0.8l-0.1-0.5l0.4-1.2l-0.1-0.8l-0.3-0.8l1.4,0.8l0.5,0.3l1.9,1.1l0,0l0,0l2.5,1.4l0,0l0.1-0.5l0.2-0.9l0.4-1.4l0.5,0
		l0.1,0l0.9,0l0.4,0.2l0.7,0.3l0.5,0.4h0l-0.2,0.5l-0.3,0.4l0.1,0.6l0.4,0.1l0.3,0.4l1.1,0l0.3,0l0.2,0l0.7,0.2l0,0l0.1,0.6l0.5,0.1
		l0.6-0.1l0.4,0.4l0.4,0.4l0.6,0.4l0.1,0.4l0.1,0.7l0,0.1l0.1,0.5l0,0.1l0,0.4l-0.3,0.1l-0.1,0.1l-0.4,0.5l0.1,0.5l-1,0.2l-0.2,0
		l-0.3,1.1l0,0.2l0,0.7l0,0.5l0.3,1.1l0.4,0.4l0.3,0.2l1.1-0.4l0.7-0.2l0.5-0.2l0.4,0.4l0,0.4l0.4,0.3l0.1,0.1l0.4,0.4l0,0.4
		l0.6,0.1l0.9,0.3l1-0.2l0.7-0.1l0.8,0l0.2,0.5l0.8,0.4l0.4,0.4l0.3,0.3l0.8,0.4l1.3,0.3l1,0.5l0,0.8l-0.5,0.7l0.2,1l0,0.5l0,0.2
		l0.7,0.6l0,0.4l0,0.4l0.2,0.3l0.3,0.5l0.5,1l0.2,0.6l-0.1,1l-1.2-0.7l-0.4-0.2l-0.1,0.1l-0.3,0.3l0.7,0.9l0.4,0.5l-0.1,0.3
		l-0.1,0.4l0.6,0.4l0.1,0l0.5,0.6l0.3,0.3l0.3,0.4l0,0.5l-0.1,0.8l0.1,0.1l0.2,0.2l0.2,0.2l0.9,0.3l0.2,0l1,0.1l0.4-0.4l0.5,0
		l0.7,1.6l0.8,1.4l0.5,0.8l0.5,1l-1.7,0.4l-1,0.2l-2.1,0.4l0,0l-1.9,0.4l-0.5,0.1l-2.1,0.4l-1.9,0.5h0l0,0l-2.7,0.5l-0.3,0.1
		l-1.2,0.2l-4.9,1l-0.2,0l-1.5,0.3l-1.6,0.3l-1,0.2l-2.1,0.4l-1.5,0.3l-0.6,0.1l-2.5,0.4l-0.7,0.1l-1.6,0.3l-2.2,0.4l-0.9,0.2
		l-1.4,0.2l-1.4,0.3l-0.4,0.1l0,0l-2.2,0.4l-1.9,0.3l-1.5,0.2l0,0l-0.3,0l-2.7,0.4l-1.5,0.2l-0.1,0l-1.9,0.2l-1,0.1l-1.5,0.2
		l-0.7,0.1h0l-1.8,0.2l-1.3,0.1l-2,0.2l-1.6,0.2l-2,0.2l0.3-0.4l-2,0.3l-1.1,0.1l-0.1,0.3l-2.3,0.3l-0.3,0l-0.8,0.1l-0.6,0.1
		l-2.1,0.3l-1.3,0.2l-2.4,0.4l-1.7,0.2l-3.2,0.4l-2.2,0.3l-2.3,0.3L489.5,249.3"/>
	<path vector-effect="none" class="st1" d="M570.9,225.9l0.2-1.2l-0.1-1.1l0-1.5l0-0.2l0.2-1.1l0.2-1l0.4-0.8l-0.2-0.6l0.8-0.5
		l0.3-0.5l-0.8-0.6l0.8-0.9l0.4-0.7l4-1.3l-0.6,2l-0.3,0.7l-0.7-0.1l-0.4,0.6l-0.4,1.3l-0.2,1.3l-0.1,0.8l0.2,0.7l-0.5,1.2l0.1,0.2
		l0.1,0.2l-0.4,1.2l0,0.6l-0.3,0.6l0,0.7l-0.1,0.8l-0.6,1.2l-0.4,0.5l-0.4-0.1l-0.5-1.2L570.9,225.9"/>
	<path vector-effect="none" class="st1" d="M382.4,131l0.1-1l0.3-0.2l0.1-0.1l0.5-0.8l0.1-0.6l0.4-0.7l0.6-0.6l0.7-0.3l0.3-0.3
		l0.7-0.1l0.2-0.4l0.5-0.3l0.4,0l0.1-0.5l0.4-0.3l0-1.2l0-1.2l-0.1-2.4l0-1.1l-0.1-2.3l0.8-0.1l0.2-0.4l0.4-0.5l0.4-0.1l0.5,0.3
		l0.3,0l0.5,0.3l0.7-0.1l0.6,0l1.7-0.7l0.7-0.3l0.2,0l0.4,0l0.9-0.5l0.5-0.1l0.4-0.4l0.5-0.2l0.4-0.4l0.4,0.3l0.3-0.4l0.4-0.2
		l0.5-0.4l0.5-0.3l-0.1-0.8l0.6-0.3l0.7,0.5l0.5,0.3l0.6,0.6l-0.5,1l-0.6,0.8l-0.2,0.4l0.3,0.5l-0.6,0.6l-0.1,0.6l-0.2,0.4l0.3,0.1
		l0.3,0l0.6-0.5l0.3-0.1l0.4-0.3l0.1-0.6l0.8,0.6l1,0.8l0.2,0l0.4-0.1l0.7,0.4l0.2-0.1l0.3,0.4l0.5-0.3l0.5,0.5l0.7,0.2l0.6,1.1
		l0.4,1.1l1.9,0.4l2.9,0.6l5.4,1.1l1,0.5l0.6,0.3l1.2,0.6l0.7-0.1l0.6,0.1l0,0l0.2,0.3l0.4-0.1l0.2-0.4l0.6-0.1l1.2,0.5l0.3-0.2
		l0.7,0.4l0.6-0.1l0.7,0.2l0.6,0.3l0,0l0.5,0.6l-0.5,0.8l0.3,0.3l0.5,0.2l0.1,0l0.5-0.2l0.3,0.4l0.9,0.1l0.5,0.4l0.3,0.2l0.3,0.4
		l-0.4,0.3l0.5,0.6l-0.1,0.5l-0.1,0.7l0,0.7l-0.4,0.4l0,0.7l0,0.6l0.6-0.1l0.5-0.1l0.4-0.4l0.5,0.2l0,0.7l-0.3,1l-0.2,0.7l0.5,0.6
		l0.5,0.6l0.6,0.1l-0.3,0.7l0,1l-0.7,0.1l-0.6,0.2l-0.5,0.2l-0.3,0.4l0.1,0.7l-0.1,0.2l-0.4,0.6l-0.3,0.9l-0.4,0.5l-0.1,0.6l0,0.2
		l0.1,0.8l-0.4,0.5l0.4,0.4l0.6,0.1l0.4-0.7l0.3-0.5l0.9-0.5l0.1-0.2l0.1-0.2l0.1-0.1l0.2-0.2l-0.1-0.4l0.7-1.1l0.6-0.8l0.5-0.1
		l0.1-0.2l0.7-0.3l0.5-0.7l0.5-1.2l0.6-1l0.2-1.2l0.6-0.1l0.5-0.6l0.1-0.7l0.5-0.5l0.4-0.1l0.4,0.1l0.1,0.9l-0.6,0.6l0.1,0.7
		l-0.1,0.8l-0.7,1l-0.4,0.9L439,138l-0.6,0.8l-0.3,0.9l-0.4,1.4l-0.2,0.6l-0.4,0.7l-0.4,1.8l-0.3,1.9l0,0.1l0.3,0.8l0.2,0.7
		l-0.3,0.7l-0.6,0.4l-0.5,0.7l-0.3,1.7l-0.2,1.1l-0.1,0.3l0.2,0.9l0.3,0.6l0,0.6l0.1,0.6l-0.7,1.7l0,0.3l0,0.7l-0.4,1l-0.3,1.6
		l0.1,1.6l0,0.1l0,0.9l0.4,0.8l-0.2,0.7l0.6,1l0.2,1.2l0.1,0.1l0.1,0.1l0.6,0.8l-0.1,1.2l-0.1,0.5l-0.1,0.4l0.1,0.9l0.2,1.2l-1,0.1
		l-3.1,0.2l-0.2,0l-0.9,0.1l-2.1,0.2l-2.1,0.2l0,0l-0.7,0l-1.7,0.1l-0.5,0l-0.5,0l-3.3,0.2l-0.4,0l-0.9,0.1l-3.5,0.2l-0.9,0h0
		l-3,0.2l-2.1,0.1l-0.1,0l-2.1,0.1l-0.4-0.9l-0.3-0.7l-0.5-0.2l-1.1-0.2l-0.5-0.1l-0.5-0.1l-0.8-0.5l-0.6-0.8l-0.4-1.2l-0.4-0.5
		l-0.2-1l0-0.2l-0.2-0.7l0-0.6l0-0.8l0.4-0.6l0.4-0.7l0.3-0.5l-0.5-0.8l-0.5-0.3l-0.6-0.5l0.1-0.4l-0.1-0.2l-0.2-0.4l0.1-0.7
		l-0.2-0.9l-0.2-0.5l-0.2-0.9l0.1-0.8l0.1-0.7l-0.5-1l0-0.1l-0.7-0.9l-0.7-0.9l-0.2-0.2l-1.2-0.3l-0.1,0l-0.8-0.5l-0.8-0.9l-1-0.5
		l-0.4-0.4l-0.4-0.5l-0.3-1.2l-0.5-0.6l-1.2-0.5l-0.3-0.1l-1.2-0.4l-0.1-0.1l-0.5-0.4l-0.3-0.7l0,0l-0.5-0.3l-0.4,0l-1.5-0.2
		l-0.7-0.5l-0.8-1l-0.4-0.3l-0.6-0.6l-0.1-0.1l0.3-1.2l0-0.1v0l0.1-1.1l-0.1-1.1l-0.4-0.6l0.6-0.7l0-0.1l-0.3-1l0-0.2l0-1l0.1-0.2
		l0.5-0.6l0.4-0.8l0.1-0.6l-0.4-0.5l-0.4-0.7l-0.3-0.4l-0.4-0.1l-0.8-0.1L382.4,131L382.4,131"/>
	<path vector-effect="none" class="st1" d="M402,110.8l0.3-0.2l0.8-0.3l0.9,0.2l0.2,0.3l0.4,0.8l-0.1,0.4l-0.2,0.3l-0.8,0.2
		l-0.4-0.7l-0.3-0.4l-0.5-0.2L402,110.8"/>
	<path vector-effect="none" class="st1" d="M440.9,130.3l0.9-0.5l0.3,0.5l-0.5,0.9l-0.2,0.8l-0.6-0.7L440.9,130.3"/>
</g>
<g transform="matrix(0.999751,0,0,0.999751,-54.8748,-49.3873)">
	<path vector-effect="none" class="st2" d="M440.9,321.4l0-0.5l0-1.7l0.1-2.5l0-0.3l0-0.8l0.1-3.8l0-1.9l0.1-3.1l0-0.9l0-2.7l0-1.5
		l0.1-3.5l0-2.3l0-0.7l0.1-4.4l0-0.4l0.1-3.3l0-2l0-1.7l0-0.6l0.1-3.8l-0.7-0.4l-0.6-1l0-0.2l2.3-0.2l0.2,0l1.5-0.1l2.6-0.2l0.2,0
		l4.3-0.3l0.1,0l0.1,0l4.3-0.3l0.6,0l0,0l3.6-0.3l1.7-0.2l0.1,0l5.1-0.5l2.9-0.3l0.2,0.8l0.2,0.9l0.4,1.5l0.5,1.7l0.1,0.5l0.3,0.9
		l0.2,0.7l0.5,1.8l0.2,0.8l0.6,2.2l0.2,0.6l0.4,1.6l0,0l0.2,0.9l0.5,1.8l0.4,1.6l0.5,1.7l0.2,0.6l0.2,0.8l1.1,4.1l0.1,0.3l0,0
		l0.9,3.3l0,0.1l0.3,0.4l0.5,1l0.2,0.3l0.4,1l0.2,0.7l0.1,0.3l0.8,0.7l0.1,0.2l0,0l0.4,0.9l0,0.9l0,0.2l-0.2,0.4l0.7,0.4l0.8,0.5
		l-0.3,0.5l-0.1,0.2l-0.7,0.6l-0.6,0.8l0.2,0.7l0,0.4l0,1l0,0.3l-0.4,1.1l-0.2,0.8l0.2,0.8l0.1,0.2l0.1,0.4l0,0.5l0.9,0.9l0.1,0.7
		l0.2,0.3l-0.1,0.4l-0.2,0.7l0.1,0.5l-0.2,1l0.1,0.6l0,0.2l0,0.2l-0.2,0.5l0.1,1l1,1l0.2,0.4l0.1,0.3l0.2,0.7l-0.3,0l-1.4,0.2
		l-2.2,0.3l-1.8,0.2l-0.1,0l-1,0.1l-2,0.2l-1.7,0.2l-1.7,0.2l-1.8,0.2l-2.1,0.2l-0.3,0l-2.1,0.2l-1.5,0.1l-1.2,0.1l-0.5,0l-1.1,0.1
		l-2.8,0.2h0l-1.8,0.2l-1.4,0.1l-1.1,0.1l-0.9,0.1h0l0.1,0.6l-0.4,1.2l1.2,1.3l0.3,0.4l1,0.5l0.5,0.4l0.1,0.7l-0.3,0.8l-0.1,0.6
		l0.4,0.7l0.6,0.2l-0.7,0.5l-0.2,0.8l-0.7,1l-1.6,0.6l-1.9,0.5l-0.9-0.1l1-0.7l0.1-0.6l-0.9-0.8l-0.7-0.8l-0.3-0.6l0.3-0.9l-0.2-0.5
		l-0.3-0.9l-1-0.4l-0.6,0.6l0,0.8l-0.2,0.6l-0.2,0.7l0.1,1.4l-0.3,1.2L446,343l-0.7,0.1l-0.7-0.6l-0.7-0.2l-0.3,0.3l-0.3-2.4
		l-0.3-2.6l0-0.1l-0.5-3.6l-0.2-1.6l-0.5-4.3l0-0.2l-0.3-2.6l-0.1-1.1l-0.2-1.3L440.9,321.4"/>
</g>
<g transform="matrix(0.999751,0,0,0.999751,-54.8748,-49.3873)">
	<path vector-effect="none" class="st0" d="M132.5,293.3l0-0.3l0.6-0.3l0.7-0.9l0.2-0.3l0.4,0.2l0.6,0l0.6,0l0.5-0.4l0.9-0.7
		l0.2-0.8l-0.1-0.3l0.1-0.7l-0.2-0.8l-0.1,0l-0.6-0.3l-0.6,0l-0.5-0.2l-0.2-1l0.5-0.7l0.2-1l0.1-0.3l-0.5-0.6l0.3-0.5l0.2-0.7
		l-0.1-0.4l0.6-0.1l0.5,0l0.1-0.1l0.5-0.7l1-0.7l0.1-0.8l0.2-0.7l0.3-0.4l0.2-0.3l0-0.6l0-1l0.3-0.5l0.1-0.5l-0.2-0.4l0.4-0.3
		l0.8-0.6l0.3-0.4l0.2-0.5l0.1-0.2l0.3-0.2l0.7-0.2l0.7-0.3l0.8-0.1l0.7-0.6l0.5-0.2l0.1-0.6l0,0l-0.3-0.6l-0.9-1l-0.7-0.8l-0.5-0.1
		l0.2-0.9l-0.3-1l-0.2-1.6l-0.2-0.5l-0.7-1.4l-0.5-0.9l0.2-1l0.1-0.8l0.3-0.9l0.2-0.7l0.2,0.1l0.3-0.2l0.2-1.7l0-2.1l-0.3-0.6l0.2-1
		l0.3-1.2l-0.3-0.6l0.1-1.2l0.2-1.1l0.5-0.6l-0.2-0.6l-0.2-0.7l0.1-0.9l0.1-0.8l0-0.1l0.2-0.4l0.8,0l0.5-0.2l0.6,0l0.7,0.1l0.2,0.4
		l0.4,0.1l0.4-0.2l0.5,0.1l0.3,0.6l0.1,0.7l0.4,0.5l0.6,0.4l0.7,0l0.2-0.4l0.6-0.9l0.8-0.9l0.2-1l0.2-0.8l0.7-3.9l0.6-3.3l0.4-2.2
		l0.9,0.2l10.9,2l0.7,0.1l0.8,0.1l3.1,0.5l0.1,0l2,0.3l10.3,1.7l0.1,0l1.4,0.2l2.3,0.3l3.5,0.5l0,0l3.1,0.5l5.1,0.8l0,0l5.6,0.8
		l4.9,0.7l-0.2,1.7l-1.5,10.6l-0.2,1.6l-0.2,1.7l-0.5,3.7l-0.5,3.5l-0.4,2.6l-0.4,3v0l-0.7,5.3l-0.1,0.8l-1.2,9l-0.2,1.3l-0.7,5.1
		l-0.4,2.8l0,0l-0.8,6v0l-0.7,4.9l0,0l-0.7,4.8l-0.6,4l-0.9,6.4l-9.2-1.3l-7.4-1.1l-7.2-1.1l-3.2-1.8l-11-6.3l-10.6-6.1l-4.5-2.7
		l-11.4-6.9l0.1-0.4l0.3-0.4l-0.2-0.2L132.5,293.3"/>
	<path vector-effect="none" class="st0" d="M367.2,260l2.9,0l3.2-0.1l1.3,0l1,0l1.9,0l1.3,0l1.8,0l1.2,0l0.2,0l1.9-0.1l3-0.1l0.2,0
		l0.7,0l2.3-0.1l0.4,0l2-0.1l2.2-0.1l0.3,0l1.5-0.1l3.5-0.2l0.3,0l2.2-0.1l0.5,0h0l3.1-0.2l1.2-0.1l2.6-0.1l0.2,0l2.1-0.1l0.9-0.1
		l3.1-0.1l0.7,0l0.2,0.5l0.2,0.6l0.8,0.4l0.1,0.4l0,0.8l-0.5,0.6l-0.4,0.8l-0.4,0.2l-0.3,0.2l-0.1,0.7l-0.6,0.4l-0.4,1l-0.3,0.7
		l0.9-0.1l2.1-0.1l1.6-0.1l0.7,0l1.9-0.1l0.6,0.7l0.4,0.3l0.1,0.2l0,0.1l-0.8,0.4l-0.1,0.4l0.1,0.5l-0.8,0.4l-0.7,0.5l-0.6-0.1
		l-0.4,0.9l0.7,0.6l0.3,0.3l-0.6,0.3l-0.1,0.7l-0.1,0.3l-0.9-0.1l0,0.8l0.3,0.5l-0.2,0.6l-0.3-0.1l-0.5,0.2l0.3,0.6l-0.3,0.9
		l-0.5,0.5l0.8,0.3l0.1,0.7l0,0.5l0.1,0.6l-0.8-0.1l-0.2,0.5l-0.1,0.6l-0.8,0.2l-0.4,0.2l-0.1,0.5l0.8,0.8l0,0.4l-0.7,0.5l0,0
		l-1,0.6l-0.1,0l-0.6,0l-0.1,0.7l-0.3,0.4l-0.4,0.9l0,0.5l-0.2,0.4l-0.1,0.3l0.5,0.6l-0.2,0.6l-0.1,0.9l0.1,0.6l-0.7,0.5l-0.2,0.7
		l-0.8-0.4l-0.4,0.3l0.2,0.7l-0.7,0.2l-0.3,0.6l-0.6,0.2l0.2,0.6l-0.1,0.3l-0.5,0.2l0,0.4l0,0l0,0.1l0.5,0.2l0.3,0.3l-0.2,0.6
		l-0.6,0.2l-0.4,0.3l-0.3,0.3l-0.5-0.1l-0.4,0.4l0.6,0.2l0.1,0.5l-0.4,0.4l0.1,0.7l0.3,0.2l0,0.6l-0.7-0.1l-0.3,0l-0.3,0.4l0.8,0.4
		l-0.3,0.8l-0.9,0.2l0.6,0.5l-0.6,0.5l-0.2,0.4l-0.1,0.3l0.3,0.5l0.2,0.4l0.3,0.5l0.4,0.5l-0.3,0.6l0.2,1l0.5,0.1l0.2,0.6l-0.1,0.7
		l-0.2,0.7l-0.6,0l-0.3,0.5l0.7,0.6l-0.4,0.6l-0.1,0.1l-1.2,0l-2,0.1l-0.3,0l-0.3,0l-4.5,0.2l-2.3,0.1l0,0l-1.8,0.1l-3.3,0.1
		l-2.6,0.1h0l-2.9,0.1l-0.2,0l-2.4,0.1l-0.5,0l-1.6,0l-1.3,0l-0.4,0l-2.4,0l-1,0l-0.1,0l-2.7,0.1l0-2l0-1.6l0-0.8l0-1.5l0-1.6l0,0
		l-0.3-0.3l-0.8-0.1l-0.5-0.2l-0.3,0.3l-0.3-0.1l-0.8,0.2l-0.4,0l-0.2,0.2l-0.4-0.1l-0.4-0.2l-0.8-0.8l0-2.1l0-2.1l0-1.1l0-2.4
		l0-2.4l0-2.1l0-1.8l0-1.3l0-2.3l0-0.6l0-1.8l0-3l0-1.3l0-0.2l0-0.1l-0.2-1.5l-0.3-2l-0.3-1.7l0-0.1l-0.5-3.1l-0.2-1.6l-0.1-0.8
		l-0.3-1.9L367.2,260"/>
</g>
<g transform="matrix(0.999751,0,0,0.999751,-54.8748,-49.3873)">
	<path vector-effect="none" class="st1" d="M438.8,237.2l0.2-0.4l0.2-1l-0.2-1l0.4-0.4l0.2-0.7l0.3-0.8l-0.6-0.6l0-0.5l0-0.1
		l0.6-0.5l0.8-0.6l0.5-0.9l0.3-0.7l0.1-0.2l0.2-0.7l0.6-0.5l-0.1-0.4l0.1-0.4l0.1-0.3l0.1-0.7l0.8-0.6l0.4-1.2l-0.3-0.9l-0.2-0.3
		l-0.2-0.3l0.2-0.4l0,0l-0.1-0.9l-0.6-0.4V220l-0.6-0.6l-0.2-0.8l0-0.1l0.6-0.7l-0.2-0.5l0-0.2l-0.1-0.7l0.2-0.4l0.5-0.1l-0.2-1.7
		l0-0.1l-0.2-1.8l-0.1-0.8l-0.3-3.1l-0.2-1.8l-0.2-1.9l-0.1-1.4l-0.3-3.2l0-0.2l0-0.6l-0.3-2.8l-0.2-2.2l-0.1-1.6l0-0.2l-0.2-2
		l-0.2-1.9v0l-0.2-2.4l-0.1-0.8l-0.2-2.5l0.6,0.4l0.5-0.3l0.6,0.8l1.1,0l0.4-0.2l1-0.4l1-0.4l0.9-0.7l0.2-0.2l0.8-0.5l1.9-0.2h0
		l1.2-0.1l0.2,0l2.8-0.3l0,0l1.7-0.2l2.8-0.3l0,0l1.4-0.1l3.8-0.4l0.6-0.1l0.4,0l3.8-0.4l0.2,0l0.1,0.9l0.3,2.3l0.2,1.5l0,0.2
		l0.2,1.9l0,0.3l0.2,1.8l0.2,1.8l0.1,0.9l0.3,2.7l0,0l0.3,2.2l0.1,1l0.1,0.5l0.2,1.6l0,0l0.1,0.6l0.3,2.8l0.2,1.4l0.1,1.2l0.3,2.7
		l0,0l0.2,2.2l0.1,0.6l0.2,1.8l0.1,1.2l0,0l0.1,1.1l0.2,1.7l-0.4,0.4l-0.3,0.4l0.2,0.3l0.3,0.4l0.2,0.5l-0.4,0.6l0.2,0.1l0.4,0.2
		l0.5,0.2l-0.1,0.3l0,0.1l0,0.9l-0.5,0l-1.1,0.3l-0.6,0.3l-0.5,0.3l-0.7,0.7l-0.4,0.2l-0.2-0.1l-0.4-0.3l-0.4-0.2l-0.6,0.2l-0.1,0
		l-0.6,0l-0.5,0.4l0.2,0.7l0.1,0.9l0.1,0.2l0.2,0.5l-0.2,0.3l0,0l-0.4,0.3l-0.2,0.5l-0.9,0.4l-0.3,0.5l-0.1,0.6l-0.1,0.5l-0.3,0.7
		l-0.7,0.5l-0.5-0.1l-0.2,0l-0.2,0.6l-0.5,0.8v0.1l0,1l-0.1,1.2l-0.3,0.2l-0.2,0.2l-0.2,0.2l-0.4,0.3l-0.7-0.5l-1.2-0.1l-0.9-1
		l-0.5-0.6l-0.4,0.2l-0.3,0.2l-0.5,0.6l0,0l-0.4,0.6l-0.2,0.1l-0.4,0.1l0.1,1l0.3,0.9l-1,0l-0.1,0.8l-0.4-0.1l-0.1-0.1l-0.7-0.3
		l-0.7-0.8l-0.4-0.5l0,0l-0.6,0.4l-0.5,0.6l-0.5,0.2l-0.3,0.1l-0.3,0.7l-0.1,0.7l-0.4,0.9l-0.4-0.5l-0.5-0.4l-0.9-0.3l-0.2-0.1
		l-0.4-0.2l-0.3-0.2l-1-0.4l-0.3,0.2l-0.4,0.2l-0.7,0l-0.6,0.4l-0.1,0.7l-0.6,0l-0.4-0.3l-0.1-0.1l-0.9,0.3l-0.8-0.6l-0.5,0.2l0,0.1
		l-0.1,0.4l0.4,0.7l-0.3,0.4l-0.4,0.1l-0.7-0.2l-0.5-0.8L438.8,237.2"/>
	<path vector-effect="none" class="st1" d="M287.4,208.7l2.3,0.1l3.1,0.2l1.4,0.1l0.9,0.1l0.3,0l2.5,0.1l3.2,0.2l0.2,0l2.8,0.1
		l3,0.1l0,0l0.2,0l3.9,0.2l2,0.1h0l1.3,0l3.4,0.1l1,0l0.2,0l3.6,0.1l1.2,0l1.2,0l2.5,0.1l2.1,0l1.5,0l1.2,0l0.5,0l3.8,0.1l0.5,0
		l3.8,0.1l1,0l0.5,0l0.7,0l3.6,0h0.1l2.4,0l0,0l0.9,0h1.4h0.1h2.4h0l4.7,0h0.3l0.8,0.8l1,0.7l0.7,0.5l0.7-0.5l0.3,0l0.4,0l0.2,0.3
		l0.5,0.7l0,0.1l0.1,0.7l0.1,0.3l-0.4,0.4l-0.8,0l0,0.5l-0.7,0.5l-0.1,0.6l0,0.3l-0.3,0.3l-0.4,0.3l0.2,0.3l0.4,0.5l0.7,0.8l0.2,0.3
		l0.2,0.3l0.6,0.1l-0.2,1l0.6,0.7l0.3,0.4l0.3,0.5l0.1,0.1l0.5,0.4l0.7-0.2l0.6,0.4l0.2,0l0.1,0l-0.2,0.6l0,1l0,0.9l0,1.9l0,1.5v0
		l0,2.7l0,1l0,0l0,1.3l0,2.1l0,2.5l0,0.3l0,0.7l0,4.3v0.1l0,0.3l0.1,3.4l0,0.7l0,0.4l0,2.5l0,1.5l0,0.8l-1.1,0l-3.1,0h-0.1l-0.7,0
		l-2.8,0l-0.9,0l-1.3,0l-0.6,0l-2.4,0l-1.6,0h-0.4h-0.4h-2.4l-3.1,0H346l-2.5,0l-3.9,0l-0.5,0l-2.6,0l-0.9,0l-3.4-0.1l-0.4,0l-2.7,0
		l-0.7,0l-2.6-0.1h-0.1l-2.1-0.1l-2.7-0.1l-2.3-0.1l-1.4,0l-3.1-0.1l-0.5,0l-0.9,0l-1.3-0.1l-3.7-0.2l-0.1,0l-1,0l-5.1-0.2l-0.9,0
		l-2.5-0.1l-1,0l-1.3-0.1l-1.6-0.1l-3-0.1l-0.8,0l-3.8-0.2l-1.4-0.1l-0.2,0l0-0.6l0.1-1l0.1-2.1l0.1-1.8l0.2-3.6l0.1-1.1l0-0.2
		l0.3-5.3l0.1-2.1l0-0.1l0.1-1.6l0.2-3.2l0.1-1.2l0.3-4.9l0.1-1.2l0.2-3.4l0.2-2.7l0-0.1l0.2-3.4L287.4,208.7"/>
</g>
<g transform="matrix(0.999751,0,0,0.999751,-54.8748,-49.3873)">
	<path vector-effect="none" class="st3" d="M594.7,104.2l0.4-0.2l0.1-0.5l0.7,0l0.5,0.4l0.4,0.7l0.5-0.1l0-0.5l0-0.2l0.1-0.4
		l-0.2-0.4l0-0.5l-0.3-0.3l0.3-0.5l0.3,0l0.3,0.3l0.5-0.1l0.4,0l-0.2-0.6l-0.5-0.2l-0.7-0.7l0.1-0.8l0.2-0.6l0.4-0.6l0.2-0.6v0
		l0.9-0.8l0.5-0.6l-0.5-0.6l0.1-0.4l0.5-0.8l0.5-0.7l-0.1-0.6l-0.2-0.4l-0.4,0.1l0-0.5l-0.2-0.2l-0.1-0.6l0.2-0.6l0.1-0.6l-0.6-0.4
		l0.1-0.9l0.1-0.6l0.2-0.3l-0.1-0.4l0.3-0.5l0.3-0.4l0.3-0.5l0.2-0.3l-0.3-2l-0.2-1.7l1-2.9l1.4-4l0.7-2l1.2-3.3l0.6-0.1l0.5,0.1
		l0.7,0l0,0.6l0.6,1.7l0.8,0.2l0.7,0.3l0.8-0.8l1.1-0.7l0.6-0.3l0-0.5l0.7-0.4l0.5,0l0.8-0.3l-0.2-0.4l0.1-0.4l0.8-0.2l0.7,0
		l0.6,0.2l0.8,0.4l1,0.5l0.5,0.2l0.9,0.9l1.1,0.4l1.1,3.6l0.8,2.6l1.4,4.3l1,3.2l0.4,1.3l0.4,0.2l-0.3,0.8l0.5,0.4l-0.2,0.8l0.4,0.6
		l0,0.8v0l0.9-0.3l0.5,0.5l0.4,0l1,0.1l0.7-0.4l0.4,0.3l0.3,0.9l-0.5,0.2l0.1,0.6l0.9,0.9l0,1.1l-0.1,0.5l0.4,0.3l1,1l0.6,0.2
		l0.3-0.4l0.1-0.7l0.7,0.1l0.4,0l0.7,0.5l0.4,0.5l0.2,0.5l0.8,1.1l0.6,0.3l0.1,0.8l0.5,0.3l-0.5,0.9l-0.3,0.5l-0.3,0.6l-0.3,0.7
		l-0.5,0.5l-0.4,0.7l-0.8-0.1l-0.2,0.4l-0.5,0.2l-0.2,0.7l-0.1,0.7l0.3,0.4l-0.5,0.9l-0.8-0.6l-0.3-0.5l-0.4,0.5l-0.8,0.4l-0.3,0.5
		l0,0.7l-0.3,0.5l-0.4-0.1l-0.1,0.1l-0.3,0.4l-0.3,0.1l-0.1,0.9l-0.7-0.3l-0.3-0.2l-0.6,0.4l0.3,0.6l-0.1,0.3l-0.2,0.6l0.7,0.4
		l-1.3,0.3l0.1,0.5l0.2,1.3l-1.1,0.2l-0.6,0.4l-0.2,0.2l-0.4,0.4l-0.1,0.9l-0.4,0.2l-0.4-0.9l-1,0.6l-0.8,0.7l-0.5-0.6l-0.5-0.6
		l0.3-0.5l-0.6-0.5l-0.2-0.2l-0.7,0l-0.2,0l0.1,0.9l0,0.6l0.6,0.6l-0.2,0.6l0.4,0.4l-0.2,0.5l-0.5,0.1L618,117l-0.2,0.9l-0.3,0.1
		l-0.2,0.6l-0.3,0.4l-0.6-0.7l-0.3-0.3l-0.2-0.1l-0.1,0.5l-0.1,0.2l-0.4,1.2l-0.5,0.1l-0.2,0.3l-0.6,0.5l-0.4,0.2l-0.2,0.1l-0.2,0.8
		l-0.5,0.4l-0.2,0.4l-0.2,0l-0.3-0.7l-0.3,0l-0.3,0l-0.5,0.6l0,0.5l-0.6,0.1l-0.1,0l-0.1,0.6l-0.7,0.2l-0.1,0.5l-0.1,0.7l0.3,0.5
		l-0.3,0.4l-0.7,0.4l-0.2,0l-0.2,0l-0.1,0.6l0.7,0.2l-0.4,0.8l-0.1,0.8l-0.4,0.4l-0.5,0.1l-0.1,0.2l-0.1,0.2l-0.1,0.8l0.2,0.5l0,0.1
		l0,0.8l-0.2,0.5l-0.2,0.9l-0.3,0.3l-0.6-0.1l-0.8-0.4l-0.1-0.1l-0.2-0.7v0l0-0.5l-0.8-0.6l-0.7-0.6l-0.8-0.5l0-0.8l-0.1-0.6
		l-0.1-0.5l-0.2-0.4l-0.2-0.4l-0.6-1.7l-0.4-1.2l-0.2-0.6l-1-3.4l-0.7-2.2l-0.1-0.3l-0.1-0.2l-0.2-0.5l-0.4-1.3l-0.2-0.8l-1-3.2
		l-1.2-3.5L594.7,104.2"/>
	<path vector-effect="none" class="st3" d="M620.8,117.5l0.4-0.4l0.5,0.7l-0.2,0.7l-0.7-0.3V117.5"/>
</g>
<g transform="matrix(0.999751,0,0,0.999751,-54.8748,-49.3873)">
	<path vector-effect="none" class="st1" d="M583.4,167.8l1.9-1.9l-1-1l-0.2-1l0-0.1l0,0v0l-0.2-0.9l-0.2-1.2l-0.3-1.6l-0.1-0.4
		l-0.4-2.2l-0.6-3.1l2.6-0.6l1.1-0.2l0.8-0.2l0.5-0.1l0.1,0l1.5-0.4l0.5,0.4l0.3-0.1l0.1,0l0.2-0.5l1.3-0.2l0.8-0.2l0.2,0l1.1-0.3
		l0.8-0.2l1.2-0.3l0.6-0.1l0.3-0.1l1.2-0.3l1-0.2l0.8-0.2l0.1,0.2l0.8,2.7l0.3,1.1l0,0l0.3,1.2l0.2,0.6v0l0.2,0.7l0.4,1.8l-0.4,0.2
		l0.2,0.8l-0.1,0.5l-0.3-0.2l-0.7,0.3l-0.6,0.3L599,161l-0.4,0.3l-0.7,0l-0.3,0.3l-0.5,0.4l-0.5,0.1l-0.1,0l-0.3,0.3l-0.3-0.2
		l-0.6,0.3l-0.6,0.4l-0.1,0.1l-0.6-0.1l-0.6,0.2l0,0l-0.3,0.3l-0.7,0.3l-0.3-0.3l-0.9,0.5l-0.3,0l-0.4,0l-0.3,0.3l-0.1,0.1l0,0
		l-0.3,0.5l-0.6,0.3l-0.1,0.5l0,0.2l-0.2,0.1l-0.5,0l-0.3,0l-0.5,0.7l-0.1,0l-0.3,0.1l-0.3,0.1l-0.4,0.2l0.2,0.2l-0.2,0.5l-0.3,0.2
		l-0.5,0.1l-0.5,0.3l-0.4,0.4l-0.3,0.1l-0.5,0.6v0l-0.1-0.2l0-0.2l-1-1L583.4,167.8"/>
</g>
<g transform="matrix(0.999751,0,0,0.999751,-54.8748,-49.3873)">
	<path vector-effect="none" class="st0" d="M566.4,191.8l0.1-0.5l0.3-0.6l0.5-0.5l0.7-0.3l0.2-0.1l1-0.1l0.8,0.2l-0.4,0.6l0,0.7
		l-0.2,0.5l-0.1,0.6l-0.2,0.3l0.3,0.4l0.4,0.2l0,0.6l0.1,0.5l-0.6,0.4l0.3,0.5l0.7,0.6l0.2,0.2l0.5,0.5l0.8,0.8l0.4,1l0,0.8l0.3,1
		l0.7,0.4l0.6,0.9l0.1,0.1l0.1,0.4l1,0.8l0.9,0.6l0.5,0l0.2-0.2l0.5,1.3l0.7,2.2l0.3,1.2l-1.4,0.3l-1.7,0.3l-1.5,0.3L571,209
		l-0.3-1.1l-0.1-0.2l-0.3-1l0,0l-0.7-2.6l-1.2-4.3l-0.4-1.4l-0.2-0.7l-0.3-1.1v0l-1.3-4.7L566.4,191.8"/>
</g>
<g transform="matrix(0.999751,0,0,0.999751,-54.8748,-49.3873)">
	<path vector-effect="none" class="st2" d="M470,275l1.5-0.2l1-0.1l0.2,0l1-0.1l0.1,0l2.5-0.3l0.7-0.1l0,0l1.3-0.2l0.6-0.1l0.4,0
		l0.5-0.1l1.2-0.1l1.3-0.1l2.1-0.3l2.2-0.3l1.4-0.2l0.8-0.1h0l3.6-0.4l0.8-0.1l0.7-0.1l1.8-0.3l2.4-0.4l0,0l-0.1,0.7l-0.1,0.4
		l-0.6,0.7l-0.5,0.5l-0.3,0.5l-0.4,0.5l0.1,0.4l-0.3,0.5l0.1,0.2l0.2,0.4l0,0.1l0.8,0.4l0.7,0.4l0.8,0.2l0.7,0.6l0.1,0.1l0.6,0.4
		l0,0l0.6,0.2l0,0l0.7-0.2l0.6,0.1l0.5,1l0.3,0.5l0.6,0.8l0.1,0.1l0.4,0.6l0.2,0.4l0.3,0.9l1,0.8l0.7,0.9l0,0.1l0.4,0.7l0.1,0.1
		l0.5,0l1.1,0.8l1.3,0.5l1.2,1.1l0.4,0.6l0.2,0.4l0.5,0.6l0.2,0l0.3,0.1l0.1,0l1,0.6l0.2,0.2l0.4,0.4l0.8,0.3l0.2,0.7l0,1l1.1,0.4
		l0.1,0.8l0,0.1l1,0.4l0,0.1l0.2,0.6l1.2,0.5l0.5,0.1l0.2,0l0.8,0.5l0.5,0.3l0.2,1l0.5,0.6l0.6,0.8l0.3,1.2l0,0.1l0.4,1.2l0.1,0.7
		l0.1,0.1l0.8,0.4l0.5,0.1l0.1,0l1.1,1l0.1,0.7l0.3,0.3l0.6,0.6l0.2,0.8l-0.2,0.6l0.1,0.1l0.4,0.6l0.2,0.9l0.9,0.3l0.3-0.3l0.8,0.5
		l0.7,0.2l0.5,0.1l0,0.5l-0.6,0.7l-0.3,0.5l-0.6,0.9l-0.3,0.7l-0.4,0.8l-0.5,0.6l0,0.2l0,0.2l0.2,1l-0.3,1l0,0.2l0,0.3l-0.3,0.8
		l-0.4,0.9l-0.1,0.8l0.3,0.6l0,0.1l-0.1,0.7l-0.2,0.6l-0.6,1.1l-0.4,0.2l0.1,0.7l-0.1,0.8l0.2,0.3l0.1,0.2l0.2,1l-0.2,1.3l-0.1,0.8
		l0.3,0.8l-0.8-0.1l-0.3,0l-0.4,0.2l-0.9-0.1l-0.4-0.1l-0.8,0l-0.4-0.3l-0.6-0.1l-0.7,0.1l-0.5-0.3l0,0l-0.5,0l-0.5,0.7l-0.4,0.6
		l0,0.8l0,0.5l0.5,0.7l0.1,1l0.1,1.2l-0.1,0.6l0.1,0.5l-0.1,0l-0.5,0.2l-0.6,0.1l-0.4,0l-0.5-0.7l0-0.7l-0.4-0.6l0-0.6l-2.4,0.1
		l-0.5,0h0l-1.5,0.1l-1.3,0.1l-2.3,0.2l-3.1,0.2l-0.1,0l-2.1,0.1l-0.6,0l-1.7,0.1l-1.3,0.1l-1.6,0.1l-0.9,0.1l-2.2,0.2l-0.9,0.1
		l-0.5,0l-1.9,0.1l-1.1,0.1l-1.1,0.1l-4.1,0.3l-0.6,0h0l-0.7-0.8l-0.3-0.8l-0.1-0.6l-0.7-0.7l-0.3-0.5l0-0.3l-0.2-0.7l-0.1-0.3
		l-0.2-0.4l-1-1l-0.1-1l0.2-0.5l0-0.2l0-0.2l-0.1-0.6l0.2-1l-0.1-0.5l0.2-0.7l0.1-0.4l-0.2-0.3l-0.1-0.7l-0.9-0.9l0-0.5l-0.1-0.4
		l-0.1-0.2l-0.2-0.8l0.2-0.8l0.4-1.1l0-0.3l0-1l0-0.4l-0.2-0.7l0.6-0.8l0.7-0.6l0.1-0.2l0.3-0.5l-0.8-0.5l-0.7-0.4l0.2-0.4l0-0.2
		l0-0.9l-0.4-0.9l0,0l-0.1-0.2l-0.8-0.7l-0.1-0.3l-0.2-0.7l-0.4-1l-0.2-0.3l-0.5-1l-0.3-0.4l0-0.1l-0.9-3.3l0,0l-0.1-0.3l-1.1-4.1
		l-0.2-0.8l-0.2-0.6l-0.5-1.7l-0.4-1.6l-0.5-1.8l-0.2-0.9l0,0l-0.4-1.6l-0.2-0.6l-0.6-2.2l-0.2-0.8l-0.5-1.8l-0.2-0.7l-0.3-0.9
		l-0.1-0.5l-0.5-1.7l-0.4-1.5l-0.2-0.9L470,275"/>
</g>
<g transform="matrix(0.999751,0,0,0.999751,-54.8748,-49.3873)">
	<path vector-effect="none" class="st0" d="M495.9,275.5l0.3-0.5l-0.1-0.4l0.4-0.5l0.3-0.5l0.5-0.5l0.6-0.7l0.1-0.4l0.1-0.7l1.1-0.5
		l1.2-0.6l1.2-0.6l0.2,0l0.2,0l0.6-0.7l1.2-0.5l0.5-0.2l0.8-0.4l0.4-0.4l0.7,0l0.7,0l0.9-0.1l1.9-0.2l0.1,0l0.8-0.1l1.1-0.1l1.2-0.1
		l3.1-0.3l1.4-0.1l0.4,0l3.2-0.3l0,0l0.1,0.3l-0.1,0.7l0.2,0.4l1.1-1.1l0.4,0.4l0,0l0.9,0.9l0.8,0.8l0.1,1.6l2.7-0.3l0,0l2.7-0.4
		l2.8-0.4l1.7-0.3l0,0l2.6-0.4l0.2,0l2.8,2l0.2,0.1l1.2,0.9l3.8,2.8l0,0h0l3.5,2.5l2.2,1.5l0.5,0.3l1,0.7l-1.4,0.7l-1,0.9l-0.9,1.1
		l-0.7,1.1l-0.5,1.1l-0.3,0.6l-0.5,0.8l-0.4,1.2l-0.1,1.1l0,1.3l0.2,0.4l-0.4,0.8l-0.6,0.6l-0.2,0.2l-0.4,0.3l0,0.6l-0.1,0.6l-0.8,0
		l-0.7,0.3l-0.5-0.4l-0.6,0.5l-0.2,0.5l0.5,0.6l-0.3,0.5l-1,0.8l-0.3,0.7l-1,0.7l-0.5,0.5l-0.1,0.7l-0.9,0.8l-0.3,0.5l-0.9,0.2
		l-0.8,0.5l-0.4,0.5l-0.6,0.3l0,0l-0.9,0.9l-0.7,0.2l-0.1,0l-0.7-0.2l0,0.2l-0.1,0.3l0.4,0.7l0.3,0.4l-0.1,0.7l-0.9,0.7l-0.6,0.3
		l-0.6-0.2l-0.9-0.3l-0.5,0.6l0.5,0.3l0.8,0.6l-0.5,0.9l-0.9,0.9l-0.5,0.2l-0.1,0.3l-0.1,0.6l-0.7-0.2l-0.8-0.5l-0.3,0.3l-0.9-0.3
		l-0.2-0.9l-0.4-0.6l-0.1-0.1l0.2-0.6l-0.2-0.8l-0.6-0.6l-0.3-0.3l-0.1-0.7l-1.1-1l-0.1,0l-0.5-0.1l-0.8-0.4l-0.1-0.1l-0.1-0.7
		l-0.4-1.2l0-0.1l-0.3-1.2l-0.6-0.8l-0.5-0.6l-0.2-1l-0.5-0.3l-0.8-0.5l-0.2,0l-0.5-0.1l-1.2-0.5l-0.2-0.6l0-0.1l-1-0.4l0-0.1
		l-0.1-0.8l-1.1-0.4l0-1l-0.2-0.7l-0.8-0.3l-0.4-0.4l-0.2-0.2l-1-0.6l-0.1,0l-0.3-0.1l-0.2,0l-0.5-0.6l-0.2-0.4l-0.4-0.6l-1.2-1.1
		l-1.3-0.5l-1.1-0.8l-0.5,0l-0.1-0.1l-0.4-0.7l0-0.1l-0.7-0.9l-1-0.8l-0.3-0.9l-0.2-0.4l-0.4-0.6l-0.1-0.1l-0.6-0.8l-0.3-0.5l-0.5-1
		l-0.6-0.1l-0.7,0.2l0,0l-0.6-0.2l0,0l-0.6-0.4l-0.1-0.1l-0.7-0.6l-0.8-0.2l-0.7-0.4l-0.8-0.4l0-0.1l-0.2-0.4L495.9,275.5"/>
</g>
<g transform="matrix(0.999751,0,0,0.999751,-54.8748,-49.3873)">
	<path vector-effect="none" class="st3" d="M272.1,137.1l0.2,0l0.1-1.8l0.1-1.2l0.1-1.7l0.2-2.2l0.1-0.9l0.2-2.7l0.1-1.6l0-0.2
		l0.1-0.9l3.7,0.3l2.2,0.2l2.1,0.2l2.2,0.2l0.5,0l0.6,0l1.7,0.1l1.5,0.1l2.2,0.2l2.3,0.2l0.8,0.1l0,0l2,0.1l2.3,0.1l1.9,0.1l2.5,0.1
		l3.4,0.2l2.4,0.1h0l0.1,0l2,0.1l1.4,0.1l2.7,0.1h0l1.6,0.1l0,0l1,0l1.2,0.1l1.4,0.1l2.5,0.1l0.9,0l0,0l2.7,0.1l1,0l2.1,0.1l3.4,0.1
		l0.6,0l0.3,0l2,0l2.3,0l3.1,0l1.4,0l5.1,0.1l-0.1,0.9l-0.2,0.8l-0.4,0.5l-0.4,0.7l-0.7,0.4l-0.8,0.7l-0.3,0.5l0.1,0.4l0.1,0.1
		l0.5,0.7l0.4,0.8l0.3,0.6l0.3,0.4l0.6,0l0.5,0.3l0.4,0.1l0.4,0.4l0.1,0.3l0.1,0.3v0.5l0,4.1v2.4v2.4l0,1.2v2.6l0,2.3l0,0l0,4.9l0,0
		l0,4.2v0.7l-1.5,0l0.1,0.4l-0.1,0.5l0.7,0.7l0,0.5l-0.1,0.7l-0.5,0.1l0.2,0.5l0.1,0.1l0.3,0.4h0.5l0.2,1.1l0.2,0.4l-0.1,0.4
		l-0.1,0.2l-0.5,0.4l0.2,0.5l-0.3,0.4l0.2,0.3l-0.4,0.5l0,0.2l0,0.4l-0.4,0.7l-0.5,0.7l0,0.8l0.3,0.5l0.7,0.7l0.5,1.1l0,0.1
		l-0.2,0.5l0.2,0.1l0.3,0.3l-0.6,0.1l-0.2-0.4l-0.9,0.1l-0.2-0.3l-0.3-0.6l-0.5-0.5l0.1-0.8l-0.8-0.1l-0.2-0.5l-0.1,0l-1-0.5
		l-0.6,0.1l-0.5-0.5l-0.1-0.1l-1.1-0.1l-0.3-0.3l-0.5-0.4l-0.2-0.5l-0.7-0.2l-0.4,0.1l-0.8-0.2l-0.4,0.3l-0.3-0.1l-0.3-0.1l-0.9,0
		l-0.4,0.1l-0.7,0.1l-1-0.2l-0.6-0.1l-0.2,0.2l-0.3,0.8l-0.5,0.4l-0.9,0.1l-0.7-0.6l-0.4-0.5l0,0l-0.8-0.3l-0.5-0.2l-0.3-0.2
		l-0.8-0.5l-0.5-0.2l-0.4-0.5l-0.2-0.5l-3.6-0.1l-4.1-0.1l-2.8-0.1l-3.2-0.1l-3.6-0.1l0,0l-8.2-0.4l-2.3-0.1l-8.7-0.5l0,0l-3.3-0.2
		l-3.9-0.3l-2.1-0.2l-4.8-0.4l-0.3,0l-5.6-0.5l0.3-4l0.2-2.6l0-0.4l0.1-0.8l0.3-4.1l0,0l0.3-4l0-0.5l0.1-1l0.4-4.5l0.1-1.7
		L272.1,137.1"/>
</g>
<g transform="matrix(0.999751,0,0,0.999751,-54.8748,-49.3873)">
	<path vector-effect="none" class="st1" d="M582.2,154l0.1-3.9l0-1.1l0-1.2l0,0l0-1.8l0-1.6l1.2-0.3l1.2-0.3l0,0l0.9-0.2l0.7-0.1
		l0.6-0.1l2.9-0.6l0.6-0.1l0.1,0l0.4-0.1l1.3-0.3l0.8-0.2l0.8-0.2l0.4-0.1l1.5-0.3l0.3-0.1l0.9-0.2l0.6-0.1l1.1-0.3l2.8-0.7l0.6-0.1
		l0.2-0.6l0,0l0.1,0l0.6-0.2l-0.2-0.7l0.3-0.4l0.3,0l0.5-0.1l0.1-0.4l0.1-0.4l0.6-0.3l0.3-0.3l0.7,0l0.5-0.2l0.5,1.2l0.6,0.9
		l0.6,0.4l0.5,0l0.3-0.5l0.5,0l0.2,0.6l-0.4,0.9l-0.4,0.2l-1,0.5l-0.4,0.3l0.3,0.8l-0.4,0.4l0,0.3l0,0.2l0,0.2l-0.4,0.1l-0.3,0.1
		l0,0.1l0.3,0.9l0,0l0,0.2l-0.1,0.3l0.1,0.1l0.4,0.5l0.1-0.2l0.2-0.4l0.4,0l0.4,0.4l0.2,0l0.5,0l0.1,0.1l0.6,0.4l0.7,0.9l0.1,0.1
		l0.6,0.5l0.1,0.5l-0.2,0.6l0.3,0.6l0.6,0.1l0.2-0.2l0.5,0.3l0.4,0.7l0,0.6l0.1,0l0.6,0.4l0.6,0.1l1.2-0.1l0.6,0.1l0.5-0.4l0.9-0.5
		l0.9-0.7l0.1-0.3l-0.2-0.6l-0.8-0.3l-0.3-0.7l-0.1-0.3l-0.3-0.7l-0.7,0l-0.4,0.2l-0.7-0.4l0.5-0.4l0.5-0.3l1,0.1l0.8,0.7l0.3,0.7
		l0.1,0.3l0.8,1.5l0.5,1.6l0.2,0.9l-0.1,1.1l-0.4,0.2l-0.3-1l-0.1-0.7l-0.5,0.2l-1,0.5l-1,0.8l-0.6,0l-0.7,0.5l-0.4,0.3l-0.2,0.5
		l-0.8,0.4l-0.8,0.7l-0.1,0.1l-0.6,0.5l-0.4,0.7l-0.6,0.5l-0.9,0.5l0-0.7l1.1-0.9l0.6-0.8l0.2-0.3l-0.1-0.6l-0.3-0.1l-0.6-0.2l0,0
		l-0.2,0.6l-0.1,0.3l-0.3,0l0,0l-0.5,0.3l0,0l-0.2,0.6l-0.3,0.5l-0.4,0.2l-0.1,0.1l-0.5,0l-0.3,0.3l-0.6-1.4l-0.2-0.8l-0.7,0
		l-0.1-0.1l-0.1-0.1l-0.8-0.7l-0.7-0.2l-0.1,0l-0.3-0.6l-0.2-0.8l-0.4,0.1l-0.2-0.8l-0.1-0.4l-0.1-0.5l-0.8,0.2l-0.4,0.1l-0.6,0.2
		l-0.3,0.1l-0.1,0l-1.9,0.6l-0.1-0.2l-0.8,0.2l-1,0.2l-1.2,0.3l-0.3,0.1l-0.6,0.1l-1.2,0.3l-0.8,0.2l-1.1,0.3l-0.2,0l-0.8,0.2
		l-1.3,0.2l-0.2,0.5l-0.1,0l-0.3,0.1l-0.5-0.4l-1.5,0.4l-0.1,0l-0.5,0.1l-0.8,0.2l-1.1,0.2l-2.6,0.6l0-0.1L582.2,154"/>
	<path vector-effect="none" class="st1" d="M611.6,157.1l0.7-0.4l0.4-1.2l0.7-0.8l0.6,0.3l0.7,0.2l0.3,0l0.4,0.8l-1.3,0.4l-1.1,0.4
		l-0.6,0.7l-0.3,0.9l-0.4-0.9L611.6,157.1"/>
	<path vector-effect="none" class="st1" d="M617.4,156.1l0.8-0.3l1.1-0.4l0-1.1l0.8,0.3l0.6,1.2l-0.5,0.5l-0.8,0.2l-1.2,0.2
		L617.4,156.1"/>
	<path vector-effect="none" class="st1" d="M448.2,180.2l0.9-1.3l0.8-2.4l0.3-0.7l0.9-1.6l0.1-0.2l0.5-2l0-0.4l0.2-1.7l0-1.3v-0.2
		l0-1.7l0-0.1l-0.2-1.6l-0.3-1.5l-0.4-1.3l-0.2-0.5l-0.5-1l-1.1-1.9l-0.5-1.3l-0.2-0.5l-0.2-0.6l-0.6-1l-0.2-0.7l0.2-0.8l0.6-1.1
		l0-0.7l0-0.3l-0.3-1.1l-0.2-0.7v0l-0.5-0.7l-0.2-0.5l0.5-0.6l0.3-0.3l0.3-0.8l0-0.1l0.3-0.7l0.7-1.7l0.1-0.8l-0.1-1.1l0.1-0.5
		l0.1-0.7l-0.4-1.1l0-0.7l0.8-0.5l0.7-0.3l0.1-0.5l0.1-0.6l-0.1-1.3l0.8,0l0.4-0.9l0.8,0.3l0.7-0.6l0.2-1.1l0.6-0.6l0.4-1.1l0.7-0.6
		l0.2,0.4l-0.1,1.9l0.1,0.2l0.4,0.7l0.4-0.3l0.4-0.4l0.5-0.5l0-0.8l-0.3-1.1l0-0.4l0-0.9l0.7-0.7l0.9-0.7l1-0.1l0.4-0.1l0.9-0.3
		l0.4-0.5l-0.7-0.2l-0.6,0l-0.8-1.1l-0.2-0.6l0.5-1l0.8-0.8l-0.5-1l1.4-0.1l0.9-0.6l0.4,0.1l0.1,0l1.7,0.9l1,0.5l0.4-0.3l0.8,0
		l1.2,0.4l0.2,0l0.8,0.8l0.4,0.8l1,0l0.9,0l0.8,0.6l1.5,0.4l1,0.5l1.1-0.2l1.2,1l-0.1,0.7l0.2,0.3l0.8,0.8l0.7,1.5l-0.8-0.1
		l-0.6-0.3l-0.4,0.3l0.2,0.7l0.1,0.8l0.9,0.6l0.3,0l0.1,0.3l0.4,1.4l0.3,0.9l-0.2,1.2l0.2,1.4l0,0.4l0.1,2.2l-0.6,0.5l-0.3,0.6
		l-0.8,0.2l-0.2,1.4l0,0.1l0,1.4l-0.9,0.4l0,0.7l-0.9,0.2l-0.8,0.4l-0.2,0.8l-0.1,0.2l0,1.6l-0.1,0.6l0.5,0.8l0.9-0.1l1,0.6l0.4,0.3
		l0.2,0.1l1.3-2l0.1-0.2l0-0.2l0.2-0.7l0.3-1.3l0.2-0.5l1.2-0.4l0.1-0.5l1.2-0.4l0.8-0.4l0.2-0.4l0.9-0.5l1.4,0.5l1,0.9l1,1.5
		l0.4,1.2l0.2,0.7l0.3,1.5l0.9,2.1l0.6,2.7l0.3,0.8l0.3,0.9l0.9,1.2l0,0.8l-0.3,1l0.3,1.7l-0.2,1.8l-0.6,1.3l-0.9,0.6l-0.5-1.3
		l0.6-0.7l-0.7-0.1l-0.9,0.8l0.4,0.4l0.2,0.5l-1,0.5l0,0l0,0.1l0,0.9l0,0.3v0l-0.4,1.5l-0.2,0.1l-0.4,0.2l-1,0.7l0,0.1l-0.1,0.8
		l-0.1,0.8l0.2,1.2l-0.5,0.6l-0.1,0.3l-0.1,0.7l-0.4,0.8l-0.6,0.3l-0.1,0.6l-0.5,0.5l-0.4,0.7l0.3,0.9l-0.3,0.2l-1.4,0.2l-1.8,0.3h0
		l-1.2,0.2l-2.6,0.4l-2.3,0.4l-0.4,0.1l-0.4,0.1l-3.8,0.6l-0.1-0.9l-0.2,0l-3.8,0.4l-0.4,0l-0.6,0.1l-3.8,0.4l-1.4,0.1l0,0l-2.8,0.3
		l-1.7,0.2l0,0l-2.8,0.3l-0.2,0l-1.2,0.1h0l-1.9,0.2L448.2,180.2"/>
	<path vector-effect="none" class="st1" d="M405.8,117l0.8-0.6l0.9-0.3l1.8-0.7l1.2-1.1l0.3-0.4l0.5-0.6l1-0.4l0.8,0l0.7-0.1
		l0.7-0.2l0.8-0.1l1.7-1.1l0.7-1.1l1.1-0.3l0.7-0.2l0.2-0.4l0.1-0.1l0.3-0.8l0.7-0.6l1-1l1.1-0.6l0.6-0.7l0.1-0.1l0.7-1.1l1.2-0.8
		l0.6-0.4l1.2-0.4l1.5-0.3l1.2,0l1.2,0.1l0.9,0.4l-0.1,0.5l-1.9,0.1l-1.3,0.1l0,0.8l-0.7,0.5l-0.7,0.7l-0.9,0.8l0,0.1l-0.3,0.9
		l-0.9,0.9l-0.3,1.1l-0.4,0.9l-0.1,0.3l-0.1,1l1-0.4l1.2-0.9l0.9-0.6l0.8,0.6l0.2,0l1.4,0l1.2,0.4l0.9,0.4l1,0.7l0.3,0.8l0.8,1
		l1.3,0.8l0.2,1l1.9,0l0.6-0.2l1.3-0.4l0.8,0.8l0.9,0.1l0.5-0.5l0.4-1.1l0.7,0.2l0.7,0.6l0.9-1l2.5-1.7l0.4-0.3l1.4-0.2l1.2-0.3
		l0.2-0.1l3.5-0.3l2-1.3l0.2-0.1l0.6-0.2l2-0.4l-0.5,1.4l0.2,1.7l0.7,1l1.2,0.1l1.6-0.6l0.7,0.3l1.1,0.1l0.3-0.4l0.3-0.5l1.2,0
		l0.9-0.8l0.8,0.2l0,0.7l0,1.4l0.6,1.6l-0.1,0.2l0,0.9l0.9,0.5l0.6,0.6l1,0.4l0.5-1l0.9,0l1.2,0l1.3,1.1l-0.3,1.1l-0.5,0.1l-0.8-0.3
		l-1.4,0.3l-1.1-0.3l-1.6,0.1l-0.3,0.1l-1.3,0.3l-1.1,0.5L464,120l-0.8,0.5l-0.6,0l-0.9,0.7l0.4,0.8l-0.9,0l-1.3-0.9l-1-0.9
		l-1.5-0.5l-1.1-0.1l-1.1-0.1l-1.5,0.2l-0.9,1.4l-0.4,0.4l-1.1-0.2l-0.5,0.5l-0.4,0.4l-1.6-0.5l-2,0.5l-0.5,1.6l-0.8,1.1l-0.2,0.2
		l-0.7,0.7l-0.6,1.3l-0.1,1.1l-0.8-0.9l0-1.1l0.5-0.6l-1.3-1l-0.5,1.3l-1.2,0.8l-1.1-0.5l-0.9,0.9l-0.7,1.6l-0.3,0.7l-0.5,1.4l-1,2
		l-0.7,1.2l-0.3,1.4l-0.6-0.1l-0.5-0.6l-0.5-0.6l0.2-0.7l0.3-1l0-0.7l-0.5-0.2L433,132l-0.5,0.1l-0.6,0.1l0-0.6l0-0.7l0.4-0.4l0-0.7
		l0.1-0.7l0.1-0.5l-0.5-0.6l0.4-0.3l-0.3-0.4l-0.3-0.2l-0.5-0.4l-0.9-0.1l-0.3-0.4l-0.5,0.2l-0.1,0l-0.5-0.2l-0.3-0.3l0.5-0.8
		l-0.5-0.6l0,0l-0.6-0.3l-0.7-0.2l-0.6,0.1l-0.7-0.4l-0.3,0.2l-1.2-0.5l-0.6,0.1l-0.2,0.4l-0.4,0.1l-0.2-0.3l0,0l-0.6-0.1l-0.7,0.1
		l-1.2-0.6l-0.6-0.3l-1-0.5l-5.4-1.1l-2.9-0.6l-1.9-0.4l-0.4-1.1l-0.6-1.1l-0.7-0.2l-0.5-0.5l-0.5,0.3L405.8,117"/>
	<path vector-effect="none" class="st1" d="M416,97.6l0.4-0.4l1.5-0.9l0.7-0.4l0.4-0.2l0.7-0.4l0.8-0.7l0.9-0.7l0.8-0.4l1.1-0.6
		l0,0.6l-1.1,1l-0.2,0.9l-1.3,0.7l-1.2,0.5l-0.4,0.9l-1.3,0.7l-1,0.5l-0.4-0.3l-0.5-0.3L416,97.6"/>
	<path vector-effect="none" class="st1" d="M452.5,124.7l0.5-0.2l1.1-1.3l1.6,0l-0.1,0.7l-1,2.5l-0.5,0.4l-0.6-0.1l-0.9-1.5
		L452.5,124.7"/>
	<path vector-effect="none" class="st1" d="M462.8,121.3l1.1,0.8l1,0.3l0.7,0.3l-0.3,0.7l-0.9,0.1l-1.1-0.9l-0.7-0.7L462.8,121.3"/>
	<path vector-effect="none" class="st1" d="M449.3,134.8l0.8-1.7l0.6,0.1l0.4,0.4l-0.1,0.8l-0.9,1.1l-0.7-0.1L449.3,134.8"/>
</g>
<g transform="matrix(0.999751,0,0,0.999751,-54.8748,-49.3873)">
	<path vector-effect="none" class="st0" d="M404.1,332.5l0.7,0.1l0.6-0.5l-0.4-0.6l0-0.7l0.2-0.7l-0.1-0.8l0.3-0.5l0.6-0.2l-0.3-0.6
		l-0.1-0.5l0.8-0.4l0.1-1.2l0,0l0.7-0.2l0,0l-0.5-0.7l0.1-0.6l0.7,0.1l0.5-0.5l0.1-0.1l0.6-0.6l0-0.8l0.7-0.2l0.4-0.5v-0.4l0.5-0.7
		l-0.1-0.1l-0.9-1.4l1.4-0.2l0.5-1l0.3-0.8l-0.8-0.1l0.2-1l-1-0.1l-0.1-1l0.6-0.1l-0.5-0.8l0,0l-0.1-0.1l-0.3-0.3l-0.3-1.2l0.5-0.6
		l-0.7-0.2l-0.5-0.5l-0.1-0.5l0.3-0.5l0.8-0.6l-0.1-0.7l-0.8-0.6l-0.4-0.3l0.1-0.1l0.4-0.6l-0.7-0.6l0.3-0.5l0.6,0l0.2-0.7l0.1-0.7
		l-0.2-0.6l-0.5-0.1l-0.2-1l0.3-0.6l-0.4-0.5l-0.3-0.5l-0.2-0.4l-0.3-0.5l0.1-0.3l0.2-0.4l0.6-0.5l-0.6-0.5l0.9-0.2l0.3-0.8
		l-0.8-0.4l0.3-0.4l0.3,0l0.7,0.1l0-0.6l-0.3-0.2l-0.1-0.7l0.4-0.4l-0.1-0.5l-0.6-0.2l0.4-0.4l0.5,0.1l0.3-0.3l0.4-0.3l0.6-0.2
		l0.2-0.6l-0.3-0.3l-0.5-0.2l0-0.1l0,0l0-0.4l0.5-0.2l0.1-0.3l-0.2-0.6l0.6-0.2l0.3-0.6l0.7-0.2l-0.2-0.7l0.4-0.3l0.8,0.4l0.2-0.7
		l0.7-0.5l-0.1-0.6l0.1-0.9l0.2-0.6l-0.5-0.6l0.1-0.3l0.2-0.4l0-0.5l0.4-0.9l0.3-0.4l0.1-0.7l0.6,0l0.1,0l1-0.6l0,0l0.7-0.5l0-0.4
		l-0.8-0.8l5.8-0.3l0.4,0l0.4,0l0.9-0.1l2.4-0.2l0.9-0.1l1.8-0.1l2-0.1l0.1,0l2.2-0.2l0.4,0l3.6-0.3l1-0.1l0.2,0l1.2-0.1l0.7-0.1
		l0.6,1l0.7,0.4l-0.1,3.8l0,0.6l0,1.7l0,2l-0.1,3.3l0,0.4l-0.1,4.4l0,0.7l0,2.3l-0.1,3.5l0,1.5l0,2.7l0,0.9l-0.1,3.1l0,1.9l-0.1,3.8
		l0,0.8l0,0.3l-0.1,2.5l0,1.7l0,0.5l0.1,1.4l0.2,1.3l0.1,1.1l0.3,2.6l0,0.2l0.5,4.3l0.2,1.6l0.5,3.6l0,0.1l0.3,2.6l0.3,2.4l-0.2,0.4
		l-0.4,0l-0.3,0.4l-0.6-0.2l-0.7,0.2l-0.4-0.3l-0.6-0.1l-0.4,0.3l-0.6,0l-0.7-0.1l-0.2,0l-0.9-0.4l-0.9,0.1l-1.3,0.4l-1.2,0.6
		l-1.3,0.4l-0.1,0.1l-0.4,0.2l-0.9,0.7l-0.2,0.6l-0.3,0.2l-0.6,0.2l-1-0.4l-0.4-1.2l-0.6-1.4l-0.3-0.5l-0.2-0.3l-1-1l-0.4-1.3
		l-0.1-0.3l-0.2-0.8l0.4-1.3l0.4-1.3l0.2-1.3h0l-1.3,0.1l-0.7,0l-4.3,0.3l-1,0.1h0l-2.4,0.1l-0.2,0l-2.3,0.1l-0.8,0l-2.8,0.2
		l-1.4,0.1l-0.6,0l-4.9,0.2l0.1-0.1l0.8-0.7l-0.4-0.6l-0.4-0.6l0.3-0.8l0,0l-0.7-0.5L404.1,332.5"/>
</g>
<g transform="matrix(0.999751,0,0,0.999751,-54.8748,-49.3873)">
	<path vector-effect="none" class="st1" d="M267.5,191.5l0.2-2.3l0.1-1.6l0,0l0.2-2.4l0.1-0.7l0.1-1.2l0.2-2.6l0.1-1.6l0-0.2
		l0.3-3.3l0.3-3.5l0.1-1.6l0-0.3l0.4-5.2l5.6,0.5l0.3,0l4.8,0.4l2.1,0.2l3.9,0.3l3.3,0.2l0,0l8.7,0.5l2.3,0.1l8.2,0.4l0,0l3.6,0.1
		l3.2,0.1l2.8,0.1l4.1,0.1l3.6,0.1l0.2,0.5l0.4,0.5l0.5,0.2l0.8,0.5l0.3,0.2l0.5,0.2l0.8,0.3l0,0l0.4,0.5l0.7,0.6l0.9-0.1l0.5-0.4
		l0.3-0.8l0.2-0.2l0.6,0.1l1,0.2l0.7-0.1l0.4-0.1l0.9,0l0.3,0.1l0.3,0.1l0.4-0.3l0.8,0.2l0.4-0.1l0.7,0.2l0.2,0.5l0.5,0.4l0.3,0.3
		l1.1,0.1l0.1,0.1l0.5,0.5l0.6-0.1l1,0.5l0.1,0l0.2,0.5l0.8,0.1l-0.1,0.8l0.5,0.5l0.3,0.6l0.2,0.3l0.9-0.1l0.2,0.4l0.6-0.1l0.7,0.4
		l-0.3,0.7l0,1l0.6,0.8l0.2,0.2l0,0.6l0,0.1l-0.1,0.7l0.8,0.8l0,0.9l0.5,0.3l0.9,0.7l-0.3,0.9l0.3,0.6l0.2,0.4l0.4,0.7l-0.2,1
		l-0.2,0.6l0,0.1l-0.1,0.8l0.3,0.7l0.1,0.5l0.8-0.2l0.1,0.5l0.1,0.5l0.6,0.2l-0.1,0.9l0,0.3l0,0.7l0.4,0.6l-0.2,0.6l0,0.7l0,0.1
		l0.6,0l-0.1,0.4l-0.1,0.5l0.1,0.6l0,0.4l0,0.5l0.4,0.6l-0.1,0.7l0.2,0.4l0.1,0.2l-0.3,0.6l0.1,0.9v0l-0.6,0.7l0.4,0.8l0.7,0.4
		l0.4,0.7l-0.2,0.3l0.1,0.8l0.5,0l0,0.1l0.2,0.4l0.1,0.4l0.4,0.9l0.1,0.4l-0.1,0.6l0.6,0.2l0.5,0.3l0.1,0.4l0,0l0,0.1l0.8,0.3
		l-0.1,0.7l0.5,0.7l0.4,0.5l-0.2,0.5l0.3,0.6l0.4,0l0.4,0.4h-0.3l-4.7,0h0h-2.4h-0.1h-1.4l-0.9,0l0,0l-2.4,0h-0.1l-3.6,0l-0.7,0
		l-0.5,0l-1,0l-3.8-0.1l-0.5,0l-3.8-0.1l-0.5,0l-1.2,0l-1.5,0l-2.1,0l-2.5-0.1l-1.2,0l-1.2,0l-3.6-0.1l-0.2,0l-1,0l-3.4-0.1l-1.3,0
		h0l-2-0.1l-3.9-0.2l-0.2,0l0,0l-3-0.1l-2.8-0.1l-0.2,0l-3.2-0.2l-2.5-0.1l-0.3,0l-0.9-0.1l-1.4-0.1l-3.1-0.2l-2.3-0.1l0.3-4.7
		l0-0.2l0.1-1.3l0.2-3.6l0-0.7l0,0l0.2-3.6h0l-5.3-0.3l-0.7,0l-0.3,0l-4.4-0.3l-3.2-0.2l-2-0.2h0l-5-0.4L267.5,191.5"/>
</g>
<g transform="matrix(0.999751,0,0,0.999751,-54.8748,-49.3873)">
	<path vector-effect="none" class="st0" d="M96.6,188l0.5-1.7l0.3-1.3l0.7-2.5l0.8-3.2l0.6-2.3l0.7-2.7l1.4-5.5l0.5-2l1.1-4.3
		l1.5-5.9l0.9-3.5l0.4-1.6l2.7,0.7l3.7,1l0.4,0.1l1.2,0.3l2.1,0.5l2.3,0.6l2.8,0.6l3.1,0.7l0,0l3.3,0.8l2.5,0.6l2.2,0.5l2.1,0.5
		l1.7,0.4l0.1,0l4,0.9l3,0.7l4.7,1l2.5,0.5l3.2,0.7l2.8,0.5l1.4,0.3l3,0.7l3.2,0.6l0,0l2.4,0.5l-0.6,3.3l-0.7,3.6l-0.8,3.9l-0.6,2.9
		l0,0l-0.7,3.8l-0.6,3.2l-0.3,1.3l-0.8,3.9l-0.1,0.3l-0.5,2.7l-0.3,1.5l-0.7,3.5l-0.1,0.6l-1.3,6.8l-0.3,1.8l-0.5,2.8l-0.3,1.4l0,0
		l-0.4,2.3l-0.4,2.1l-0.3,1.4l0,0l-0.7,3.7l-0.4,1.9l-0.4,2l0,0l-0.3,1.6l-0.5,2.9l-0.5,2.7l-0.2,1.2l-0.4,2.2l-0.6,3.3l-0.7,3.9
		l-0.2,0.8l-0.2,1l-0.8,0.9l-0.6,0.9l-0.2,0.4l-0.7,0l-0.6-0.4l-0.4-0.5l-0.1-0.7l-0.3-0.6l-0.5-0.1l-0.4,0.2l-0.4-0.1l-0.2-0.4
		l-0.7-0.1l-0.6,0l-0.5,0.2l-0.8,0l-0.2,0.4l0,0.1l-0.1,0.8l-0.1,0.9l0.2,0.7l0.2,0.6l-0.5,0.6l-0.2,1.1l-0.1,1.2l0.3,0.6l-0.3,1.2
		l-0.2,1l0.3,0.6l0,2.1l-0.2,1.7l-0.3,0.2l-0.2-0.1l-0.2,0.7l-0.3,0.9l-1.5-2.3l-2.1-3.2l-1-1.5l-1.3-1.9l-0.9-1.3l-2.1-3.2l0,0
		l-1.7-2.6l-0.4-0.6l-1.7-2.6l-2.4-3.7l-1-1.5l-4.4-6.6l-1.4-2.1l-0.7-1l-3.7-5.5l-1.3-1.9l-1.6-2.4l-3.4-5.1l-0.6-0.9l-3.7-5.5
		l-1.7-2.5l-1-1.5l-0.4-0.6l-2.1-3.1l0,0l-2.6-3.8l-0.8-1.2l0.2-0.9l0.2-0.6l0.2-0.7l0.4-1.7L96.6,188"/>
</g>
<g transform="matrix(0.999751,0,0,0.999751,-54.8748,-49.3873)">
	<path vector-effect="none" class="st1" d="M589,141l0.1-0.5l-0.2-0.8l0.3-0.3l0.3-0.6l-0.1-0.2l-0.2-0.3l0.1-0.6l-0.4-0.9l0-0.1
		L589,136l0-0.3l0-0.4l0-0.8l-0.1-0.2l-0.2-0.3l-0.1-0.9v0l-0.1-0.9l-0.3-1.1l0.3-0.5l0,0l0.1-1.6l0.5-0.7l0.1-0.2l0.2-0.5l-0.1-0.9
		l0.4-1.2l-0.3-0.6l0.2-0.6v0l0-0.1l0.1-1l-0.4-0.7l-0.2-0.3l-0.1-0.9l-0.1-0.6l0.3-0.6l0.5-0.3l0.7-0.2l0.3-0.2l0.2-0.1l0.2-0.7
		l0.1-0.1l0.6-0.4l0.3-0.8l0.5-0.6l-0.2-0.6l0.3-0.5l-0.2-0.6l-0.5-0.4l-0.7-1l0.3-0.9l0.2-1.1l0.2-0.5l-0.6-0.8l0.2-0.6l-0.2-0.8
		l0.3-0.7l0.1-0.9l0-0.4l-0.5-0.5l0.6-0.6l0.6-0.6l0.5,0.4l0.7,0.2l0.4-0.1l0.1-0.6l0.2-0.4l1.4,4.1l1.2,3.5l1,3.2l0.2,0.8l0.4,1.3
		l0.2,0.5l0.1,0.2l0.1,0.3l0.7,2.2l1,3.4l0.2,0.6l0.4,1.2l0.6,1.7l0.2,0.4l0.2,0.4l0.1,0.5l0.1,0.6l0,0.8l0.8,0.5l0.7,0.6l0.8,0.6
		l0,0.5v0l0.2,0.7l0.1,0.1l0.8,0.4l0.6,0.1l-0.1,0.7l-0.2,0.6l-0.1,0.8l0,0.5l0,0.2l-0.5,0.2l-0.7,0l-0.3,0.3l-0.6,0.3l-0.1,0.4
		L604,138l-0.5,0.1l-0.3,0l-0.3,0.4l0.2,0.7l-0.6,0.2l-0.1,0l0,0l-0.2,0.6l-0.6,0.1l-2.8,0.7l-1.1,0.3l-0.6,0.1l-0.9,0.2l-0.3,0.1
		l-1.5,0.3l-0.4,0.1l-0.8,0.2l-0.8,0.2l-1.3,0.3l-0.4,0.1l-0.1,0l-0.3-0.4l-0.8-0.4l-0.3-0.7L589,141"/>
</g>
<g transform="matrix(0.999751,0,0,0.999751,-54.8748,-49.3873)">
	<path vector-effect="none" class="st0" d="M568.9,192.6l0.2-0.3l0.1-0.6l0.2-0.5l0-0.7l0.4-0.6l0,0l0.2-0.2l0.3-0.4l0.1-0.1
		l0.5-0.1l0.3-0.2l0.4-0.2l0.1-0.1l0.2-0.3l0.4-0.3l0.1,0l-0.2-0.7l0.1-0.3l0.5-0.5l0,0l0.6-0.8l0.1-0.2l0.4-0.4l0.7-0.3l0.3-0.7
		l0.6-0.2l0.4-0.4l0,0l-0.4-0.4l-0.2-0.2l-0.8-0.4l-0.4-0.4l-0.6-0.4l-0.3-0.3l-0.2-0.2l-0.4-0.5l-0.6,0.1l-0.4-0.1l-0.3-0.5l0-0.4
		l-0.4-0.9l-0.7-0.2l-0.5,0.2l-0.1-0.3l-0.1-0.2l-0.1-0.4l-0.1-0.5l-0.1-0.5l0-0.7l0.6-0.5l0,0l0-0.8l0.1-0.6l-0.5-0.5l-0.4-0.5
		l-0.1-0.2l0.5-0.7l0.4-0.7l0.1-0.5l0.1-0.2l0-0.1l0.6-0.8l0.2-1.1l0.3-1.1l0.4-0.7l0.6-0.4l2.8,0.9l1.1,0.4l0.8,0.3l0.8,0.2l0,0
		l0.3,0.1l2,0.6l1.7,0.5l0,0l0,0.7l0,0.5l0,0.1l0,0.5l0,0.1l0,0.3l-0.1,0.5l0,0.1l0,0.1l-0.1,0.3l-0.2,0.6l0,0.3l0,0.1l0,0.2l0,0.3
		l0,0.2v0l-0.1,0.3l0,0.1l-0.1,0.3l-0.7,0.3l-0.1,0l-0.3,0.3l0,0l0.1,0.5l0,0.5l-0.3,0.3l0,0.6l0.1,0.5l0.4,0.1l0.2,0.1l0.5-0.2
		l0.5-0.1l0.7,0.2l0.1-0.8l0.2-0.1l0.4,0.9l0.3,0.8l0.1,1l0,0.9v1.4l0,0.3l0.1,1.8l0.1,1l0.2,1.6l0,0.5l0,0.1l-0.5,2l-0.7,1.8l0,0
		l0,0.5l-0.4,1.1l-0.3,0.7l-1,0.9l-0.2,0.2l-0.3,0.5l-0.5,1l-0.2,0.5l-0.3,0.9l0.1,0.2l-0.5,1.3l-0.2,0.6l-0.5,0.8l-0.7,0.3l-0.4,0
		l-0.1-1l0.3-1.3l0-0.8l-0.3-0.4H577l-0.9,0l-0.6-0.2l-0.4,0.2l-0.4,0.5l-0.4-0.5l-0.6-0.4l-0.4-0.2l-0.4,0l-0.6-0.5l-0.3-0.1
		l-0.6-0.3l-0.2-0.1l-0.3-0.1l-0.3-0.4l-0.8-0.1l0-0.5l-0.1-0.5l0-0.6l-0.4-0.2L568.9,192.6"/>
</g>
<g transform="matrix(0.999751,0,0,0.999751,-54.8748,-49.3873)">
	<path vector-effect="none" class="st1" d="M197.5,315.6l0.6-4l0.7-4.8l0,0l0.7-4.9v0l0.8-6l0,0l0.4-2.8l0.7-5.1l0.2-1.3l1.2-9
		l0.1-0.8l0.7-5.3v0l0.4-3l0.4-2.6l0.5-3.5l0.5-3.7l0.2-1.7l0.2-1.6l1.5-10.6l0.2-1.7l4.7,0.6l2.6,0.3l4.2,0.5l5.7,0.7l0.7,0.1l0,0
		l6,0.7l0.1,0.1l4.3,0.5l1.5,0.2l3.7,0.4l0.1,0l3.1,0.3h0l2,0.2l1.3,0.1l1.9,0.2l0.3,0l0.7,0.1l0.4,0l4.3,0.4l4.3,0.4l3.7,0.3l3,0.2
		l7.2,0.5l0.9,0.1l-0.1,1.3l-0.2,3.3l-0.1,1l-0.1,1.4l-0.4,0l-0.5,6.3l-0.3,4.4l-0.1,1.6l0,0l-0.5,6.2l0,0.5l-0.2,2.7l-0.2,2.9
		l-0.1,1.8L271,287l-0.1,0.9l0,0.1l-0.2,2.7l0,0.5l-0.3,3.6l0,0l-0.3,3.6l0,0l-0.2,2.5l-0.2,2.4l-0.3,3.6l-0.1,1.5l-0.3,3.7
		l-0.1,0.9l-0.4,5.3l-0.1,0.8l-0.1,1.2l-3.1-0.2l-4.7-0.4l-3-0.2l-0.5,0l-7.3-0.6l-2.4-0.2l-0.8-0.1l-2.8-0.3l-7-0.7l-2.9-0.3
		l-2.4-0.3l-2.1-0.2l-2.8-0.3l-0.2,0.4l0,0.8l-0.2,0.6l0.5,0.9l0.6,0.5l0,0l-5.4-0.6l-3.6-0.4l-1.5-0.2l-9.3-1.2l-0.5,3.9l-0.3,2.3
		l-5.9-0.8l-1.8-0.2l-2.2-0.3L197.5,315.6"/>
</g>
<g transform="matrix(0.999751,0,0,0.999751,-54.8748,-49.3873)">
	<path vector-effect="none" class="st0" d="M484.5,270.2v-0.3l0.6-0.7l0.6,0.3l0.9-0.2l0.7-0.7l0.1-0.1l-0.3-0.7l0.3-0.4l-0.2-0.5
		l0.5-0.7l0.2-0.1l0.1,0l0.4-0.2l0.7-0.7l0.8-0.7l1.2-0.2l0.1,0l0.7-0.1l1-0.1l0.4-0.6l0.3-0.2l0.7-0.8l0.6,0l0.3-0.7l0.1-0.2l0,0
		l0.6-0.2l0.3-0.6l0.7-0.3l0.5-0.2l0.8,0l0.1-0.2l0.3-0.5l0.3-0.7l-0.2-0.7l0.2-0.1l0.3-0.2l0.5,0.3l0.3-0.4l0-0.6l0.6-0.4l1-0.8
		l0.3,0.3l0.1,0.1l-0.1,0.7l0.6,0.2l0.5-0.5l0.4-0.4l0.4-1l0.1-0.2l0.6-0.5l0.5-0.3l0.4,0l0.4-0.4l0.1-0.1l0.8,0.2l0.2,0.4l0.5-0.1
		l0,0l0.5-0.3l0.5-1.6l0.2-0.6l0.1-0.3l0.1-0.2l0.7-0.8l0.7,0l0.7-0.1l-0.3-0.7l-0.1-0.3l0.3-0.8l-0.2-1l0.1-0.8l2-0.2l1.6-0.2
		l2-0.2l1.3-0.1l1.8-0.2h0l0.7-0.1l1.5-0.2l1-0.1l1.9-0.2l0.1,0l1.5-0.2l2.7-0.4l0.3,0l0,0l1.5-0.2l1.9-0.3l2.2-0.4l0,0l0.4-0.1
		l1.4-0.3l1.4-0.2l0.9-0.2l2.2-0.4l1.6-0.3l0.7-0.1l2.5-0.4l0.6-0.1l1.5-0.3l2.1-0.4l1-0.2l1.6-0.3l1.5-0.3l0.2,0l4.9-1l1.2-0.2
		l0.3-0.1l2.7-0.5l0,0h0l1.9-0.5l2.1-0.4l0.5-0.1l1.9-0.4l0,0l2.1-0.4l1-0.2l1.7-0.4l0.7,1.5l0.9,1.9l0.5,0.7l0.9,1.5l0.9,1.1l1.4,2
		l0.8,1.2l0.4,0.5l0.8,1.7l0.3,2.9l0,2.4l-1.1,0.3l-1.2,0.8l-0.1,0.1l-1.5,1.2l-0.9,1l-1.2,1.3l-0.8,1.4l-0.7,0.9l-0.7,1.1l-0.5,1.1
		l-0.6,1.9l-0.3-0.5l-0.9-0.5l-1.3-0.1l-2,0.6l-2.2,1.1l-0.3,0.1l-1,0.9l-0.8,0.9L563,268l-0.5,0.6l-1.1,1.3l-0.7,1.1l-0.5,0.7
		l-0.5,1.3l-0.3,1.8l-0.2,1l-0.1,0.7l-0.1,1l-0.5,0l-0.2-0.4l-1.4-0.1l-1.6,0.3l-1.2,0.4l-1.7,1l-1-0.7l-0.5-0.3l-2.2-1.5l-3.5-2.5
		h0l0,0l-3.8-2.8l-1.2-0.9l-0.2-0.1l-2.8-2l-0.2,0l-2.6,0.4l0,0l-1.7,0.3l-2.8,0.4l-2.7,0.4l0,0l-2.7,0.3l-0.1-1.6l-0.8-0.8
		l-0.9-0.9l0,0l-0.4-0.4l-1.1,1.1l-0.2-0.4l0.1-0.7l-0.1-0.3l0,0l-3.2,0.3l-0.4,0l-1.4,0.1l-3.1,0.3l-1.2,0.1l-1.1,0.1l-0.8,0.1
		l-0.1,0l-1.9,0.2l-0.9,0.1l-0.7,0l-0.7,0l-0.4,0.4l-0.8,0.4l-0.5,0.2l-1.2,0.5l-0.6,0.7l-0.2,0l-0.2,0l-1.2,0.6l-1.2,0.6l-1.1,0.5
		l0,0l-2.4,0.4L494,272l-0.7,0.1l-0.8,0.1l-3.6,0.4h0l-0.8,0.1l-1.4,0.2l-2.2,0.3L484.5,270.2"/>
</g>
<g transform="matrix(0.999751,0,0,0.999751,-54.8748,-49.3873)">
	<path vector-effect="none" class="st3" d="M276.9,81.6l6.3,0.5l4.1,0.3l0.8,0.1l5.9,0.4l1.8,0.1l3.7,0.2l1.2,0.1l3.5,0.2l6.5,0.3
		l2.3,0.1l2.5,0.1l3.6,0.1l1.4,0l3.5,0.1l1.2,0l8.6,0.2l1.6,0l5.1,0.1v0.8l0.4,1.1l0.3,1.3l0.3,0.8l0.2,0.6l-0.4,1.2l-0.1,0.6l0,0
		l0,0.1l0.1,1.4l0,1.2l0.1,1.2l-0.1,0.9l0,0.3l0,0.1l0.4,1.1l0.3,0.9l0.3,1.3l0.4,1.2l0.6,1.4l0.3,1l0.1,0.3l0.3,1.1l0,1l0,0.8
		l0.1,2.3l0,0.5l0.1,1.2l0.1,1l-0.1,1l0.7,1.4l-0.3,1.9l0,1.2l0,0.8l0,0l0,0.1l0.4,0.9l0.3,1.8l0.6,1.1l0.4,0.5l0,1.4l0.4,1.9
		l-0.2,0.9l0,0.1l0.1,1.1l-5.1-0.1l-1.4,0l-3.1,0l-2.3,0l-2,0l-0.3,0l-0.6,0l-3.4-0.1l-2.1-0.1l-1,0l-2.7-0.1l0,0l-0.9,0l-2.5-0.1
		l-1.4-0.1l-1.2-0.1l-1,0l0,0l-1.6-0.1h0l-2.7-0.1l-1.4-0.1l-2-0.1l-0.1,0h0l-2.4-0.1l-3.4-0.2l-2.5-0.1l-1.9-0.1l-2.3-0.1l-2-0.1
		l0,0l-0.8-0.1l-2.3-0.2l-2.2-0.2l-1.5-0.1l-1.7-0.1l-0.6,0l-0.5,0l-2.2-0.2l-2.1-0.2l-2.2-0.2l-3.7-0.3l0.4-4.7l0.1-0.6l0.2-2.6
		l0-0.4l0.1-1.4l0.1-1l0.3-3.1l0.2-2.7l0.2-2.8v0l0.1-0.9l0.3-2.9l0.2-2.8l0.2-2.3l0-0.3l0,0l0.3-3.4l0.2-2l0.1-1.4l0.2-1.9l0.2-2.9
		L276.9,81.6"/>
</g>
<g transform="matrix(0.999751,0,0,0.999751,-54.8748,-49.3873)">
	<path vector-effect="none" class="st1" d="M601.4,160.3l0.1-0.5l-0.2-0.8l0.4-0.2l-0.4-1.8l-0.2-0.7v0l-0.2-0.6l-0.3-1.2l0,0
		l-0.3-1.1l-0.8-2.7l1.9-0.6l0.1,0l0.3-0.1l0.6-0.2l0.4-0.1l0.8-0.2l0.1,0.5l0.1,0.4l0.2,0.8l0.4-0.1l0.2,0.8l0.3,0.6l0.1,0l0.7,0.2
		l0.8,0.7l0.1,0.1l0.1,0.1l0.7,0l0.2,0.8l0.6,1.4l-0.2,0.2l-0.4,0.5l-0.2-0.1l-0.3-0.1l-0.1,0l-0.4,0l-0.1,0.6l-0.4,0.1l-0.4,0
		l-0.3,0.1l-0.1,0.1l-0.1,0.7l-0.2,0.6l-0.7,0.2l-0.7,0.4l-0.7,0.5l-0.3,0.1l-0.5,0.3l-0.7,0.4L601.4,160.3"/>
	<path vector-effect="none" class="st1" d="M604.2,161.8l0.1-1.1l0.5-0.2l0.3,0.8l0.3,0.4l-0.7,0.2L604.2,161.8"/>
	<path vector-effect="none" class="st1" d="M471.8,214.6l-0.1-1.1l0,0l-0.1-1.2l-0.2-1.8l-0.1-0.6l-0.2-2.2l0,0l-0.3-2.7l-0.1-1.2
		l-0.2-1.4l-0.3-2.8l-0.1-0.6l0,0l-0.2-1.6l-0.1-0.5l-0.1-1l-0.3-2.2l0,0l-0.3-2.7l-0.1-0.9l-0.2-1.8l-0.2-1.8l0-0.3l-0.2-1.9l0-0.2
		l-0.2-1.5l-0.3-2.3l3.8-0.6l0.4-0.1l0.4-0.1l2.3-0.4l2.6-0.4l1.2-0.2h0l1.8-0.3l1.4-0.2l0.5,0.5l0.8-0.3l1.1,0.7l0.7,0.2l1.1,0.3
		l0.5,0.5l1,0.4l0.7-1l0.2-0.2l1.3,0.5l0.4,0.6l0,0.1l0.9,0.8l0.9,0.4l0.8,0l0.9-0.7l0.1,0l0.8-0.2l0.8-0.7l1.1-0.5l0.8-0.4l0.3,0.1
		l0.1,0l0.2,0.1l1.2-0.2l0.1,0l0.4,0l0.3,0l1-0.9l1.3-1.5l0.2-0.2l0.7-0.9l0.9-0.9l1-0.5l1.2-0.9l0.5-0.2l1-0.4l0.9-0.7l2.1-1
		l0.6-0.4l0.3,1.8l0.4,2.5l0.4,2.4l0,0.1l0.4,2.2l0.2,1.4l0.2,1.4l0,0.1l0.3,1.9l0.2,1.1l0,0.1l0,0l0.1,0.7l0.5,3l-0.6,0.4l-0.5,0
		l-0.3,0.6l0.6,0.8l0.3,1l-0.1,0.8l0,0.1l0.4,1.1l-0.3,0.8l-0.3,1l-0.1,0.4l0,0.1l-0.2,1l0.1,0.7l0.1,0.9l-0.2,0.3l-0.3,0.5l-0.1,1
		l0,0l0.1,0.6l-0.4,0.6l0.5,0.6l0.1,0.1l-0.3,0.7l-0.7,0.9l-0.8,1.1l-0.3,0.5l-0.4,0.8l-0.1,0.1l-0.6,0.4l-0.6,0.7l-1,0.8h-0.2
		l-0.3,0l-0.3-0.6l-0.5-0.1l-0.4,0.6l-0.5,0.7l0.1,0.8l-0.5,0.1l-0.7,0.1l-0.2,0.8l-0.1,0.1l-0.3,0.4l0,0.1l0.3,1l-0.1,0l-0.6,0.4
		l0.2,0.6l0.3,0.8l-0.5,0.6l-0.7,0.3l-0.6-0.8l-0.8-0.4l-0.3,0.2l-0.4,0.7l-0.1,0.2l-0.3,0.8l-0.1,1.2l-0.5,0.4l0.2,0.6l0.4,1.4
		l0.2,0.7l-0.4,0.3l-0.6,0.1l-0.1,0.2l-0.1,0.3l0,0.9L500,222l-0.6,0.3l-0.7,0.2l-0.6,0.3l-0.5,0.2l-0.4-0.2l-0.4-0.7l-0.6-0.4
		l-0.1-0.1l-0.6-0.5l-0.8,0l-0.1-0.1l-0.5-0.4l-0.3-1l-0.1-0.6l-0.2-0.3l-0.1-0.2l-0.6,0.3l-0.7,0.3l-0.2,0.2l-0.1,0.1l-0.7,0.6
		l-0.1,0.5l-0.4,0.3l-0.7,0l-0.2,0.3l-0.2,0.2L489,221l-0.7-0.5l-0.7,0l-1.1-0.3l-1,0.4l-0.1,0.5l0,0l-0.3,0.2l-0.3-0.1l-0.8-0.2
		l-0.2-0.5l-0.6-0.2L483,220l-0.6-0.2l-0.3-0.1l-0.6-0.1l-0.8,0.3l0,0l-0.9-0.1l-0.9-0.1l-0.2-0.3l-0.1-0.2l0-0.4l0-0.1l-0.7-1
		l-0.2-0.5l-0.3-0.4l-0.1-0.1l-0.8-0.2l-0.4-0.5l-0.2-0.4l-0.2-0.1l-0.2,0.1l-0.1,0.2l-0.1,0l-0.1,0l-0.5,0.1l-0.6,0.4l-0.2-0.1
		l-0.6-0.2l-0.4-0.4l-0.4-0.2l-0.7,0.7L471.8,214.6"/>
	<path vector-effect="none" class="st1" d="M487.9,177.5l0.3-0.5l0.5,0.3l0,0.7l-0.5,0.3L487.9,177.5"/>
</g>
<g transform="matrix(0.999751,0,0,0.999751,-54.8748,-49.3873)">
	<path vector-effect="none" class="st0" d="M273.9,254.8l0.2-3.3l0.1-1.3l1.8,0.1l1.6,0.2l3.8,0.3l3.5,0.2l0.2,0l1.4,0.1l3.8,0.2
		l0.8,0l3,0.1l1.6,0.1l1.3,0.1l1,0l2.5,0.1l0.9,0l5.1,0.2l1,0l0.1,0l3.7,0.2l1.3,0.1l0.9,0l0.5,0l3.1,0.1l1.4,0l2.3,0.1l2.7,0.1
		l2.1,0.1h0.1l2.6,0.1l0.7,0l2.7,0l0.4,0l3.4,0.1l0.9,0l2.6,0l0.5,0l3.9,0l2.5,0h0.3l3.1,0h2.4h0.4h0.4l1.6,0l2.4,0l0.6,0l1.3,0
		l0.9,0l2.8,0l0.7,0h0.1l3.1,0l1.1,0l0,3.3l0,1.4l0,0.8l0,1.6l0.4,2.8l0.3,1.9l0.1,0.8l0.2,1.6l0.5,3.1l0,0.1l0.3,1.7l0.3,2l0.2,1.5
		l0,0.1l0,0.2l0,1.3l0,3l0,1.8l0,0.6l0,2.3l0,1.3l0,1.8l0,2.1l0,2.4l0,2.4l0,1.1l0,2.1l0,2.1l-0.5,0.2l-0.5-0.7l-0.7,0l-1-0.5
		l-0.2-0.2l-0.4-0.4l-0.9,0.1l-0.7-0.5l-0.4-0.5l-0.5-0.6l-0.8-0.1l-0.6-0.6l-0.6-0.4l-0.1,0l-0.8-0.3l-0.3,0.5l-0.3,0.7l-0.3,0.1
		l-0.5,0.1l-1.1,0l-0.9-0.2l-0.4-0.6h-0.5l-0.8,0.3l-0.8,0.1l-0.6,0.3l-0.4,0.2l-0.3,0l-0.5,0l-0.6-0.2l-1.5,0.5l-1,0.1l-0.2,0.4
		l-0.7,0.7l-0.6-0.3l-0.3,0.5l-0.7,0.6l-0.2-0.3l-0.3-0.4l-0.4-0.5l-0.8,0.1l-0.2-0.6l-0.6,0l-0.2-0.2l0-0.7l-0.1,0l-0.8-0.5
		l-0.3,0.6l-0.4,0.6l-0.7-0.2l-0.2-0.4l-0.7,0.3l-0.5-0.8l-0.1-0.6l-0.3,0l-0.1,0l-0.1,0l-0.4,0.4l0,0.4l-0.8,0.4l-0.3,0.6l-0.1,0.5
		l0,0.5l-0.7,0.2l-0.6-1.2l0.5-0.5l-0.4-0.9l-0.5,0.2l-0.8,0.5l-0.6,0.6l-0.8-0.1L335,297l-0.4-0.6l0,0l-0.8,0.3l0,0l-0.4-0.3
		l-0.1-0.6l-0.7-0.3l-1,0.9l-0.5,0.6l-0.7,0.4l-1-0.4l0-0.2l0-0.5l0.1-0.9l-0.7-0.1l-0.9-0.1l-0.2-0.7l0-0.8l-0.3-0.7l-0.2,0.2
		l-0.4,0.4l-0.6-0.2l-1.1-0.3l-0.5-0.2l-0.4,0.4l-0.2,0.6l-0.1,0l-0.6,0.2l-0.6-0.4l-0.5-0.8l-0.4-0.1l-0.4-0.1l-0.5,0.4l-0.5,0
		l-0.8-0.4l-0.8-0.1l-0.8-0.6l-0.1,0l-0.6-0.1l-0.6,0.1l-0.8-0.1l-0.7-0.1l-0.2-1.4l-0.1-0.2l-0.6-0.9l-0.8-0.7l-0.5-0.1l-0.3,0.9
		L312,289l0,0l-1.3-0.2l-0.2,0.5l-1.1-0.1l-0.8-0.8l-0.6-0.8l-0.3-0.3l-1-1l-0.8,0.2l0,0l0.1-2.6l0.2-4l0.1-2.1l0.1-3.4l0.1-2.8
		l0.2-3.7l0.1-2.5l0.3-6.3h0l-3.4-0.2l-2.6-0.1l-0.5,0l-3.3-0.2l-0.8,0l-1.5-0.1l-6-0.3l-2.3-0.1l-2.3-0.2l-1.4-0.1l-9.4-0.7
		l0.1-1.4L273.9,254.8"/>
	<path vector-effect="none" class="st0" d="M513.8,184.8l-0.2-1.1l-0.3-1.9l0-0.1l-0.2-1.4l-0.2-1.4l-0.4-2.2l0-0.1l-0.4-2.4
		l-0.4-2.5l-0.3-1.8l1.8-1.1l1.6-1.4l0.1-0.5l0.4-0.4l0.7,0h0l0.9-0.8l0.7-0.5l0.8-0.6l0.3,1.9l0.3,1.8l1.5-0.3l1.4-0.2l4.2-0.8
		l0.8-0.1l0.7-0.1l3.3-0.6l2.9-0.5l0.4-0.1l0.7-0.1l1.8-0.3l2-0.4l0.8-0.2l1.4-0.3l6.1-1.2l0.4-0.1l0.4-0.1l3.7-0.8h0l0.9-0.2l0.1,0
		l3.2-0.7l0.4-0.1l2.4-0.5l3.2-0.7l0.7-0.2l0.1,0l1.2-0.2l0.2,0l0.6,0.5l0.5,0.8l0.8,0.1l0.5,0.1l0.4,0.1l0.5,0.4l0.4,0.6l0.4,1.5
		l0.1,0.5l0.1,0.4l0.9,0.9l1.1,0.4l1,0.1l0.5,0l0.2,0l0.6,0.8l-0.6,0.4l-0.4,0.7l-0.3,1.1l-0.2,1.1l-0.6,0.8l0,0.1l-0.1,0.2
		l-0.1,0.5l-0.4,0.7l-0.5,0.7l0.1,0.2l0.4,0.5l0.5,0.5l-0.1,0.6l0,0.8l0,0l-0.6,0.5l0,0.7l0.1,0.5l0.1,0.5l0.1,0.4l0.1,0.2l0.1,0.3
		l0.5-0.2l0.7,0.2l0.4,0.9l0,0.4l0.3,0.5l0.4,0.1l0.6-0.1l0.4,0.5l0.2,0.2l0.3,0.3l0.6,0.4l0.4,0.4l0.8,0.4l0.2,0.2l0.4,0.4l0,0
		l-0.4,0.4l-0.6,0.2l-0.3,0.7l-0.7,0.3l-0.4,0.4l-0.1,0.2l-0.6,0.8l0,0l-0.5,0.5l-0.1,0.3l0.2,0.7l-0.1,0l-0.4,0.3l-0.2,0.3
		l-0.1,0.1l-0.4,0.2l-0.3,0.2l-0.5,0.1l-0.1,0.1l-0.3,0.4l-0.2,0.2l0,0l-0.8-0.2l-1,0.1l-0.2,0.1l-0.7,0.3l-0.5,0.5l-0.3,0.6
		l-0.1,0.5l-0.2,0l-0.2,0.1l-3.4,0.7l-1,0.2h0l-0.1,0l-1.9,0.4l-1.6,0.3l-1.5,0.3l-0.7,0.2l-2.1,0.4l-0.1,0l-2.3,0.5l-0.2,0
		l-2.3,0.5l-0.1,0l0,0l-3.1,0.6l-3.2,0.6l-0.2,0l-2.6,0.5h0l-0.4,0.1l-3.6,0.7l-0.9,0.2l-1.3,0.2l-1.2,0.2l-3.6,0.7l-0.9,0.2l-3,0.5
		l-1.6,0.3l-1.3,0.2l-0.4,0.1l-3.6,0.6l-1,0.2l-0.5-3.4l-0.1-0.8l-0.3-2l-0.4-2.5l-0.1-0.8l-0.2-1.1l-0.4-2.2l-0.5-3L513.8,184.8
		L513.8,184.8L513.8,184.8"/>
	<path vector-effect="none" class="st0" d="M452.5,333.6l-0.1-0.6h0l0.9-0.1l1.1-0.1l1.4-0.1l1.8-0.2h0l2.8-0.2l1.1-0.1l0.5,0
		l1.2-0.1l1.5-0.1l2.1-0.2l0.3,0l2.1-0.2l1.8-0.2l1.7-0.2l1.7-0.2l2-0.2l1-0.1l0.1,0l1.8-0.2l2.2-0.3l1.4-0.2l0.3,0l0,0.3l0.3,0.5
		l0.7,0.7l0.1,0.6l0.3,0.8l0.7,0.8h0l0.6,0l4.1-0.3l1.1-0.1l1.1-0.1l1.9-0.1l0.5,0l0.9-0.1l2.2-0.2l0.9-0.1l1.6-0.1l1.3-0.1l1.7-0.1
		l0.6,0l2.1-0.1l0.1,0l3.1-0.2l2.3-0.2l1.3-0.1l1.5-0.1h0l0.5,0l2.4-0.1l0,0.6l0.4,0.6l0,0.7l0.5,0.7l0.4,0l0.6-0.1l0.5-0.2l0.1,0
		l-0.1-0.5l0.1-0.6l-0.1-1.2l-0.1-1l-0.5-0.7l0-0.5l0-0.8l0.4-0.6l0.5-0.7l0.5,0l0,0l0.5,0.3l0.7-0.1l0.6,0.1l0.4,0.3l0.8,0l0.4,0.1
		l0.9,0.1l0.4-0.2l0.3,0l0.8,0.1l0.2,0.1l0,1.4l0.3,1.1l0.1,0.2l0.1,0.1l0.2,0.2l0.5,1.9l0.4,1.2l1.7,4.5l0.3,0.4l0.2,0.8l0.1,0.5
		l0.8,1.5l0.8,1.5l1,1.7l0.9,1.5l1.3,2l0.9,1l1.9,2.4l0.9,1l1.2,1.4l1,1l1,1.8l-0.7,0.8l-0.1,1.1l0.2,1.1l0.4,1.1l0.8,1.7l1.7,2.4
		l1.1,1.5l1,1.8l0.3,0.5l1.2,2.3l1,1.5l0.8,1.2l0.3,0.8l0.4,0.5l0.7,1.3l0.7,1.4l0.2,0.6l0.1,0.4l0,0.1l0.2,1.3l0.1,0.4l0.1,0.4
		l0.1,0.6l0,0.8l0,1.2l0.1,1.5l0,1l0.1,2.2l0,0.1l0.1,1l0.1,0.6l0,0l0.1,0.8l0.1,0.6l0,0l0.2,0.7l0,0.8l-0.2,1.4l-0.3-0.2L552,394
		l-0.3,1.1l-0.3,0.7l0,1l0,0.1l-0.1,1l0.5,1l0.9-0.6l0.5-1.5l0.3,0.9l-0.6,1.7l-0.1,0.2l-1.1,2.6l-1.4,2.4l-1.7,2.1l-3.7,2.8
		l-1.7,0.8l-0.7-0.5l1.3-1.1l2.3-1.5l2.7-2.6l1-1.4l0.1-0.9l0-0.6l-0.6,0l-1.3,0.5l-0.7,0.6l-0.5,0.1l-0.9-0.4l-0.6,0.2l-0.2,0.1
		l-0.4,0.5l-1.2,0.4l-0.9,0.2l-0.9-0.7l-0.5-0.8l0.1-1.2l-0.1-1l-1-1.2l-0.6-1.2l-0.8-0.9l-0.9-0.3l-0.5-0.9l-0.8-0.2l-0.4-0.1
		l-2-0.8l-0.3,0.3l-0.4,0.3l-0.8-0.6l-0.6-1.2l-1-2l-0.8-2.3l0,0l-1.2-1.3l-0.4-0.2l-0.7,0.1l-0.7,0.5l-0.7-0.1l-0.8-0.4l-1.1-1.6
		l-0.4-1.3l-0.1-0.8l-0.3-0.4l-0.6-0.9l-0.9-1.1l-1.3-1.7l-1-1.6l-0.4-0.6l-1.1-1.2l-0.5-0.5l-0.6-0.6l-0.8-1.2l0.3,0l0.9,0l0.7-1.1
		l0.3-0.7l0.4-0.9l0.4-0.3l0.5-0.7l-0.3-0.5l-0.3-0.1l-0.2,0l-0.8-0.2l-0.1,0.2l-0.2,0.3l-0.4,0.6l0.1,0.7l-0.3,0.5l-0.5,1.1
		l-0.3,0.2l-0.2-0.9l-0.2-0.7l-0.7-0.8l-0.8-0.8l-0.1-1.2l0-1.1v0l-0.4-1.1l-0.2-0.9l0,0l1-1.1l0.2-1.2l0.2-1.4l0.1-0.2l0.2-0.8
		l0-0.8l-0.3-1l-0.1-1l0,0l-0.6-0.3l-0.2-1.1l-0.3-0.7l0.4-0.8l-0.5-0.6l-0.5-0.6l-0.1-0.1l-0.1-0.7l-0.9-0.5l0.3-0.3l-0.4-0.6
		l-1.2,0l-0.9,0l-0.1,0.8l-0.5,0l-0.4-0.9l0-0.7l-0.4-0.2l-0.7-0.2l0,0l-0.2-0.7l-0.4-0.6l-0.5-0.5l-0.7,0l-0.2-0.4l-1.2-0.6l-0.2-1
		l-0.2-1l0-0.1l-0.9-0.3l-0.7-0.3l-0.7-0.8l-0.6-0.9l-0.8-0.8l-1.4-0.6l-1.8-0.6l-0.8-0.6l-0.1-0.1l-0.8,0l-0.2,0.1l-0.6,0.2
		l-0.6,0.3l-0.4-0.1l-0.9,0.5l-0.8,0.8l0.4,0.6l0,0l0.2,0.5l-0.1,0.4l-0.9,0l-0.6-0.2l-0.8,0.3l-0.5,0.4l0.3,1.1l-0.4,0.4l-1,0.4
		l-0.9,1.1l-1.1,0.7l-1.9,1.2l-1.4-0.6l-0.9-0.3l-0.4-0.1l-1.1,0.4l-0.8-1.3l-0.3-1.1l0.3-1.1l-0.1,0l-0.5-0.3l-0.8-0.1l-1.1-0.8
		l-0.4-0.4l-1.2-0.4l-1.5-1l-2.4-1l0,0l-1.1-0.3l-1.6-0.4l-2.2-0.3l-0.2,0l-2.7,0l-2,0.4l-0.6,0.1l-0.8,0.2l-2.8,0.8l-0.9,0.2
		l-0.5,0.1l-0.6,0l-1.2,0.4l-1.2,0.3l0.7-1l0.2-0.8l0.7-0.5l-0.6-0.2l-0.4-0.7l0.1-0.6l0.3-0.8l-0.1-0.7l-0.5-0.4l-1-0.5l-0.3-0.4
		l-1.2-1.3L452.5,333.6"/>
	<path vector-effect="none" class="st0" d="M534.4,413l0.6-1.3l0.9-0.8l1-0.7l0.1-0.3l1.5-1l1.9,0.5l1,1l-1.2,0.7l-0.7,0.3l-0.6-0.2
		l-0.9,0.4l-0.9,0.5l-1.1,0.6l-1.6,0.4L534.4,413"/>
	<path vector-effect="none" class="st0" d="M531.9,413.8l0.3-0.6l1.5-0.3l-0.5,1.3l-1.4,0.2L531.9,413.8"/>
	<path vector-effect="none" class="st0" d="M529.6,413.6l0.5-0.7l0.8,0.3l-0.1,0.8l-1,0.2L529.6,413.6"/>
</g>
<g transform="matrix(0.999751,0,0,0.999751,-54.8748,-49.3873)">
	<path vector-effect="none" class="st3" d="M166.3,65.2l5,1.1l2.7,0.6l4.4,0.9l0.4,0.1l2.8,0.5l1.8,0.4l1,0.2l1.5,0.3l2,0.4l2.9,0.5
		l2.4,0.4l8.5,1.5l0.5,0.1l2.7,0.5l3.2,0.6l2.1,0.3l2.4,0.4l2.4,0.4l2,0.3l0.9,0.1l2.5,0.4l6.2,0.9l0.1,0l2.2,0.3l2.3,0.3l4.2,0.6
		l2.8,0.4l4.9,0.6l2.4,0.3l0.7,0.1l1.7,0.2l5.2,0.6l3.6,0.4l1.1,0.1l0.6,0.1l2.5,0.3l3.9,0.4l0.8,0.1l1.9,0.2l1.7,0.2l3.1,0.3
		l4.6,0.4l-0.2,2.1l-0.2,2.9l-0.2,1.9l-0.1,1.4l-0.2,2l-0.3,3.4l0,0l0,0.3l-0.2,2.3l-0.2,2.8l-0.3,2.9l-0.1,0.9v0l-0.2,2.8l-0.2,2.7
		l-0.3,3.1l-0.1,1l-0.1,1.4l0,0.4l-0.2,2.6l-0.1,0.6l-0.4,4.7l-0.1,0.9l0,0.2l-0.1,1.6l-0.2,2.7l-0.1,0.9l-0.2,2.2l-0.1,1.7
		l-0.1,1.2l-0.1,1.8l-0.2,0l-9.5-0.9l-0.1,0l-0.4,0l-7.6-0.8l-1.7-0.1l-2.4-0.2h0l-6.1-0.7l-4.5-0.6l-5.5-0.7l-0.8-0.1l-2.5-0.3
		l-2.5-0.3l-1.2-0.2l-4.3-0.6l-0.4-0.1l-4.6-0.6l-2.2-0.3l-1.9-0.3l-3.2-0.4l-3.7-0.5l-0.8-0.3l-2.5-0.4l0,0l-0.4,1.8l-0.3,2
		l-0.1,0.8l-0.1,0.6l-0.3,2.1l-0.7-0.4l-0.1-0.6l-0.5-0.6l-0.1-0.7l-0.3-0.7l-0.4-0.9l-0.5-0.5l-0.1-0.1l-0.6,0.4l-0.2,0.3l-0.2,0.2
		l-0.7,1.3l-0.5,0.3l-0.5-0.1l-0.9-0.2l-1.1,0.5l-0.5-0.8l-1.7,0.1l-0.9,0l-0.9-0.4l-0.6-0.5l-0.8,0.4l-0.5,1.1l-0.8-0.6l-1.2-0.4
		l-1-0.3l-0.3,0l-1.1,0.6l0,0.5l-0.1,0l-0.6,0.2l-0.6-0.6l-0.4-0.9l0.1-0.6l-0.4-0.9l0.2-0.7l-0.3-1.2l-0.2-0.8l-1-1l-0.6,0.2
		l-0.6-0.6l-0.4-0.2l-0.3-1l0.4-0.5l0.2-0.7l0-0.7l-0.5-0.7l-0.5-0.5l-0.5-1.6l-0.6-1.4l0.2-0.8l-0.2-0.6l0.2-0.7l-0.3-0.7l0.2-1.1
		l-0.5-0.4l-0.3-0.4l-0.4-0.6l-0.2-0.3l-0.4,0l-0.1,0.6l-0.8,0.6l-1.2,0.6l-0.7,0l-0.4,0.7l-0.8-0.3l-0.7-0.9l-0.4-0.3l-0.1-0.4
		l-0.1-0.3l0.1-0.6l0.4-0.2l0.1-0.7l-0.4-0.9l0.6-0.7l1-0.1l0.4-0.3l-0.2-0.4l0.2-0.7l-0.3-0.4l-0.3-0.6l0.4-0.9l-0.5-0.5l0.2-0.6
		l0.7,0l0.1-0.9l0.2-0.5l0.2-0.5l0.3-1l0.4-0.3l0.1-1.2l0.5,0l0.4-0.9l0.3-0.9l-0.1-0.1l-0.2-0.2l-0.9,0.1l-0.9-0.1l-0.4-0.2
		l-0.3-0.1l0.1-0.8l-0.4-0.4l-0.2-0.2l-0.7-0.1l-0.1-0.6l-0.8-0.6l-0.4-0.9l0.3-0.6l-0.3-0.3l-0.6-0.7l-0.2-0.8l-0.4-0.6l-0.4-1.1
		l-0.5-0.7l-0.2-0.5l-0.2-0.7l-0.4-0.2l-0.9-0.5l-0.5-0.5l-0.3-0.8l-1.1-0.9l0.3-0.5l0.6-0.2l-0.6-0.9l0.1-0.6l0.4-0.6l-0.3-0.5
		l0.2-0.5l-0.9-1.1l0.1-0.8l-0.4-0.5l-0.4-0.9l-0.4-1.2l0-0.2l-0.1-0.2l0.4-1.7l0.3-1.2l0.3-1.3l0.5-2.3l0.1-0.3L166.3,65.2"/>
</g>
<g transform="matrix(0.999751,0,0,0.999751,-54.8748,-49.3873)">
	<path vector-effect="none" class="st1" d="M154.4,225.7L154.4,225.7l0.4-2l0.4-1.9l0.7-3.7l0,0l0.3-1.4l0.4-2.1l0.4-2.3l0,0
		l0.3-1.4l0.5-2.8l0.3-1.8l1.3-6.8l0.1-0.6l0.7-3.5l0.3-1.5l0.5-2.7l0.1-0.3l0.8-3.9l0.3-1.3l0.6-3.2l0.7-3.8l0,0l0.6-2.9l0.8-3.9
		l0.7-3.6l0.6-3.3l2.3,0.5l3.3,0.5l2.5,0.4l2.5,0.4l0,0l3.6,0.6l3.9,0.7l1.1,0.2l0.5,0.1h0l3.7,0.6l2.5,0.4l0,0l0.4,0.1l1,0.1
		l3.3,0.5l-0.9,5.9l0,0.2l-0.5,2.8l-0.2,1.5l-0.6,3.5l5.3,0.9l4.3,0.6l0.8,0.1l0.5,0.1l3,0.4l4.8,0.7l2.1,0.3l-0.3,2.4l-0.3,2.3
		l0,0.1l-0.9,6l-0.1,0.6l-0.6,4.3l-0.4,3l-0.3,2.3l-0.3,1.8l-0.5,3.4l-1.3,8.7l0,0l-0.4,3.1l0,1.6l0,0.2l-0.5,3.8l-0.8,5.5l-1,6.8
		l-4.9-0.7l-5.6-0.8l0,0l-5.1-0.8l-3.1-0.5l0,0l-3.5-0.5l-2.3-0.3l-1.4-0.2l-0.1,0l-10.3-1.7l-2-0.3l-0.1,0l-3.1-0.5l-0.8-0.1
		l-0.7-0.1l-10.9-2l-0.9-0.2l0.2-1.2l0.5-2.7l0.5-2.9L154.4,225.7"/>
</g>
<g transform="matrix(0.999751,0,0,0.999751,-54.8748,-49.3873)">
	<path vector-effect="none" class="st3" d="M576.4,126.3l0-0.8l0-0.2l0.2-1l0.2-0.5l0-0.1l-0.2-0.6l-0.3-0.6l0-0.4l0.1-0.9l-0.4-0.9
		l-0.5-0.4l-0.2-0.2l-0.1-0.1l-0.4-0.7l0-1.2l-0.1-0.7l0.1-0.8l-0.1-0.1l-0.3-0.2l-0.2-0.4l0.2-0.9l-0.2-0.7l-0.1-0.6l1.4-0.4
		l0.2-0.1l1.2-0.3l1.1-0.3l3.4-0.8l0.3,0l0.2,0l1.8-0.4l3.1-0.8l1-0.3l0.2,0l2-0.6l0.8-0.2l1-0.3l-0.2,0.6l0.6,0.8l-0.2,0.5
		l-0.2,1.1l-0.3,0.9l0.7,1l0.5,0.4l0.2,0.6l-0.3,0.5l0.2,0.6l-0.5,0.6l-0.3,0.8l-0.6,0.4l-0.1,0.1l-0.2,0.7l-0.2,0.1l-0.3,0.2
		l-0.7,0.2l-0.5,0.3l-0.3,0.6l0.1,0.6l0.1,0.9l0.2,0.3l0.4,0.7l-0.1,1l0,0.1v0l-0.2,0.6l0.3,0.6l-0.4,1.2l0.1,0.9l-0.2,0.5l-0.1,0.2
		l-0.5,0.7l-0.1,1.6l0,0l-0.3,0.5l0.3,1.1l0.1,0.9v0l0.1,0.9l0.2,0.3l0.1,0.2l0,0.8l0,0.4l0,0.3l0.1,0.8l0,0.1l0.4,0.9l-0.1,0.6
		l0.2,0.3l0.1,0.2l-0.3,0.6l-0.3,0.3l0.2,0.8L589,141l0,0.1l0.3,0.7l0.8,0.4l0.3,0.4l-0.6,0.1l-2.9,0.6l-0.6,0.1l-0.7,0.1l-0.9,0.2
		l0,0l-1.2,0.3l-1.2,0.3l-0.4-0.7l0-0.5l-0.3-1.5l-0.3-1.2l0-0.1l-0.8-3.8l-0.1-0.7l-0.5-2.4l-0.7-0.6l-0.5-0.5l-0.5,1l-0.4-0.3
		l-0.1-0.8l0.1-0.6l0.1-0.8l0-0.3l-0.4-0.4l-0.1-0.1l0-0.8l-0.5-0.7l-0.2-0.6l-0.1-0.5l-0.4-0.4L576.4,126.3"/>
</g>
<g transform="matrix(0.999751,0,0,0.999751,-54.8748,-49.3873)">
	<path vector-effect="none" class="st0" d="M85.6,52.8l0.7,0.1l0.8,0.8l1.2,1.4l1.1,0.6l1.2,1l0.3,0.7l1.5,0.7l1.4,0.4l0.5,0.2
		l1.1,0.5l0.9,0.7l1.1,0.5l0.7,0.1l1.1-0.5l0.5,0.9l0.4,0.6l0.6,0l0.4-0.1l0.8-0.1l0.7,0.1l0.4,0.7l-0.4,1.2l-0.2,0.6l0.3,0.8l0.2,0
		l0.2,0l0.5-0.2l0.3-0.1l0.1-0.4l-0.5-0.6l0.4-1l-0.1-0.8l-0.6-0.6l-0.1-1l0.6-0.6l0.7-1.2l0,0l0-0.9l0.6-0.6l0.3-0.8l0-0.8
		l-0.1-1.1l0.2-0.9l0.1-0.7l-0.4-0.8l0-0.8l0.8-0.6l4.5,1.3l1.4,0.4l3.1,0.9l3.2,0.8l2.4,0.6l2.5,0.7L124,55l3.1,0.8l3.4,0.9
		l4.9,1.2l2.9,0.7l2.7,0.7l5.8,1.4l1.8,0.4l3.6,0.8l1.6,0.4l1.5,0.3l2.1,0.5l-0.5,2.1l-0.6,2.6l-0.7,3.2l-1,4l-0.2,1.1l-0.2,0.9
		l-0.7,3.3l-1.1,5l-0.3,1.4l-0.3,1.4l-0.1,0.4l-1.8,8l-0.2,1l-0.1,0.6l0,0.2L149,99l0.5,0.8l0.2,0.7l-0.2,0.7l0.3,0.5l-0.2,0.4
		l-0.6,0.7l0.3,0.4l0.1,1l-4.2-1l-1.2-0.3l-1.2-0.3l-1.1-0.3l-2.5-0.6l-0.2,0l-3.5-0.8l-2.3-0.6l-0.7-0.2l-2.9-0.7l0,0l-0.8,0.4
		l-0.7,0.2l-1.2-0.4l-1.1,0l-0.7,0l-0.6,0l-0.7-0.5l-0.3,0l-0.9,0.7l-1.3-0.2l-0.7,0l-1-0.1l-0.4,0.1l-0.8,0.2l-0.7,0l-0.8,0.5
		l-0.7-0.1l-1.2,0l-0.8-0.2l-0.2,0l-0.6-0.8l-0.4-0.1L113,99l-0.4,0.2l-1.7,0.2l-0.5,0.3l-0.2-0.1l-0.3-0.2l-1.4-0.2l-0.5,0.3
		l-0.6,0l-0.1-1l-1-0.8l-0.9-0.1l-0.1-0.1l-0.7-0.6l-0.1-0.1l-1.4-0.1l-0.7,0l-0.7-0.4l-0.6,0l-0.4,0.3l-0.2,0l-0.3,0.1l-0.6,0.3
		l-1.1,0.2l-0.8-0.1l-0.7,0.2l-0.1,0l-0.6-0.2L96,96.7l-0.6,0L95,96.3l-1.3-0.8l-0.8-0.7l-0.1-0.3l-0.1-0.3l0.3-0.6l0.2-0.4L93,92.4
		l0.2-0.5l0.1-0.2L93.3,91l0.2-0.7l-0.2-0.8l-0.2-1.1L92.6,88l-0.3-0.5l-0.8-1L91,86.3l-0.5,0.1l-0.7,0.2L89,86.4l-0.1,0l-0.4-0.6
		l0.2-0.6l-0.3-0.7l-0.7-0.1l-1.1-0.4l-0.1-0.6l-0.3,0.1l-0.4,0.1l-0.4-0.2l-0.8,0.4l-0.3-0.2L84,83l-0.1-0.2l-1.1,0l0.4-0.8
		l0.7-2.2l0.4-1.9l1,0.2l0.5-0.4l-0.3-0.7l-0.9-0.6l0.1-0.8l0-0.2l0-1.4l-0.3-0.4l0.4-0.9l0.5-2.2v-0.2l0.1-1.6L85,67.6l0.4-2.5
		l0-0.2l0.1-2.1l-0.2-1.2L85,60.6l-0.5-0.8l-0.1-0.1l-0.1-1.1l0.2-1.2l0.2-0.7l-0.1-0.8l0.6-0.8l0.5-1L85.6,52.8"/>
	<path vector-effect="none" class="st0" d="M100.2,52.9l1.6,0.2l0.5-0.1l0.6-0.7l0.4,0l0.9,0.9l0.4,1.3l-0.7,0.6l0.1,0.6l-0.3,0.7
		l-0.4,0.2l-0.1,0.8l-0.7,0l-0.4-0.4l-0.9-0.6l-0.7-0.9l-0.2-1.3L100.2,52.9"/>
</g>
<g transform="matrix(0.999751,0,0,0.999751,-54.8748,-49.3873)">
	<path vector-effect="none" class="st1" d="M497.6,225.8l0.1-0.6l0-0.1l0-1l-0.3-0.4l0-0.5l-0.1-0.6l0.4,0.2l0.5-0.2l0.6-0.3
		l0.7-0.2l0.6-0.3l0.1-0.7l0-0.9l0.1-0.3l0.1-0.2l0.6-0.1l0.4-0.3l-0.2-0.7l-0.4-1.4l-0.2-0.6l0.5-0.4l0.1-1.2l0.3-0.8l0.1-0.2
		l0.4-0.7l0.3-0.2l0.8,0.4l0.6,0.8l0.7-0.3l0.5-0.6l-0.3-0.8l-0.2-0.6l0.6-0.4l0.1,0l-0.3-1l0-0.1l0.3-0.4l0.1-0.1l0.2-0.8l0.7-0.1
		l0.5-0.1l-0.1-0.8l0.5-0.7l0.4-0.6l0.5,0.1l0.3,0.6l0.3,0h0.2l1-0.8l0.6-0.7l0.6-0.4l0.1-0.1l0.4-0.8l0.3-0.5l0.8-1.1l0.7-0.9
		l0.3-0.7l-0.1-0.1l-0.5-0.6l0.4-0.6L513,200l0,0l0.1-1l0.3-0.5l0.2-0.3l-0.1-0.9l-0.1-0.7l0.2-1l0-0.1l0.1-0.4l0.3-1l0.3-0.8
		l-0.4-1.1l0-0.1l0.1-0.8l-0.3-1l-0.6-0.8l0.3-0.6l0.5,0l0.6-0.4l0.4,2.2l0.2,1.1l0.1,0.8l0.4,2.5l0.3,2l0.1,0.8l0.5,3.4l1-0.2
		l3.6-0.6l0.4-0.1l1.3-0.2l1.6-0.3l3-0.5l0.4,2.6l0.4,2.6l0.3,1.9l0.6-0.4l0.6-0.8l0.7-0.6l0.2-0.3l0.8-1.2l0.6-1.1l0.2-0.1l0.3-0.1
		l0.9,0.3l0-0.6l0.8-1.2l0.6-1.3l0.4,0.3l0.5,0.7l0.6,0.1l0.7,0.1l1.3-0.2l0.1,0l0.1-0.6l0.4-0.9l0.5-0.2l0.2-0.1l0.9-0.6l1.5-0.5
		l0.7,0.6l0.3,0.2l0.8-0.3l1.1,0.1l0.2,0.8l0.2,0.3l0.2,0.3l0.8,0.9l0.1,0.7l0.4,0.4l-0.4,1.4l-0.2,0.9l-0.1,0.5l0,0l-2.5-1.4l0,0
		l0,0l-1.9-1.1l-0.5-0.3l-1.4-0.8l0.3,0.8l0.1,0.8l-0.4,1.2l0.1,0.5l-0.1,0.8l0.2,0.4l-0.8,1.2l-0.2,0.5l-0.2,0.7l-0.6,0.5l-0.5,0.9
		l-0.9,0.6l-0.4,1l-0.3,1l-1.6-0.8l-0.2,0.6l-0.3,0.6l-0.1,1.1l0,0.4l-0.5,0.9l-0.3,1.2l-0.2,0.7l0,0.1l-0.6,0.9l-0.1,0l-0.7,0
		l-1.2-0.2l-0.9-1.2l-1.2-0.3l0,1.2l-0.1,0.7l0.1,0.4l-0.3,1.1l-0.6,0.7l0.3,0.5l-0.1,0.1l-0.5,0.6l-0.6,0.8l-0.1,1.1l-0.1,0.7
		l-0.1,0.3l-0.5,1.2l-0.2,0.3l-0.7,1l-0.6,1l-0.1,0.7l-0.3,0.9l-0.3,0.5l0,0l0.9,0.7l0,0l-0.6,0.6l0,0.7l-1,1.2l-0.6,0.6l-0.1,0
		l-0.9-0.5l-1.2,1.1l-1.1,0.8l-0.8-0.6l-0.2,0.1l0,0l-0.1,0l-0.1,0.5l0.6,0.6l-0.9,0.5l-0.7,0.2l-0.2,0l-1.2,0.5l-1.1,0.8l-1.7-1.2
		l-0.6,1l-0.6,0.4l-0.5,0.5l-0.3,0.3l-1.3,0.3l-0.7-0.4l-0.1,0l-0.4-0.4l-0.8,0l-0.6-0.6l-0.5-0.7l-0.1-0.4l-0.6-0.4l0.5-0.9
		l-0.4-0.3l-1.1,0.1l-0.9-0.6l-1-0.7l-0.8-0.3l-0.4-0.8l-0.1-0.2l-0.5-0.5l-0.4-0.5l-0.3-0.4l-0.8-0.5l0-0.3l0.1-0.6l-1.1-1.1
		l-1-0.9L497.6,225.8"/>
</g>
<g transform="matrix(0.999751,0,0,0.999751,-54.8748,-49.3873)">
	<path vector-effect="none" class="st3" d="M203,130.5l0.4-1.8l0,0l2.5,0.4l0.8,0.3l3.7,0.5l3.2,0.4l1.9,0.3l2.2,0.3l4.6,0.6
		l0.4,0.1l4.3,0.6l1.2,0.2l2.5,0.3l2.5,0.3l0.8,0.1l5.5,0.7l4.5,0.6l6.1,0.7h0l2.4,0.2l1.7,0.1l7.6,0.8l0.4,0l0.1,0l9.5,0.9
		l-0.3,4.3l-0.1,1.7l-0.4,4.5l-0.1,1l0,0.5l-0.3,4l0,0l-0.3,4.1l-0.1,0.8l0,0.4l-0.2,2.6l-0.3,4l-0.4,5.2l0,0.3l-0.1,1.6l-0.3,3.5
		l-0.3,3.3l0,0.2l-0.1,1.6l-0.2,2.6l-0.1,1.2l-0.1,0.7l-0.2,2.4l0,0l-0.1,1.6l-0.2,2.3l-0.1,1.6l-4.6-0.4l-3.7-0.3l-0.9-0.1
		l-3.5-0.3h0l-9.5-1l-0.3,0l-1.1-0.1l-5.6-0.7l-4.8-0.6l-0.5-0.1l-5.7-0.7l-3.5-0.4l-8.3-1.1l-2.1-0.3l-4.8-0.7l-3-0.4l-0.5-0.1
		l-0.8-0.1l-4.3-0.6l-5.3-0.9l0.6-3.5l0.2-1.5l0.5-2.8l0-0.2l0.9-5.9l0.8-4.8l0.4-2.3l0.5-2.9l0.5-3.4l0.1-0.8l0.1-0.7l0.5-3.4
		l0.4-2.6l0.4-2.6l0.5-3.1l0.2-1l0.3-1.8l0.6-3.6l0.2-1.4l0.3-2.1l0.1-0.6l0.1-0.8L203,130.5"/>
</g>
<g transform="matrix(0.999751,0,0,0.999751,-54.8748,-49.3873)">
	<path vector-effect="none" class="st4" d="M374.8,313.4l0-1.5l0-1.2l0-1.9l2.7-0.1l0.1,0l1,0l2.4,0l0.4,0l1.3,0l1.6,0l0.5,0
		l2.4-0.1l0.2,0l2.9-0.1h0l2.6-0.1l3.3-0.1l1.8-0.1l0,0l2.3-0.1l4.5-0.2l0.3,0l0.3,0l2-0.1l1.2,0l0.4,0.3l0.8,0.6l0.1,0.7l-0.8,0.6
		l-0.3,0.5l0.1,0.5l0.5,0.5l0.7,0.2l-0.5,0.6l0.3,1.2l0.3,0.3l0.1,0.1l0,0l0.5,0.8l-0.6,0.1l0.1,1l1,0.1l-0.2,1l0.8,0.1l-0.3,0.8
		l-0.5,1l-1.4,0.2l0.9,1.4l0.1,0.1l-0.5,0.7v0.4l-0.4,0.5l-0.7,0.2l0,0.8l-0.6,0.6l-0.1,0.1l-0.5,0.5l-0.7-0.1l-0.1,0.6l0.5,0.7l0,0
		l-0.7,0.2l0,0l-0.1,1.2l-0.8,0.4l0.1,0.5l0.3,0.6l-0.6,0.2l-0.3,0.5l0.1,0.8l-0.2,0.7l0,0.7l0.4,0.6l-0.6,0.5l-0.7-0.1l-0.3,0.5
		l0.7,0.5l0,0l-0.3,0.8l0.4,0.6l0.4,0.6l-0.8,0.7l-0.1,0.1l4.9-0.2l0.6,0l1.4-0.1l2.8-0.2l0.8,0l2.3-0.1l0.2,0l2.4-0.1h0l1-0.1
		l4.3-0.3l0.7,0l1.3-0.1h0l-0.2,1.3l-0.4,1.3l-0.4,1.3l0.2,0.8l0.1,0.3l0.4,1.3l1,1l0.2,0.3l0.3,0.5l0.6,1.4l0.4,1.2l1,0.4l-0.9,0.6
		l-0.6,0.4l-0.3,0.6l-1.2,0.5l-0.7,0.4v0l0,0.9l0.7,0.2l0.6,0.2l0.6,0.6l0.7,0.1l0.6-0.3l0.2-1.4l0.9-0.9l0.6-0.3l1.2-0.1l0.4-0.5
		l0.8-0.7l0.6-0.2l0.1,1.2l-0.3,1l-0.1,1l0,0.7l-0.6,1.1l0.3,0.6l-1.6-0.1l0,1.2l-0.7,0.5l-0.4,0.3l0,0l-0.4-0.2l-0.8,0.6l0.5,0.9
		l0,0.7l0.5,0.8l0.6,0.4l1.3,0.1l0.8,0l0.7,0.7l0.7-0.2l0.9,0.8l0.3,0.8l1.1,0l0.2,0.7l-0.6,1.1l-0.6,0.3l-0.3,0.6l0.1,0.5l-1-0.4
		l-0.5-0.5l-0.7,0.7l-0.9,1.1l-0.1-1.2l0.5-0.8l-0.4-0.7l-0.5-0.3l-0.7-0.9l-1-0.3l-0.5-0.1l-0.4-0.5l-1.1-0.1l-1.4-0.1l-0.5,0.2
		l-0.2,0.2l-0.6,0.6l-1.2,1.1l-0.4,0.3l-0.4,0.3l-1.2,0.9l-1.3,0.4l-0.9,0.1l-0.4,0.1l-0.6,0l-2,0.1l-1.2,0.3l-0.8,0l-0.7-0.2
		l-0.2-0.7l-0.8-0.8l-0.7-0.1l-1.2-0.2l-0.8-0.4l-1.5-0.3l-0.7-0.7l0.7-0.5l0.1-0.4l0,0l-0.8-0.4l-0.4-0.4l0.2-0.3L408,357l-0.8,0.4
		l-0.3-0.4l-0.6-0.4l-0.1-0.5l-0.1-0.4l-0.7-0.5l-0.5,0l0.2-1l-0.6-0.6l-0.9,0l-0.8,0.4l-0.5,0.3l-0.1,0.5l-0.1,0.6l0.9,0.4l1.1,0.3
		l-0.6,1.1l-0.6,0.3l-1.2-0.6l-1.4-0.7l-0.2-0.1l-0.3-0.1l-1.1,0.1l-1.1,0.6l-0.9,0.1l-1.1-0.2l-0.8-0.2l-1.2-0.2l-0.6-0.1l-0.8-0.2
		l-2.4-1l-1.4-0.6l-1.2-0.3l-1.1-0.3l-1.4,0l-1.4,0.1l-1.5,0.1l-2.5,0.4l-0.7,0.3l-0.5,0.4l-0.3-0.5l-0.3-0.5l-0.5-0.6l0.7-0.7
		l0.2-0.3l0.3-0.3l0.3-0.8l0.8-1l0.4-0.4l0,0v-0.8l0-0.9l-0.1-0.7l0-0.3l0-0.4l-0.7-0.7l0.2-0.9l0.1-0.1l0.4-0.4l-0.1-1.1l-0.2-0.5
		l0.5-0.7l0-0.5l0.6-0.8l0.1-0.8l0.6-0.9l0.1-0.9l0-0.1l0.3-0.7l-0.2-0.6l0.1-0.6l0.1-0.6l-0.1-1.1l0-0.8l-0.2,0l-0.6,0l0,0
		l-0.2-1.1l-0.7-0.6l0.1-1l-0.4-0.7l-0.6-0.5l0.3-0.5l-0.7-0.3l-0.6-0.8l0,0l0.2-0.5l0.1-1.1l-0.6-1.5l-0.3-0.5l-0.4-0.7l-0.8-0.4
		l-0.6-0.7l-0.2-0.2l-0.1-2l0-0.8l-0.1-2.4l0-0.4l-0.1-2.4L374.8,313.4"/>
</g>
</svg>
