<svg xmlns="http://www.w3.org/2000/svg" width="581.38" height="365.39" viewBox="0 0 581.38 365.39"><title>america</title><path d="M1.27,109.75l1.5-1.82,2-2.09L6,104.05l.17-.82L6,102.62l.12-.72.62-.56.71-1.23.91-2,.06-.35.2-1.16v-1.2l.06-1.17,0-.3-.33-.21L8,92.85l.48-.65L9,91l.15-.8,2.08.67,1.77.54,1.63.5,1.38.35.85.22.85.29,1.18.26.86.19,1,.38,2.44.7,3,.8,2.1.61h0l1.86.56L32.7,97l1.7.51,2.26.67.08,0,1.89.51,2.14.64,1.55.41,1.88.5,1.91.5,3.2.83,1.83.47-.42,1.63-.89,3.49-1.55,5.92-1.11,4.34-.49,2-1.39,5.46-.69,2.66L44,129.85,43.13,133l-.66,2.5-.35,1.28-.47,1.75-.09.34-.43,1.72-.18.72-.15.62-.23.93.78,1.17,2.56,3.83,0,0L46,151.06l.4.6,1,1.49,1.7,2.53,3.7,5.54.6.91,3.38,5.06,1.57,2.37,1.29,1.91L63.32,177l.67,1,1.41,2.1,4.39,6.58,1,1.46,2.44,3.65,1.74,2.62.41.61,1.73,2.58h0l2.14,3.21.89,1.32,1.27,1.9,1,1.53,2.13,3.19L86.07,211l-.12.82-.24,1,.49.92.71,1.44.2.52.18,1.62.32,1-.19.91.49.1.67.83.88,1,.26.61v0l-.1.61-.49.19-.72.62-.77.14-.71.32-.72.19-.3.21-.06.19-.16.49-.3.39-.77.62-.37.34.22.45-.06.51-.27.47v1l0,.59-.17.34-.32.39-.19.75-.1.76-1,.68-.52.72-.1.13-.45,0-.62.07.13.43-.15.73-.27.45.47.56-.11.34-.21,1L80,237l.22,1,.47.19.62,0,.64.3.06,0,.2.78-.08.68.1.33-.22.77-.89.72-.54.39-.55,0-.59,0L79,242l-.22.28-3.28-.39-5.43-.65-6.8-.81-.7-.08-5.09-.61-1-.12-2.7-.33L50.68,239l.08-.72,0-.46-.2-.81-.27-.3-.62.14v-.45l.27-1.19-.19-.55,0-.24.13-.14.12.06.11-.12h0l.14-.55,0-1.08V232l-.14-1.2-.3-1.15-.63-1.59-.85-1.59-.48-.42h0l-.39-.87-.73-.45-.05-.34-.05-.08-.72-1.1-.23-.36-.88-.66-.67-.87-.75-1.27-.25-.26-.17-.17-.63.1-.61.16-.34.09-.63-.28-.15-.16-.21-.21-.46-.16-.23-.61.48-.32.06-1.14-.26-1.29-.47-1-.9-.39-.87-.13-.74-.16-.78.26-.44-.58-1-.42-.11,0-1.15-.9-.43-.17-1.09-1.24L32,210.3v-.58l-.06-.07-.34-.36-.55-.79-.77-1-.17-.11-.6-.39-.8-.57-.8,0-.32.11-.78-.5-.55-.14h-.45l-1-.77-.82-.46-1-.42-1.72-.4-1.82-.14-.39-1.21-.36-.38-.3-.28-.47-.08-.16-.43.88-1.38v-.56l-.1-.13.61-1.59-.5-.8.48-.91.39-.74.2-.6.1-.64-.32-.51-.35-.42-.52.09-.83-.87-.39-.74.36-.58.43-.85v-1l-.69-.53-.49-.23-.81-1.83-.34-1-1-.74-.29-.76.07-1-.12-.21-.46-.85-.45-.72.06-1.22-.33-.74-.42-.27-.23-1.15-.38-1.07-.84-1.13-.45-.34-.44-1,.19-1.27-.06-1.36.06-1.41.69-.56.59.51.77-.83.55-1.23.2-.5-.09-.53-.22-1.26-.33-.64-.47-.17-.88,0-.42-.16-.4-.15L10,163.63l-.35-1-.15-.47-.09-.07-.26-.23L9,161.44l-.4-.75v-.9l.39-.86.13-.29.06-.53-.13-.93.07-.35-.39-.56-.13-.46.2-.75.37-.42.29-1,0-.31.05-.39.07-.5.61-.26.73.14.08.24-.11.74.17.18-.11.18h-.36l-.1,1.66,1.09.82.6,1,.48-.12.21-.05-.14-.81.13-.82v-.39h0l-.42-.57-.27-.48.08-.4-.55-.48-.09-.5.39-.19,0-.94v-.22l-.48-.09-.29-.82.69-.13.1-.41.28.06.23,0,.78-.38,0-.14-.17-.71-.82-.79h0l-1.08.17h0l-.38,1,.35.63-.49.29-.15.61.29.5.16.64-.79.16-.55-.21-.5-.8-.69-.66-.3.1-.38-.72-.29-.69L7,148.07l-.81-.46-.52.43-.35-.26,1-1.33.32-.82-.1-.94.15-.48-.09-.36v0L6,143.64v-.53l0-.8-.51-1.39-.73-.74-.64-1-.06-.48L3.59,137,3,136.24l-.17-.43-.2-.51-.51-.82L2,134l-.36-.71-.06-.64.71-.77.1-1.5-.18-1.06,0-1.15.09-1.29.46-1.12.93-1.29.12-1,.15-.88L3.73,122l.22-1.54-.45-.59-.24-.95-.39-1.28-.06-.19-.3-.21,0-.82-.38-.68-.43-.34-.49-.94L.64,113.4l-.14-.29.4-.91.06-.62-.19-1,.51-.83" style="fill:#f37f88;stroke:#fff;stroke-linecap:round;stroke-linejoin:round"/><path d="M19.15,209l1.33.63,1.08.73.94.08.6.94,0,.59-.95.16-.87,0-.53-.61-.13-.45-1.72-1-.87-.75,1.13-.4" style="fill:#f37f88;stroke:#fff;stroke-linecap:round;stroke-linejoin:round"/><path d="M35.53,228.19l.43.9.78,1.42.82,1.26-.89.09-.56-.77-.78-1.44-.4-1.33.6-.13" style="fill:#f37f88;stroke:#fff;stroke-linecap:round;stroke-linejoin:round"/><path d="M24.13,210.55h.7l1.24.64,1.94.43,1.07.26.32.07.87.27-.16.69h-.34l-1.07-.29L28,212.4l-1.25-.14-.74.19-.82-.26-.8-.46.11-.59-.32-.59" style="fill:#f37f88;stroke:#fff;stroke-linecap:round;stroke-linejoin:round"/><path d="M37,222.31l1.3,0,1,1.38.76,1-.61.61-.49-.42-1-.33,0-.65-.7-1.1-.23-.53" style="fill:#f37f88;stroke:#fff;stroke-linecap:round;stroke-linejoin:round"/><path d="M25.2,222.13l.87-.2.8.8-.16.51-.44.07-.85-.48-.22-.71" style="fill:#f37f88;stroke:#fff;stroke-linecap:round;stroke-linejoin:round"/><path d="M155.38,172.75h0l1.3-8.73.47-3.36.25-1.83.32-2.27.42-3,.59-4.27.08-.58.86-6v-.13l.32-2.28.32-2.44,8.31,1.12,3.46.43,5.74.68.52.07,4.77.59,5.62.66,1.08.13.28,0,9.53,1h0l3.48.34.92.09,3.75.29,4.64.41,5,.41h0l2,.16,3.2.24,4.43.32.34,0,.67,0,5.29.35h0l-.22,3.55h0l0,.73-.23,3.62-.08,1.28v.15l-.3,4.71-.16,2.59-.2,3.45v.08l-.16,2.74-.2,3.38-.07,1.21-.3,4.92-.07,1.16-.2,3.25-.1,1.63v.09l-.13,2.1-.31,5.27v.2l-.07,1.12-.23,3.59-.12,1.84L230,200l-.06,1,0,.59-3.47-.25-3.79-.27-1.59-.17-1.77-.14-.93-.07-7.15-.53-3-.22-3.66-.28-4.34-.39-4.29-.43-.38,0-.72-.07-.34,0-1.85-.19-1.27-.13-2-.2h0l-3.08-.32h-.1l-3.71-.38-1.47-.16-4.34-.47-.07-.12-6-.7h0l-.67-.08-5.71-.71-4.16-.53-2.65-.35-4.67-.63,1-6.78.78-5.53.53-3.8,0-.16v-1.57l.43-3.13" style="fill:#f8b1b8;stroke:#fff;stroke-linecap:round;stroke-linejoin:round"/><path d="M499.45,156.17l.66-1,.49.33,1.19.81-.59.91-.5.77-.14-.68-.07-.37-.64-.39-.4-.35" style="fill:#f37f88;stroke:#fff;stroke-linecap:round;stroke-linejoin:round"/><path d="M86.31,76l.39-.43.06-.74.71-.47.34-.41.76-1.19.55-1,.56-.3.89-.24.58-.64.32-.36.48-.73-.09-.73.32-.68.69-.51h0l.39-.43,1-1.8.09-.18.29-.58L95.86,63l1.19-1.51.52-.59-.43-1,.09-.74-.42-.73-.68-.2-.55-.75-.45-.3L95.08,57l-.41-.9-.1-.76-.17-.56-.06-1-.3-.41.62-.68.2-.36-.29-.47.15-.73-.16-.75-.46-.83.43-.71,0-.22.11-.63.21-1,1.79-8,.09-.37.32-1.42.32-1.45,1.11-5,.74-3.28.21-.92.24-1.07,1-4,.73-3.16.58-2.56.47-2.06,2.5.55,3.09.68,3.35.71L110,22.5l-.06.28-.49,2.32-.27,1.27-.26,1.24-.37,1.69.06.23,0,.17.44,1.16.39.86.43.49-.06.75.85,1.09-.24.55.3.51-.38.59-.09.6.62.85-.61.22-.27.5,1.08.95.29.81.49.52.87.46.39.21.2.69.25.55.5.72.45,1.08.36.63.23.77.55.66.27.32-.28.6.44.89.77.62.11.59.65.11.19.16.42.35-.1.76.27.13.39.19.91.11.93-.1.2.23.12.14-.29.93-.38.92-.52,0-.06,1.22-.42.27-.29,1-.19.49-.18.49-.13.87-.67,0-.18.57.51.5-.37.88.26.65.3.44-.24.66.16.45-.4.3-1,.09-.59.68.4.9-.09.74-.4.18-.14.6.08.32.1.39.43.3.71.87.83.33.42-.73.65,0,1.15-.61.79-.56.11-.58.43,0,.18.29.38.62.3.35.47.4-.17,1.09.3.66-.17.72.19.64-.19.82.59,1.4.46,1.6.55.51.47.67v.75l-.25.72-.36.54.33,1,.42.19.65.63.59-.23,1,1,.16.83.31,1.18-.25.7.39.91-.12.64.41.86.59.62.6-.25.06,0,0-.49,1.05-.62H131l1,.35,1.24.37.77.59.48-1.07.81-.42.57.45.91.37.92,0,1.67-.09.49.83,1.13-.5.85.18.53.12.49-.31.71-1.25.16-.21.23-.31.61-.39.07.07.46.46.41.86.34.69.12.7.48.64.11.62.68.39L147,87.93l-.57,3.6-.28,1.82-.16,1-.49,3.06-.4,2.59-.4,2.57-.53,3.38-.12.73-.12.76-.53,3.36-.48,2.89-.38,2.28-.77,4.83-3.35-.53-1-.15-.37-.06h0l-2.48-.41-3.66-.59h0l-.5-.1-1.07-.22-3.91-.67-3.59-.61h0l-2.53-.43-2.52-.43-3.28-.55-2.26-.51-2.44-.48h0l-3.21-.64-3-.69-1.41-.27-2.8-.53-3.16-.68-2.47-.51-4.68-1-3-.65-4-.91-.08,0,1.17-5.2,1.33-5.88.67-3L86,87.32l.27-1.15.46-2,.55-.7.14-.18.43-1.16.36-.59L88,80.73l1-.75,0,0V79.6l-.57-.34.06-.58-.85-.21-.48-.69-.54.15-.36-.51.07-.1.29-.4-.14-.49L86.31,76" style="fill:#f8b1b8;stroke:#fff;stroke-linecap:round;stroke-linejoin:round"/><path d="M344.53,157.38l.06-.68,0-.3.21-.75.49-.81.48-.32-.11-.74.09-.83-.3-.32.18-.69.34-.45,1-.4.64,0h0l.66-.52v-.74l.21-.78,0-.58.48-.69.59-.65.32-.61,0-.92-.11-.71v0l-.08-.54-.46-.7-.46,0-.45-.66-.37-.48.35-1.2h0l0-.07,0-.42.35-.78.64-.13.45.08.58-.39.84-.11.88-.07.84-.48.47-.47.6-.08.53-.09.44-.58.52-.27.24-.28,0-.92.2-.44V135l.61-.56.06,0,.61-.45,0-.46.14-.56,0-.65v-.12l.12-.82-.23-.51,0-.1,0-.93-.52-.57-.65-.32-.5-.25-.24-.12-.67-.46-.34-.53.11-.59-.33-.5-.41-.32-.36-.28-.52-.48-.27-.11-.59-.31v-.52l2.11-.1h.11l2.08-.13,3-.16h0l.91,0,3.53-.19.94-.05.36,0,3.31-.19.52,0,.53,0,1.68-.11.71,0h0l2.05-.18,2.07-.17.9-.08h.18l3.09-.22,1-.07.06,1-.11.84-.07.85,0,.05.44,1.21v0l.49.74.21.32h0l.59.6.08.08.2.64.48,1.32.13.36v0l.14.14v.32l.1.36.26.46.08.15.26.46.33.22.1.33,0,.22.22,2.5.07.84.2,2.41h0l.17,1.85.18,2,0,.2.15,1.61L386,147l.25,2.83,0,.62v.2l.25,3.18.12,1.44.16,1.92L387,159l.27,3.06.07.81.17,1.83v.11l.15,1.7-.49.15-.2.41.13.75,0,.17.22.49-.62.68,0,.13.21.77.62.58v.79l.57.37.1.9v0l-.16.44.16.32.18.35.33.94-.4,1.17-.76.61-.13.73-.09.32-.1.37.11.4-.61.51-.24.65-.09.25-.25.7-.49.94-.79.61-.62.49v.1l0,.46.58.6-.32.76-.23.65-.43.39.24,1-.19,1-.17.37-.07.16.5.76-.28.82-.74.71-.25.63.4,1.1v0l.71.57.09.34.06.22-1,.38-1.35.31-.79.74-.65-.18h0l-.5.34-.16.87-.25.71.55,1,.6.94-.16.74-.31.45H380l-.45,0-.35-.21-.59-.36-.94-.33-.67-.14-.95-.52-1.06-.35h-.06l-.74.1-.59.55-.4.71-.69,1,0,0,.47.73v.51l-.69-.06-.72-.31-.56-.15-.59-.16-.33-.83-.88-1.14-.22-.91-.14-.1-.4-.27.2-.62.23-.16.48-.33,0-.72-.55-.79-.51-.86.09-.42,0-.16,0-.14-.18-.62-.24-1-.78-.33-.87-.45-.25-.51-.12-.25-1-.51-.8-.64-.76.52-.12-.13-.49-.52.17-.68h-.59l-.83-.59-.52-.46-.9-.48-.15-.08-.4-.45h0l-.81-.71-.35-.52-.15-.23-.17-1.22.2-.78.07-.1,0,0,.52-.75.14-.82.09-.32.05-.17.06-.2.64-1v-.68h0l-.17-.38-.19-.53.43-.68h0l.5-.5v-.62l-1.05-.64-.26-.15-.51-.09-.24,0-1.08-.45h-.78l-.3.74-.57.59-.43,0-.71-.6-.06-.2-.2-.69-.46-1,.32-.68-.33-.69-.22-1-.1-.45-1.24-1.12-1.07-.78h0l-1.11-.61-.31-.64-.42-.6-.52-.07-.31-.64-.1-.08-1-.9-.33-.27-.69-.57v-.82l-.41-.46-.43-.32,0-.88-.11-.52h0l-.55-1-.18-.82-.21-1.29,0-.43" style="fill:#f37f88;stroke:#fff;stroke-linecap:round;stroke-linejoin:round"/><path d="M290.49,122.19l.45-.68.42-.71,0-.42v-.2l.43-.52-.2-.26.28-.39-.19-.49.55-.38.06-.21.13-.44-.2-.42L292,116h-.48l-.31-.37-.06-.14L291,115l.49-.13.07-.66,0-.54-.73-.69.1-.49-.14-.43h12.26l1.75,0,3,0h.61l4.17-.06h.53l1.44,0,2.81,0h0l3.26-.07.72,0,.81,0,2.72-.08,1.82-.06H327l1.56,0,3.21-.12h0l1.05,0,2.73-.11,1,0,2.58-.11,1,0,1.21-.06,1.21-.06,2.76-.13-.11.7.24.43.13.22-.06.42.56.52.5.27.55.81-.28.47-.44.69-.39.58,0,.77,0,.58.2.71,0,.16.23,1,.43.53.35,1.23.59.75.8.46.46.11.46.11,1.13.21.45.25.33.68.36.94V125l.59.31.27.11.52.48.36.28.41.32.33.5-.11.59.34.53.67.46.24.12.5.25.65.32.52.57,0,.93,0,.1.23.51-.12.82v.12l0,.65-.14.56,0,.46-.61.45-.06,0-.61.56v.67l-.2.44,0,.92-.24.28-.52.27-.44.58-.53.09-.6.08-.47.47-.84.48-.88.07-.84.11-.58.39-.45-.08-.64.13-.35.78,0,.42,0,.07h0l-.35,1.2.37.48.45.66.46,0,.46.7.08.54v0l.11.71,0,.92-.32.61-.59.65-.48.69,0,.58-.21.78v.74l-.66.52h0l-.64,0-1,.4-.34.45-.18.69.3.32-.09.83.11.74-.48.32-.85-.29-.25-.42-.49-.38-.49-.53-.14-.55-.55-.14-.17-.39-.35-.33-.14-.13-2.21.2h0l-2.49.18-1.8.12-1.08.07-1.94.13-.51,0h-.3l-2.39.1-1.64.11-.4,0-2.21.1h-.3l-1.92.06h-.43l-1.87.07-.7,0-1.84.08-.8,0-1.49,0-.83,0-1.69,0H301.78l-2.46,0,.18-.26-.35-.7-.68-.41L298,151l.57-.66h0l-.07-.87.32-.58-.09-.16-.2-.38.1-.67-.39-.64v-.93l-.05-.58.07-.5.05-.38-.55,0v-.75l.22-.57-.37-.62,0-.67v-.28l.05-.92-.63-.2-.12-.52-.12-.52-.79.22-.12-.46-.27-.74.07-.78,0-.11.21-.64.24-1-.45-.67-.2-.36-.33-.62.28-.91-.94-.68-.51-.35,0-.94-.81-.75.11-.68v-.7l-.16-.23-.58-.8,0-1,.32-.71-.66-.41-.33-.27-.16-.11.17-.54,0-.07-.48-1.13-.66-.66-.33-.53,0-.75" style="fill:#f8b1b8;stroke:#fff;stroke-linecap:round;stroke-linejoin:round"/><path d="M368.79,207.18l.73.07h.8l.27-.87.57-.06h0l.55.62.58.07.26-.81.24-.38.1-.16-.46-.73.46-.59,0-.43v0l0-.82.26-.65.14-.76,0-.19-.4-.31v-.51l-.47-.73,0,0,.69-1,.4-.71.59-.55.74-.1H375l1.06.35.95.52.67.14.94.33.59.36.35.21.45,0h.16l.31-.45.16-.74-.6-.94-.55-1,.25-.71.16-.87.5-.34h0l.65.18.79-.74,1.35-.31,1-.38-.06-.22-.09-.34-.71-.57v0l-.4-1.1.25-.63.74-.71.28-.82.65.19.37-.14.32-.42-.44-.71.1-.42,0-.12.52-.23.76.58.9-.32.13.12.38.35h.61l.13-.68.59-.43H390l.39-.23.32-.19,1,.43.32.18.39.22.17.1.85.29.51.43.4.52.44-.89.1-.68.3-.66.35-.12.53-.18.52-.56.64-.42,0,0,.39.54.72.84.73.26.13.05.36.13.09-.77,1,0-.26-.9-.06-1,.36-.11.17-.05.35-.61h0l.45-.58.32-.19.36-.21.53.64.9,1,1.22.06.74.47.36-.33.22-.2.25-.19.3-.23.06-1.18V181l.52-.78.19-.63.24,0,.49.09.69-.46.33-.71.07-.51.08-.56.32-.51.93-.35.21-.53.41-.33h0l.15-.33-.23-.54-.07-.16-.12-.85-.19-.74.49-.38.64,0,.09,0,.61-.16.42.22.44.3.17.12.42-.16.73-.74.52-.3.6-.35,1.11-.3h.48v-.92l0-.13.09-.33-.5-.16-.39-.19-.16-.07.42-.63-.25-.53-.35-.39-.25-.27.35-.41.39-.43.67-.68.42.16.45.43.62.21.16.05.57-.44.47-.09h.14l.11-.22.19-.1.19.08.18.41.41.48.83.17.07.09.31.4.16.46.73,1v.08l0,.45.1.17.19.32.86.12.92.14h0l.75-.32.56.11.27.07.59.15.26.47.58.22.19.51.75.19.3.07.33-.21,0,0,.1-.53,1-.45,1.06.33.7,0,.67.46.41.28.21-.23.24-.25.74,0,.43-.34.12-.46.68-.61.12-.14.17-.21.71-.29.55-.26.1.19.17.31.09.56.34,1,.49.39.14.11.82,0,.61.51.14.09.55.36.38.73.06.58,0,.51.34.37,0,1v.12l-.07.57-.16,1,1,.88,1.08,1.07-.08.56,0,.31.84.52.28.38.39.53.54.48.11.22.39.8.83.35,1,.67.94.58,1.06-.06-2.21,2.64-1,1.22,0,.06-.39.5-1,.45-1.06.75,0,0-.07.06-1.6,1.42.15.75-.25.52-.68.33-.52.54.15.74L442,195l-.1.23-1.22.66-.7,0-.33.82-.14.77-1.07.38-1.57.78-.52.36-.27,0-.73.1-.91.58-.61.55-.14.28-2.26.24-.4,0-.63.05h0l-2.65.3h0l-.38,0-2.64.27-3.09.28h-.08l-1.77.08h-.35l-1.35,0-2,.18h-.22l-1.55.29-.57.11-2.7.22-.63.05-.95.07-1.14,0-1.18.05-1.38.07-2.3.11-1.07,0-.46.25-.13,0-.51-.11-1.73.22-.55.07-2.75.3-.6.06-2.45.26h-.13l-3.25.34h0l-.59.07-1.76.2v-.43l-1.82,0-.65,0,.22.65.34,1.09-.13.74h0l-.82.09-4,.29h-.3l-3.34.25h-.2l-1.44.1-2.75.15-1.49.17-.8.09-1.36.11-.4-.54.27-.53" style="fill:#f37f88;stroke:#fff;stroke-linecap:round;stroke-linejoin:round"/><path d="M473.36,155.2l-.44-2.6-.4-2.64.89-.16,3.64-.67,1.23-.22,1.26-.23.89-.17,3.61-.66.39-.07h0l2.56-.48.24,0,3.22-.61,3.15-.6h0l.1,0,2.3-.46.24,0,2.28-.46.09,0,2.13-.45.74-.16,1.53-.32,1.57-.33,1.88-.4h.07l1-.22,3.38-.73.25-.06,1.25,4.7h0l.31,1.1.19.68.39,1.41,1.2,4.26.75,2.64h0l.28,1,.07.25.32,1.13,2.3-.41,1.47-.3,1.66-.35,1.44-.33V160l-.14.22-.15,1.35-.09,1.33-.07.51-.3,1.06-4,1.35-.36.71-.63-.16-.66.12-.66.92-.34.1-.24-.78.25-1-.08-.29-.17-.55-.85-.15-.24-.85.79-.37-.18-.23-.2-.27h-.62l-1,.14.27.91.4.85.2.61-.48,0-.62-.42-.12-.95-.62-.44-1.09-.83-.48-.17,0-.53-.44-.5-.85-1.1.48-.82-.21-.35v-.58l.5-.17h.31l.4-.08-.14-.41-.14-.43-.26.09-.53-.49-.38.08-.41.57-.29,0,0-.62-.61-.26,0-.46.71-.27.25-.84.66.43.25-.3-.14-.35-.19-.49-.09-.5-.5.11-.66.38,0,.74-.42.23-.1-1.26.22-1,.12-.51.42.07.38.07-.23-1-.22-.36-.41-.29.17-1,.17-.85.27-.47.08-.55.41-.61.47-.32.2-.13.3-.36-.17-.52-.27.06-.24.06-.76.84-.66.9-.61.87-.22.45-.19.39-.43.33-.24.43-.4.08-.36.09,0,.09-.17.34,1.16.43.22.68.13.54.37.36-.5.52-.16.41.27.17-.1.5,0,.08-.12.29-.18.52.32.12-.25.79-.25.49.43.37,0,.16.12.68.33.63.15,1.07.43.72.56.46.77.6.15.38,0,.6v.12l.35.14,0,.82.59.76.47.48V166l.27.85-.66-.48-.74-.42-.53.16-.74-.38-.71-.74-.94-.1-.71.14-.75-.09-.24,0-.43-.06-.74-.46-.67-.38-.49-1-.22-.3-.57.42-.47.3L500,164l-.67-.66-.14-1.44.5-1,.54-.3-.07-.29-.13-.53.41-.53.06-.07.28-.06,0-.41,0-.12-.09-.53V158l.5-.77.59-.91-1.19-.81-.49-.33-.66,1-.37-.36-.6.07-.55-.15-.1-.57h0l-.73-.22h-.22l-.33,0-1.13,0-.28-.37-.45-.13-.12-.55.3-.41.19-.51h0l-.47-.37-.67-.27-.43-.24-.86,0h-.12l-.45,0-.36-.39-.07-.68-.81-.91-.2-.32-.2-.32-.23-.84-1.06-.09-.83.25-.27-.23-.71-.59-1.47.46L485,149l-.2.07-.51.19-.43.92-.14.56h-.08l-1.3.19-.72-.07-.58-.06-.48-.68-.41-.34-.63,1.33-.78,1.21,0,.57-.92-.31-.33.07-.25.05-.62,1.14-.83,1.21-.19.27-.66.57-.63.82-.61.43-.31-1.93" style="fill:#f37f88;stroke:#fff;stroke-linecap:round;stroke-linejoin:round"/><path d="M513.48,166.35l.38-.24.39.38.15.93-.71-.07-.21-1" style="fill:#f37f88;stroke:#fff;stroke-linecap:round;stroke-linejoin:round"/><path d="M285.4,35.32l2.78,0,4.9,0h11.66l0-2.57V30.06l.88.42.64-.22h.34l.69.48.58.16.19,1.47.23,1.23.23.35.31,1.37.36,1.6v.61l-.07.7.71.71,1,.5.59.09.15-.08.38-.19,1,.07.29.3V40l1.49.15,1.54.14h.78l.38.81-.08.61,1.33.11,1.05-.2.88-.26v-.64l.87-.21.22-.3L323,40l.62.22.51,0,1.25-.1.58.49,1.59.72.87-.08.05.48-.22.58.78.33.57-.12.57.45-.1.87.53.76.48,1,.5-.3.16-.53,0-.63.29-.44.94-.15,1,0,.54.5.23,1,.83.1.92.4.16.07h.62l.26,1.1,1.26.1.19.75.72-.22,1.21-.1.81-.24.85-.83,1.1-.74,0,0,1.15-.71.59-.12.42.89.31.76.7.33,1.28-.44.91.18,1.45-.05,1.7-.22,1,.28.59.9,1,.36,1.09-.54,1.18.09,1.28-.13-.58.59-1,.39-.7.51-.51.41-1.2.49-.45.47-.91.33-1.07.52-1.27.42-.91.31-1.07.51-1,.71-.81.49-1.21,1-1.41,1.35h0l-1.12,1.22-1,1.47L341,59.46l-.64.7-1.09.74-.64.91-.86.65-.52.58-.12.13-.93.63-1,.84-.45.43.51,1.34-.35,0-.49-.31-.41.06-.36.52-.2.43-.84.05.09,2.33,0,1.09.09,2.41,0,1.21,0,1.16-.42.33-.11.51-.4,0-.55.26-.21.42-.71.07-.33.35-.73.33-.61.59-.35.69-.14.64-.46.76-.14.11-.27.21-.13,1v.07l.1.91.79.12.44.06.3.44.43.73.41.47-.09.59-.37.85-.46.58-.13.16v1.26l.26,1,0,.14-.59.69.43.59.15,1.13-.12,1.12h0v.1l-.33,1.22.13.13.62.6.36.34.82,1,.7.47,1.5.22.38,0,.46.26,0,0,.26.73.47.42.13.12,1.23.39.27.12,1.23.54.5.6.29,1.21.4.46.39.45,1,.45.75.87.77.49.14,0,1.21.26.18.23.71.91.71.87,0,.08.49,1-.1.67-.12.84.25.92.23.49.2.9-2.76.13-1.21.06-1.21.06-1,0-2.58.11-1,0-2.73.11-1.05,0h0l-3.21.12-1.56,0h-.25l-1.82.06-2.72.08-.81,0-.72,0-3.26.07h0l-2.81,0-1.44,0h-.53l-4.17.06h-.61l-3,0-1.75,0H292.26v-.73l0-4.17h0l0-4.87h0V86.75l-.12-.27-.12-.27-.38-.41-.4-.15-.55-.31-.57,0-.35-.38-.31-.59-.37-.8-.53-.71-.08-.11-.07-.36.26-.48.8-.66.71-.42.42-.68.43-.49.15-.77.09-.88-.1-1.14v-.07l.18-.87-.39-1.9,0-1.39-.45-.55L290,71l-.33-1.82-.39-.89,0-.09v0l0-.78V66.21l.26-1.88L288.84,63l.15-1-.06-1-.08-1.22,0-.54L288.67,57l0-.82,0-1-.26-1.07-.1-.32-.32-1-.63-1.39L287,50.12l-.28-1.29-.34-.91L286,46.84v-.06l0-.28.13-.89-.07-1.2V43.22l-.08-1.41v-.16l.05-.55.42-1.16-.19-.63-.29-.82-.31-1.32-.36-1.09v-.76" style="fill:#f8b1b8;stroke:#fff;stroke-linecap:round;stroke-linejoin:round"/><path d="M299.32,153.09l2.46,0H313l1.69,0,.83,0,1.49,0,.8,0,1.84-.08.7,0,1.87-.07h.43l1.92-.06h.3l2.21-.1.4,0,1.64-.11,2.39-.1h.3l.51,0,1.94-.13,1.08-.07,1.8-.12,2.49-.18h0l2.21-.2.14.13.35.33.17.39.55.14.14.55.49.53.49.38.25.42.85.29-.49.81-.21.75,0,.3-.06.68,0,.43.21,1.29.18.82.55,1h0l.11.52,0,.88.43.32.41.46V164l.69.57.33.27,1,.9.1.08.31.64.52.07.42.6.31.64,1.11.61h0l1.07.78,1.24,1.12.1.45.22,1,.33.69-.32.68.46,1,.2.69.06.2.71.6.43,0,.57-.59.3-.74h.78l1.08.45.24,0,.51.09.26.15,1.05.64v.62l-.5.5h0l-.43.68.19.53.17.38h0V179l-.64,1-.06.2-.05.17-.09.32-.14.82-.52.75,0,0-.07.1-.2.78.17,1.22.15.23.35.52.81.71h0l.4.45.15.08.9.48.52.46.83.59H363l-.17.68.49.52.12.13.76-.52.8.64,1,.51.12.25.25.51.87.45.78.33.24,1,.18.62,0,.14,0,.16-.09.42.51.86.55.79,0,.72-.48.33-.23.16-.2.62.4.27.14.1.22.91.88,1.14.33.83.59.16.56.15.72.31.69.06.4.31,0,.19-.14.76-.26.65,0,.82v0l0,.43-.46.59.46.73-.1.16-.24.38-.26.81-.58-.07-.55-.62h0l-.57.06-.27.87h-.8l-.73-.07-.27.53.4.54.24.49-.2.6.4.56-.11.48-.25,0-.62.06-.09.48.67.4-.5.59-.85-.09-.14.34.77.51,0,0,.4.65-.54.49-.39.33-.08.88-.44.31-1.88.14-.65,0-1.62.12-2.08.15-.9.07.29-.74.45-1,.64-.41.13-.65.34-.22.36-.23.41-.75.54-.56,0-.76-.05-.41-.75-.36-.16-.62-.17-.49-.75,0-3.05.15-.91.05-2.11.12H355l-2.61.14-1.21.07-3.1.16h0l-.48,0-2.15.07-.33,0-3.5.16-1.5.07h-.33l-2.23.09-2,.07h-.39l-2.32.08-.74,0H332l-3,.1-1.87.05h-.24l-1.25,0-1.76,0-1.29,0-1.86,0-1,0-1.31,0-3.17.05-2.86,0,0-1.59v-.78l0-1.39,0-3.28v-.81l0-1.46,0-2.51v-1l-.06-3.42v-.4l0-4.3v-1l0-2.5,0-2.13,0-1.25h0V179l0-1.5,0-1.9v-1.86l.16-.59h-.34l-.61-.38-.66.2-.55-.43-.08-.07-.29-.5-.35-.45-.55-.69.19-1-.62-.09-.21-.31-.18-.26-.74-.75-.45-.55-.24-.29.39-.32.31-.26,0-.26.07-.55.7-.48v-.52l.77,0,.41-.36-.12-.33-.08-.67v-.09l-.54-.69-.25-.34-.45,0-.27,0-.66.51-.65-.47-1-.67-.83-.78-.43-.41-.36,0-.34-.6.21-.55-.4-.46-.52-.67.09-.67-.79-.32v-.08l-.06-.38-.48-.26-.58-.18.13-.62-.09-.42-.37-.95-.11-.42-.19-.42,0-.05-.45,0-.09-.83" style="fill:#f37f88;stroke:#fff;stroke-linecap:round;stroke-linejoin:round"/><path d="M463.41,115.11l1.23-1,1.55-1.5.59-.9.89-.79.82-.64.51-.36v-.07l.14-.66.4-.52,0-.64.7-.51.61-.54.42-.73-.09-.18-.14-.28-.27-.53-.35-.21-.08-.65-.24-.24h-.35l-.68-.41v-.89l-.15-.1h0l-.58-.06,0-.67,0-.13.06-.29-.26-.94-.27-.53L470.18,99l2.73-1.25.81-.17,1.35-.29,1.83-.38,1.52-.14h0l1.83,0h.09l.48-.06,1.15.61,1.22.44.46-.3,1.18-.57.33-.16.78-.11,1.31-.38,1.34-.07.47-.09,1-.7.69-.33.41-.36.33-.28.37-.95.12-.12.86-.91.83-.89.45-.16h0l.53.08.78-.41.19-.7-.15-1-.14-.41-.33-1-.3-.66-.82-.59-.68-.08-.82,0,.17-.65,1.17-.92-.43-.67-.68.05v-.59l-.17-.36.05-.48.12-.48.36-.63.75-.31.34-.43-.1-.57.58-.39.8-.86.5-.13.7-1,.21-.29.12-.73.27-.69,1.51-2.38,1.1-1.64.72-.88.6-.87,1-.82.65-.58.51-.52.06-.29.8-.27.61-.59.94.13.18-.06.77-.25.32-.1L508.6,67l2-.4,2-.54,1.46-.4,2.25-.57,2.83-.79.12.55.23.7-.19.92.24.38.29.19.09.06-.05.75.09.71,0,1.16.39.66.06.06.2.19.47.45.41.86-.07.85,0,.38.26.61.22.62,0,.08-.23.45-.23,1V77.7l.4.35.07.5.19.61.51.66,0,.83.11.11.43.44,0,.26-.14.81-.07.61.09.84.39.35.48-1,.49.48.66.56.46,2.36.14.67.79,3.84v.07l.25,1.2.32,1.52v.46l.45.7,0,1.65,0,1.79h0l0,1.23,0,1.08-.1,3.87.29.4,0,.05.56,3.13.39,2.18.06.35.28,1.58.21,1.2.15.9h0v0l0,.12.16,1,1,1-1.85,1.86-.27.27,1,1,0,.19.08.25h0l-.26.72-.51.51v.46H529l.58-.26.31-.36,1.13-.57v-.07l0-.35.53,0,.38-.39.71.2,1.05.07h.07l.74-.53,0-.38.3-.31.74-.07,1.83-.48,1.51-.55,1.18-.58.67-.83.45-.74.49-.45.25-.52.58-.38.9-.78.13.19-.5,1.11-.14.66.76.2.51-.32.15-.94.48.08.05.68.56.34.76-.93.38-.23.68,0-.59,1.09-1.46,1.07-1.85,1.28-.87.75-3.34,2.33-1.52,1.12-.8.69-1.26.79-.59.37-1,.38-.49,0-.69.42-.58.35-.21.13-1.34.48-1.15.18-.25,0-.47.33-1.08.74-.4-.17-.21-.09-.52-.15h0l-.22-.06-.41.82-.78.7-.59.27,0-.61.29-.26,0-.5-.11-.53,0,0,.26-.26.1,0,.74-.25.12-.25,0-.05.14-.32h0l0-.17,0-.3,0-.16v-.06l0-.29.17-.63.07-.29,0-.07V123l.08-.5,0-.25v-.12l0-.47v-.06l0-.48v-.66h0l-1.7-.49-2-.61-.26-.08h0l-.78-.25-.76-.28-1.07-.39-2.76-.94-.62-.85-.22,0-.45,0-1-.12-1.07-.35-.87-.94-.11-.39-.15-.52-.38-1.51-.37-.64-.51-.44-.36-.05-.48-.07-.81-.15-.48-.79-.64-.52-.19,0-1.2.18h-.06l-.71.16-3.21.7-2.38.51-.4.09-3.21.67-.11,0-.86.16h0l-3.74.76-.4.08-.42.09L486,114.83l-1.42.28-.83.16-2,.38-1.78.34-.66.13-.38.07-2.94.53-3.28.61-.65.12-.79.14-4.19.75-1.41.24-1.53.26-.33-1.83-.33-1.92" style="fill:#f37f88;stroke:#fff;stroke-linecap:round;stroke-linejoin:round"/><path d="M544.92,111.92l.88-.46.23.51-1.13.53,0-.58" style="fill:#f37f88;stroke:#fff;stroke-linecap:round;stroke-linejoin:round"/><path d="M9.33,77.83l1.16-1.27,0,0,.91-1.44L12,74l.42-.81.32-.58,0-.48.62-.4,1-1.06,1-1.46.36-.68.64-1.2,1-2,.29-.6,1.06-2.52.64-1.72.14-.56,0-.14.82-1.64.36-1.14.71-1.71.3-.94L22,53l.26-.47.84-1.42.52-1.24v0l.72-1.22.31-.95.35-.82.12-1,.52-1.06.09-.83.58-.92.47-1.27.19-.63-.08-.73.13-.34.26-.71.23-1-.09-.59.65-.25.34-.84.12-1.42-.53-1,.55-.38.57,1,.74,0,.84,0,.27.43.64-.21.75,0,.48-.3.68.05.33.68-.22.63.41.64.07,0,.78.25.74-.17.5-.11.46.19.84,1,.27.5.47.44.18,1.06.19.83-.16.65.07.68-.09.22-.23.53.12.77-.17.4-.26.63.1.29.1.3.75.72,1.33.77.43.41h.6l.35.5.64.24.15,0,.72-.2.79.14,1.05-.18.6-.25.3-.05.25,0,.43-.33L47,47l.67.37.67,0,1.36.06.07.06.7.55.14.11.85.07,1,.77.06,1,.62,0,.47-.33L55,50l.25.19.16.12L55.9,50l1.73-.18.42-.18.2-.09.42.1.64.84.16,0,.8.22h1.23l.69.11.82-.47h.72l.76-.19.36-.09,1,.05.65,0,1.29.19.87-.68H69l.72.46.55,0,.67,0H72l1.22.4.7-.2.84-.39h0l2.93.7.67.16,2.27.55,3.52.84.19,0,2.47.58,1.08.27,1.17.29,1.2.29,4.16,1,.17.56.1.76.41.9.08.17.45.3.55.75.68.2.42.73-.09.74.43,1-.52.59L95.86,63l-1.22,1.57-.29.58-.09.18-1,1.8-.39.43h0l-.69.51-.32.68.09.73-.48.73-.32.36-.58.64-.89.24-.56.3-.55,1-.76,1.19-.34.41-.71.47-.06.74-.39.43.16.48.14.49-.29.4-.07.1.36.51.54-.15.48.69.85.21-.06.58.57.34V80l0,0-1,.75.22.85-.36.59-.43,1.16-.14.18-.55.7-.46,2L86,87.32l-1.76,7.82-.67,3L82.22,104l-1.17,5.2-1.73-.4-2.08-.46-2.22-.5-2.51-.58-3.26-.75h0l-3.06-.71-2.77-.63-2.26-.57-2.08-.51-1.16-.3-.36-.09-3.66-1-2.74-.68-1.83-.47-3.2-.83-1.91-.5-1.88-.5-1.55-.41-2.14-.64-1.89-.51-.08,0L34.4,97.5,32.7,97l-2.53-.75-1.86-.56h0l-2.1-.61-3-.8-2.44-.7-1-.38L18.94,93l-1.18-.26-.85-.29-.85-.22-1.38-.35L13,91.39l-1.77-.54L9.2,90.18l-.39-.81-.34-.43L8.36,88l.12-.71,0-.69-.17-.4.24-.76,0-.64.27-1.22.77-1.23.22-.78.13-.85-.29-.35.08-.18-.42-.79,0-1.55" style="fill:#f37f88;stroke:#fff;stroke-linecap:round;stroke-linejoin:round"/><path d="M361.67,229.45l.39-.19.77-.19.14-.58.21-.54.8.1-.14-.64,0-.55-.1-.65-.8-.3.48-.45.33-.85-.32-.64.46-.22.29.09.22-.61-.3-.53,0-.76.9.07.14-.27.09-.68.62-.3-.27-.32-.69-.59.41-.86.59.06.72-.54.8-.43-.1-.53.06-.37.82-.35,0-.12-.06-.25-.41-.34-.57-.71.44-.31.08-.88.39-.33.54-.49-.4-.65,0,0-.77-.51.14-.34.85.09.5-.59-.67-.4.09-.48.62-.06.25,0,.11-.48-.4-.56.2-.6-.24-.49,1.36-.11.8-.09,1.49-.17,2.75-.15,1.44-.1h.2l3.34-.25h.3l4-.29.82-.09h0l.13-.74-.34-1.09-.22-.65.65,0,1.82,0v.43l1.76-.2.59-.07h0l3.25-.34h.13l2.45-.26.6-.06,2.75-.3.55-.07,1.73-.22.51.11.13,0,.46-.25,1.07,0,2.3-.11,1.38-.07,1.18-.05,1.14,0,.95-.07.63-.05,2.7-.22.57-.11,1.55-.29h.22l2-.18,1.35,0h.35l1.77-.08h.08l3.09-.28,2.64-.27.38,0h0l2.65-.3h0l.63-.05.4,0,2.26-.24.14-.28,2.25-.27,2.17-.27,3.23-.4,1.7-.21,2.44-.36,1.34-.2,2.13-.3.56-.08.77-.11.31,0,2.33-.34.08-.33,1.06-.14,2-.26-.29.38-.14.75.2,1-.32.82.15.32.32.68-.7.07-.72,0-.74.75-.08.22-.13.34-.21.55-.55,1.56-.53.34h0l-.51.09-.22-.42-.83-.2-.09.09-.45.44-.37,0-.51.33-.63.54-.06.16-.39,1-.43.41-.5.47-.63-.2.07-.75-.13-.14-.3-.31-1,.77-.55.44v.58l-.26.44-.54-.26-.34.24-.17.12.22.71-.33.72-.26.49-.11.2-.79,0-.52.24-.69.27-.34.58-.62.22v0l-.07.18-.28.68-.56,0-.74.8-.33.16-.44.63-1,.07-.73.08-.11,0-1.21.24-.78.71-.68.74-.39.24-.06,0-.15.1-.46.7.22.48-.3.37.26.71-.06.06-.69.72-.9.21-.56-.33-.6.68v.29l0,3.09-2.12.26-1.27.15-1.2.15-.55.07-.39,0-.58.07-1.31.16h0l-.74.09-2.49.31-.14,0-1,.13-.24,0-1,.1-1.48.15-2.93.28-5.07.48h-.09l-1.69.18-3.58.33h0l-.6,0-4.25.31h-.15l-4.34.33h-.22l-2.57.2-1.51.13h-.17l-2.3.16,0,.17-.66.06-1.2.09h-.19l-1,.08-3.6.29-.41,0-2.2.17h-.11l-2,.15-1.75.13-.93.07-2.38.16-.91.06-.4,0-.4,0-5.84.35.07-.47" style="fill:#f37f88;stroke:#fff;stroke-linecap:round;stroke-linejoin:round"/><path d="M171.32,268.12v-.81l.18-.39,2.84.3,2.08.22,2.38.25,2.91.3,7,.72,2.77.26.83.08,2.41.22,7.29.65.52,0,3,.25,4.67.37,3.09.23.09-1.21.06-.81.39-5.27.07-.92.27-3.66.13-1.53.31-3.64.22-2.37.24-2.55h0l.32-3.55h0l.31-3.57,0-.47.19-2.66v-.14l.07-.94.26-3.37.14-1.79.22-2.9.2-2.67,0-.54.47-6.17h0l.13-1.64.33-4.44.45-6.26.44,0,9.35.65,1.45.1,2.3.15,2.25.14,6,.34,1.46.07.78,0,3.25.16.52,0,2.62.12,3.42.15h0l-.26,6.25-.1,2.46-.16,3.68-.12,2.77-.14,3.37-.09,2.14-.17,4-.11,2.61h0l.79-.19,1,1,.26.28.58.76.75.79,1.1.13.19-.46,1.25.2h0l.57.25.32-.85.51.09.84.74.59.88.11.16.21,1.41.66.09.83.14.65-.09.58.08.14,0,.77.63.75.09.79.37h.54l.49-.42.43.13.38.11.54.78.6.45.6-.23.1,0,.2-.61.41-.39.52.16,1.07.29.64.2.36-.38.18-.18.26.71v.78l.17.65.89.11.67.08-.09.94v.65l1,.43.73-.42.52-.62,1-.91.72.34.14.65.4.33,0,0,.83-.27,0,0,.37.61.07.66.82.07.64-.64.84-.48.46-.19.45.95-.46.52.64,1.24.68-.18,0-.55.11-.54.27-.6.82-.42,0-.45.42-.36h.21l.34,0,.09.62.53.79.65-.3.2.38.74.15.36-.63.26-.56.75.48.05,0,0,.7.23.17h.57l.25.63.76-.09.38.48.27.43.19.3.65-.57.35-.49.56.31.65-.74.25-.44,1-.13,1.49-.47.55.16.49,0,.28,0,.36-.2.6-.33.78-.14.77-.3H302l.37.58.9.23h1.1l.48-.09.31-.06.34-.74.31-.45.82.32.07,0,.64.44.56.59.75.13.49.58.43.48.71.51.87-.13.4.38.2.19,1,.46.67,0,.52.67.49-.23.79.84.36.16.39.12.18-.15.4,0,.75-.19.29.08.35-.31.47.19.82.06.34.28h0l0,1.62,0,1.48,0,.83,0,1.56,0,2,0,1.94,0,1.17,0,1.46,0,1.81.05,2.41v.4l.05,2.35v.81l.05,2,.15.17.63.73.82.45.39.68.3.54.63,1.45-.13,1.1-.2.51h0l.58.81.74.31-.27.51.63.55.37.74-.06,1,.75.56.16,1.07h0l.58,0h.2l0,.79.14,1.08-.08.61-.11.58.24.59-.26.67,0,.11-.1.93-.56.92-.13.82-.65.78,0,.46-.52.68.24.53.12,1.07-.42.4-.08.07-.16.94.66.74,0,.44,0,.26.13.71,0,.85v.82l0,0-.41.44-.79,1-.25.85-.26.32-.24.29-.68.69.48.56.35.52.32.46-.28.17-1.23,0-1.15.18-1.27.51-2.33,1.08-.2.09-1.57.72-1.14.54-.91.53-.73.87.11.52-1,.74-2.7,1.86-1.08,1-.12.12-.81.62-1.29,1.25-1,.95-.71.11-.82.48-1,.58-1.17.69-1.58,1-2.32,1.07-2.39,1.19-1.66,1.09-.62.47-.15.11-.65.89L289,326.64l-1.09.8-.9.75-.75.7-.43.4L284.38,331l-.51,1v0l-.58.67-.64,1-.91,1.66-.13.27-.44.91-.5,1.15-.52,1.51-.14.55-.15.6-.29,2.42.12,2.42.52,2.55.43,1.41.41,1.35.32,1.27.37,1.46.45,3.09.07.9.07.64-.14.3-.64-.17-.9.34-.78.16-.36.28.07.46-.17.39h-.64l-.4-.54-.54,0-.58-.56-.5-.25-.76-1-.67-.24-.78-.13-.46-.33-.85,0h-.12l-.93,0-.84-.08-.36.3-.65-.26-.74,0-.61,0-.1,0-.55-.21-.68-.53-.06,0-1-.65-.69-.59-.77-.24-.91-.3-.22-.12-.25-.13-.52.21-.55-.43-1-.87-.33-.61-1.06.13-.84-.53-.93-.28-.64.19-.35-.42.27-.69-.16-.33-.81-.71-.06-.27-.26-1.21-.07-1-.39-.89-.3-.77-.74-.53-.38-.69-.3-.75-.72-.63.1-1.12.18-.72-.16-.9-.17-.55,0-.09-.3-.38-.52-.17.58-1.46-.07-.55v-.68h-.39l0-1.13-.32-.49-.83-.31-1-.32-.64-.89-.52-.36-.51-.54-.39-.65-.3-.72-.14-.6-.16-.7-.64-.35-.49-1.17-.55-.74-1.19-.81-.28-.26-.83-.78-.22-.72-.37-.87-.16-.91-.35-.71-.23-.55-.06-.84-.61-.6-.61-.66,0-.77-.29-.66v-.59l-.48-.45-.57-1-.21-.75-.11-1-.1-.73,0-.23-.62-.44-.53-.58-.24-.84-.07-.07-.54-.56-.44-.53-1.29-.84-.72-1.37-.93-.26-.64-.69-.75,0-.57-.84,0-.88-.71-.36-.35-1.05-.62-.34-.6-.1-.68-.46-1.16.34-.72-.08-.56-.19-.57-.19-.79-.1-1.09-.25-.68,0-.64.17-.51-.11L222,302l-.78-.39-.86-.53-.22.06-.39.12-.28.56-.33.75-.91-.26-.53,0-.49.36h-.75l-.79.08-.26.85-.6.72-.54.88-.41.45-.35,1.07,0,.63-.62.62-.3.88.2.65-.62.66-1,.34-.55.77-.51.2-.36.79-.37.6-1.23-.23-.66.08-1-.59-1.18-.76-.69-.81L204,310l-.8-.35-.77-.35-.71-1-.06,0-.74-.38-1.43-.32-.94-.57-1-.82-.4-.64-.52-.81-.91-.68-.74-.33-.91-.93-1-1.1-.2-1.34-.55-1.08-.56-1-.06-1.11-.18-.5.25-1.14v-1.47l-.39-.7-.2-.61-.66-1-.4-.32,0-1-.13-1.09-.33-1-.56-.13L189,288l-.19-.64-.71-.26-.39-.49L187,286l-.64-.69-1.13-.33-.9-.59v-.51l-1-.86-.76-.74-.2-.65-.48-.94-.92-.63-.71-.5-.2-.52-.77-1.29-.78-.51-.12-.66-.47-.38-.1-.07-.88-.18-1-.92-.64-.87-.45-.74-.18-.84-.48-1-.17-.35-.5-.64-.57-.17-.22.14-.46-.55-.58-.5-.55-.87.21-.58" style="fill:#f37f88;stroke:#fff;stroke-linecap:round;stroke-linejoin:round"/><path d="M434.47,199.81l.91-.58.73-.1.27,0,.52-.36,1.57-.78,1.07-.38.14-.77L440,196l.7,0,1.22-.66.1-.23.16-.36-.15-.74.52-.54.68-.33.25-.52-.15-.75,1.6-1.42.07-.06,0,0,1.06-.75,1-.45.39-.5,0-.06,1-1.22,2.21-2.64.45.3-.45.89.59.4.1.42.53.74.6.58.84,0,.4.4.06,0,.74.42,1.28-.26.27-.28.48-.46.56-.38.58-1,1.72,1.2,1.13-.8,1.23-.49.16,0,.66-.18.85-.55-.63-.6.12-.53.07,0h0l.22-.08.84.61,1.05-.77,1.17-1.05.92.5.06,0L468,183l1-1.23v-.7l.55-.63h0l-.88-.71,0,0,.26-.53.28-.94.1-.65.59-1,.68-1,.17-.26.52-1.18.05-.28.13-.71.07-1.05.59-.8.49-.57.09-.1-.27-.53.64-.72.3-1.12-.09-.45.12-.69,0-1.16,1.23.33.94,1.21,1.21.22h.8l.56-.92,0-.09.17-.72.31-1.18.52-.85,0-.43.15-1.05.27-.58.15-.62,1.57.82.34-1,.35-1,.89-.62.51-.91.56-.48.2-.66.16-.55.82-1.16-.23-.37.12-.75-.07-.54.45-1.18-.11-.78-.25-.77,1.44.81.51.29,1.89,1.07h0l2.51,1.41h0l.1-.54.17-.9.37-1.39.45,0h.12l.86,0,.43.24.67.27.47.37h0l-.19.51-.3.41.12.55.45.13.28.37,1.13,0,.33,0h.22l.73.22h0l.1.57.55.15.6-.07.37.36.4.35.64.39.07.37.14.68v.09l.09.53,0,.12,0,.41-.28.06-.06.07-.41.53.13.53-1,.2-.24,0-.32,1.11v1.37l.29,1.14.44.37.25.21,1.06-.39.72-.25.46-.2.38.37,0,.38.38.26.08.06.43.35,0,.41.6.12.87.31,1-.18.71-.06.78,0,.25.5.81.42.36.36.26.26.81.41,1.31.33,1,.45v.81l-.52.66.19,1,0,.55v.17l.69.62v.88l.15.28.29.53.46,1,.16.64-.1,1-1.17-.68-.36-.23-.09.07-.33.26.74.88.39.46-.1.32-.12.38.61.38.06,0,.49.59.26.29.32.36,0,.46-.07.76.1.09.22.19.18.15.94.28h.15l1,.07.43-.36.52,0L518,183l.75,1.39.52.77.5,1-1.74.38-1,.22-2.08.44h0l-1.95.4-.55.12-2.15.44-1.92.46h0l-2.7.55-.28.06-1.19.24-4.94,1-.19,0-1.45.29-1.6.32-1,.19-2.09.42-1.46.29-.58.12-2.46.45-.68.12-1.6.29-2.15.4-.88.16-1.37.25-1.39.25-.45.08h0l-2.21.38-1.95.33-1.49.25h0l-.29,0-2.66.43-1.52.16h-.1l-1.91.2-1,.11-1.49.25-.68.11h0l-1.78.21-1.27.13-2,.25-1.62.2-2,.18.29-.38-2,.26-1.06.14-.08.33-2.33.34-.31,0-.77.11-.56.08-2.13.3-1.34.2-2.44.36-1.7.21-3.23.4-2.17.27-2.25.27.61-.55" style="fill:#f8b1b8;stroke:#fff;stroke-linecap:round;stroke-linejoin:round"/><path d="M515.89,176.45l.16-1.18-.11-1.08,0-1.51v-.21l.25-1.08.22-1,.37-.75-.19-.56.81-.53.26-.53-.75-.62.8-.85.36-.71,4-1.35-.63,2-.32.69-.68-.1-.43.62L519.6,169l-.17,1.27-.08.79.22.65-.47,1.21.13.21.12.2-.44,1.23,0,.56-.35.63,0,.73-.08.79-.64,1.22-.4.5-.43-.06-.46-1.17-.56-1.33" style="fill:#f8b1b8;stroke:#fff;stroke-linecap:round;stroke-linejoin:round"/><path d="M327.39,81.55l.13-1,.27-.21.14-.11.46-.76.14-.64.35-.69.61-.59.73-.33.33-.35.71-.07.21-.42.55-.26.4,0,.11-.51.42-.33,0-1.16,0-1.21-.09-2.41,0-1.09-.09-2.33.84-.05.2-.43.36-.52.41-.06.49.31.35,0,.53.31.72-.14.65,0,1.65-.7.67-.35h.22l.39,0,.94-.49.49-.14.42-.42.55-.17.41-.44.44.29.34-.37.41-.15.49-.35.46-.34-.09-.79.61-.31.71.51.46.31.62.59-.46,1-.56.83-.17.37.3.55-.57.61-.14.58-.2.36.3.05.26,0,.64-.5.32-.14.36-.32.14-.65.75.61,1,.79.16,0,.41-.07.68.35.19-.08.32.43.52-.3.48.45.7.22.62,1.07.44,1.14,1.89.4,2.87.6,5.41,1.09,1,.51.59.3,1.23.61.69-.13.56.14h0l.23.32.43-.05.16-.36.65-.13,1.18.48.27-.19.72.39.61-.1.68.17.62.29h0l.46.62-.53.8.32.29.49.15.09,0,.5-.22.32.41.86.06.5.41.29.24.27.39-.4.33.51.57-.05.49-.1.71,0,.72-.37.44,0,.72v.56l.62-.06.48-.06.4-.44.5.17,0,.74-.35,1-.24.7.52.61.52.57.58.1-.29.73,0,1-.65.09-.64.22-.49.16-.26.44.11.7-.14.24-.45.59-.29.91-.38.54-.09.61,0,.19.1.76-.38.55.39.44.62.08.39-.66.27-.51.87-.51.12-.21.11-.2L379,92l.16-.24-.05-.44.65-1.1.58-.8.49-.12.14-.18.66-.29.46-.72.46-1.15.62-1,.15-1.22.61-.14.48-.56.06-.67.46-.55.39-.13.4.08.07.88-.59.62.05.73-.1.79-.66,1-.4.94-.1.88-.62.8-.35.9-.44,1.39-.2.64L382,93l-.36,1.8-.28,1.9v.09l.31.84.2.67-.26.74-.57.44-.48.74-.29,1.66L380,103l-.05.27.17.88.32.58,0,.63.07.6-.7,1.7v.28l0,.7-.4,1-.35,1.62.06,1.55v.07l0,.93.38.83-.2.7.62,1,.19,1.22.09.1.07.09.62.75-.09,1.2-.13.47-.1.35.09.91.24,1.21-1,.07-3.09.22h-.18l-.9.08-2.07.17-2.05.18h0l-.71,0-1.68.11-.53,0-.52,0-3.31.19-.36,0-.94.05-3.53.19-.91,0h0l-3,.16-2.08.13H354l-2.11.1-.36-.94-.33-.68-.45-.25-1.13-.21-.46-.11-.46-.11-.8-.46-.59-.75-.35-1.23-.43-.53-.23-1,0-.16-.2-.71,0-.58,0-.77.39-.58.44-.69.28-.47-.55-.81-.5-.27-.56-.52.06-.42-.13-.22-.24-.43.11-.7-.2-.9-.23-.49-.25-.92.12-.84.1-.67-.49-1,0-.08-.71-.87-.71-.91-.18-.23-1.21-.26-.14,0-.77-.49-.75-.87-1-.45-.39-.45-.4-.46-.29-1.21-.5-.6L336,98.59l-.27-.12-1.23-.39-.13-.12-.47-.42-.26-.73,0,0-.46-.26-.38,0-1.5-.22-.7-.47-.82-1-.36-.34-.62-.6-.13-.13.33-1.22v-.1h0l.12-1.12-.15-1.13-.43-.59.59-.69,0-.14-.26-1V86.53l.13-.16.46-.58.37-.85.09-.59-.41-.47-.43-.73-.3-.44-.44-.06-.79-.12-.1-.91v-.07" style="fill:#f8b1b8;stroke:#fff;stroke-linecap:round;stroke-linejoin:round"/><path d="M347,61.42l.35-.18.85-.31.87.2.17.26.36.76-.1.36-.22.29-.84.17-.45-.66-.33-.39-.55-.21-.1-.3" style="fill:#f8b1b8;stroke:#fff;stroke-linecap:round;stroke-linejoin:round"/><path d="M385.94,80.92l.92-.5.34.49-.52.89-.24.84-.63-.74.12-1" style="fill:#f8b1b8;stroke:#fff;stroke-linecap:round;stroke-linejoin:round"/><path d="M386,271.89l0-.55,0-1.69.07-2.46v-1.14l.07-3.8,0-1.88.06-3.06,0-.88,0-2.72,0-1.47.07-3.47,0-2.33,0-.65.11-4.43V241l.08-3.32,0-2,0-1.68v-.58l.1-3.81-.68-.37-.6-1,0-.17,2.3-.16H388l1.51-.13,2.57-.2h.22l4.34-.33h.15l4.25-.31.6,0h0l3.58-.33,1.69-.18H407l5.07-.48,2.93-.28.2.83.24.88.41,1.52.51,1.73.14.48.26.89.2.68.51,1.79.23.79.64,2.21.17.61.43,1.6h0l.24.86.51,1.83.44,1.57.47,1.69.18.64.21.75L422.1,251l.08.29h0l.92,3.26,0,.12.33.45.55,1,.15.28.42,1,.23.68.11.34.83.74.09.18,0,0,.43.86v1.13l-.25.4.66.36.82.51-.27.49-.1.18-.74.56-.64.77.22.66v.36l0,1V267l-.42,1.1-.24.79.25.81.07.23.13.42,0,.53.91.95.08.69.23.34-.07.36-.16.74.13.51-.2,1,.12.56v.38l-.16.53.12,1,1,1,.23.43.15.29.19.72-.34,0-1.37.16-2.22.27-1.84.23h-.12l-1,.12-2,.25-1.71.21-1.68.17-1.82.19-2.12.21-.28,0-2.08.2-1.49.13-1.16.1-.55,0-1.14.1-2.8.25h0l-1.78.17-1.36.13-1.12.11-.94.09h0l.14.63-.41,1.24,1.23,1.27.26.39,1,.55.55.45.06.74-.29.79-.11.61.42.67.61.23-.74.53-.17.84-.71,1-1.63.58-1.92.47-.91-.07,1-.65.06-.63-.89-.75-.66-.82-.28-.55.3-.92-.2-.47-.27-.91-1-.37-.59.61,0,.79-.15.6-.21.66.09,1.38-.27,1.16-.72.05-.74.09-.71-.64-.65-.22-.35.29-.3-2.41-.31-2.62V288l-.45-3.65-.2-1.61-.54-4.27,0-.2-.33-2.58-.13-1.06-.16-1.29-.12-1.44" style="fill:#f05057;stroke:#fff;stroke-linecap:round;stroke-linejoin:round"/><path d="M77.56,243.85l0-.35.6-.34.71-.85L79,242l.42.19.59,0,.55,0,.54-.39.89-.72.22-.77-.1-.33.08-.68-.2-.78-.06,0-.64-.3-.62,0-.47-.19L80,237l.46-.69.21-1,.11-.34-.47-.56.27-.45.15-.73-.13-.43.62-.07.45,0,.1-.13.52-.72,1-.68.1-.76.19-.75.32-.39.17-.34,0-.59v-1l.27-.47.06-.51-.22-.45.37-.34.77-.62.3-.39.16-.49.06-.19.3-.21.72-.19.71-.32.77-.14.72-.62.49-.19.1-.61v0l-.26-.61-.88-1-.67-.83-.49-.1.19-.91-.32-1-.18-1.62-.2-.52-.71-1.44-.49-.92.24-1,.12-.82.27-.9.2-.72.23.06.34-.19.18-1.74,0-2.12-.31-.64.22-1,.35-1.17-.29-.64.14-1.16.15-1.13L88,199l-.23-.58-.23-.65.06-.94.15-.78V196l.17-.45.8,0,.49-.25.64,0,.66.14.21.35.42.13.4-.2.49.13.29.56.12.66.43.48.57.4h.71l.22-.36.61-.87.78-.89.19-1,.16-.78.72-3.86.63-3.31.42-2.18.92.18,10.89,2,.74.13.76.14,3.11.55h.07l2,.34,10.33,1.73h.08l1.39.24,2.32.35,3.46.53h0l3.06.55,5.15.78h0l5.55.79,4.94.69-.25,1.74L150.94,206l-.22,1.59-.24,1.72-.51,3.7-.49,3.5-.36,2.62-.41,3h0l-.74,5.3-.11.79-1.25,9-.19,1.34-.72,5.13-.39,2.79h0l-.82,6h0l-.68,4.88h0l-.66,4.75-.56,4-.9,6.44-9.2-1.33-7.44-1.1-7.24-1.12-3.23-1.83-11-6.34-10.55-6.15-4.51-2.68-11.42-6.87.1-.39.26-.35-.17-.23.25-.36" style="fill:#f37f88;stroke:#fff;stroke-linecap:round;stroke-linejoin:round"/><path d="M312.28,210.57l2.86,0,3.17-.05,1.31,0,1,0,1.86,0,1.29,0,1.76,0,1.25,0h.24l1.87-.05,3-.1h.17l.74,0,2.32-.08h.39l2-.07,2.23-.09h.33l1.5-.07,3.5-.16.33,0,2.15-.07.48,0h0l3.1-.16,1.21-.07,2.61-.14h.2l2.11-.12.91-.05,3.05-.15.75,0,.17.49.16.62.75.36.05.41,0,.76-.54.56-.41.75-.36.23-.34.22-.13.65-.64.41-.45,1-.29.74.9-.07,2.08-.15,1.62-.12.65,0,1.88-.14.57.71.41.34.06.25,0,.12-.82.35-.06.37.1.53-.8.43L366,219l-.59-.06-.41.86.69.59.27.32-.62.3-.09.68-.14.27-.9-.07,0,.76.3.53-.22.61-.29-.09-.46.22.32.64-.33.85-.48.45.8.3.1.65,0,.55.14.64-.8-.1-.21.54-.14.58-.77.19-.39.19-.07.47.78.77,0,.43-.67.53,0,0-1,.57h-.07l-.64,0-.07.65-.35.36-.41.91v.55l-.24.43-.14.26.47.64-.19.62-.11.94.13.61-.73.48-.18.69-.81-.36-.39.32.18.74-.68.18-.28.62-.62.2.17.55-.12.33-.49.2,0,.4v.15l.53.18.32.3-.17.65-.57.15-.42.27-.27.34-.51-.09-.45.36.62.21.13.5-.38.45.14.74.33.24v.6l-.69-.14-.3,0-.35.4.81.42-.26.77-.89.18.58.53-.65.52-.17.42-.1.25.33.49.23.42.3.48.42.46-.3.64.24,1,.46.07.23.56-.14.74-.2.7-.57,0-.3.53.74.58-.43.63-.07.1-1.15,0-2,.09h-.62l-4.5.19-2.27.09h0l-1.79.06-3.25.08-2.59.06h0l-2.87.06H332l-2.44.06h-.48l-1.62,0-1.33,0h-.36l-2.36,0-1,0h-.11l-2.67.06,0-2,0-1.56,0-.83,0-1.48,0-1.62h0l-.34-.28-.82-.06-.47-.19-.35.31-.29-.08-.75.19-.4,0-.18.15-.39-.12-.36-.16-.79-.84v-2.12l0-2.14v-1.11l0-2.39v-7.58l0-2.27v-.61l0-1.81,0-3,0-1.32,0-.24v-.1l-.19-1.45-.3-2-.25-1.69,0-.13-.47-3.09-.25-1.61-.13-.84-.3-1.94-.39-2.8" style="fill:#f37f88;stroke:#fff;stroke-linecap:round;stroke-linejoin:round"/><path d="M383.78,187.78l.17-.37.19-1-.24-1,.43-.39.23-.65.32-.76-.58-.6,0-.46v-.1l.62-.49.79-.61.49-.94.25-.7.09-.25.24-.65.61-.51-.11-.4.1-.37.09-.32.13-.73.76-.61.4-1.17-.33-.94-.18-.35-.16-.32.16-.44v0l-.1-.9-.57-.37v-.79L387,170l-.21-.77,0-.13.62-.68-.22-.49,0-.17L387,167l.2-.41.49-.15-.15-1.7v-.11l-.17-1.83-.07-.81L387,159l-.16-1.81-.16-1.92-.12-1.44-.25-3.18v-.2l0-.62L386,147l-.2-2.23-.15-1.61,0-.2-.18-2-.17-1.85h0l-.2-2.41-.07-.84-.22-2.5.6.45.55-.27.59.78,1.09,0,.39-.16,1-.39,1-.43.93-.68.23-.17L392,132l1.89-.18h0l1.2-.12.23,0,2.85-.3h0l1.69-.17,2.8-.29h0l1.36-.15,3.79-.43.61-.07.37,0,3.83-.45.2,0,.1.9.29,2.32.18,1.45,0,.25.23,1.92,0,.26.22,1.83.22,1.85.11.93.33,2.72h0l.26,2.18.12,1,.06.51.17,1.58h0l.06.6.29,2.85.16,1.43.13,1.24.29,2.67h0l.25,2.22.07.64.2,1.82.13,1.21h0l.12,1.09.2,1.7-.39.43-.35.41.25.27.35.39.25.53-.42.63.16.07.39.19.5.16-.09.33,0,.13v.92h-.48l-1.11.3-.6.35-.52.3-.73.74-.42.16-.17-.12-.44-.3-.42-.22-.61.16-.09,0-.64,0-.49.38.19.74.12.85.07.16.23.54-.15.33h0l-.41.33-.21.53-.93.35-.32.51-.08.56-.07.51-.33.71-.69.46-.49-.09-.24,0-.19.63-.52.78v1.1l-.06,1.18-.3.23-.25.19-.22.2-.36.33-.74-.47-1.22-.06-.9-1-.53-.64-.36.21-.32.19-.45.58h0l-.35.61-.17.05-.36.11.06,1,.26.9-1,0-.09.77-.36-.13-.13-.05-.73-.26-.72-.84-.39-.54,0,0-.64.42-.52.56-.53.18-.35.12-.3.66-.1.68-.44.89-.4-.52-.51-.43-.85-.29-.17-.1-.39-.22-.32-.18-1-.43-.32.19-.39.23h-.71l-.59.43-.13.68h-.61l-.38-.35-.13-.12-.9.32-.76-.58-.52.23,0,.12-.1.42.44.71-.32.42-.37.14-.65-.19-.5-.76.07-.16" style="fill:#f8b1b8;stroke:#fff;stroke-linecap:round;stroke-linejoin:round"/><path d="M232.48,159.25l2.33.15,3.08.19,1.4.08.91.05.33,0,2.48.14,3.21.17h.21l2.78.14,3,.14h.17l3.87.16,2,.07h0l1.31,0,3.43.12,1,0h.2l3.63.11,1.2,0,1.16,0,2.45.06,2.11,0,1.53,0,1.17,0h.47l3.84.07h.5l3.83.06h2.16l3.58,0h12.36l.83.78,1,.67.65.47.66-.51.27,0,.45,0,.25.34.54.69v.09l.08.67.12.33-.41.36-.77,0v.52l-.7.48-.07.55,0,.26-.31.26-.39.32.24.29.45.55.74.75.18.26.21.31.62.09-.19,1,.55.69.35.45.29.5.08.07.55.43.66-.2.61.38H312l-.16.59v1.86l0,1.9,0,1.5v3.71h0l0,1.25,0,2.13,0,2.5v1l0,4.3v.4l.06,3.42v1l0,2.51,0,1.46v.81l-1.05,0-3.13,0h-.87l-2.76,0H291l-2.48,0-3.89,0h-.52l-2.63,0h-.86l-3.4-.06h-.37l-2.69,0h-.74l-2.61-.06h-.08l-2.11-.06-2.74-.09-2.31-.07-1.43,0-3.08-.11-.54,0-.94,0-1.29-.05-3.74-.17h-.08l-1,0-5.13-.22-.89,0-2.46-.1-1,0-1.34-.06-1.61-.08-3-.15-.78,0-3.84-.21-1.39-.08h-.15l0-.59.06-1,.13-2.13.12-1.84.23-3.59.07-1.12v-.2l.31-5.27.13-2.1v-.09l.1-1.63.2-3.25.07-1.16.3-4.92.07-1.21.2-3.38.16-2.74v-.08l.2-3.45.16-2.59" style="fill:#f8b1b8;stroke:#fff;stroke-linecap:round;stroke-linejoin:round"/><path d="M539.7,54.77l.41-.2.12-.51.65,0,.48.38.39.72.48-.06,0-.53v-.22l.11-.39-.21-.37V53.1l-.27-.27.31-.53.26,0,.35.33.51-.07.45,0-.17-.59-.46-.23-.67-.66.14-.81.24-.56.43-.59.22-.6h0l.87-.76.48-.58-.49-.61.1-.35.46-.78.53-.68-.1-.59-.23-.36-.44.14,0-.53-.22-.23-.05-.6.23-.64.09-.63-.64-.45.1-.91.07-.57.2-.28-.13-.42.32-.52.31-.42.26-.45.18-.32L545,35l-.22-1.7,1-2.88,1.38-4,.69-2L549.06,21l.61-.09.5.08h.69l0,.63.64,1.74.8.23.74.28.75-.76,1.07-.7.63-.28,0-.47.69-.42h.48l.75-.31-.22-.44.09-.44.85-.23h.66l.57.2.81.37,1,.48.51.16.89.85,1.13.43,1.1,3.61.8,2.57L567,32.78,568,36l.41,1.34.36.19-.3.8.53.41-.17.76.41.61,0,.76v0l.86-.29.53.55h.45l1,.07.71-.35.43.34.35.92-.54.24.12.63.86.88v1.08l-.06.49.37.28,1,1,.6.23.3-.4.07-.67.72.07h.44l.67.53.39.52.25.5.84,1.05.63.34.14.75.54.3-.52.89-.34.49-.26.61-.32.75-.51.52-.4.68-.82-.12-.2.39-.46.18-.23.72-.09.7.31.39-.53.87-.77-.61-.33-.47-.41.48-.8.35-.3.53,0,.66-.32.47-.42-.12-.05.08-.25.37-.35.06-.1.9-.66-.29-.3-.24-.56.36.33.56-.09.34L571,61l.69.39-1.3.26.07.53.2,1.25-1.07.19L569,64l-.23.21-.43.4-.07.92-.36.2-.4-.94-1,.56-.78.7-.51-.61-.5-.63.33-.52-.62-.45-.23-.16-.71,0h-.2l.1.88,0,.62.62.56-.2.63.36.38-.19.53-.54.12-.42.11-.15.85-.28.12-.2.63-.31.42-.56-.73-.35-.28-.17-.14-.15.53-.1.23-.35,1.15-.49.09-.18.31-.62.46-.41.23-.19.11-.17.76-.46.36-.15.43h-.22l-.27-.71-.27,0-.31,0-.54.6,0,.51-.61.13-.09,0-.09.63-.71.16-.11.46-.07.73.25.5-.32.35-.69.37-.17,0-.22,0-.08.64.68.23-.38.77-.12.79-.41.42-.52.09-.12.18-.15.22L552,81l.24.55,0,.08,0,.85-.15.46-.21.91-.31.32L551,84l-.78-.42-.1-.06-.16-.69h0l0-.54-.78-.56-.71-.6-.78-.54,0-.76-.09-.63-.07-.5-.2-.39-.2-.38-.57-1.75L546.14,75l-.2-.62-1-3.41-.68-2.23-.11-.35-.07-.23-.16-.52-.42-1.33-.25-.8-1-3.16-1.16-3.51-1.36-4.06" style="fill:#fce5eb;stroke:#fff;stroke-linecap:round;stroke-linejoin:round"/><path d="M565.8,68.11l.4-.4.47.67-.2.73-.66-.27v-.73" style="fill:#fce5eb;stroke:#fff;stroke-linecap:round;stroke-linejoin:round"/><path d="M528.42,118.33l1.85-1.86-1-1-.16-1,0-.12v0h0l-.15-.9-.21-1.2-.28-1.58-.06-.35-.39-2.18-.56-3.13,2.59-.56,1.05-.22.75-.15.45-.09.09,0,1.53-.36.51.43.34-.14.08,0,.2-.53,1.3-.24.79-.25.19,0,1.12-.27.81-.19,1.19-.28.64-.15.34-.08,1.16-.27,1-.24.85-.2.07.21.78,2.72.32,1.11h0l.3,1.15.16.59h0l.16.7.4,1.78-.41.17.25.78-.13.52-.32-.15-.69.27-.61.35-.72.23-.35.3-.74,0-.29.3-.51.43-.47.15-.09,0-.33.31-.25-.18-.65.29-.57.38-.12.08-.58-.12-.56.18h0l-.3.35-.69.25-.34-.26-.89.54-.25,0-.35,0-.3.32-.12.13h0l-.26.46-.56.32-.12.47,0,.16-.2.15h-.78l-.47.7-.07,0-.27.11-.33.13-.4.18.25.21-.25.46-.32.23-.48.06-.45.29-.39.41-.34.09-.53.57h0l-.08-.25,0-.19-1-1,.27-.27" style="fill:#f8b1b8;stroke:#fff;stroke-linecap:round;stroke-linejoin:round"/><path d="M511.34,142.34l.11-.54.27-.55.48-.52.68-.34.23-.12,1-.07.77.22-.35.6,0,.74-.25.47-.15.59-.2.29.26.43.38.17,0,.62.11.51-.62.41.34.51.68.59.22.2.5.46.84.77.38,1,0,.78.35,1,.7.39.58.91.07.11.06.36,1,.78.94.57h.51l.21-.25.5,1.34.68,2.16.32,1.16-1.44.33-1.66.35-1.47.3-2.3.41-.32-1.13-.07-.25-.28-1h0l-.75-2.64-1.2-4.26-.39-1.41-.19-.68-.31-1.1h0l-1.25-4.7.15,0" style="fill:#f37f88;stroke:#fff;stroke-linecap:round;stroke-linejoin:round"/><path d="M415,225.55l1.48-.15,1-.1.24,0,1-.13.14,0,2.49-.31.74-.09h0l1.31-.16.58-.07.39,0,.55-.07,1.2-.15,1.27-.15,2.12-.26,2.17-.26,1.4-.17.78-.1h0l3.57-.45.79-.14.75-.13,1.8-.31,2.41-.39h0l-.09.66L443,223l-.61.65-.52.51-.31.48-.38.52.1.41-.32.48.06.16.17.42,0,.06.76.43.71.4.8.2.68.63.08.07.59.44,0,0,.64.21h0l.73-.22.61.06.5,1,.29.54.61.8.08.11.42.56.17.43.35.87,1,.81.68.87,0,.06.43.68.09.15.52,0,1.07.84,1.31.48,1.16,1.1.35.56.25.39.53.59.23,0,.33.06.1,0,1,.57.17.2.37.44.81.32.18.71v1l1.08.4.12.79v.07l1,.39,0,.09.18.62,1.22.5.52.12.18,0,.75.46.55.33.18,1,.51.58.65.84.27,1.2v.07l.4,1.15.07.67.13.07.76.42.55.12.12,0,1.1,1,.12.74.3.33.58.62.19.8-.22.58.09.13.44.64.21.87.94.26.33-.29.84.48.72.22.52.06v.51l-.63.73-.29.48-.56.89-.33.68-.36.79-.54.64,0,.17,0,.16.23,1-.32,1v.23l0,.32-.31.82-.4.89-.13.77.32.62,0,.13-.11.73-.18.57-.59,1.08-.38.22.12.73-.11.81.15.34.07.17.19,1-.23,1.26-.13.75.32.8-.78-.07-.25,0-.38.17-.88-.07-.45-.14-.77,0-.42-.28-.57-.14-.72.07-.46-.33h-.5l-.53.66-.38.56v.82l0,.52.51.68.12,1,.05,1.18-.07.63.09.46-.12,0-.51.18-.58.05h-.45l-.48-.72v-.71l-.43-.59,0-.62-2.42.12-.49,0h0l-1.49.11-1.27.09-2.26.16-3.06.22h-.06l-2.08.13-.58,0-1.71.11-1.34.1-1.59.11-.93.06-2.24.15-.92.06-.49,0-1.93.14-1.14.09-1.13.08-4.07.25-.61,0h0l-.74-.77-.29-.84-.09-.62-.66-.74-.33-.52v-.33l-.19-.72-.15-.29-.23-.43-1-1-.12-1,.16-.53V276l-.12-.56.2-1-.13-.51.16-.74.07-.36-.23-.34-.08-.69-.91-.95,0-.53-.13-.42-.07-.23-.25-.81.24-.79.42-1.1v-.35l0-1v-.36l-.22-.66.64-.77.74-.56.1-.18.27-.49-.82-.51-.66-.36.25-.4v-1.13l-.43-.86,0,0-.09-.18-.83-.74-.11-.34-.23-.68-.42-1-.15-.28-.55-1-.33-.45,0-.12-.92-3.26h0l-.08-.29L421,246.9l-.21-.75-.18-.64-.47-1.69-.44-1.57-.51-1.83-.24-.86h0l-.43-1.6-.17-.61-.64-2.21-.23-.79-.51-1.79-.2-.68-.26-.89-.14-.48-.51-1.73-.41-1.52-.24-.88-.2-.83" style="fill:#f05057;stroke:#fff;stroke-linecap:round;stroke-linejoin:round"/><path d="M440.92,226l.32-.48-.1-.41.38-.52.31-.48.52-.51L443,223l.13-.45.09-.66,1.08-.52,1.2-.58,1.23-.59.25,0h.18l.59-.73,1.18-.48.49-.2.82-.43.45-.42.66,0,.66,0,.9-.1,1.89-.23h.1l.79-.08,1.08-.11,1.2-.13,3.1-.33,1.43-.14.45,0,3.23-.32v0l.12.33-.13.72.25.36,1.05-1.06.39.4,0,0,.86.87.81.81.08,1.58,2.67-.34h0l2.72-.39,2.75-.41,1.69-.26h0l2.61-.41.2,0,2.83,2,.15.11,1.22.86,3.85,2.83h0l3.48,2.49,2.17,1.54.47.34,1,.73-1.4.74-1,.89-.87,1.05-.69,1.07-.49,1.05-.28.61-.52.8-.38,1.21-.12,1.11v1.27l.17.42-.37.79-.59.61-.17.18-.39.35v.57l-.13.65h-.75l-.66.31-.53-.39-.6.52-.22.52.53.56-.29.46-1,.85-.26.68-1,.73-.5.53-.07.73-.86.78-.3.53-.88.19-.77.48-.41.52-.61.33,0,0-.91.87-.74.22-.12,0-.66-.23,0,.17-.09.33.43.65.35.44-.13.71-.89.71-.63.3-.6-.16-.89-.34-.52.55.52.3.78.56-.48.88-.95.87-.52.23-.05.31-.12.64-.72-.22-.84-.48-.33.29-.94-.26-.21-.87-.44-.64-.09-.13.22-.58-.19-.8-.58-.62-.3-.33-.12-.74-1.1-1-.12,0-.55-.12-.76-.42-.13-.07-.07-.67-.4-1.15v-.07l-.27-1.2-.65-.84-.51-.58-.18-1-.55-.33-.75-.46-.18,0-.52-.12-1.22-.5-.18-.62,0-.09-1-.39v-.07l-.12-.79-1.08-.4v-1l-.18-.71-.81-.32-.37-.44-.17-.2-1-.57-.1,0-.33-.06-.23,0-.53-.59-.25-.39-.35-.56-1.16-1.1-1.31-.48-1.07-.84-.52,0-.09-.15-.43-.68,0-.06-.68-.87-1-.81-.35-.87-.17-.43-.42-.56-.08-.11-.61-.8-.29-.54-.5-1-.61-.06-.73.22h0l-.64-.21,0,0-.59-.44-.08-.07-.68-.63-.8-.2-.71-.4-.76-.43,0-.06-.17-.42-.06-.16" style="fill:#f37f88;stroke:#fff;stroke-linecap:round;stroke-linejoin:round"/><path d="M217.14,87.72h.18l.14-1.76.1-1.23.14-1.72.17-2.16.08-.94.22-2.67.13-1.6V75.4l.06-.88,3.74.31,2.2.17,2.11.16,2.17.16.52,0,.6,0,1.71.12,1.5.11,2.17.15,2.35.16.85.05h0l2,.13,2.31.14,1.87.11,2.52.14,3.36.18,2.44.12h.13l2,.1,1.39.07,2.65.12h0l1.58.07h0l1,0,1.18.05,1.42.05,2.46.09.85,0h0l2.74.1,1,0,2.06.08,3.36.08.61,0h.29l2,0,2.29,0,3.07,0h1.43l5.06.05-.09.88-.15.77-.43.49-.42.68-.71.42-.8.66-.26.48.07.36.08.11.53.71.37.8.31.59.35.38.57,0,.55.31.4.15.38.41.12.27.12.27V102.3h0l0,4.87h0l0,4.17v.73h-1.47l.14.43-.1.49.73.69,0,.54-.07.66L291,115l.2.47.06.14.31.37H292l.16,1.09.2.42-.13.44-.06.21-.55.38.19.49-.28.39.2.26-.43.52v.2l0,.42-.42.71-.45.68,0,.75.33.53.66.66.48,1.13,0,.07-.17.54.16.11.33.27-.58.11-.24-.39-.89.05-.17-.3-.31-.55-.52-.53.13-.78-.82-.06-.24-.51-.06,0-1-.48-.61.13-.51-.46-.1-.08-1.09-.14-.34-.28-.49-.41-.24-.46-.65-.19-.4.13-.77-.15-.36.27-.33-.06-.32-.06-.85,0-.37.06-.67.1-1-.22-.58-.11-.2.17-.3.75-.47.4-.87.06-.7-.64-.43-.45,0,0-.8-.3-.49-.2-.29-.17-.79-.47-.49-.17-.44-.49-.19-.5-3.56-.09-4.15-.13-2.85-.1-3.22-.13-3.55-.15h0l-8.17-.39-2.32-.13-8.7-.54h0l-3.32-.22-3.9-.28-2.12-.16-4.84-.38-.29,0-5.57-.45.33-4,.22-2.63,0-.36.06-.77.35-4.12h0l.34-4,0-.55.08-1,.38-4.48.14-1.68.35-4.27" style="fill:#fce5eb;stroke:#fff;stroke-linecap:round;stroke-linejoin:round"/><path d="M527.13,104.58l.1-3.87,0-1.08,0-1.23h0l0-1.79,0-1.65,1.23-.26,1.2-.26h0l.89-.19.66-.14.55-.12,2.93-.62.58-.12.07,0,.39-.08,1.29-.28.79-.17.79-.17.43-.09,1.52-.33.3-.07.93-.21.6-.13,1.1-.25,2.84-.65.58-.14.24-.64h0l.1,0,.62-.18-.23-.71.27-.43.35,0,.53-.06.06-.38.07-.43.6-.31.29-.31.71,0,.46-.15.45,1.19.58.87.58.45.5,0,.26-.47.46,0,.25.56-.4.88-.42.18-1,.5-.4.27.34.78-.43.41,0,.31,0,.16,0,.17-.41.14-.27.09,0,.05.31.85v0l0,.17-.06.34.08.1.42.54.13-.24.22-.4.38,0,.42.36h.16l.51,0,.09.05.65.37.74.93.09.07.57.5.07.5-.2.64.33.57.62.12.21-.19.49.35.42.73v.63l.06,0,.56.4.61.14,1.24-.1.57.06.48-.45.88-.48.86-.66.13-.35-.19-.59-.75-.26-.26-.71-.1-.25-.28-.71h-.72l-.38.2-.71-.44.49-.41.46-.28,1,.13.8.73.34.68.13.27.83,1.46.52,1.57.23.94-.07,1.06-.43.23-.3-1-.14-.72-.46.23-1,.48-1,.75-.57,0-.7.55-.39.32-.19.54-.8.37-.84.66-.13.12-.56.54-.42.7-.6.46-.85.47,0-.65,1.13-.93.65-.84.22-.29-.13-.6-.25-.1-.55-.22,0,0-.24.65-.11.3-.33,0,0,0-.48.27h0l-.18.59-.29.52-.36.21-.14.08h-.54l-.31.26-.55-1.38-.16-.79-.68,0-.08-.08-.1-.1-.76-.7-.65-.19-.14,0-.28-.64-.22-.84-.42.12-.21-.8-.12-.45-.12-.46-.76.23-.4.12-.61.18-.31.09-.15,0-1.92.57-.07-.21-.85.2-1,.24-1.16.27-.34.08-.64.15-1.19.28-.81.19-1.12.27-.19,0-.79.25-1.3.24-.2.53-.08,0-.34.14-.51-.43-1.53.36-.09,0-.45.09-.75.15-1.05.22-2.59.56,0-.05-.29-.4" style="fill:#f8b1b8;stroke:#fff;stroke-linecap:round;stroke-linejoin:round"/><path d="M556.61,107.68l.72-.38.43-1.22.69-.79.62.26.68.22h.35l.4.85-1.29.42-1.15.41-.61.74-.34.86-.36-.86-.14-.5" style="fill:#f8b1b8;stroke:#fff;stroke-linecap:round;stroke-linejoin:round"/><path d="M562.39,106.72l.81-.27,1.13-.4,0-1.06.77.26.61,1.21-.45.52-.83.19-1.18.21-.88-.66" style="fill:#f8b1b8;stroke:#fff;stroke-linecap:round;stroke-linejoin:round"/><path d="M393.22,130.77l.87-1.26.76-2.43.29-.74.87-1.62.09-.17.53-2,0-.35.2-1.73v-3.22l-.23-1.62-.27-1.45-.42-1.3-.25-.47-.54-1L394,109.45l-.55-1.27-.2-.55-.22-.59-.62-1-.19-.7.23-.79.55-1.08,0-.68v-.3l-.27-1.06-.23-.72h0l-.46-.67-.18-.49.51-.63.25-.31.31-.79,0-.07.29-.74.66-1.7.09-.79L394,93.31l.07-.5.09-.69-.45-1.1,0-.72.83-.5.68-.26.05-.52.06-.61-.06-1.25H396l.39-.92.81.35.67-.63.22-1.06.58-.65.35-1.14.74-.64.25.44-.13,1.9.13.22.43.7.41-.29.39-.4.45-.47,0-.78-.26-1.09,0-.37,0-.89.68-.72L403,80l1-.15.4-.06.92-.27.4-.52-.7-.19-.6,0-.8-1.1-.18-.65.45-1,.81-.75-.54-1,1.45-.05.85-.63.41.08.13,0,1.74.9,1,.53.44-.29.82,0,1.22.39.15,0,.79.81.4.79,1,0,.88,0,.75.62,1.47.36,1,.48,1.07-.19,1.17,1-.12.68.24.25.8.84.7,1.5-.76-.11-.63-.32-.38.32.15.7.08.82.95.65.33,0,.08.3.38,1.36.33.93-.22,1.17.16,1.35,0,.36.09,2.15-.59.52-.34.56-.81.16-.22,1.41v.11l0,1.4-.91.41,0,.68-.94.17-.77.45-.23.77-.06.22,0,1.64-.11.61.5.82.91-.13,1,.59.36.26.18.13,1.31-2,.14-.22,0-.17.18-.71.3-1.34.19-.51,1.21-.42.14-.52,1.23-.44.84-.43.16-.44.91-.47,1.44.45,1,.93,1,1.52.39,1.24.15.68.34,1.5.85,2.13.56,2.71.29.76.33.89.9,1.25,0,.77-.29,1,.27,1.75-.18,1.79-.59,1.27-.91.58-.47-1.34.6-.65-.72-.1-.85.77.41.36.17.48-1,.46h0v.09l0,.85,0,.32h0L431,119l-.25.14-.37.22-1,.74v.06l-.08.79-.08.81.17,1.21-.46.57-.06.28-.14.65-.45.77-.55.27-.07.65-.51.45-.39.68.31.92-.29.15-1.35.23-1.82.31h0l-1.2.2-2.61.43-2.32.37-.4.07-.4.06-3.78.58-.1-.9-.2,0-3.83.45-.37,0-.61.07-3.79.43-1.36.15h0l-2.8.29-1.69.17h0l-2.85.3-.23,0-1.2.12h0L392,132l1.26-1.18" style="fill:#f8b1b8;stroke:#fff;stroke-linecap:round;stroke-linejoin:round"/><path d="M350.82,67.6l.84-.63.85-.29,1.82-.72,1.16-1.08.3-.37.47-.57,1-.44.75,0,.69-.14.67-.18.8-.09L362,62l.75-1.06,1.07-.31.66-.15.22-.37.07-.13.28-.84.67-.62,1-1,1.05-.61.64-.66.11-.11.69-1.14,1.21-.81.61-.42,1.24-.38,1.47-.26,1.22,0,1.17.14.88.36-.08.5-1.86.11-1.34.14,0,.75-.66.47-.71.69-.87.8,0,.14-.31.87-.89.9-.35,1.09-.45.91-.13.27-.14,1,1-.38,1.17-.9.92-.59.81.6h1.59l1.23.36.9.41,1,.74.29.85.77,1,1.25.83.23,1,1.86,0,.56-.17,1.31-.41.79.77.92.14.55-.47.42-1.1.68.23.74.58.85-1,2.47-1.68.45-.31,1.37-.15,1.23-.31.22-.06,3.46-.26,2-1.25.18-.05.61-.18,2-.36-.45,1.42.2,1.68.68,1,1.18.09,1.6-.58.73.35,1.13.09.26-.4.34-.53,1.24,0,.87-.77.77.22v.67l0,1.37.59,1.55-.07.22,0,.94.93.48.6.63,1,.43.52-1,.94,0h1.19l1.31,1.15-.3,1.13-.55.11L417,70l-1.37.29-1.11-.25-1.65.14-.33.08-1.34.33-1.13.48L409,70.59l-.79.52-.64,0-.91.73.36.78-.85,0-1.33-.86-1-.95-1.51-.45-1.13-.08-1.14-.1-1.54.21-.9,1.45-.44.38L396.11,72l-.49.51-.42.44-1.6-.47-2,.53-.54,1.57-.78,1.11-.18.17-.74.66-.61,1.29L388.69,79l-.83-.89,0-1.12.51-.64-1.33-1-.52,1.3-1.16.81-1.1-.54-.92.89-.65,1.63-.28.71-.49,1.36-1,2-.72,1.21-.29,1.38-.58-.1-.52-.57-.52-.61.24-.7.35-1,0-.74-.5-.17-.4.44-.48.06-.62.06v-.56l0-.72.37-.44,0-.72.1-.71.05-.49-.51-.57.4-.33-.27-.39-.29-.24-.5-.41-.86-.06-.32-.41-.5.22-.09,0-.49-.15-.32-.29.53-.8-.46-.62h0l-.62-.29-.68-.17-.61.1-.72-.39-.27.19-1.18-.48-.65.13-.16.36-.43.05-.23-.32h0l-.56-.14-.69.13-1.23-.61-.59-.3-1-.51-5.41-1.09-2.87-.6-1.89-.4-.44-1.14-.62-1.07-.7-.22-.48-.45-.52.3-.32-.43" style="fill:#f8b1b8;stroke:#fff;stroke-linecap:round;stroke-linejoin:round"/><path d="M361,48.23l.37-.4,1.46-.91.7-.43.43-.24.71-.36.78-.68.85-.71.77-.43,1.11-.58,0,.61-1.09,1-.2.87-1.27.73-1.24.51-.37.93-1.33.72-1,.52-.44-.33-.53-.32.29-.47" style="fill:#f8b1b8;stroke:#fff;stroke-linecap:round;stroke-linejoin:round"/><path d="M397.53,75.31l.48-.15,1.11-1.34h1.61l-.08.69-1,2.54-.48.39-.62-.13-.89-1.47-.11-.53" style="fill:#f8b1b8;stroke:#fff;stroke-linecap:round;stroke-linejoin:round"/><path d="M407.84,71.9l1.06.8,1,.28.66.31-.29.66-.88.06-1.13-.93-.7-.65.28-.53" style="fill:#f8b1b8;stroke:#fff;stroke-linecap:round;stroke-linejoin:round"/><path d="M394.29,85.4l.75-1.72.55.06.39.41-.14.81-.92,1.12-.74-.1.1-.58" style="fill:#f8b1b8;stroke:#fff;stroke-linecap:round;stroke-linejoin:round"/><path d="M349.1,283l.69.06.64-.45-.35-.64v-.73l.23-.69-.12-.83.3-.52.61-.2-.26-.57-.1-.45.79-.37.12-1.24h0l.72-.21,0,0-.5-.7.13-.62.66.09.52-.53.1-.1.61-.64v-.75l.7-.23.4-.53v-.38l.49-.74-.06-.1-.89-1.36,1.38-.16.46-1,.27-.84-.78-.09.19-1-1-.14-.14-1,.57-.09-.48-.77h0l-.07-.07-.3-.29-.29-1.17.46-.59-.68-.17-.54-.48-.07-.51.25-.53.76-.6-.05-.69-.76-.56-.38-.31.07-.1.43-.63-.74-.58.3-.53.57,0,.2-.7.14-.74-.23-.56-.46-.07-.24-1,.3-.64-.42-.46-.3-.48-.23-.42-.33-.49.1-.25.17-.42.65-.52-.58-.53.89-.18.26-.77L353,248l.35-.4.3,0,.69.14v-.6l-.33-.24-.14-.74.38-.45-.13-.5-.62-.21.45-.36.51.09.27-.34.42-.27.57-.15.17-.65-.32-.3-.53-.18v-.15l0-.4.49-.2.12-.33-.17-.55.62-.2.28-.62.68-.18-.18-.74.39-.32.81.36.18-.69.73-.48-.13-.61.11-.94.19-.62-.47-.64.14-.26.24-.43v-.55l.41-.91.35-.36.07-.65.64,0h.07l1-.57,0,0,.67-.53,0-.43-.78-.77,5.84-.35.4,0,.4,0,.91-.06,2.38-.16.93-.07,1.75-.13,2-.15h.11l2.2-.17.41,0,3.6-.29,1-.08h.19l1.2-.09.66-.06.6,1,.68.37-.1,3.81V234l0,1.68,0,2-.08,3.32v.4l-.11,4.43,0,.65,0,2.33-.07,3.47,0,1.47,0,2.72,0,.88-.06,3.06,0,1.88-.07,3.8v1.14l-.07,2.46,0,1.69,0,.55.12,1.44.16,1.29.13,1.06.33,2.58,0,.2.54,4.27.2,1.61.45,3.65v.05l.31,2.62.3,2.41-.15.39-.45,0-.27.41-.63-.23-.71.18-.4-.29-.62-.06-.42.29h-.56l-.65-.09-.23,0-.94-.39-.93.1-1.33.42-1.21.61-1.27.42-.15.06-.44.18-.92.73-.24.58-.33.21-.58.19-1-.44-.4-1.25L373,293.6l-.29-.54-.17-.32-1-1-.45-1.27-.07-.35-.17-.81.45-1.33.41-1.33.18-1.26h0l-1.29.09-.74,0-4.33.29-1,.07h0l-2.4.15h-.23l-2.29.13-.8,0-2.8.15-1.39.07-.58,0-4.94.23.1-.09L350,286l-.43-.56-.35-.62.33-.79v0l-.68-.54.25-.48" style="fill:#f37f88;stroke:#fff;stroke-linecap:round;stroke-linejoin:round"/><path d="M212.57,142.07l.2-2.3.14-1.61h0l.2-2.4.06-.69.1-1.18.22-2.63.14-1.63v-.2l.28-3.27.29-3.51.14-1.56,0-.27.43-5.18,5.57.45.29,0,4.84.38,2.12.16,3.9.28,3.32.22h0l8.7.54,2.32.13,8.17.39h0l3.55.15,3.22.13,2.85.1,4.15.13,3.56.09.19.5.44.49.49.17.79.47.29.17.49.2.8.3,0,0,.43.45.7.64.87-.06.47-.4.3-.75.2-.17.58.11,1,.22.67-.1.37-.06.85,0,.32.06.33.06.36-.27.77.15.4-.13.65.19.24.46.49.41.34.28,1.09.14.1.08.51.46.61-.13,1,.48.06,0,.24.51.82.06-.13.78.52.53.31.55.17.3.89-.05.24.39.58-.11.66.41-.32.71,0,1,.58.8.16.23v.7l-.11.68.81.75,0,.94.51.35.94.68-.28.91.33.62.2.36.45.67-.24,1-.21.64,0,.11-.07.78.27.74.12.46.79-.22.12.52.12.52.63.2-.05.92V142l0,.67.37.62-.22.57v.75l.55,0-.05.38-.07.5.05.58V147l.39.64-.1.67.2.38.09.16-.32.58.07.87h0L298,151l.45.76.68.41.35.7-.18.26.09.83.45,0,0,.05.19.42.11.42.37.95.09.42-.13.62.58.18.48.26.06.38v.08l.79.32-.09.67.52.67.4.46-.21.55.34.6.36,0,.43.41H291.85l-3.58,0h-2.16l-3.83-.06h-.5l-3.84-.07h-.47l-1.17,0-1.53,0-2.11,0L270.2,161l-1.16,0-1.2,0-3.63-.11H264l-1,0-3.43-.12-1.31,0h0l-2-.07-3.87-.16h-.17l-3-.14-2.78-.14h-.21l-3.21-.17-2.48-.14-.33,0-.91-.05-1.4-.08-3.08-.19-2.33-.15.3-4.71v-.15l.08-1.28.23-3.62,0-.73h0l.22-3.55h0l-5.29-.35-.67,0-.34,0-4.43-.32-3.2-.24-2-.16h0l-5-.41.14-1.59" style="fill:#f8b1b8;stroke:#fff;stroke-linecap:round;stroke-linejoin:round"/><path d="M41.65,138.57l.47-1.75.35-1.28.66-2.5.85-3.19.61-2.31.69-2.66,1.39-5.46.49-2,1.11-4.34,1.55-5.92.89-3.49.42-1.63,2.74.68,3.66,1,.36.09,1.16.3,2.08.51,2.26.57,2.77.63,3.06.71h0l3.26.75,2.51.58,2.22.5,2.08.46,1.73.4.08,0,4,.91,3,.65,4.68,1,2.47.51,3.16.68,2.8.53,1.41.27,3,.69,3.21.64h0l2.44.48-.62,3.32-.7,3.62-.77,3.93-.56,2.87h0l-.74,3.78-.64,3.19-.26,1.35-.75,3.89-.05.26-.52,2.65-.3,1.55-.66,3.48-.11.59-1.34,6.84-.33,1.76-.55,2.79-.29,1.44h0l-.45,2.33-.41,2.14-.26,1.4h0l-.71,3.7-.38,1.87-.39,2h0l-.3,1.56-.55,2.87-.52,2.72-.22,1.22-.42,2.18-.63,3.31L96.13,194l-.16.78-.19,1-.78.89-.61.87-.22.36h-.71l-.57-.4-.43-.48-.12-.66-.29-.56-.49-.13-.4.2-.42-.13-.21-.35-.66-.14-.64,0-.49.25-.8,0-.17.45v.06l-.15.78-.06.94.23.65L88,199l-.51.62-.15,1.13L87.23,202l.29.64-.35,1.17-.22,1,.31.64,0,2.12-.18,1.74-.34.19-.23-.06-.2.72-.27.9-1.53-2.28-2.13-3.19-1-1.53-1.27-1.9-.89-1.32-2.14-3.21h0L75.35,195l-.41-.61-1.74-2.62-2.44-3.65-1-1.46L65.4,180.1,64,178l-.67-1-3.67-5.52-1.29-1.91-1.57-2.37-3.38-5.06-.6-.91-3.7-5.54-1.7-2.53-1-1.49-.4-.6-2.09-3.12,0,0-2.56-3.83-.78-1.17.23-.93.15-.62.18-.72.43-1.72.09-.34" style="fill:#f37f88;stroke:#fff;stroke-linecap:round;stroke-linejoin:round"/><path d="M534,91.59l.13-.49-.2-.77.35-.27.35-.62-.13-.2-.18-.3.12-.65-.4-.87v-.11l-.09-.76V85l-.1-.22-.15-.33-.07-.94h0l-.06-.92-.27-1.1.34-.54,0,0,.05-1.63.48-.69.06-.21.16-.55-.1-.92.36-1.19-.25-.55.23-.61h0l0-.07.14-1-.36-.73-.16-.32-.15-.86-.08-.63.31-.56.51-.32.67-.17.33-.24.17-.12.22-.74.13-.09.64-.42.26-.76.53-.61-.24-.6.3-.54-.24-.64-.45-.43-.7-1,.34-.93.19-1.14.16-.49-.59-.77.16-.58-.17-.77.33-.66.06-.91,0-.41-.46-.47.63-.61.62-.63.49.36.69.21.4-.14.14-.61.16-.38,1.36,4.06,1.16,3.51,1,3.16.25.8.42,1.33.16.52.07.23.11.35L544.9,71l1,3.41.2.62.39,1.23.57,1.75.2.38.2.39.07.5.09.63,0,.76.78.54.71.6.78.56,0,.54h0l.16.69.1.06L551,84l.59.13-.13.73-.16.58-.14.78V87l-.46.15-.71,0-.29.31-.6.31-.07.43-.06.38-.53.06-.35,0-.27.43.23.71-.62.18-.1,0h0l-.24.64-.58.14-2.84.65-1.1.25-.6.13-.93.21-.3.07-1.52.33-.43.09-.79.17-.79.17-1.29.28-.39.08-.07,0-.31-.42-.77-.44-.32-.69,0-.11" style="fill:#f8b1b8;stroke:#fff;stroke-linecap:round;stroke-linejoin:round"/><path d="M513.86,143.13l.2-.29.15-.59.25-.47,0-.74.35-.6,0,0,.17-.21.33-.41.09-.1.49-.15.35-.16.37-.17.09-.1.25-.28.4-.26.08,0-.18-.69.12-.29L518,137h0l.58-.78.15-.17.35-.4.67-.35.26-.66.57-.2.4-.43v0l-.38-.36-.17-.16-.79-.44-.45-.42-.6-.42-.33-.27-.24-.2-.38-.53-.58.08-.36-.1-.27-.51v-.38l-.38-.88-.68-.24-.5.2-.09-.32-.06-.22-.11-.39-.13-.54-.13-.53v-.7l.6-.51,0,0v-.84l.15-.56-.46-.49-.38-.47-.14-.18.52-.67.43-.71.13-.49.06-.2,0-.07.62-.79.16-1.08.31-1.06.43-.74.61-.39,2.76.94,1.07.39.76.28.78.25h0l.26.08,2,.61,1.7.49h0v.66l0,.48v.06l0,.47v.12l0,.25-.08.5V123l0,.07-.07.29-.17.63,0,.29v.06l0,.16,0,.3,0,.17h0l-.14.32,0,.05-.12.25-.74.25-.1,0-.26.26,0,0,.11.53,0,.5-.29.26,0,.61.11.52.43.13.22.06.48-.21.52-.07.7.2.13-.79.2-.13.44.88.25.81.12,1v2.27l0,.29.1,1.76.08,1,.22,1.56,0,.52v.11l-.51,2-.67,1.85h0l0,.53-.43,1.1-.35.68-1,.91-.16.23-.33.5-.5,1-.16.5-.26.93.14.21-.52,1.27-.19.58-.45.76-.69.33h-.37l-.09-1,.28-1.31v-.81l-.3-.39h-1l-.6-.21-.43.16-.39.51-.44-.49-.6-.45-.4-.24h-.45l-.56-.46-.35-.14-.56-.33-.21-.09-.31-.13-.35-.45-.81-.14,0-.53-.11-.51,0-.62-.38-.17-.26-.43" style="fill:#f37f88;stroke:#fff;stroke-linecap:round;stroke-linejoin:round"/><path d="M142.59,266.18l.56-4,.66-4.75h0l.68-4.88h0l.82-6h0l.39-2.79.72-5.13.19-1.34,1.25-9,.11-.79.74-5.3h0l.41-3,.36-2.62.49-3.5.51-3.7.24-1.72.22-1.59,1.46-10.57.25-1.74,4.67.63,2.65.35,4.16.53,5.71.71.67.08h0l6,.7.07.12,4.34.47,1.47.16,3.71.38h.1l3.08.32h0l2,.2,1.27.13,1.85.19.34,0,.72.07.38,0,4.29.43,4.34.39,3.66.28,3,.22,7.15.53.93.07-.09,1.27-.25,3.29-.07,1-.11,1.44-.44,0-.45,6.26-.33,4.44-.13,1.64h0l-.47,6.17,0,.54-.2,2.67-.22,2.9-.14,1.79-.26,3.37-.07.94v.14l-.19,2.66,0,.47-.31,3.57h0l-.32,3.55h0l-.24,2.55-.22,2.37-.31,3.64-.13,1.53-.27,3.66-.07.92-.39,5.27-.06.81-.09,1.21-3.09-.23-4.67-.37-3-.25-.52,0-7.29-.65-2.41-.22-.83-.08-2.77-.26-7-.72-2.91-.3-2.38-.25-2.08-.22-2.84-.3-.18.39v.81l-.21.58.55.87.58.5h0l-5.44-.62-3.57-.42-1.47-.18-9.25-1.16-.51,3.94-.3,2.31-5.9-.77-1.82-.23-2.23-.31.9-6.44" style="fill:#f8b1b8;stroke:#fff;stroke-linecap:round;stroke-linejoin:round"/><path d="M429.52,220.72v-.29l.6-.68.56.33.9-.21.69-.72.06-.06-.26-.71.3-.37-.22-.48.46-.7.15-.1.06,0,.39-.24.68-.74.78-.71,1.21-.24.11,0,.73-.08,1-.07.44-.63.33-.16.74-.8.56,0,.28-.68.07-.18v0l.62-.22.34-.58.69-.27.52-.24.79,0,.11-.2.26-.49.33-.72-.22-.71.17-.12.34-.24.54.26.26-.44v-.58l.55-.44,1-.77.3.31.13.14-.07.75.63.2.5-.47.43-.41.39-1,.06-.16.63-.54.51-.33.37,0,.45-.44.09-.09.83.2.22.42.51-.09h0l.53-.34.55-1.56.21-.55.13-.34.08-.22.74-.75.72,0,.7-.07-.32-.68-.15-.32.32-.82-.2-1,.14-.75,2-.18,1.62-.2,2-.25,1.27-.13,1.78-.21h0l.68-.11,1.49-.25,1-.11,1.91-.2h.1l1.52-.16,2.66-.43.29,0h0l1.49-.25,1.95-.33,2.21-.38h0l.45-.08,1.39-.25,1.37-.25.88-.16,2.15-.4,1.6-.29.68-.12,2.46-.45.58-.12,1.46-.29,2.09-.42,1-.19,1.6-.32,1.45-.29.19,0,4.94-1,1.19-.24.28-.06,2.7-.55h0l1.92-.46,2.15-.44.55-.12,1.95-.4h0l2.08-.44,1-.22,1.74-.38.65,1.53.89,1.89.45.74.92,1.5.94,1.14,1.44,2,.84,1.17.38.5.81,1.72.31,2.89,0,2.4-1.11.32-1.16.75-.09.06-1.53,1.24-.94,1-1.16,1.31-.83,1.36-.71.91-.66,1.11-.51,1.11-.6,1.93-.31-.51-.85-.46-1.28-.09-2,.6-2.19,1.09-.25.13-1,.86-.77.9-1.4,1.2-.49.59-1.14,1.34-.7,1.13-.45.73-.51,1.29-.3,1.84-.16,1-.08.75-.11,1-.55,0-.21-.38-1.4-.07-1.58.3-1.2.38-1.65,1-1-.73-.47-.34-2.17-1.54-3.48-2.49h0l-3.85-2.83-1.22-.86-.15-.11-2.83-2-.2,0-2.61.41h0l-1.69.26-2.75.41-2.72.39h0l-2.67.34-.08-1.58-.81-.81-.86-.87,0,0-.39-.4-1.05,1.06-.25-.36.13-.72-.12-.33v0l-3.23.32-.45,0-1.43.14-3.1.33-1.2.13-1.08.11-.79.08h-.1l-1.89.23-.9.1-.66,0-.66,0-.45.42-.82.43-.49.2-1.18.48-.59.73h-.18l-.25,0-1.23.59-1.2.58-1.08.52h0l-2.41.39-1.8.31-.75.13-.79.14-3.57.45h0l-.78.1-1.4.17-2.17.26,0-3.09" style="fill:#f37f88;stroke:#fff;stroke-linecap:round;stroke-linejoin:round"/><path d="M221.94,32.23l6.25.52,4.06.3.82.06,5.89.42,1.82.11,3.68.22,1.2.07,3.45.19,6.46.32,2.32.11,2.5.11,3.61.14,1.39,0,3.51.11,1.22,0,8.56.21,1.63,0,5.09.08v.76l.36,1.09.31,1.32.29.82.19.63-.42,1.16-.05.55v.16l.08,1.41v1.19l.07,1.2-.13.89,0,.28v.06l.38,1.07.34.91.28,1.29.38,1.24.63,1.39.32,1,.1.32.26,1.07,0,1,0,.82.14,2.27,0,.54.08,1.22.06,1-.15,1,.66,1.36-.26,1.88v1.18l0,.78v0l0,.09.39.89L290,71l.59,1.07.45.55,0,1.39.39,1.9-.18.87v.07l.1,1.14-5.06-.05h-1.43l-3.07,0-2.29,0-2,0h-.29l-.61,0-3.36-.08-2.06-.08-1,0-2.74-.1h0l-.85,0-2.46-.09-1.42-.05-1.18-.05-1,0h0L259,77.12h0L256.32,77l-1.39-.07-2-.1h-.13l-2.44-.12L247,76.52l-2.52-.14-1.87-.11-2.31-.14-2-.13h0l-.85-.05-2.35-.16-2.17-.15-1.5-.11-1.71-.12-.6,0-.52,0-2.17-.16L224.32,75l-2.2-.17-3.74-.31.39-4.66.05-.62.22-2.57,0-.43.12-1.4.09-1,.26-3.05.24-2.68L220,55.3v0l.08-.9.25-2.85.25-2.77.18-2.33,0-.34h0l.27-3.39.16-2,.12-1.45.16-1.93.24-2.94.18-2.1" style="fill:#fce5eb;stroke:#fff;stroke-linecap:round;stroke-linejoin:round"/><path d="M546.36,110.88l.13-.52-.25-.78.41-.17-.4-1.78-.16-.7h0l-.16-.59-.3-1.15h0l-.32-1.11-.78-2.72,1.92-.57.15,0,.31-.09.61-.18.4-.12.76-.23.12.46.12.45.21.8.42-.12.22.84.28.64.14,0,.65.19.76.7.1.1.08.08.68,0,.16.79.55,1.38-.16.21-.43.52-.23-.07-.32-.09-.07,0-.42,0-.14.57-.39.11-.42,0-.26.14-.11.06-.1.7-.15.57-.74.17-.65.35-.69.53-.27.12-.55.25-.72.42v-.15" style="fill:#f8b1b8;stroke:#fff;stroke-linecap:round;stroke-linejoin:round"/><path d="M549.22,112.37l.13-1.07.46-.2.33.8.27.4-.74.24-.46-.17" style="fill:#f8b1b8;stroke:#fff;stroke-linecap:round;stroke-linejoin:round"/><path d="M416.85,165.17l-.12-1.09h0l-.13-1.21-.2-1.82-.07-.64-.25-2.22h0l-.29-2.67-.13-1.24-.16-1.43-.29-2.85-.06-.6h0l-.17-1.58-.06-.51-.12-1-.26-2.18h0l-.33-2.72-.11-.93-.22-1.85-.22-1.83,0-.26-.23-1.92,0-.25-.18-1.45-.29-2.32,3.78-.58.4-.06.4-.07,2.32-.37,2.61-.43,1.2-.2h0l1.82-.31,1.35-.23.53.52.83-.26,1.09.67.74.19,1.05.26.48.5,1,.44.65-1,.24-.19,1.29.47.37.59,0,.06.86.79.94.4.76,0,.94-.71.14,0,.81-.17.81-.7,1.09-.52.75-.36.29.11.09,0,.25.09,1.18-.23.12,0h.76l1-.89,1.29-1.54.2-.24.67-.93.93-.9,1-.53,1.24-.95.49-.22,1-.44.93-.73,2.13-1,.59-.38.29,1.78.41,2.5.39,2.36,0,.15.36,2.16.23,1.4.22,1.38,0,.12.31,1.91.18,1.12v.09l.12.68.49,3-.62.43h-.46l-.34.59.62.78.35,1-.12.75,0,.14.45,1.09-.28.8-.27,1-.13.45,0,.08-.16,1,.09.65.12.88-.21.33-.34.51-.06,1v0l.1.64-.39.6.46.56.07.09-.27.74-.7.91-.84,1.12-.35.46-.36.8-.06.13-.57.36-.58.67-1,.78h-.5l-.29-.57-.49-.13-.42.58-.51.68.06.77-.51.09-.68.13-.24.81-.09.13-.27.42v.05l.26,1-.07,0-.57.37.25.59.31.8-.48.57-.72.34-.59-.82-.77-.4-.35.22-.42.66-.07.23-.27.83L446,167l-.46.38.17.58.38,1.38.22.69-.44.3-.6.06-.06.2-.08.29v.91l-.12.69-.59.29-.69.21-.64.27-.54.22-.39-.19-.38-.73-.55-.36-.14-.09-.61-.51-.82,0-.14-.11-.49-.39-.34-1-.09-.56-.17-.31-.1-.19-.55.26-.71.29-.17.21-.12.14-.68.61-.12.46-.43.34-.74,0-.24.25-.21.23-.41-.28-.67-.46-.7,0-1.06-.33-1,.45-.1.53,0,0-.33.21-.3-.07-.75-.19-.19-.51-.58-.22-.26-.47-.59-.15-.27-.07-.56-.11-.75.32h0l-.92-.14-.86-.12-.19-.32-.1-.17,0-.45v-.08l-.73-1-.16-.46-.31-.4-.07-.09-.83-.17-.41-.48-.18-.41-.19-.08-.19.1-.11.22h-.14l-.47.09-.57.44-.16-.05-.62-.21-.45-.43-.42-.16-.67.68-.2-1.7" style="fill:#f8b1b8;stroke:#fff;stroke-linecap:round;stroke-linejoin:round"/><path d="M432.94,128.06l.33-.46.5.34,0,.72-.52.28-.35-.88" style="fill:#f8b1b8;stroke:#fff;stroke-linecap:round;stroke-linejoin:round"/><path d="M218.94,205.33l.25-3.29.09-1.27,1.77.14,1.59.17,3.79.27,3.47.25H230l1.39.08,3.84.21.78,0,3,.15,1.61.08,1.34.06,1,0,2.46.1.89,0,5.13.22,1,0h.08l3.74.17,1.29.05.94,0,.54,0,3.08.11,1.43,0,2.31.07,2.74.09,2.11.06h.08l2.61.06h.74l2.69,0h.37l3.4.06h.86l2.63,0h.52l3.89,0,2.48,0h13.34l2.76,0H308l3.13,0,1.05,0,0,3.28,0,1.39V209l0,1.59.39,2.8.3,1.94.13.84.25,1.61.47,3.09,0,.13.25,1.69.3,2,.19,1.45v.1l0,.24,0,1.32,0,3,0,1.81v.61l0,2.27v7.58l0,2.39v1.11l0,2.14v2.12l-.49.23-.52-.67-.67,0-1-.46-.2-.19-.4-.38-.87.13-.71-.51-.43-.48-.49-.58-.75-.13-.56-.59-.64-.44-.07,0-.82-.32-.31.45-.34.74-.31.06-.48.09h-1.1l-.9-.23-.37-.58h-.54l-.77.3-.78.14-.6.33-.36.2-.28,0-.49,0-.55-.16-1.49.47-1,.13-.25.44-.65.74-.56-.31-.35.49-.65.57-.19-.3-.27-.43-.38-.48L291,249l-.25-.63h-.57l-.23-.17,0-.7-.05,0-.75-.48-.26.56-.36.63-.74-.15-.2-.38-.65.3-.53-.79-.09-.62-.34,0h-.21l-.42.36,0,.45-.82.42-.27.6-.11.54,0,.55-.68.18-.64-1.24.46-.52-.45-.95-.46.19-.84.48-.64.64-.82-.07-.07-.66-.37-.61,0,0-.83.27,0,0-.4-.33-.14-.65-.72-.34-1,.91-.52.62-.73.42-1-.43v-.65l.09-.94-.67-.08-.89-.11-.17-.65v-.78l-.26-.71-.18.18-.36.38-.64-.2-1.07-.29-.52-.16-.41.39-.2.61-.1,0-.6.23-.6-.45-.54-.78-.38-.11-.43-.13-.49.42h-.54l-.79-.37-.75-.09-.77-.63-.14,0-.58-.08-.65.09-.83-.14-.66-.09-.21-1.41-.11-.16-.59-.88-.84-.74-.51-.09-.32.85-.57-.25h0l-1.25-.2-.19.46-1.1-.13-.75-.79-.58-.76-.26-.28-1-1-.79.19h0l.11-2.61.17-4,.09-2.14.14-3.37.12-2.77.16-3.68.1-2.46.26-6.25h0l-3.42-.15-2.62-.12-.52,0-3.25-.16-.78,0-1.46-.07-6-.34-2.25-.14-2.3-.15-1.45-.1-9.35-.65.11-1.44.07-1" style="fill:#f37f88;stroke:#fff;stroke-linecap:round;stroke-linejoin:round"/><path d="M458.82,135.34l-.18-1.12-.31-1.91,0-.12-.22-1.38-.23-1.4-.36-2.16,0-.15-.39-2.36-.41-2.5-.29-1.78,1.8-1.13,1.61-1.39.1-.52.43-.4.71,0h0l.87-.78.74-.52.76-.62.33,1.92.33,1.83,1.53-.26,1.41-.24,4.19-.75.79-.14.65-.12,3.28-.61,2.94-.53.38-.07.66-.13,1.78-.34,2-.38.83-.16,1.42-.28,6.11-1.24.42-.09.4-.08,3.74-.76h0l.86-.16.11,0,3.21-.67.4-.09,2.38-.51,3.21-.7.71-.16h.06l1.2-.18.19,0,.64.52.48.79.81.15.48.07.36.05.51.44.37.64.38,1.51.15.52.11.39.87.94,1.07.35,1,.12.45,0,.22,0,.62.85-.61.39-.43.74-.31,1.06-.16,1.08-.62.79,0,.07-.06.2-.13.49-.43.71-.52.67.14.18.38.47.46.49-.15.56v.84l0,0-.6.51v.7l.13.53.13.54.11.39.06.22.09.32.5-.2.68.24.38.88v.38l.27.51.36.1.58-.08.38.53.24.2.33.27.6.42.45.42.79.44.17.16.38.36v0l-.4.43-.57.2-.26.66-.67.35-.35.4-.15.17L518,137h0l-.53.51-.12.29.18.69-.08,0-.4.26-.25.28-.09.1-.37.17-.35.16-.49.15-.09.1-.33.41-.17.21,0,0-.77-.22-1,.07-.23.12-.68.34-.48.52-.27.55-.11.54-.15,0-.25.06-3.38.73-1,.22h-.07l-1.88.4-1.57.33-1.53.32-.74.16-2.13.45-.09,0-2.28.46-.24,0-2.3.46-.1,0h0l-3.15.6-3.22.61-.24,0-2.56.48h0l-.39.07-3.61.66-.89.17-1.26.23-1.23.22-3.64.67-.89.16-3,.53-1.6.27-1.33.22-.36.06-3.64.61-1,.17-.55-3.35-.12-.75-.33-2-.42-2.54-.13-.8-.18-1.08-.37-2.24-.49-3-.12-.68v-.09" style="fill:#f37f88;stroke:#fff;stroke-linecap:round;stroke-linejoin:round"/><path d="M397.47,284.16l-.14-.63h0l.94-.09,1.12-.11,1.36-.13,1.78-.17h0l2.8-.25,1.14-.1.55,0,1.16-.1,1.49-.13,2.08-.2.28,0,2.12-.21,1.82-.19,1.68-.17,1.71-.21,2-.25,1-.12h.12l1.84-.23,2.22-.27,1.37-.16.34,0v.33l.33.52.66.74.09.62.29.84.74.77h0l.61,0,4.07-.25,1.13-.08,1.14-.09,1.93-.14.49,0,.92-.06,2.24-.15.93-.06,1.59-.11,1.34-.1,1.71-.11.58,0,2.08-.13h.06l3.06-.22,2.26-.16,1.27-.09,1.49-.11h0l.49,0,2.42-.12,0,.62.43.59v.71l.48.72h.45l.58-.05.51-.18.12,0-.09-.46.07-.63-.05-1.18-.12-1-.51-.68,0-.52v-.82l.38-.56.53-.66h.5l.46.33.72-.07.57.14.42.28.77,0,.45.14.88.07.38-.17.25,0,.78.07.23.13,0,1.37.27,1.07.1.22.06.13.21.17.48,1.93.45,1.16,1.75,4.5.29.4.23.82.14.51.8,1.48.81,1.5,1,1.65.94,1.53,1.33,2,.9,1,1.88,2.36.91,1,1.23,1.4,1,1,1,1.78-.66.79-.07,1.06.21,1.07.35,1.07.81,1.69,1.65,2.38,1.06,1.52,1,1.84.27.52,1.18,2.3,1,1.48.77,1.19.32.76.36.49.65,1.32.72,1.44.19.6.14.43,0,.14.18,1.31.07.42.08.44.06.59v.84l0,1.16.07,1.47,0,1,.07,2.18v.09l.12,1,.07.58v0l.09.78.14.56v0l.18.73,0,.79-.17,1.39-.32-.22-.77-.54-.29,1.09-.35.69v1.13l-.11,1,.51,1,.88-.6.52-1.47.32.91-.61,1.71-.06.15-1.12,2.61L495.23,355l-1.66,2.13L489.9,360l-1.66.8-.67-.46,1.27-1.07,2.26-1.46,2.66-2.6,1-1.4.07-.87,0-.6h-.61l-1.33.46-.68.62-.46.14-.9-.39-.56.21-.21.08-.44.53-1.15.4-.88.23-.93-.75-.5-.8.1-1.23-.14-1-1-1.2-.61-1.22-.78-.92-.9-.28-.51-.94-.78-.25-.41-.13-2-.78-.29.27-.36.35-.79-.59-.58-1.21-1-2-.81-2.33,0,0-1.18-1.31-.45-.15-.72.11-.7.52-.68-.1-.75-.45-1.06-1.59-.43-1.3-.12-.8-.26-.42-.56-.88-.86-1.1-1.3-1.68-1-1.65-.38-.59L463.81,327l-.55-.49-.63-.58-.81-1.2h.29l.87,0,.68-1.12.29-.74.36-.89.42-.3.48-.7-.29-.55-.32-.06-.21,0-.84-.24-.13.19-.21.31-.38.57.06.65-.27.49-.51,1.12-.32.22-.19-.89-.2-.71-.66-.75-.81-.77-.09-1.15v-1.16l-.44-1.09-.24-.95v0l1-1.13.24-1.17.23-1.37.06-.19.22-.75v-.85l-.29-1-.14-1v0l-.58-.27-.16-1.09-.3-.66.39-.84-.52-.6-.48-.6-.06-.07-.1-.65-.86-.51.27-.26-.42-.56-1.24,0h-.85l-.14.76H455l-.44-.87,0-.71-.43-.23-.75-.19h0l-.17-.74-.42-.64-.53-.47-.66,0-.22-.41-1.23-.6-.17-1-.24-1v-.06l-.88-.27-.7-.25-.66-.82-.63-.9-.77-.77-1.42-.64-1.82-.64-.82-.6-.11-.08-.76,0-.16.05-.57.19-.62.32-.37-.12-.93.5-.84.79.38.61v0l.15.5-.14.39-.91,0-.6-.23-.77.3-.46.37.28,1.06-.43.39-1,.45-.9,1.1-1.15.65L430,300l-1.45-.62-.9-.27-.4-.12-1.09.43-.76-1.3-.3-1.14.26-1.13-.06,0-.48-.31-.76-.07-1.11-.79-.4-.38-1.21-.44-1.5-1-2.36-1,0,0-1.13-.34-1.65-.39-2.15-.26-.18,0-2.67,0-2,.36-.6.11-.81.25-2.78.84-.88.19-.45.1-.62,0-1.18.4-1.16.34.71-1,.17-.84.74-.53-.61-.23-.42-.67.11-.61.29-.79-.06-.74-.55-.45-1-.55-.26-.39-1.23-1.27.41-1.24" style="fill:#f37f88;stroke:#fff;stroke-linecap:round;stroke-linejoin:round"/><path d="M479.41,363.53l.6-1.27.91-.78,1-.68.13-.29,1.5-1,1.89.52,1,1-1.18.69-.73.31-.58-.17-.89.43-.94.53-1.08.64-1.6.42,0-.32" style="fill:#f37f88;stroke:#fff;stroke-linecap:round;stroke-linejoin:round"/><path d="M476.87,364.26l.32-.57,1.46-.26-.46,1.26-1.4.2.08-.63" style="fill:#f37f88;stroke:#fff;stroke-linecap:round;stroke-linejoin:round"/><path d="M474.59,364.16l.47-.73.8.33-.07.8-1,.2-.2-.6" style="fill:#f37f88;stroke:#fff;stroke-linecap:round;stroke-linejoin:round"/><path d="M111.4,15.76l5,1.06,2.67.57,4.39.87.45.09,2.76.54,1.79.37,1,.2,1.47.29,2,.39,2.91.53,2.38.44,8.47,1.49.46.08,2.66.46,3.25.56,2.12.34,2.45.39,2.4.37,2,.3.86.12,2.46.37,6.19.89.1,0,2.2.32,2.31.33,4.22.57,2.83.37,4.92.62,2.44.31.72.08,1.7.2,5.2.6,3.55.39,1.13.12.57.06,2.55.26,3.89.4.84.08,1.92.19,1.69.16,3.08.28,4.59.4-.18,2.1-.24,2.94-.16,1.93-.12,1.45-.16,2-.27,3.39h0l0,.34-.18,2.33-.25,2.77-.25,2.85-.08.9v0l-.23,2.81-.24,2.68-.26,3.05-.09,1-.12,1.4,0,.43-.22,2.57-.05.62-.39,4.66-.06.88v.24l-.13,1.6L218,79.92l-.08.94L217.71,83l-.14,1.72-.1,1.23-.14,1.76h-.18l-9.54-.9h-.13l-.38,0-7.6-.76-1.75-.14-2.35-.2h0l-6.15-.72-4.54-.61-5.5-.68-.84-.11-2.47-.3-2.48-.31-1.19-.16-4.32-.59-.39-.14-4.62-.61-2.2-.32-1.92-.29-3.24-.43-3.74-.48-.76-.27-2.54-.38h0l-.42,1.84-.3,2-.13.82-.09.57-.27,2.1-.68-.39-.11-.62-.48-.64-.12-.7-.34-.69-.41-.86-.46-.46-.07-.07-.61.39-.23.31-.16.21-.71,1.25-.49.31-.53-.12-.85-.18-1.13.5-.49-.83-1.67.09-.92,0-.91-.37-.57-.45-.81.42L134,84.72l-.77-.59L132,83.75l-1-.35h-.27l-1.05.62,0,.49-.06,0-.6.25-.59-.62-.41-.86.12-.64-.39-.91.25-.7-.31-1.18L127.5,79l-1-1-.59.23-.65-.63-.42-.19-.33-1,.36-.54.25-.72v-.75l-.47-.67-.55-.51-.46-1.6-.59-1.4.19-.82-.19-.64.17-.72-.3-.66.17-1.09-.47-.4-.3-.35-.38-.62-.18-.29-.43,0-.11.58-.79.56-1.15.61-.65,0-.42.73-.83-.33-.71-.87-.43-.3-.1-.39-.08-.32.14-.6.4-.18.09-.74-.4-.9.59-.68,1-.09.4-.3-.16-.45.24-.66-.3-.44-.26-.65.37-.88-.51-.5.18-.57.67,0,.13-.87.18-.49.19-.49.29-1,.42-.27.06-1.22.52,0,.38-.92.29-.93-.12-.14-.2-.23-.93.1-.91-.11-.39-.19-.27-.13.1-.76-.42-.35-.19-.16-.65-.11-.11-.59-.77-.62-.44-.89.28-.6-.27-.32-.55-.66-.23-.77-.36-.63L114,42.8l-.5-.72-.25-.55-.2-.69-.39-.21-.87-.46-.49-.52-.29-.81L110,37.88l.27-.5.61-.22-.62-.85.09-.6.38-.59-.3-.51.24-.55L109.8,33l.06-.75-.43-.49-.39-.86-.44-1.16,0-.17-.06-.23.37-1.69.26-1.24.27-1.27.49-2.32.06-.28,1.44-6.75" style="fill:#fce5eb;stroke:#fff;stroke-linecap:round;stroke-linejoin:round"/><path d="M99.48,176.3h0l.39-2,.38-1.87.71-3.7h0l.26-1.4.41-2.14.45-2.33h0l.29-1.44.55-2.79.33-1.76,1.34-6.84.11-.59.66-3.48.3-1.55.52-2.65.05-.26.75-3.89.26-1.35.64-3.19.74-3.78h0l.56-2.87.77-3.93.7-3.62.62-3.32,2.26.51,3.28.55,2.52.43,2.53.43h0l3.59.61,3.91.67,1.07.22.5.1h0l3.66.59,2.48.41h0l.37.06,1,.15,3.35.53-.93,5.87,0,.2-.46,2.85-.24,1.52-.56,3.52,5.25.85,4.34.65.76.11.5.07,3,.43,4.83.65,2.09.29-.32,2.44-.32,2.28v.13l-.86,6-.08.58-.59,4.27-.42,3-.32,2.27-.25,1.83-.47,3.36-1.3,8.73h0l-.43,3.13v1.57l0,.16-.53,3.8-.78,5.53-1,6.78-4.94-.69-5.55-.79h0l-5.15-.78-3.06-.55h0l-3.46-.53-2.32-.35-1.39-.24h-.08L116.36,188l-2-.34h-.07l-3.11-.55-.76-.14-.74-.13-10.89-2-.92-.18.22-1.22.52-2.72.55-2.87.3-1.56" style="fill:#f8b1b8;stroke:#fff;stroke-linecap:round;stroke-linejoin:round"/><path d="M521.4,76.87v-1l.23-1,.23-.45,0-.08-.22-.62-.26-.61,0-.38.07-.85-.41-.86-.47-.45-.2-.19-.06-.06-.39-.66,0-1.16-.09-.71.05-.75-.09-.06-.29-.19-.24-.38.19-.92-.23-.7-.12-.55,1.44-.38.22-.06,1.16-.31,1.08-.26,3.41-.81.28,0,.22,0,1.77-.42,3.12-.81,1-.28.16,0,2-.56.78-.22,1-.28-.16.58.59.77-.16.49-.19,1.14-.34.93.7,1,.45.43.24.64-.3.54.24.6-.53.61-.26.76-.64.42-.13.09-.22.74-.17.12-.33.24-.67.17-.51.32-.31.56.08.63.15.86.16.32.36.73-.14,1,0,.07h0l-.23.61.25.55-.36,1.19.1.92-.16.55-.06.21-.48.69-.05,1.63,0,0-.34.54.27,1.1.06.92h0l.07.94.15.33.1.22v1.53l.09.76v.11l.4.87-.12.65.18.3.13.2-.35.62-.35.27.2.77-.13.49,0,.11.32.69.77.44.31.42-.58.12-2.93.62-.55.12-.66.14-.89.19h0l-1.2.26-1.23.26-.45-.7v-.46l-.32-1.52-.25-1.2V91l-.79-3.84-.14-.67L525,84.15l-.66-.56-.49-.48-.48,1-.39-.35-.09-.84.07-.61.14-.81,0-.26-.43-.44-.11-.11,0-.83-.51-.66-.19-.61-.07-.5-.4-.35v-.82" style="fill:#fce5eb;stroke:#fff;stroke-linecap:round;stroke-linejoin:round"/><path d="M30.69,3.36l.67.14.81.79,1.21,1.37,1.09.62,1.15,1,.3.66,1.47.69,1.38.38.51.15,1.05.48.88.65,1.11.48L43,11l1.08-.52.5.95.45.56.56,0L46,12l.8-.12.69.07.41.7-.36,1.15-.16.58.26.82.16,0,.17,0,.49-.23.31-.15.14-.38-.45-.63.39-1L48.7,12l-.59-.61-.12-1,.62-.62.74-1.19,0,0V7.66l.55-.61.29-.75,0-.83-.05-1.12.17-.92.07-.68L50,2l0-.84.8-.64,4.54,1.3,1.37.39,3.09.93L63,4l2.43.64,2.47.68,1.21.33,3.07.8,3.38.9,4.91,1.24,2.95.74,2.67.66,5.79,1.4,1.77.42,3.58.83,1.61.38,1.47.34,2.14.49L102,15.87l-.58,2.56-.73,3.16-1,4-.24,1.07-.21.92-.74,3.28-1.11,5-.32,1.45-.32,1.42-.09.37-1.79,8-.21,1-.11.63,0,.22-.43.71.46.83.16.75-.15.73.29.47-.2.36-.62.68.3.41.06,1-4.16-1L89,53.53l-1.17-.29L86.79,53l-2.47-.58-.19,0-3.52-.84L78.35,51l-.67-.16-2.93-.7h0l-.84.39-.7.2L72,50.27H70.9l-.67,0-.55,0L69,49.71h-.3l-.87.68-1.29-.19-.65,0-1-.05-.36.09-.76.19H63l-.82.47-.69-.11H60.28l-.8-.22-.16,0-.64-.84-.42-.1-.2.09-.42.18L55.9,50l-.48.28-.16-.12L55,50l-1.37-.24-.47.33-.62,0-.06-1-1-.77-.85-.07-.14-.11-.7-.55-.07-.06-1.36-.06-.67,0L47,47l-.58,0L46,47.4l-.25,0-.3.05-.6.25-1.05.18L43,47.79l-.72.2-.15,0-.64-.24-.35-.5h-.6l-.43-.41-1.33-.77L38,45.4l-.1-.3-.1-.29.26-.63.17-.4L38.12,43l.23-.53.09-.22-.07-.68.16-.65-.19-.83L38.16,39l-.47-.44-.27-.5-.84-1-.46-.19-.5.11-.74.17L34.11,37l-.07,0-.41-.64.22-.63L33.52,35l-.68-.05-1.1-.44-.14-.6L31.3,34l-.36.13-.4-.24-.82.39-.29-.17-.29-.55-.08-.23H27.92l.39-.75.75-2.2.44-1.87,1,.23.49-.38-.32-.7-.89-.58.1-.83,0-.23,0-1.37-.3-.39.38-.88.49-2.23v-.24l.09-1.62-.48-1.14.41-2.46,0-.17.08-2.09-.23-1.17-.33-1.12-.48-.78-.08-.13-.11-1.14.23-1.16.19-.66-.09-.82.56-.79.51-1-.14-1.34" style="fill:#f37f88;stroke:#fff;stroke-linecap:round;stroke-linejoin:round"/><path d="M45.26,3.48l1.56.22.54-.15.59-.7h.4l.9.92.36,1.29-.72.62.09.63L48.71,7l-.45.23L48.18,8,47.5,8l-.4-.43L46.17,7l-.75-.87-.22-1.29.06-1.33" style="fill:#f37f88;stroke:#fff;stroke-linecap:round;stroke-linejoin:round"/><path d="M442.58,176.41l.07-.57v-.12l0-1-.34-.37,0-.51-.06-.58.39.19.54-.22.64-.27.69-.21.59-.29.12-.69v-.91l.08-.29.06-.2.6-.06.44-.3-.22-.69-.38-1.38-.17-.58L446,167l.12-1.17.27-.83.07-.23.42-.66.35-.22.77.4.59.82.72-.34.48-.57-.31-.8-.25-.59.57-.37.07,0-.26-1v-.05l.27-.42.09-.13.24-.81.68-.13.51-.09-.06-.77.51-.68.42-.58.49.13.29.57h.5l1-.78.58-.67.57-.36.06-.13.36-.8.35-.46.84-1.12.7-.91.27-.74-.07-.09-.46-.56.39-.6-.1-.64v0l.06-1,.34-.51.21-.33-.12-.88-.09-.65.16-1,0-.08.13-.45.27-1,.28-.8-.45-1.09,0-.14.12-.75-.35-1-.62-.78.34-.59h.46l.62-.43.37,2.24.18,1.08.13.8.42,2.54.33,2,.12.75.55,3.35,1-.17,3.64-.61.36-.06,1.33-.22,1.6-.27,3-.53.4,2.64.44,2.6.31,1.93.61-.43.63-.82.66-.57.19-.27.83-1.21.62-1.14.25-.05.33-.07.92.31,0-.57.78-1.21.63-1.33.41.34.48.68.58.06.72.07,1.3-.19h.08l.14-.56.43-.92.51-.19.2-.07.85-.56,1.47-.46.71.59.27.23.83-.25,1.06.09.23.84.2.32.2.32.81.91.07.68.36.39-.37,1.39-.17.9-.1.54h0l-2.51-1.41h0L487,152.43l-.51-.29-1.44-.81.25.77.11.78-.45,1.18.07.54-.12.75.23.37-.82,1.16-.16.55-.2.66-.56.48-.51.91-.89.62-.35,1-.34,1-1.57-.82-.15.62-.27.58-.15,1.05,0,.43-.52.85-.31,1.18-.17.72,0,.09-.56.92h-.8l-1.21-.22-.94-1.21-1.23-.33,0,1.16-.12.69.09.45-.3,1.12-.64.72.27.53-.09.1-.49.57-.59.8-.07,1.05-.13.71-.05.28-.52,1.18-.17.26-.68,1-.59,1-.1.65-.28.94-.26.53,0,0,.88.71h0l-.55.63v.7L468,183l-.62.62-.06,0-.92-.5-1.17,1.05-1.05.77-.84-.61-.22.08h0l-.07,0-.12.53.63.6-.85.55-.66.18-.16,0-1.23.49-1.13.8-1.72-1.2-.58,1-.56.38-.48.46-.27.28-1.28.26-.74-.42-.06,0-.4-.4-.84,0-.6-.58-.53-.74-.1-.42-.59-.4.45-.89-.45-.3-1.06.06-.94-.58-1-.67-.83-.35-.39-.8-.11-.22-.54-.48-.39-.53-.28-.38-.84-.52,0-.31.08-.56-1.08-1.07-1-.88.16-1" style="fill:#f8b1b8;stroke:#fff;stroke-linecap:round;stroke-linejoin:round"/><path d="M148.05,81.12l.42-1.84h0l2.54.38.76.27,3.74.48,3.24.43,1.92.29,2.2.32,4.62.61.39.14,4.32.59,1.19.16,2.48.31,2.47.3.84.11,5.5.68,4.54.61,6.15.72h0l2.35.2,1.75.14,7.6.76.38,0h.13l9.54.9L216.79,92l-.14,1.68-.38,4.48-.08,1,0,.55-.34,4h0l-.35,4.12-.06.77,0,.36-.22,2.63-.33,4-.43,5.18,0,.27-.14,1.56-.29,3.51-.28,3.27v.2l-.14,1.63-.22,2.63-.1,1.18-.06.69-.2,2.4h0l-.14,1.61-.2,2.3-.14,1.59-4.64-.41L204,143l-.92-.09-3.48-.34h0l-9.53-1-.28,0-1.08-.13-5.62-.66-4.77-.59-.52-.07-5.74-.68-3.46-.43-8.31-1.12-2.09-.29-4.83-.65-3-.43-.5-.07-.76-.11-4.34-.65-5.25-.85.56-3.52.24-1.52.46-2.85,0-.2.93-5.87.77-4.83.38-2.28.48-2.89.53-3.36.12-.76.12-.73.53-3.38.4-2.57.4-2.59.49-3.06.16-1,.28-1.82.57-3.6.22-1.37.27-2.1.09-.57.13-.82.3-2" style="fill:#fce5eb;stroke:#fff;stroke-linecap:round;stroke-linejoin:round"/><path d="M319.8,264l0-1.46,0-1.17,0-1.94,2.67-.06h.11l1,0,2.36,0h.36l1.33,0,1.62,0h.48l2.44-.06h.21l2.87-.06h0l2.59-.06,3.25-.08,1.79-.06h0l2.27-.09,4.5-.19h.62l2-.09,1.15,0,.38.31.76.56.05.69-.76.6-.25.53.07.51.54.48.68.17-.46.59.29,1.17.3.29.07.07h0l.48.77-.57.09.14,1,1,.14-.19,1,.78.09-.27.84-.46,1-1.38.16.89,1.36.06.1-.49.74v.38l-.4.53-.7.23v.75l-.61.64-.1.1-.52.53-.66-.09-.13.62.5.7,0,0-.72.21h0l-.12,1.24-.79.37.1.45.26.57-.61.2-.3.52.12.83-.23.69V282l.35.64-.64.45-.69-.06-.25.48.68.54v0l-.33.79.35.62.43.56-.78.66-.1.09,4.94-.23.58,0,1.39-.07,2.8-.15.8,0,2.29-.13h.23l2.4-.15h0l1-.07,4.33-.29.74,0,1.29-.09h0l-.18,1.26-.41,1.33-.45,1.33.17.81.07.35.45,1.27,1,1,.17.32.29.54.64,1.44.4,1.25,1,.44-.94.59-.61.38-.28.61-1.17.51-.73.42v0l0,.89.71.22.64.19.56.57.67.1.58-.29.19-1.44.92-.87.58-.32,1.24-.06.44-.49.8-.66.59-.25.06,1.19-.29,1-.12,1v.68l-.62,1.08.32.63-1.57-.09,0,1.24-.72.47-.41.28,0,0-.39-.21-.78.59.52.9v.7l.51.79.64.35,1.26.12h.83l.71.66.69-.16.87.85.27.82,1.11,0,.19.66-.56,1.11-.59.27-.35.65.11.52-1-.36-.53-.46-.72.72-.9,1.13-.11-1.15.47-.8-.41-.69-.54-.32-.67-.87-1-.32-.52-.1-.44-.51-1.07-.12-1.43-.11-.49.2-.22.21-.62.59L369.55,311l-.37.29-.39.3-1.18.9-1.34.38-.91.13-.4.06h-.56l-2,.13-1.16.31h-.79l-.69-.16-.15-.67-.83-.76-.72-.06-1.16-.19-.8-.38-1.5-.34-.72-.68.69-.47.12-.44h0l-.85-.38-.39-.39.19-.34-.61-.71-.79.42-.32-.39-.58-.43-.1-.48-.07-.39-.73-.48-.53,0,.2-1-.56-.62h-.85l-.84.38-.53.33-.09.5-.11.56.87.4,1.14.32-.65,1.13-.64.26-1.17-.57-1.43-.69-.16-.06-.27-.1-1.14.1-1.11.64-.87.14-1.06-.18-.78-.16-1.16-.18-.61-.14-.82-.19-2.41-1-1.4-.56-1.17-.32-1.09-.26-1.44,0-1.4.14-1.55.1-2.46.44-.69.31-.46.35-.32-.46-.35-.52-.48-.56.68-.69.24-.29.26-.32.25-.85.79-1,.41-.44,0,0V300l0-.85-.13-.71,0-.26,0-.44-.66-.74.16-.94.08-.07.42-.4-.12-1.07-.24-.53.52-.68,0-.46.65-.78.13-.82.56-.92.1-.93,0-.11.26-.67-.24-.59.11-.58.08-.61-.14-1.08,0-.79h-.2l-.58,0h0l-.16-1.07-.75-.56.06-1-.37-.74-.63-.55.27-.51-.74-.31-.58-.81h0l.2-.51.13-1.1-.63-1.45-.3-.54-.39-.68-.82-.45-.63-.73-.15-.17-.05-2V271l-.05-2.35v-.4l-.05-2.41,0-1.81" style="fill:#ee2a2d;stroke:#333;stroke-linecap:round;stroke-linejoin:round;stroke-width:3px"/></svg>