<?xml version="1.0" encoding="utf-8"?>
<!-- Generator: Adobe Illustrator 20.1.0, SVG Export Plug-In . SVG Version: 6.00 Build 0)  -->
<svg version="1.1" id="Layer_1" xmlns="http://www.w3.org/2000/svg" xmlns:xlink="http://www.w3.org/1999/xlink" x="0px" y="0px"
	 viewBox="0 0 581.4 365.4" style="enable-background:new 0 0 581.4 365.4;" xml:space="preserve">
<style type="text/css">
	.st0{fill:#FCC28A;stroke:#FFFFFF;stroke-miterlimit:10;}
	.st1{fill:#FBD6B6;stroke:#FFFFFF;stroke-miterlimit:10;}
	.st2{fill:#FEAD5F;stroke:#FFFFFF;stroke-miterlimit:10;}
	.st3{fill:#F9EAE1;stroke:#FFFFFF;stroke-miterlimit:10;}
	.st4{fill:#FF9933;stroke:#FFFFFF;stroke-miterlimit:10;}
</style>
<g transform="matrix(0.999751,0,0,0.999751,-54.8748,-49.3873)">
	<path vector-effect="none" class="st0" d="M56.2,159.2l1.5-1.8l2-2.1l1.2-1.8l0.2-0.8l-0.1-0.6l0.1-0.7l0.6-0.6l0.7-1.2l0.9-2
		l0.1-0.4l0.2-1.2v-1.2l0.1-1.2v-0.3l-0.3-0.2l-0.3-0.9l0.5-0.7l0.5-1.2l0.2-0.8l2.1,0.7l1.8,0.5l1.6,0.5l1.4,0.4l0.8,0.2l0.9,0.3
		l1.2,0.3l0.9,0.2l1,0.4l2.4,0.7l3,0.8l2.1,0.6l0,0l1.9,0.6l2.5,0.7l1.7,0.5l2.3,0.7H92l1.9,0.5l2.1,0.6l1.6,0.4l1.9,0.5l1.9,0.5
		l3.2,0.8l1.8,0.5L106,153l-0.9,3.5l-1.5,5.9l-1.1,4.3l-0.5,2l-1.4,5.5l-0.7,2.7l-0.6,2.3l-0.8,3.2l-0.7,2.5l-0.3,1.3l-0.5,1.7
		l-0.1,0.3l-0.4,1.7l-0.2,0.7l-0.2,0.6l-0.2,0.9l0.8,1.2l2.6,3.8l0,0l2.1,3.1l0.4,0.6l1,1.5l1.7,2.5l3.7,5.5l0.6,0.9l3.4,5.1
		l1.6,2.4l1.3,1.9l3.7,5.5l0.7,1l1.4,2.1l4.4,6.6l1,1.5l2.4,3.7l1.7,2.6l0.4,0.6l1.7,2.6l0,0l2.1,3.2l0.9,1.3l1.3,1.9l1,1.5l2.1,3.2
		l1.5,2.3l-0.1,0.8l-0.2,1l0.5,0.9l0.7,1.4l0.2,0.5l0.2,1.6l0.3,1l-0.2,0.9l0.5,0.1l0.7,0.8l0.9,1l0.3,0.6l0,0l-0.1,0.6L144,272
		l-0.7,0.6l-0.8,0.1l-0.7,0.3l-0.7,0.2l-0.3,0.2l-0.1,0.2l-0.2,0.5l-0.3,0.4l-0.8,0.6l-0.4,0.3l0.2,0.4l-0.1,0.5l-0.3,0.5v1v0.6
		l-0.2,0.3l-0.3,0.4l-0.2,0.7l-0.1,0.8l-1,0.7l-0.5,0.7l-0.1,0.1h-0.5l-0.6,0.1l0.1,0.4l-0.2,0.7l-0.3,0.5l0.5,0.6l-0.1,0.3l-0.2,1
		l-0.5,0.7l0.2,1l0.5,0.2h0.6l0.6,0.3h0.1l0.2,0.8l-0.1,0.7l0.1,0.3l-0.2,0.8l-0.9,0.7l-0.5,0.4h-0.6H134l-0.4-0.2l-0.2,0.3
		l-3.3-0.4l-5.4-0.6l-6.8-0.8l-0.7-0.1l-5.1-0.6l-1-0.1l-2.7-0.3l-3.1-0.4l0.1-0.7v-0.5l-0.2-0.8l-0.3-0.3l-0.6,0.1v-0.4l0.3-1.2
		l-0.2-0.5v-0.2l0.1-0.1l0.1,0.1l0.1-0.1l0,0l0.1-0.5v-1.1v-0.5l-0.1-1.2l-0.3-1.1l-0.6-1.6l-0.9-1.6l-0.5-0.4l0,0l-0.4-0.9
		l-0.7-0.5l-0.1-0.3l-0.1-0.1l-0.7-1.1l-0.2-0.4l-0.9-0.7l-0.7-0.9l-0.8-1.3l-0.2-0.3l-0.2-0.2l-0.6,0.1l-0.6,0.2l-0.3,0.1l-0.6-0.3
		l-0.2-0.2l-0.2-0.2l-0.5-0.2l-0.2-0.6l0.5-0.3l0.1-1.1l-0.3-1.3l-0.5-1l-0.9-0.4l-0.9-0.1l-0.7-0.2l-0.8,0.3l-0.4-0.6l-1-0.4h-0.1
		l-1.1-0.9l-0.4-0.2l-1.1-1.2l-0.1-0.8v-0.6l-0.1-0.1l-0.3-0.4l-0.5-0.8l-0.8-1l-0.2-0.1l-0.6-0.4l-0.8-0.6h-0.8l-0.3,0.1l-0.8-0.5
		l-0.6-0.1h-0.4l-1-0.8l-0.8-0.5l-1-0.4l-1.7-0.4l-1.8-0.1l-0.4-1.2l-0.4-0.4l-0.3-0.3l-0.5-0.1l-0.2-0.4l0.9-1.4v-0.6l-0.1-0.1
		l0.6-1.6l-0.5-0.8l0.5-0.9l0.4-0.7l0.2-0.6l0.1-0.6l-0.3-0.5l-0.3-0.4l-0.5,0.1l-0.8-0.9L72,241l0.4-0.6l0.4-0.9v-1l-0.7-0.5
		l-0.5-0.2l-0.8-1.8l-0.3-1l-1-0.7l-0.3-0.8l0.1-1l-0.1-0.2l-0.5-0.9l-0.4-0.7l0.1-1.2l-0.3-0.7l-0.4-0.3l-0.2-1.2l-0.4-1.1
		l-0.8-1.1l-0.4-0.3l-0.4-1l0.2-1.3l-0.1-1.4l0.1-1.4l0.7-0.6l0.6,0.5l0.8-0.8l0.5-1.2l0.2-0.5l-0.1-0.5l-0.2-1.3l-0.3-0.6l-0.5-0.2
		h-0.9l-0.4-0.2l-0.4-0.1l-0.8-1.1l-0.4-1l-0.1-0.5l-0.1-0.1l-0.3-0.2l-0.1-0.5l-0.4-0.7v-0.9l0.4-0.9L64,208l0.1-0.5l-0.1-0.9
		l0.1-0.4l-0.4-0.6l-0.1-0.5l0.2-0.7l0.4-0.4l0.3-1v-0.3l0.1-0.4l0.1-0.5l0.6-0.3l0.7,0.1l0,0.4l-0.1,0.7l0.2,0.2l-0.1,0.2h-0.3l0,0
		l-0.1,1.7l1.1,0.8l0.6,1l0.5-0.1l0.2-0.1l-0.1-0.8l0.1-0.8v-0.4l0,0l-0.4-0.6l-0.3-0.5l0.1-0.4l-0.6-0.5l-0.1-0.5l0.4-0.2v-0.9
		v-0.2l-0.5-0.1l-0.3-0.8l0.7-0.1l0.1-0.4l0.3,0.1h0.2l0.8-0.4v-0.1l-0.2-0.7l-0.8-0.8l0,0l-1.1,0.2l0,0l-0.4,1L66,199l-0.5,0.3
		l-0.1,0.6l0.3,0.5l0.2,0.6l-0.8,0.2l-0.6-0.2l-0.5-0.8l-0.7-0.7l-0.3,0.1l-0.4-0.7l-0.3-0.7l-0.5-0.7L61,197l-0.5,0.4l-0.3-0.3
		l1-1.3l0.3-0.8l-0.1-0.9l0.1-0.5l-0.1-0.4l0,0l-0.5-0.2v-0.5v-0.8l-0.5-1.4l-0.7-0.7l-0.6-1l-0.1-0.5l-0.5-1.7l-0.6-0.8l-0.2-0.4
		l-0.2-0.5l-0.5-0.8l-0.1-0.5l-0.4-0.7l-0.1-0.6l0.7-0.8l0.1-1.5l-0.2-1.1v-1.2l0.1-1.3l0.5-1.1l0.9-1.3l0.1-1l0.1-0.9l-0.2-0.6
		l0.2-1.5l-0.4-0.6l-0.2-0.9l-0.4-1.3l-0.1-0.2l-0.3-0.2v-0.8l-0.4-0.7l-0.4-0.3l-0.5-0.9l-0.6-1.1l-0.1-0.3l0.4-0.9l0.1-0.6l-0.2-1
		L56.2,159.2"/>
	<path vector-effect="none" class="st0" d="M74,258.4l1.3,0.6l1.1,0.7l0.9,0.1l0.6,0.9v0.6l-0.9,0.2h-0.9l-0.5-0.6l-0.1-0.5l-1.7-1
		l-0.9-0.8L74,258.4"/>
	<path vector-effect="none" class="st0" d="M90.4,277.6l0.4,0.9l0.8,1.4l0.8,1.3l-0.9,0.1l-0.6-0.8l-0.8-1.4l-0.4-1.3L90.4,277.6"/>
	<path vector-effect="none" class="st0" d="M79,260h0.7l1.2,0.6l1.9,0.4l1.1,0.3l0.3,0.1l0.9,0.3l-0.2,0.7h-0.3l-1.1-0.3l-0.7-0.2
		l-1.3-0.1l-0.7,0.2l-0.8-0.3l-0.8-0.5l0.1-0.6L79,260"/>
	<path vector-effect="none" class="st0" d="M91.9,271.8h1.3l1,1.4l0.8,1l-0.6,0.6l-0.5-0.4l-1-0.3v-0.6l-0.7-1.1L91.9,271.8"/>
	<path vector-effect="none" class="st0" d="M80.1,271.6l0.9-0.2l0.8,0.8l-0.2,0.5l-0.4,0.1l-0.9-0.5L80.1,271.6"/>
</g>
<g transform="matrix(0.999751,0,0,0.999751,-54.8748,-49.3873)">
	<path vector-effect="none" class="st1" d="M210.3,222.2L210.3,222.2l1.3-8.7l0.5-3.4l0.3-1.8l0.3-2.3l0.4-3l0.6-4.3l0.1-0.6l0.9-6
		V192l0.3-2.3l0.3-2.4l8.3,1.1l3.5,0.4l5.7,0.7l0.5,0.1l4.8,0.6l5.6,0.7l1.1,0.1h0.3l9.5,1l0,0l3.5,0.3l0.9,0.1l3.7,0.3l4.6,0.4
		l5,0.4l0,0l2,0.2l3.2,0.2l4.4,0.3h0.3h0.7l5.3,0.3l0,0l-0.2,3.6l0,0v0.7l-0.2,3.6l-0.1,1.3v0.2l-0.3,4.7l-0.2,2.6l-0.2,3.4v0.1
		l-0.2,2.7l-0.2,3.4l-0.1,1.2l-0.3,4.9l-0.1,1.2l-0.2,3.2l-0.1,1.6v0.1l-0.1,2.1l-0.3,5.3v0.2l-0.1,1.1l-0.2,3.6l-0.1,1.8l-0.1,2.1
		l-0.1,1v0.6l-3.5-0.2l-3.8-0.3l-1.6-0.2l-1.8-0.1l-0.9-0.1l-7.2-0.5l-3-0.2l-3.7-0.3l-4.3-0.4l-4.3-0.4h-0.4l-0.7-0.1h-0.3
		l-1.9-0.2l-1.3-0.1l-2-0.2l0,0l-3.1-0.3h-0.1l-3.7-0.4l-1.5-0.2l-4.3-0.5l-0.1-0.1l-6-0.7l0,0l-0.7-0.1l-5.7-0.7l-4.2-0.5l-2.6-0.3
		l-4.7-0.6l1-6.8l0.8-5.5l0.5-3.8v-0.2v-1.6L210.3,222.2"/>
</g>
<g transform="matrix(0.999751,0,0,0.999751,-54.8748,-49.3873)">
	<path vector-effect="none" class="st0" d="M554.5,205.6l0.7-1l0.5,0.3l1.2,0.8l-0.6,0.9l-0.5,0.8l-0.1-0.7l-0.1-0.4l-0.6-0.4
		L554.5,205.6"/>
</g>
<g transform="matrix(0.999751,0,0,0.999751,-54.8748,-49.3873)">
	<path vector-effect="none" class="st1" d="M141.2,125.4l0.4-0.4l0.1-0.7l0.7-0.5l0.3-0.4l0.8-1.2l0.5-1l0.6-0.3l0.9-0.2l0.6-0.6
		l0.3-0.4l0.5-0.7l-0.1-0.7l0.3-0.7l0.7-0.5l0,0l0.4-0.4l1-1.8l0.1-0.2l0.3-0.6l1.2-1.6l1.2-1.5l0.5-0.6l-0.4-1l0.1-0.7l-0.4-0.7
		l-0.7-0.2l-0.5-0.8l-0.4-0.3l-0.1-0.2l-0.4-0.9l-0.1-0.8l-0.2-0.6l-0.1-1l-0.3-0.4l0.6-0.7l0.2-0.4l-0.3-0.5l0.2-0.7l-0.2-0.7
		L149,99l0.4-0.7v-0.2l0.1-0.6l0.2-1l1.8-8l0.1-0.4l0.3-1.4l0.3-1.4l1.1-5L154,77l0.2-0.9l0.2-1.1l1-4l0.7-3.2l0.6-2.6l0.5-2.1
		l2.5,0.5l3.1,0.7l3.4,0.7l-1.4,6.7l-0.1,0.3l-0.5,2.3l-0.3,1.3l-0.3,1.2l-0.4,1.7l0.1,0.2v0.2l0.4,1.2l0.4,0.9l0.4,0.5l-0.1,0.8
		l0.9,1.1l-0.2,0.5l0.3,0.5L165,85l-0.1,0.6l0.6,0.9l-0.6,0.2l-0.3,0.5l1.1,0.9l0.3,0.8l0.5,0.5l0.9,0.5l0.4,0.2l0.2,0.7l0.2,0.5
		l0.5,0.7l0.4,1.1l0.4,0.6l0.2,0.8l0.6,0.7l0.3,0.3l-0.3,0.6l0.4,0.9l0.8,0.6l0.1,0.6l0.7,0.1l0.2,0.2l0.4,0.4l-0.1,0.8l0.3,0.1
		l0.4,0.2l0.9,0.1l0.9-0.1l0.2,0.2l0.1,0.1l-0.3,0.9l-0.4,0.9h-0.5l-0.1,1.2l-0.4,0.3l-0.3,1l-0.2,0.5l-0.2,0.5l-0.1,0.9h-0.7
		l-0.2,0.6l0.5,0.5l-0.4,0.9l0.3,0.6l0.3,0.4l-0.2,0.7l0.2,0.4l-0.4,0.3l-1,0.1l-0.6,0.7l0.4,0.9l-0.1,0.7l-0.4,0.2l-0.1,0.6
		l0.1,0.3l0.1,0.4l0.4,0.3l0.7,0.9l0.8,0.3l0.4-0.7h0.7l1.2-0.6l0.8-0.6l0.1-0.6h0.4l0.2,0.3l0.4,0.6l0.3,0.4l0.5,0.4l-0.2,1.1
		l0.3,0.7l-0.2,0.7l0.2,0.6l-0.2,0.8l0.6,1.4l0.5,1.6l0.5,0.5l0.5,0.7v0.7l-0.2,0.7l-0.4,0.5l0.3,1l0.4,0.2l0.6,0.6l0.6-0.2l1,1
		l0.2,0.8l0.3,1.2l-0.2,0.7l0.4,0.9l-0.1,0.6l0.4,0.9l0.6,0.6l0.6-0.2h0.1v-0.5l1.1-0.6h0.3l1,0.3l1.2,0.4l0.8,0.6l0.5-1.1l0.8-0.4
		l0.6,0.5l0.9,0.4h0.9l1.7-0.1l0.5,0.8l1.1-0.5l0.9,0.2l0.5,0.1l0.5-0.3l0.7-1.3l0.2-0.2l0.2-0.3l0.6-0.4l0.1,0.1l0.5,0.5l0.4,0.9
		l0.3,0.7l0.1,0.7l0.5,0.6l0.1,0.6l0.7,0.4l-0.2,1.4l-0.6,3.6l-0.3,1.8l-0.2,1l-0.5,3.1l-0.4,2.6l-0.4,2.6l-0.5,3.4l-0.1,0.7
		l-0.1,0.8l-0.5,3.4l-0.5,2.9l-0.4,2.3l-0.8,4.8l-3.3-0.5l-1-0.1l-0.4-0.1l0,0l-2.5-0.4l-3.7-0.6l0,0l-0.5-0.1l-1.1-0.2l-3.9-0.7
		l-3.6-0.6l0,0l-2.5-0.4l-2.5-0.4l-3.3-0.5L166,165l-2.4-0.5l0,0l-3.2-0.6l-3-0.7l-1.4-0.3l-2.8-0.5l-3.2-0.7l-2.5-0.5l-4.7-1
		l-3-0.7l-4-0.9h-0.1l1.2-5.2l1.3-5.9l0.7-3l1.8-7.8l0.3-1.2l0.5-2l0.6-0.7l0.1-0.2l0.4-1.2l0.4-0.6l-0.2-0.9l1-0.7l0,0v-0.4
		l-0.6-0.3l0.1-0.6l-0.8-0.2L142,127l-0.5,0.1l-0.4-0.5l0.1-0.1l0.3-0.4l-0.1-0.5L141.2,125.4"/>
</g>
<g transform="matrix(0.999751,0,0,0.999751,-54.8748,-49.3873)">
	<path vector-effect="none" class="st0" d="M399.5,206.8l0.1-0.7v-0.3l0.2-0.8l0.5-0.8l0.5-0.3l-0.1-0.7l0.1-0.8l-0.3-0.3l0.2-0.7
		l0.3-0.5l1-0.4h0.6l0,0l0.7-0.5v-0.4v-0.4l0.2-0.8v-0.6l0.5-0.7l0.6-0.6l0.3-0.6V195l-0.1-0.7l0,0l-0.1-0.5l-0.5-0.7h-0.5l-0.5-0.7
		l-0.4-0.5l0.4-1.2l0,0v-0.1v-0.4l0.3-0.8l0.6-0.1l0.4,0.1l0.6-0.4l0.8-0.1l0.9-0.1l0.8-0.5l0.5-0.5l0.6-0.1l0.5-0.1l0.4-0.6
		l0.5-0.3l0.2-0.3v-0.9l0.2-0.4v-0.5v-0.2l0.6-0.6h0.1l0.6-0.4v-0.5l0.1-0.6v-0.7v-0.1l0.1-0.8l-0.2-0.5v-0.1v-0.9l-0.5-0.6
		l-0.7-0.3l-0.5-0.2l-0.2-0.1l-0.7-0.5l-0.3-0.5l0.1-0.6l-0.3-0.5l-0.4-0.3l-0.4-0.3l-0.5-0.5l-0.3-0.1l-0.6-0.3v-0.5l2.1-0.1h0.1
		l2.1-0.1l3-0.2l0,0h0.9l3.5-0.2l0.9-0.1h0.4l3.3-0.2h0.5h0.5l1.7-0.1h0.7l0,0l2.1-0.2l2.1-0.2l0.9-0.1h0.2l3.1-0.2l1-0.1l0.1,1
		l-0.1,0.8l-0.1,0.9v0.1l0.4,1.2l0,0l0.5,0.7l0.2,0.3l0,0l0,0l0.6,0.6l0.1,0.1l0.2,0.6l0.5,1.3l0.1,0.4l0,0l0.1,0.1v0.1v0.2l0.1,0.4
		l0.3,0.5l0.1,0.1l0.3,0.5l0.3,0.2l0.1,0.3v0.2l0.2,2.5l0.1,0.8l0.2,2.4l0,0l0.2,1.9l0.2,2v0.2l0.1,1.6l0.2,2.2l0.3,2.8v0.6v0.2
		l0.3,3.2l0.1,1.4l0.2,1.9l0.2,1.8l0.3,3.1l0.1,0.8l0.2,1.8v0.1l0.2,1.7l-0.5,0.1l-0.2,0.4l0.1,0.7v0.2l0.2,0.5l-0.6,0.7v0.1
		l0.2,0.8l0.6,0.6v0.8l0.6,0.4l0.1,0.9l0,0l-0.2,0.4l0.2,0.3l0.2,0.3l0.3,0.9l-0.4,1.2l-0.8,0.6l-0.1,0.7l-0.1,0.3L442,227l0.1,0.4
		l-0.6,0.5l-0.2,0.7l-0.1,0.2l-0.3,0.7l-0.5,0.9l-0.8,0.6l-0.6,0.5v0.1v0.5l0.6,0.6l-0.3,0.8l-0.2,0.7l-0.4,0.4l0.2,1l-0.2,1
		l-0.2,0.4l-0.1,0.2l0.5,0.8l-0.3,0.8l-0.7,0.7l-0.3,0.6l0.4,1.1l0,0l0.7,0.6l0.1,0.3l0.1,0.2l-1,0.4l-1.4,0.3l-0.5,1l-0.7-0.2l0,0
		l-0.5,0.3l-0.2,0.9l-0.2,0.7l0.5,1l0.6,0.9l-0.2,0.7l-0.3,0.5h-0.1h-0.1h-0.5l-0.3-0.2l-0.6-0.4l-0.9-0.3l-0.7-0.1l-0.9-0.5
		l-1.1-0.3l0,0l0,0l-0.7,0.1l-0.6,0.5l-0.4,0.7l-0.7,1l0,0l0.5,0.7v0.5l-0.7-0.1l-0.7-0.3l-0.6-0.1l-0.6-0.2L425,249l-0.9-1.1
		l-0.2-0.9l-0.1-0.1l-0.4-0.3l0.2-0.6l0.2-0.2l0.5-0.3v-0.7l-0.6-0.8l-0.5-0.9l0.1-0.4v-0.2v-0.1l-0.2-0.6l-0.2-1l-0.8-0.3l-0.9-0.4
		l-0.2-0.5l-0.1-0.2l-1-0.5l-0.8-0.6l-0.8,0.5l-0.1-0.1l-0.5-0.5l0.2-0.7h-0.6l-0.8-0.6l-0.5-0.5l-0.9-0.5l-0.1-0.1l-0.4-0.4l0,0
		l-0.8-0.7l-0.3-0.5l-0.2-0.2l-0.2-1.2l0.2-0.8l0.1-0.1l0,0l0.5-0.8l0.1-0.8l0.1-0.3l0.1-0.2l0.1-0.2l0.6-1v-0.7l0,0l-0.2-0.4
		l-0.2-0.5l0.4-0.7l0,0l0.5-0.5v-0.6l-1.1-0.6l-0.3-0.2l-0.5-0.1h-0.2l-1.1-0.5h-0.6h-0.2l-0.3,0.7l-0.6,0.6h-0.4l-0.7-0.6l-0.1-0.2
		l-0.2-0.7l-0.5-1l0.3-0.7l-0.3-0.7l-0.2-1l-0.1-0.4l-1.2-1.1l-1.1-0.8l0,0l-1.1-0.6l-0.3-0.6l-0.4-0.6l-0.5-0.1l-0.3-0.6l-0.1-0.1
		l-1-0.9L402,214l-0.7-0.6V213v-0.4l-0.4-0.5l-0.4-0.3v-0.9l-0.1-0.5l0,0l-0.5-1l-0.2-0.8l-0.2-1.3L399.5,206.8"/>
</g>
<g transform="matrix(0.999751,0,0,0.999751,-54.8748,-49.3873)">
	<path vector-effect="none" class="st1" d="M345.4,171.6l0.5-0.7l0.4-0.7v-0.4v-0.2l0.4-0.5l-0.2-0.3l0.3-0.4l-0.2-0.5l0.5-0.4
		l0.1-0.2l0.1-0.4l-0.2-0.4l-0.2-1.1h-0.5l-0.3-0.4l-0.1-0.1l-0.2-0.5l0.5-0.1l0.1-0.7v-0.5l-0.7-0.7l0.1-0.5l-0.1-0.4h1.5h2.6h1.5
		h1.9h0.3h3.5h0.3h0.7h1.7h3h0.4h0.2l4.2-0.1h0.5h1.4h2.8l0,0l3.3-0.1h0.7h0.8l2.7-0.1l1.8-0.1h0.3h1.6l3.2-0.1l0,0h1.1l2.7-0.1h1
		l2.6-0.1h1l1.2-0.1l1.2-0.1l2.8-0.1l-0.1,0.7l0.2,0.4l0.1,0.2l-0.1,0.4l0.6,0.5l0.5,0.3l0.5,0.8l-0.3,0.5l-0.4,0.7l-0.4,0.6v0.8
		v0.6l0.2,0.7v0.2l0.2,1l0.4,0.5l0.4,1.2l0.6,0.8l0.8,0.5l0.5,0.1l0.5,0.1l1.1,0.2l0.5,0.2l0.3,0.7l0.4,0.9v0.5l0.6,0.3l0.3,0.1
		l0.5,0.5l0.4,0.3l0.4,0.3l0.3,0.5l-0.1,0.6l0.3,0.5l0.7,0.5l0.2,0.1l0.5,0.2l0.7,0.3l0.5,0.6v0.9v0.1l0.2,0.5l-0.1,0.8v0.1v0.7
		l-0.1,0.6v0.5l-0.6,0.4h-0.1l-0.6,0.6v0.2v0.5l-0.2,0.4v0.9l-0.2,0.3l-0.5,0.3l-0.4,0.6l-0.5,0.1l-0.6,0.1l-0.5,0.5L407,189
		l-0.9,0.1l-0.8,0.1l-0.6,0.4l-0.4-0.1l-0.6,0.1l-0.3,0.8v0.4v0.1l0,0l-0.4,1.2l0.4,0.5l0.5,0.7h0.5l0.5,0.7l0.1,0.5l0,0l0.1,0.7
		v0.9l-0.3,0.6l-0.6,0.6l-0.5,0.7v0.6l-0.2,0.8v0.4v0.4l-0.7,0.5l0,0h-0.6l-1,0.4l-0.3,0.5l-0.2,0.7l0.3,0.3l-0.1,0.8l0.1,0.7
		l-0.5,0.3l-0.8-0.3l-0.2-0.4l-0.5-0.4l-0.5-0.5l-0.1-0.5l-0.6-0.1l-0.2-0.4l-0.3-0.3l-0.1-0.1l-2.2,0.2l0,0l-2.5,0.2l-1.8,0.1
		l-1.1,0.1l-1.9,0.1h-0.5h-0.3l-2.4,0.1l-1.6,0.1h-0.4l-2.2,0.1H380l-1.9,0.1h-0.4l-1.9,0.1h-0.7l-1.8,0.1h-0.8H371h-0.8h-1.7h-0.7
		h-1h-2h-1h-1.6h-1.4h-1.4H359h-1.7h-2.5l0.2-0.3l-0.4-0.7l-0.7-0.4l-0.4-0.8l0.6-0.7l0,0l-0.1-0.9l0.3-0.6l-0.1-0.2l-0.2-0.4
		l0.1-0.7l-0.4-0.6v-0.5v-0.4l-0.1-0.6l0.1-0.5l0.1-0.4h-0.6v-0.1v-0.7l0.2-0.6L353,192v-0.7V191l0.1-0.9l-0.6-0.2l-0.1-0.5
		l-0.1-0.5l-0.8,0.2l-0.1-0.5l-0.3-0.7l0.1-0.8V187l0.2-0.6l0.2-1l-0.4-0.7l-0.2-0.4l-0.3-0.6l0.3-0.9l-0.9-0.7l-0.5-0.3v-0.9
		l-0.8-0.8l0.1-0.7v-0.1v-0.6l-0.2-0.2l-0.6-0.8v-1l0.3-0.7l-0.7-0.4l-0.3-0.3l-0.2-0.1l0.2-0.5v-0.1l-0.5-1.1l-0.7-0.7l-0.3-0.5
		L345.4,171.6"/>
</g>
<g transform="matrix(0.999751,0,0,0.999751,-54.8748,-49.3873)">
	<path vector-effect="none" class="st0" d="M423.8,256.6l0.7,0.1h0.8l0.3-0.9l0.6-0.1l0,0l0.6,0.6l0.6,0.1l0.3-0.8l0.2-0.4l0.1-0.2
		l-0.5-0.7l0.5-0.6v-0.4l0,0v-0.8l0.3-0.7l0.1-0.8v-0.2l-0.4-0.3V250l-0.5-0.7l0,0l0.7-1l0.4-0.7l0.6-0.5l0.7-0.1l0,0l0,0l1.1,0.3
		l0.9,0.5l0.7,0.1l0.9,0.3l0.6,0.4l0.3,0.2h0.5h0.1h0.1l0.3-0.5l0.2-0.7l-0.6-0.9l-0.5-1l0.2-0.7l0.2-0.9l0.5-0.3l0,0l0.7,0.2
		l0.8-0.7l1.4-0.3l1-0.4l-0.1-0.2L439,242l-0.7-0.6l0,0l-0.4-1.1l0.3-0.6l0.7-0.7l0.3-0.8l0.7,0.2l0.4-0.1l0.3-0.4l-0.4-0.7l0.1-0.4
		v-0.1l0.5-0.2l0.8,0.6l0.9-0.3l0.1,0.1l0.4,0.3h0.6l0.1-0.7l0.6-0.4h0.7l0.4-0.2l0.3-0.2l1,0.4l0.3,0.2l0.4,0.2l0.2,0.1l0.9,0.3
		l0.5,0.4l0.4,0.5l0.4-0.9l0.1-0.7l0.3-0.7l0.3-0.1l0.5-0.2l0.5-0.6l0.6-0.4l0,0l0.4,0.5l0.7,0.8l0.7,0.3l0.1,0.1l0.4,0.1l0.1-0.8h1
		l-0.3-0.9l-0.1-1l0.4-0.1l0.2-0.1l0.4-0.6l0,0l0.5-0.6l0.3-0.2l0.4-0.2l0.5,0.6l0.9,1l1.2,0.1l0.7,0.5l0.4-0.3l0.2-0.2l0.2-0.2
		l0.3-0.2l0.1-1.2v-1v-0.1l0.5-0.8l0.2-0.6h0.2l0.5,0.1l0.7-0.5l0.3-0.7l0.1-0.5l0.1-0.6l0.3-0.5l0.9-0.4l0.2-0.5l0.4-0.3l0,0
		l0.2-0.3l-0.2-0.5l-0.1-0.2l-0.1-0.9l-0.2-0.7l0.5-0.4h0.6h0.1l0.6-0.2l0.4,0.2l0.4,0.3l0.2,0.1l0.4-0.2l0.7-0.7l0.5-0.3l0.6-0.3
		l1.1-0.3h0.5v-0.9v-0.1l0.1-0.3l-0.5-0.2l-0.4-0.2l-0.2-0.1l0.4-0.6l-0.2-0.5l-0.3-0.4l-0.2-0.3l0.3-0.4l0.4-0.4l0.7-0.7l0.4,0.2
		l0.4,0.4l0.6,0.2l0.2,0.1l0.6-0.4l0.5-0.1h0.1h0.1l0.1-0.2l0.2-0.1l0.2,0.1l0.2,0.4l0.4,0.5l0.8,0.2l0.1,0.1l0.3,0.4l0.2,0.5l0.7,1
		v0.1v0.4l0.1,0.2l0.2,0.3l0.9,0.1l0.9,0.1l0,0l0.8-0.3l0.6,0.1l0.3,0.1l0.6,0.2l0.3,0.5l0.6,0.2l0.2,0.5l0.8,0.2l0.3,0.1l0.3-0.2
		l0,0l0.1-0.5l1-0.4l1.1,0.3h0.7l0.7,0.5l0.4,0.3l0.2-0.2l0.2-0.3h0.7l0.4-0.3l0.1-0.5l0.7-0.6l0.1-0.1l0.2-0.2l0.7-0.3l0.6-0.3
		l0.1,0.2l0.2,0.3l0.1,0.6l0.3,1l0.5,0.4l0.1,0.1h0.8l0.6,0.5l0.1,0.1l0.6,0.4l0.4,0.7l0.1,0.6v0.5l0.3,0.4v1v0.1l-0.1,0.6l-0.2,1
		l1,0.9l1.1,1.1l-0.1,0.6v0.3l0.8,0.5l0.3,0.4l0.4,0.5l0.5,0.5l0.1,0.2l0.4,0.8l0.8,0.3l1,0.7l0.9,0.6l1.1-0.1l-2.2,2.6l-1,1.2v0.1
		l-0.4,0.5l-1,0.4l-1.1,0.8l0,0l-0.1,0.1l-1.6,1.4l0.1,0.7l-0.2,0.5l-0.7,0.3l-0.5,0.5l0.1,0.7l-0.2,0.4l-0.1,0.2l-1.2,0.7h-0.7
		l-0.3,0.8l-0.1,0.8l-1.1,0.4l-1.6,0.8l-0.5,0.4h-0.3l-0.7,0.1l-0.9,0.6l-0.6,0.5l-0.1,0.3l-2.3,0.2h-0.4l-0.6,0.1l0,0l-2.7,0.3l0,0
		h-0.4l-2.6,0.3l-3.1,0.3h-0.1l0,0l-1.8,0.1h-0.3h-1.4l-2,0.2h-0.2h-0.1l-1.5,0.3l-0.6,0.1l-2.7,0.2l-0.6,0.1l-0.9,0.1h-1.1L462,253
		l-1.4,0.1l-2.3,0.1h-1.1l-0.5,0.3h-0.1l-0.5-0.1l-1.7,0.2l-0.5,0.1l-2.7,0.3l-0.6,0.1l-2.4,0.3h-0.1l-3.3,0.3l0,0l-0.6,0.1
		l-1.8,0.2v-0.4h-1.8h-0.7l0.2,0.7l0.3,1.1l-0.1,0.7l0,0l-0.8,0.1l-4,0.3h-0.3l0,0l-3.3,0.3h-0.1h-0.1l-1.4,0.1l-2.8,0.2l-1.5,0.2
		l-0.8,0.1l-1.4,0.1l-0.4-0.5L423.8,256.6"/>
</g>
<g transform="matrix(0.999751,0,0,0.999751,-54.8748,-49.3873)">
	<path vector-effect="none" class="st0" d="M528.4,204.6L528,202l-0.4-2.6l0.9-0.2l3.6-0.7l1.2-0.2l1.3-0.2l0.9-0.2l3.6-0.7l0.4-0.1
		l0,0l2.6-0.5h0.2l3.2-0.6l3.1-0.6l0,0h0.1l2.3-0.5h0.2l2.3-0.5h0.1l2.1-0.4l0.7-0.2l1.5-0.3l1.6-0.3l1.9-0.4h0.1l0,0l1-0.2l3.4-0.7
		l0.2-0.1l1.3,4.7l0,0l0.3,1.1l0.2,0.7l0.4,1.4l1.2,4.3l0.7,2.6l0,0l0.3,1l0.1,0.2l0.3,1.1l2.3-0.4l1.5-0.3l1.7-0.3l1.4-0.3v1.8
		l-0.1,0.2l-0.1,1.3l-0.1,1.3l-0.1,0.5l-0.3,1.1l-4,1.3l-0.4,0.7l-0.6-0.2l-0.7,0.1l-0.7,0.9l-0.3,0.1l-0.2-0.8l0.3-1l-0.1-0.3
		l-0.2-0.5l-0.9-0.2l-0.2-0.9l0.8-0.4l-0.2-0.2l-0.2-0.3h-0.4h-0.2l-1,0.1l0.3,0.9l0.4,0.9l0.2,0.6h-0.5l-0.6-0.4l-0.1-0.9l-0.6-0.4
		l-1.1-0.8l-0.5-0.2v-0.5l-0.4-0.5l-1-0.9l0.5-0.8l-0.2-0.3v-0.6l0.5-0.2h0.3l0.4-0.1l-0.1-0.4l-0.1-0.4l-0.3,0.1l-0.5-0.5l-0.4,0.1
		l-0.4,0.6h-0.3v-0.6l-0.6-0.3v-0.5l0.7-0.3l0.2-0.8l0.7,0.4l0.2-0.3l-0.1-0.3l-0.2-0.5l-0.1-0.5l-0.5,0.1l-0.7,0.4v0.7l-0.4,0.2
		l-0.1-1.3l0.2-1l0.1-0.5l0.4,0.1l0.4,0.1l-0.2-1l-0.2-0.4l-0.4-0.3l0.2-1l0.2-0.9l0.3-0.5l0.1-0.6l0.4-0.6l0.5-0.3l0.2-0.1l0.3-0.4
		l-0.2-0.5l-0.3,0.1l-0.2,0.1l-0.8,0.8l-0.7,0.9l-0.6,0.9l-0.2,0.5l-0.2,0.4l-0.4,0.3l-0.2,0.4l-0.4,0.1l-0.4,0.1v0.1l-0.2,0.3
		l1.2,0.4l0.2,0.7l0.1,0.5l0.4,0.4l-0.5,0.5l-0.2,0.4l0.3,0.2l-0.1,0.5v0.1l-0.1,0.3l-0.2,0.5l0.3,0.1l-0.2,0.8l-0.2,0.5l0.4,0.4
		v0.2l0.1,0.7l0.3,0.6l0.2,1.1l0.4,0.7l0.6,0.5l0.8,0.6l0.1,0.4v0.6v0.1l0.3,0.1v0.8l0.6,0.8l0.5,0.5v0.6l0.3,0.8l-0.7-0.5l-0.7-0.4
		l-0.5,0.2l-0.7-0.4l-0.7-0.7l-0.9-0.1l-0.7,0.1l-0.8-0.1h-0.2l-0.4-0.1l-0.7-0.5l-0.7-0.4l-0.5-1l-0.2-0.3l-0.6,0.4l-0.5,0.3
		l-0.9,0.6l-0.7-0.7l-0.1-1.4l0.5-1l0.5-0.3l-0.1-0.3l-0.1-0.5l0.4-0.5l0.1-0.1l0.3-0.1v-0.4v-0.1l-0.1-0.5v-0.1l0.5-0.8l0.6-0.9
		L556,205l-0.5-0.3l-0.7,1l-0.4-0.4l-0.6,0.1l-0.5-0.1l-0.1-0.6l0,0l-0.7-0.2h-0.2H552h-1.1l-0.3-0.4l-0.4-0.1l-0.1-0.6l0.3-0.4
		l0.2-0.5l0,0l-0.5-0.4l-0.7-0.3l-0.4-0.2h-0.9H548h-0.5l-0.4-0.4l-0.1-0.7l-0.8-0.9l-0.2-0.3l-0.2-0.3l-0.2-0.8l-1.1-0.1l-0.8,0.3
		L543,198l-0.7-0.6l-1.5,0.5l-0.9,0.6l-0.2,0.1l-0.5,0.2l-0.4,0.9l-0.1,0.6h-0.1l-1.3,0.2l-0.7-0.1l-0.6-0.1l-0.5-0.7l-0.4-0.3
		l-0.6,1.3l-0.8,1.2v0.6l-0.9-0.3l-0.3,0.1l-0.2,0.1l-0.6,1.1l-0.8,1.2l-0.2,0.3l-0.7,0.6l-0.6,0.8l-0.6,0.4L528.4,204.6"/>
	<path vector-effect="none" class="st0" d="M568.5,215.8l0.4-0.2l0.4,0.4l0.1,0.9l-0.7-0.1L568.5,215.8"/>
</g>
<g transform="matrix(0.999751,0,0,0.999751,-54.8748,-49.3873)">
	<path vector-effect="none" class="st1" d="M340.4,84.7h2.8h4.9h4h5.9h0.2h1.5v-2.6v-1.7v-1l0.9,0.4l0.6-0.2h0.3l0.7,0.5l0.6,0.2
		l0.2,1.5l0.2,1.2l0.2,0.3l0.3,1.4l0.4,1.6v0.6l-0.1,0.7l0.7,0.7l1,0.5l0.6,0.1l0.2-0.1l0.4-0.2l1,0.1l0.3,0.3v0.4l1.5,0.1l1.5,0.1
		h0.8l0.4,0.8l-0.1,0.6l1.3,0.1l1.1-0.2l0.9-0.3V90l0.9-0.2l0.2-0.3l1.3-0.3l0.6,0.2h0.5l1.2-0.1l0.6,0.5l1.6,0.7l0.9-0.1l0.1,0.5
		l-0.2,0.6L384,92l0.6-0.1l0.6,0.5l-0.1,0.9l0.5,0.8l0.5,1l0.5-0.3l0.2-0.5v-0.6L387,93l0.9-0.2h1l0.5,0.5l0.2,1l0.8,0.1l0.9,0.4
		l0.2,0.1h0.6l0.3,1.1l1.3,0.1l0.2,0.8l0.7-0.2l1.2-0.1l0.8-0.2l0.8-0.8l1.1-0.7l0,0l1.2-0.7l0.6-0.1l0.4,0.9l0.3,0.8l0.7,0.3
		l1.3-0.4l0.9,0.2l1.5-0.1l1.7-0.2l1,0.3l0.6,0.9l1,0.4l1.1-0.5l1.2,0.1l1.3-0.1l-0.6,0.6l-1,0.4l-0.7,0.5l-0.5,0.4l-1.2,0.5
		l-0.5,0.5l-0.9,0.3l-1.1,0.5l-1.3,0.4l-0.9,0.3l-1.1,0.5l-1,0.7l-0.8,0.5l-1.2,1l-1.4,1.4l0,0l-1.1,1.2l-1,1.5l-1.1,1.3l-0.6,0.7
		l-1.1,0.7l-0.6,0.9l-0.9,0.6l-0.5,0.6l-0.1,0.1l-0.9,0.6l-1,0.8l-0.5,0.4l0.5,1.3h-0.3l-0.5-0.3l-0.4,0.1l-0.4,0.5l-0.2,0.4
		l-0.8,0.1l0.1,2.3v1.1l0.1,2.4v1.2v1.2l-0.4,0.3l-0.1,0.5h-0.4l-0.5,0.3l-0.2,0.4l-0.7,0.1l-0.3,0.3l-0.7,0.3l-0.6,0.6l-0.4,0.7
		l-0.1,0.6l-0.5,0.8l-0.1,0.1l-0.3,0.2l-0.1,1v0.1l0.1,0.9l0.8,0.1l0.4,0.1l0.3,0.4l0.4,0.7l0.4,0.5l-0.1,0.6l-0.4,0.8l-0.5,0.6
		l-0.1,0.2v1v0.2l0.3,1v0.1l-0.6,0.7l0.4,0.6l0.1,1.1l-0.1,1.1l0,0v0.1l-0.3,1.2l0.1,0.1l0.6,0.6l0.4,0.3l0.8,1l0.7,0.5l1.5,0.2h0.4
		l0.5,0.3l0,0l0.3,0.7l0.5,0.4l0.1,0.1l1.2,0.4l0.3,0.1l1.2,0.5l0.5,0.6l0.3,1.2l0.4,0.5l0.4,0.4l1,0.5l0.8,0.9l0.8,0.5h0.1l1.2,0.3
		l0.2,0.2l0.7,0.9l0.7,0.9v0.1l0.5,1l-0.1,0.7l-0.1,0.8l0.2,0.9l0.2,0.5l0.2,0.9l-2.8,0.1l-1.2,0.1l-1.2,0.1h-1l-2.6,0.1h-1
		l-2.7,0.1h-1.1l0,0l-3.2,0.1h-1.6h-0.3l-1.8,0.1l-2.7,0.1h-0.8h-0.7l-3.3,0.1l0,0h-2.8h-1.4h-0.5l-4.2,0.1H363h-0.4h-3h-1.7h-0.7
		h-0.3h-3.5h-0.3h-1.9h-1.5h-2.6v-0.7v-4.2l0,0v-4.9l0,0v-2.3v-2.6v-1.2v-2.4v-2.4v-4.1v-0.5l-0.1-0.3l-0.1-0.3l-0.4-0.4l-0.4-0.1
		l-0.5-0.3H345l-0.3-0.4l-0.3-0.6l-0.4-0.8l-0.5-0.7l-0.1-0.1l-0.1-0.4l0.3-0.5l0.8-0.7l0.7-0.4l0.4-0.7l0.4-0.5l0.2-0.8l0.1-0.9
		l-0.1-1.1v-0.1l0.2-0.9l-0.4-1.9v-1.4l-0.4-0.5l-0.6-1.1l-0.3-1.8l-0.4-0.9v-0.1l0,0v-0.8v-1.2l0.3-1.9l-0.7-1.4l0.1-1l-0.1-1
		l-0.1-1.2v-0.5l-0.1-2.3v-0.8v-1l-0.3-1.1l-0.1-0.3l-0.3-1l-0.6-1.4l-0.4-1.2l-0.3-1.3l-0.3-0.9l-0.4-1.1v-0.1v-0.3l0.1-0.9
		l-0.1-1.2v-1.2l-0.1-1.4v-0.1l0,0l0.1-0.6l0.4-1.2l-0.2-0.6l-0.3-0.8l-0.3-1.3l-0.4-1.1v-0.3"/>
</g>
<g transform="matrix(0.999751,0,0,0.999751,-54.8748,-49.3873)">
	<path vector-effect="none" class="st0" d="M354.3,202.5h2.5h1.7h0.4h1.4h1.4h1.6h1h2h1h0.7h1.7h0.8h1.5h0.8l1.8-0.1h0.7l1.9-0.1
		h0.4l1.9-0.1h0.3l2.2-0.1h0.4l1.6-0.1l2.4-0.1h0.3h0.5l1.9-0.1l1.1-0.1l1.8-0.1l2.5-0.2l0,0l2.2-0.2l0.1,0.1l0.3,0.3l0.2,0.4
		l0.6,0.1l0.1,0.5l0.5,0.5l0.5,0.4l0.2,0.4l0.8,0.3l-0.5,0.8l-0.2,0.8v0.3l-0.1,0.7v0.4l0.2,1.3l0.2,0.8l0.5,1l0,0l0.1,0.5v0.9
		l0.4,0.3l0.4,0.5v0.4v0.4l0.7,0.6l0.3,0.3l1,0.9l0.1,0.1l0.3,0.6l0.5,0.1l0.4,0.6l0.3,0.6l1.1,0.6l0,0l1.1,0.8l1.2,1.1l0.1,0.4
		l0.2,1l0.3,0.7l-0.3,0.7l0.5,1l0.2,0.7l0.1,0.2l0.7,0.6h0.4l0.6-0.6l0.3-0.7h0.2h0.6l1.1,0.5h0.2l0.5,0.1l0.3,0.2l1.1,0.6v0.6
		l-0.5,0.5l0,0l-0.4,0.7l0.2,0.5l0.2,0.4l0,0v0.7l-0.6,1l-0.1,0.2l-0.1,0.2l-0.1,0.3l-0.1,0.8l-0.5,0.8l0,0l-0.1,0.1l-0.2,0.8
		l0.2,1.2l0.2,0.2l0.3,0.5l0.8,0.7l0,0l0.4,0.4l0.1,0.1l0.9,0.5l0.5,0.5l0.8,0.6h0.6l-0.2,0.7l0.5,0.5l0.1,0.1l0.8-0.5l0.8,0.6
		l1,0.5l0.1,0.2l0.2,0.5l0.9,0.4l0.8,0.3l0.2,1l0.2,0.6v0.1v0.2l-0.1,0.4l0.5,0.9l0.6,0.8v0.7l-0.5,0.3l-0.2,0.2l-0.2,0.6l0.4,0.3
		l0.1,0.1l0.2,0.9l0.9,1.1l0.3,0.8l0.6,0.2l0.6,0.1l0.7,0.3l0.7,0.1l0.4,0.3v0.2l-0.1,0.8l-0.3,0.7v0.8l0,0v0.4l-0.5,0.6l0.5,0.7
		l-0.1,0.2l-0.2,0.4l-0.3,0.8l-0.6-0.1l-0.6-0.6l0,0l-0.6,0.1l-0.3,0.9h-0.8l-0.7-0.1l-0.3,0.5l0.4,0.5l0.2,0.5l-0.2,0.6l0.4,0.6
		l-0.1,0.5h-0.2l-0.6,0.1l-0.1,0.5l0.7,0.4l-0.5,0.6l-0.9-0.1l-0.1,0.3l0.8,0.5l0,0l0.4,0.6l-0.5,0.5l-0.4,0.3l-0.1,0.9l-0.4,0.3
		l-1.9,0.1h-0.7l-1.6,0.1l-2.1,0.1l-0.9,0.1l0.3-0.7l0.4-1l0.6-0.4l0.1-0.7l0.3-0.2l0.4-0.2l0.4-0.8l0.5-0.6v-0.8l-0.1-0.4l-0.8-0.4
		l-0.2-0.6l-0.2-0.5h-0.7l-3.1,0.1l-0.9,0.1l-2.1,0.1h-0.2l-2.6,0.1l-1.2,0.1l-3.1,0.2l0,0H402l-2.2,0.1h-0.3l-3.5,0.2l-1.5,0.1
		h-0.3l-2.2,0.1l-2,0.1h-0.4l-2.3,0.1h-0.7h-0.2l-3,0.1l-1.9,0.1h-0.2h-1.2h-1.8H377h-1.9h-1h-1.3l-3.2,0.1h-2.9v-1.6v-0.8v-1.4
		v-3.3v-0.8v-1.5v-2.5V247v-0.7l-0.1-3.4v-0.3v-0.1v-4.3v-0.7v-0.3v-2.5v-2.1v-1.3l0,0v-1v-2.7l0,0v-1.5v-1.9v-0.9v-1l0.2-0.6h-0.1
		h-0.2l-0.6-0.4l-0.7,0.2l-0.5-0.4l-0.1-0.1l-0.3-0.5l-0.3-0.4l-0.6-0.7l0.2-1l-0.6-0.1l-0.2-0.3l-0.2-0.3l-0.7-0.8l-0.4-0.5
		l-0.2-0.3l0.4-0.3l0.3-0.3v-0.3l0.1-0.6l0.7-0.5v-0.5h0.8l0.4-0.4l-0.1-0.3l-0.1-0.7v-0.1l-0.5-0.7l-0.2-0.3h-0.4h-0.3l-0.7,0.5
		l-0.7-0.5l-1-0.7l-0.8-0.8l-0.4-0.4h-0.4l-0.3-0.6l0.2-0.5l-0.4-0.5l-0.5-0.7l0.1-0.7l-0.8-0.3v-0.1l0,0l-0.1-0.4l-0.5-0.3
		l-0.6-0.2l0.1-0.6l-0.1-0.4l-0.4-0.9l-0.1-0.4l-0.2-0.4v-0.1h-0.5L354.3,202.5"/>
	<path vector-effect="none" class="st0" d="M518.4,164.5l1.2-1l1.6-1.5l0.6-0.9l0.9-0.8l0.8-0.6l0.5-0.4v-0.1l0.1-0.7l0.4-0.5v-0.6
		l0.7-0.5l0.6-0.5l0.4-0.7l-0.1-0.2l-0.1-0.3l-0.3-0.5l-0.3-0.2l-0.1-0.7l-0.2-0.2h-0.4l-0.7-0.4v-0.9l-0.2-0.1l0,0l-0.6-0.1v-0.7
		v-0.1l0.1-0.3l-0.3-0.9l-0.3-0.5l2.2-1.2l2.7-1.2l0.8-0.2l1.4-0.3l1.8-0.4l1.5-0.1l0,0h1.8h0.1l0.5-0.1l1.2,0.6l1.2,0.4l0.5-0.3
		l1.2-0.6l0.3-0.2l0.8-0.1l1.3-0.4l1.3-0.1l0.5-0.1l1-0.7l0.7-0.3l0.4-0.4l0.3-0.3l0.4-0.9l0.1-0.1l0.9-0.9l0.8-0.9l0.4-0.2l0,0
		l0.5,0.1l0.8-0.4l0.2-0.7l-0.1-1l-0.1-0.4l-0.3-1l-0.3-0.7l-0.8-0.6l-0.7-0.1h-0.8l0.2-0.6l1.2-0.9l-0.4-0.7l-0.7,0.1v-0.6
		l-0.2-0.4l0.1-0.5l0.1-0.5l0.4-0.6l0.8-0.3l0.3-0.4l-0.1-0.6l0.6-0.4l0.8-0.9l0.5-0.1l0.7-1l0.2-0.3l0.1-0.7l0.3-0.7l1.5-2.4
		l1.1-1.6l0.7-0.9l0.6-0.9l1-0.8l0.7-0.6l0.5-0.5l0.1-0.3l0.8-0.3l0.6-0.6l0.9,0.1l0.2-0.1l0.8-0.3l0.3-0.1l1.7-0.3l2-0.4l2-0.5
		l1.5-0.4l2.3-0.6l2.8-0.8l0.1,0.6l0.2,0.7l-0.2,0.9l0.2,0.4l0.3,0.2l0.1,0.1l-0.1,0.8l0.1,0.7v1.2l0.4,0.7l0.1,0.1l0.2,0.2l0.5,0.4
		l0.4,0.9l-0.1,0.9v0.4l0.3,0.6l0.2,0.6v0.1l-0.2,0.5l-0.2,1v0.2v0.8v0.8l0.4,0.4l0.1,0.5l0.2,0.6l0.5,0.7v0.8l0.1,0.1l0.4,0.4v0.3
		l-0.1,0.8l-0.1,0.6l0.1,0.8l0.4,0.3l0.5-1l0.5,0.5l0.7,0.6l0.5,2.4l0.1,0.7l0.8,3.8v0.1l0.3,1.2l0.3,1.5v0.5l0.4,0.7v1.6v1.8l0,0
		v1.2v1.1l-0.1,3.9l0.3,0.4v0.1l0.6,3.1l0.4,2.2l0.1,0.4l0.3,1.6l0.2,1.2l0.2,0.9l0,0l0,0v0.1l0.2,1l1,1l-1.9,1.9l-0.3,0.3l1,1v0.2
		l0.1,0.2l0,0l-0.3,0.7l-0.5,0.5v0.5h0.3h0.3l0.6-0.3l0.3-0.4l1.1-0.6V170v-0.3h0.5l0.4-0.4l0.7,0.2l1.1,0.1h0.1l0.7-0.5v-0.4
		l0.3-0.3l0.7-0.1l1.8-0.5l1.5-0.5l1.2-0.6l0.7-0.8l0.5-0.7l0.5-0.4l0.3-0.5l0.6-0.4l0.9-0.8l0.1,0.2l-0.5,1.1l-0.1,0.7l0.8,0.2
		l0.5-0.3l0.1-0.9l0.5,0.1l0.1,0.7l0.6,0.3l0.8-0.9l0.4-0.2h0.7l-0.6,1.1l-1.5,1.1l-1.9,1.3l-0.9,0.8l-3.3,2.3l-1.5,1.1l-0.8,0.7
		l-1.3,0.8l-0.6,0.4l-1,0.4h-0.5l-0.7,0.4l-0.6,0.3l-0.2,0.1l-1.3,0.5l-1.1,0.2h-0.3l-0.5,0.3l-1.1,0.7l-0.4-0.2l-0.2-0.1l-0.5-0.1
		l0,0l-0.2-0.1l-0.4,0.8l-0.8,0.7l-0.6,0.3v-0.6l0.3-0.3v-0.5l-0.1-0.5l0,0l0.3-0.3h0.1l0.7-0.3l0.1-0.3V175l0.1-0.3l0,0v-0.2v-0.3
		V174v-0.1v-0.3l0.2-0.6l0.1-0.3v-0.1v-0.1l0.1-0.5v-0.3v-0.1v-0.5V171v-0.5v-0.7l0,0l-1.7-0.5l-2-0.6l-0.3-0.1l0,0l-0.8-0.2
		l-0.8-0.3l-1.1-0.4l-2.8-0.9L572,166h-0.2h-0.5l-1-0.1l-1.1-0.4l-0.9-0.9l-0.1-0.4l-0.1-0.5l-0.4-1.5l-0.4-0.6l-0.5-0.4l-0.4-0.1
		l-0.5-0.1l-0.8-0.1l-0.5-0.8l-0.6-0.5h-0.2l-1.2,0.2h-0.1l-0.7,0.2l-3.2,0.7l-2.4,0.5l-0.4,0.1l-3.2,0.7h-0.1l-0.9,0.2l0,0
		l-3.7,0.8l-0.4,0.1l-0.4,0.1l-6.1,1.2l-1.4,0.3l-0.8,0.2l-2,0.4l-1.8,0.3l-0.7,0.1l-0.4,0.1l-2.9,0.5l-3.3,0.6L527,167l-0.8,0.1
		l-4.2,0.8l-1.4,0.2l-1.5,0.3l-0.3-1.8L518.4,164.5"/>
	<path vector-effect="none" class="st0" d="M599.9,161.4l0.9-0.5l0.2,0.5l-1.1,0.5L599.9,161.4"/>
	<path vector-effect="none" class="st0" d="M64.2,127.3l1.2-1.3l0,0l0.9-1.4l0.6-1.1l0.4-0.8l0.3-0.6v-0.5l0.6-0.4l1-1.1l1-1.5
		l0.4-0.7l0.6-1.2l1-2l0.3-0.6l1.1-2.5l0.6-1.7l0.1-0.6v-0.1l0.8-1.6l0.4-1.1l0.7-1.7l0.3-0.9l0.3-1.3l0.3-0.5l0.8-1.4l0.5-1.2l0,0
		l0.7-1.2l0.3-0.9l0.4-0.8l0.1-1l0.5-1.1l0.1-0.8l0.6-0.9l0.5-1.3l0.2-0.6l-0.1-0.7l0.1-0.3l0.3-0.7l0.2-1l-0.1-0.6L83,87l0.3-0.8
		l0.1-1.4l-0.5-1l0.6-0.4l0.6,1h0.7h0.8l0.3,0.4l0.6-0.2h0.7l0.5-0.3l0.7,0.1l0.3,0.7l-0.2,0.6l0.4,0.6H89l0.8,0.2l0.7-0.2l0.5-0.1
		l0.5,0.2l0.8,1l0.3,0.5l0.5,0.4l0.2,1.1l0.2,0.8L93.3,91l0.1,0.7l-0.1,0.2L93,92.4l0.1,0.8L93,93.6l-0.3,0.6l0.1,0.3l0.1,0.3
		l0.8,0.7l1.3,0.8l0.4,0.4H96l0.4,0.5l0.6,0.2h0.1l0.7-0.2l0.8,0.1l1.1-0.2l0.6-0.3l0.3-0.1h0.2l0.4-0.3h0.6l0.7,0.4h0.7l1.4,0.1
		l0.1,0.1l0.7,0.6l0.1,0.1l0.9,0.1l1,0.8l0.1,1h0.6l0.5-0.3l1.4,0.2l0.3,0.2l0.2,0.1l0.5-0.3l1.7-0.2L113,99l0.2-0.1l0.4,0.1
		l0.6,0.8h0.2l0.8,0.2h1.2l0.7,0.1l0.8-0.5h0.7l0.8-0.2l0.4-0.1l1,0.1h0.7l1.3,0.2l0.9-0.7h0.3l0.7,0.5h0.6h0.7h1.1l1.2,0.4l0.7-0.2
		l0.8-0.4l0,0l2.9,0.7l0.7,0.2l2.3,0.6l3.5,0.8h0.2l2.5,0.6l1.1,0.3l1.2,0.3l1.2,0.3l4.2,1l0.2,0.6l0.1,0.8l0.4,0.9l0.1,0.2l0.4,0.3
		l0.5,0.8l0.7,0.2l0.4,0.7l-0.1,0.7l0.4,1l-0.5,0.6l-1.2,1.5l-1.2,1.6l-0.3,0.6l-0.1,0.2l-1,1.8l-0.4,0.4l0,0l-0.7,0.5l-0.3,0.7
		l0.1,0.7l-0.5,0.7L146,120l-0.6,0.6l-0.9,0.2l-0.6,0.3l-0.5,1l-0.8,1.2l-0.3,0.4l-0.7,0.5l-0.1,0.7l-0.4,0.4l0.2,0.5l0.1,0.5
		l-0.3,0.4l-0.1,0.1l0.4,0.5l0.5-0.1l0.5,0.7l0.8,0.2l-0.1,0.6l0.6,0.3v0.4l0,0l-1,0.7l0.2,0.9l-0.4,0.6l-0.4,1.2L142,133l-0.6,0.7
		l-0.5,2l-0.3,1.2l-1.8,7.8l-0.7,3l-1.3,5.9l-1.2,5.2l-1.7-0.4l-2.1-0.5l-2.2-0.5l-2.5-0.6l-3.3-0.8l0,0l-3.1-0.7l-2.8-0.6L116,154
		l-2.1-0.5l-1.2-0.3l-0.4-0.1l-3.7-1l-2.7-0.7l-1.8-0.5l-3.2-0.8l-1.9-0.5l-1.9-0.5l-1.6-0.4l-2.1-0.6l-1.9-0.5h-0.1l-2.3-0.7
		l-1.7-0.5l-2.5-0.7l-1.9-0.6l0,0l-2.1-0.6l-3-0.8l-2.4-0.7l-1-0.4l-0.9-0.2l-1.2-0.3l-0.9-0.3l-0.8-0.2l-1.4-0.4l-1.6-0.5l-1.8-0.5
		l-2.1-0.7l-0.4-0.8l-0.3-0.4l-0.1-0.9l0.1-0.7V136l-0.2-0.4l0.2-0.8v-0.6l0.3-1.2l0.8-1.2l0.2-0.8l0.1-0.8l-0.3-0.4l0.1-0.2
		l-0.4-0.8L64.2,127.3"/>
	<path vector-effect="none" class="st0" d="M416.7,278.9l0.4-0.2l0.8-0.2l0.1-0.6l0.2-0.5l0.8,0.1l-0.1-0.6v-0.5l-0.1-0.7l-0.8-0.3
		l0.5-0.5l0.3-0.9l-0.3-0.6l0.5-0.2l0.3,0.1l0.2-0.6l-0.3-0.5v-0.8l0.9,0.1l0.1-0.3l0.1-0.7l0.6-0.3l-0.3-0.3l-0.7-0.6l0.4-0.9
		l0.6,0.1l0.7-0.5l0.8-0.4l-0.1-0.5l0.1-0.4l0.8-0.4v-0.1l-0.1-0.2l-0.4-0.3l-0.6-0.7l0.4-0.3l0.1-0.9l0.4-0.3l0.5-0.5l-0.4-0.6l0,0
		l-0.8-0.5l0.1-0.3l0.9,0.1l0.5-0.6l-0.7-0.4l0.1-0.5l0.6-0.1h0.2l0.1-0.5l-0.4-0.6l0.2-0.6l-0.2-0.5l1.4-0.1l0.8-0.1l1.5-0.2
		l2.8-0.2l1.4-0.1h0.1h0.1l3.3-0.3l0,0h0.3l4-0.3l0.8-0.1l0,0l0.1-0.7l-0.3-1.1l-0.2-0.7h0.7h1.8v0.4l1.8-0.2l0.6-0.1l0,0l3.3-0.3
		h0.1l2.4-0.3l0.6-0.1l2.7-0.3l0.5-0.1l1.7-0.2l0.5,0.1h0.1l0.5-0.3h1.1l2.3-0.1l1.4-0.1l1.2-0.1h1.1l0.9-0.1l0.6-0.1l2.7-0.2
		l0.6-0.1l1.5-0.3h0.1h0.2l2-0.2h1.4h0.3l1.8-0.1l0,0h0.1l3.1-0.3l2.6-0.3h0.4l0,0l2.7-0.3l0,0l0.6-0.1h0.4l2.3-0.2l0.1-0.3l2.3-0.3
		l2.2-0.3l3.2-0.4l1.7-0.2l2.4-0.4l1.3-0.2l2.1-0.3l0.6-0.1l0.8-0.1h0.3l2.3-0.3l0.1-0.3l1.1-0.1l2-0.3l-0.3,0.4l-0.1,0.8l0.2,1
		l-0.3,0.8l0.1,0.3l0.3,0.7l-0.7,0.1h-0.7l-0.7,0.8l-0.1,0.2l-0.1,0.3l-0.2,0.6l-0.5,1.6l-0.5,0.3l0,0l-0.5,0.1l-0.2-0.4l-0.8-0.2
		l-0.1,0.1l-0.4,0.4H505l-0.5,0.3l-0.6,0.5l-0.1,0.2l-0.4,1l-0.4,0.4l-0.5,0.5l-0.6-0.2l0.1-0.7l-0.1-0.1l-0.3-0.3l-1,0.8l-0.6,0.4
		v0.6l-0.3,0.4l-0.5-0.3l-0.3,0.2l-0.2,0.1l0.2,0.7l-0.3,0.7l-0.3,0.5l-0.1,0.2h-0.8l-0.5,0.2l-0.7,0.3l-0.3,0.6l-0.6,0.2l0,0
		l-0.1,0.2l-0.3,0.7h-0.6l-0.7,0.8l-0.3,0.2l-0.4,0.6l-1,0.1l-0.7,0.1h-0.1l-1.2,0.2l-0.8,0.7l-0.7,0.7L488,266h-0.1l-0.2,0.1
		l-0.5,0.7l0.2,0.5l-0.3,0.4l0.3,0.7l-0.1,0.1l-0.7,0.7l-0.9,0.2l-0.6-0.3l-0.6,0.7v0.3v3.1l-2.1,0.3l-1.3,0.1l-1.2,0.1l-0.5,0.1
		H479l-0.6,0.1l-1.3,0.2l0,0l-0.7,0.1l-2.5,0.3h-0.1l-1,0.1h-0.2l-1,0.1L470,275l-2.9,0.3l-5.1,0.5h-0.1l-1.7,0.2l-3.6,0.3l0,0H456
		l-4.3,0.3h-0.1h-0.1l-4.3,0.3H447l-2.6,0.2l-1.5,0.1h-0.2l-2.3,0.2v0.2l-0.7,0.1l-1.2,0.1h-0.2l-1,0.1l-3.6,0.3h-0.4l-2.2,0.2H431
		l-2,0.1l-1.8,0.1l-0.9,0.1l-2.4,0.2L423,279h-0.4h-0.4l-5.8,0.3L416.7,278.9"/>
	<path vector-effect="none" class="st0" d="M226.2,317.6v-0.8l0.2-0.4l2.8,0.3l2.1,0.2l2.4,0.3l2.9,0.3l7,0.7l2.8,0.3l0.8,0.1
		l2.4,0.2l7.3,0.6h0.5l3,0.2l4.7,0.4l3.1,0.2l0.1-1.2l0.1-0.8l0.4-5.3l0.1-0.9l0.3-3.7l0.1-1.5l0.3-3.6l0.2-2.4l0.2-2.5l0,0l0.3-3.6
		l0,0l0.3-3.6v-0.5l0.2-2.7v-0.1l0.1-0.9l0.3-3.4l0.1-1.8l0.2-2.9l0.2-2.7v-0.5l0.5-6.2l0,0l0.1-1.6l0.3-4.4l0.5-6.3h0.4l9.4,0.7
		l1.4,0.1l2.3,0.2l2.3,0.1l6,0.3l1.5,0.1h0.8l3.3,0.2h0.5l2.6,0.1l3.4,0.2l0,0l-0.3,6.3l-0.1,2.5l-0.2,3.7l-0.1,2.8l-0.1,3.4
		l-0.1,2.1l-0.2,4l-0.1,2.6l0,0l0.8-0.2l1,1l0.3,0.3l0.6,0.8l0.8,0.8l1.1,0.1l0.2-0.5l1.3,0.2l0,0l0.6,0.2l0.3-0.9l0.5,0.1l0.8,0.7
		l0.6,0.9l0.1,0.2l0.2,1.4l0.7,0.1l0.8,0.1l0.6-0.1l0.6,0.1h0.1l0.8,0.6l0.8,0.1l0.8,0.4h0.5l0.5-0.4l0.4,0.1l0.4,0.1l0.5,0.8
		l0.6,0.4l0.6-0.2h0.1l0.2-0.6l0.4-0.4l0.5,0.2l1.1,0.3l0.6,0.2l0.4-0.4l0.2-0.2l0.3,0.7v0.8l0.2,0.7l0.9,0.1l0.7,0.1l-0.1,0.9v0.5
		v0.2l1,0.4l0.7-0.4l0.5-0.6l1-0.9l0.7,0.3l0.1,0.6l0.4,0.3l0,0l0.8-0.3l0,0l0.4,0.6l0.1,0.7l0.8,0.1l0.6-0.6l0.8-0.5l0.5-0.2
		l0.4,0.9l-0.5,0.5l0.6,1.2l0.7-0.2v-0.5l0.1-0.5l0.3-0.6l0.8-0.4v-0.4l0.4-0.4h0.1h0.1h0.3l0.1,0.6l0.5,0.8l0.7-0.3l0.2,0.4
		l0.7,0.2l0.4-0.6l0.3-0.6l0.8,0.5h0.1v0.7l0.2,0.2h0.6l0.2,0.6l0.8-0.1l0.4,0.5l0.3,0.4l0.2,0.3l0.7-0.6l0.3-0.5l0.6,0.3l0.7-0.7
		l0.2-0.4l1-0.1l1.5-0.5l0.6,0.2h0.5h0.3l0.4-0.2l0.6-0.3l0.8-0.1l0.8-0.3h0.5l0.4,0.6l0.9,0.2h1.1l0.5-0.1l0.3-0.1l0.3-0.7l0.3-0.5
		l0.8,0.3h0.1l0.6,0.4l0.6,0.6l0.8,0.1l0.5,0.6l0.4,0.5l0.7,0.5l0.9-0.1l0.4,0.4l0.2,0.2l1,0.5h0.7l0.5,0.7l0.5-0.2l0.8,0.8l0.4,0.2
		l0.4,0.1l0.2-0.2h0.4l0.8-0.2l0.3,0.1l0.3-0.3l0.5,0.2l0.8,0.1l0.3,0.3l0,0v1.6v1.5v0.8v1.6v2v1.9v1.2v1.5v1.8l0.1,2.4v0.4l0.1,2.4
		v0.8l0.1,2l0.2,0.2l0.6,0.7l0.8,0.4l0.4,0.7l0.3,0.5l0.6,1.5l-0.1,1.1l-0.2,0.5l0,0l0.6,0.8l0.7,0.3l-0.3,0.5l0.6,0.5l0.4,0.7
		l-0.1,1l0.7,0.6l0.2,1.1l0,0h0.6h0.2v0.8l0.1,1.1l-0.1,0.6l-0.1,0.6l0.2,0.6l-0.3,0.7v0.1l-0.1,0.9l-0.6,0.9l-0.1,0.8l-0.6,0.8v0.5
		l-0.5,0.7l0.2,0.5l0.1,1.1l-0.4,0.4l-0.1,0.1l-0.2,0.9l0.7,0.7v0.4v0.3l0.1,0.7v0.9v0.8l0,0l-0.4,0.4l-0.8,1l-0.3,0.8l-0.3,0.3
		l-0.2,0.3l-0.7,0.7l0.5,0.6l0.3,0.5l0.3,0.5l-0.3,0.2h-1.2l-1.1,0.2l-1.3,0.5l-2.3,1.1l-0.2,0.1l-1.6,0.7l-1.1,0.5l-0.9,0.5
		l-0.7,0.9l0.1,0.5l-1,0.7l-2.7,1.9l-1.1,1l-0.1,0.1l-0.8,0.6l-1.3,1.3l-1,0.9l-0.7,0.1l-0.8,0.5l-1,0.6l-1.2,0.7l-1.6,1l-2.3,1.1
		l-2.4,1.2l-1.7,1.1l-0.6,0.5l-0.1,0.1l-0.7,0.9l-2.3,1.3l-1.1,0.8l-0.9,0.7l-0.8,0.7l-0.4,0.4l-1.5,1.7l-0.5,1l0,0l-0.6,0.7l-0.6,1
		l-0.9,1.7l-0.1,0.3L336,386l-0.5,1.2l-0.5,1.5l-0.1,0.5l-0.2,0.6l-0.3,2.4l0.1,2.4l0.5,2.6l0.4,1.4l0.4,1.3l0.3,1.3l0.4,1.5
		l0.4,3.1l0.1,0.9l0.1,0.6l-0.1,0.3l-0.6-0.2l-0.9,0.3l-0.8,0.2l-0.4,0.3l0.1,0.5l-0.2,0.4h-0.6l-0.4-0.5h-0.5l-0.6-0.6l-0.5-0.3
		l-0.8-1l-0.7-0.2l-0.8-0.1L329,406h-0.9H328h-0.9l-0.8-0.1l-0.4,0.3l-0.7-0.3h-0.7h-0.6h-0.1l-0.6-0.2l-0.7-0.5h-0.1l-1-0.6
		l-0.7-0.6l-0.8-0.2l-0.9-0.3l-0.2-0.1l-0.3-0.1l-0.5,0.2l-0.6-0.4l-1-0.9l-0.3-0.6l-1.1,0.1l-0.8-0.5l-0.9-0.3l-0.6,0.2l-0.4-0.4
		l0.3-0.7l-0.2-0.3l-0.8-0.7l-0.1-0.3l-0.3-1.2l-0.1-1l-0.4-0.9l-0.3-0.8l-0.7-0.5l-0.4-0.7l-0.3-0.8l-0.7-0.6l0.1-1.1l0.2-0.7
		l-0.2-0.9l-0.2-0.5v-0.1l-0.3-0.4l-0.5-0.2l0.6-1.5l-0.1-0.5v-0.7h-0.4v-1.1l-0.3-0.5l-0.8-0.3l-1-0.3l-0.6-0.9l-0.5-0.4l-0.5-0.5
		l-0.4-0.6l-0.3-0.7l-0.1-0.6l-0.2-0.7l-0.6-0.3l-0.5-1.2l-0.5-0.7L300,376l-0.3-0.3l-0.8-0.8l-0.2-0.7l-0.4-0.9l-0.2-0.9l-0.4-0.7
		l-0.2-0.5l-0.1-0.8l-0.6-0.6l-0.6-0.7v-0.8l-0.3-0.7V367l-0.5-0.4l-0.6-1l-0.2-0.8l-0.1-1l-0.1-0.7v-0.2l-0.6-0.4l-0.5-0.6
		l-0.2-0.8L293,361l-0.5-0.6l-0.4-0.5l-1.3-0.8l-0.7-1.4l-0.9-0.3l-0.6-0.7h-0.8l-0.6-0.8V355l-0.7-0.4l-0.3-1.1l-0.6-0.3l-0.6-0.1
		l-0.7-0.5l-1.2,0.3l-0.7-0.1l-0.6-0.2l-0.6-0.2l-0.8-0.1l-1.1-0.3h-0.7l-0.6,0l-0.5-0.1l-0.5-0.4l-0.8-0.4l-0.9-0.5l-0.2,0.1
		l-0.4,0.1l-0.3,0.6l-0.3,0.7l-0.9-0.3h-0.5l-0.5,0.4h-0.8l-0.8,0.1l-0.3,0.8l-0.6,0.7l-0.5,0.9l-0.4,0.4l-0.3,1.1v0.6l-0.6,0.6
		l-0.3,0.9l0.2,0.7l-0.6,0.7l-1,0.3l-0.5,0.8l-0.5,0.2l-0.4,0.8l-0.4,0.6l-1.2-0.2l-0.7,0.1l-1-0.6l-1.2-0.8l-0.7-0.8l-0.8-0.5
		l-0.8-0.4l-0.8-0.3l-0.7-1h-0.1l-0.7-0.4l-1.4-0.3l-0.9-0.6l-1-0.8l-0.4-0.6l-0.5-0.8l-0.9-0.7l-0.7-0.3l-0.9-0.9l-1-1.1l-0.2-1.3
		l-0.6-1.1l-0.6-1l-0.1-1.1l-0.2-0.5l0.3-1.1v-1.5l-0.4-0.7l-0.2-0.6l-0.7-1L245,341v-1l-0.1-1.1l-0.3-1l-0.6-0.1l-0.1-0.3l-0.2-0.6
		l-0.7-0.3l-0.4-0.5l-0.7-0.6l-0.6-0.7l-1.1-0.3l-0.9-0.6v-0.5l-1-0.9l-0.8-0.7l-0.2-0.7l-0.5-0.9l-0.9-0.6l-0.7-0.5l-0.2-0.5
		l-0.8-1.3l-0.8-0.5l-0.1-0.7l-0.5-0.4l-0.1-0.1l-0.9-0.2l-1-0.9l-0.6-0.9l-0.4-0.7l-0.2-0.8l-0.5-1l-0.2-0.4l-0.5-0.6l-0.6-0.2
		l-0.2,0.1l-0.5-0.5l-0.6-0.5l-0.5-0.9L226.2,317.6"/>
</g>
<g transform="matrix(0.999751,0,0,0.999751,-54.8748,-49.3873)">
	<path vector-effect="none" class="st1" d="M489.5,249.3l0.9-0.6l0.7-0.1h0.3l0.5-0.4l1.6-0.8l1.1-0.4l0.1-0.8l0.3-0.8h0.7l1.2-0.7
		l0.1-0.2l0.2-0.4l-0.1-0.7l0.5-0.5l0.7-0.3l0.2-0.5l-0.1-0.7l1.6-1.4l0.1-0.1l0,0l1.1-0.8l1-0.4l0.4-0.5v-0.1l1-1.2l2.2-2.6
		l0.4,0.3l-0.5,0.9l0.6,0.4l0.1,0.4l0.5,0.7l0.6,0.6h0.8l0.4,0.4h0.1l0.7,0.4l1.3-0.3l0.3-0.3l0.5-0.5l0.6-0.4l0.6-1l1.7,1.2
		l1.1-0.8l1.2-0.5h0.2l0.7-0.2l0.9-0.5l-0.6-0.6l0.1-0.5h0.1l0,0l0.2-0.1l0.8,0.6l1.1-0.8l1.2-1.1l0.9,0.5h0.1l0.6-0.6l1-1.2v-0.7
		l0.6-0.6l0,0l-0.9-0.7l0,0l0.3-0.5l0.3-0.9l0.1-0.7l0.6-1l0.7-1l0.2-0.3l0.5-1.2l0.1-0.3l0.1-0.7l0.1-1.1l0.6-0.8l0.5-0.6l0.1-0.1
		l-0.3-0.5l0.6-0.7l0.3-1.1l-0.1-0.4l0.1-0.7v-1.2l1.2,0.3l0.9,1.2l1.2,0.2h0.7h0.1l0.6-0.9v-0.1l0.2-0.7l0.3-1.2l0.5-0.9V213
		l0.1-1.1l0.3-0.6l0.2-0.6l1.6,0.8l0.3-1l0.4-1l0.9-0.6l0.5-0.9l0.6-0.5l0.2-0.7l0.2-0.5l0.8-1.2l-0.2-0.4l0.1-0.8l-0.1-0.5l0.4-1.2
		l-0.1-0.8l-0.3-0.8l1.4,0.8l0.5,0.3l1.9,1.1l0,0l0,0l2.5,1.4l0,0l0.1-0.5l0.2-0.9l0.4-1.4h0.5h0.1h0.9l0.4,0.2l0.7,0.3l0.5,0.4l0,0
		l-0.2,0.5l-0.3,0.4l0.1,0.6l0.4,0.1l0.3,0.4h1.1h0.3h0.2l0.7,0.2l0,0l0.1,0.6l0.5,0.1l0.6-0.1l0.4,0.4l0.4,0.4l0.6,0.4l0.1,0.4
		l0.1,0.7v0.1l0.1,0.5v0.1v0.4l-0.3,0.1l-0.1,0.1l-0.4,0.5l0.1,0.5l-1,0.2h-0.2l-0.3,1.1v0.2v0.7v0.5l0.3,1.1l0.4,0.4l0.3,0.2
		l1.1-0.4l0.7-0.2l0.5-0.2l0.4,0.4v0.4l0.4,0.3l0.1,0.1l0.4,0.4v0.4l0.6,0.1l0.9,0.3l1-0.2l0.7-0.1h0.8l0.2,0.5l0.8,0.4l0.4,0.4
		l0.3,0.3l0.8,0.4l1.3,0.3l1,0.5v0.8l-0.5,0.7l0.2,1v0.5v0.2l0.7,0.6v0.4v0.4l0.2,0.3l0.3,0.5l0.5,1l0.2,0.6l-0.1,1l-1.2-0.7
		l-0.4-0.2l-0.1,0.1l-0.3,0.3l0.7,0.9l0.4,0.5l-0.1,0.3l-0.1,0.4l0.6,0.4h0.1l0.5,0.6l0.3,0.3l0.3,0.4v0.5l-0.1,0.8l0.1,0.1l0.2,0.2
		l0.2,0.2l0.9,0.3h0.2l1,0.1l0.4-0.4h0.5l0.7,1.6l0.8,1.4l0.5,0.8l0.5,1l-1.7,0.4l-1,0.2l-2.1,0.4l0,0l-1.9,0.4l-0.5,0.1l-2.1,0.4
		l-1.9,0.5l0,0l0,0l-2.7,0.5l-0.3,0.1l-1.2,0.2l-4.9,1h-0.2l-1.5,0.3l-1.6,0.3l-1,0.2l-2.1,0.4l-1.5,0.3l-0.6,0.1l-2.5,0.4l-0.7,0.1
		l-1.6,0.3l-2.2,0.4l-0.9,0.2l-1.4,0.2l-1.4,0.3l-0.4,0.1l0,0l-2.2,0.4l-1.9,0.3l-1.5,0.2l0,0h-0.3l-2.7,0.4l-1.5,0.2H525l-1.9,0.2
		l-1,0.1l-1.5,0.2l-0.7,0.1l0,0l-1.8,0.2l-1.3,0.1l-2,0.2l-1.6,0.2l-2,0.2l0.3-0.4l-2,0.3l-1.1,0.1l-0.1,0.3l-2.3,0.3h-0.3l-0.8,0.1
		l-0.6,0.1l-2.1,0.3l-1.3,0.2l-2.4,0.4l-1.7,0.2l-3.2,0.4l-2.2,0.3l-2.3,0.3L489.5,249.3"/>
	<path vector-effect="none" class="st1" d="M570.9,225.9l0.2-1.2l-0.1-1.1v-1.5v-0.2l0.2-1.1l0.2-1l0.4-0.8l-0.2-0.6l0.8-0.5
		l0.3-0.5l-0.8-0.6l0.8-0.9l0.4-0.7l4-1.3l-0.6,2l-0.3,0.7l-0.7-0.1l-0.4,0.6l-0.4,1.3l-0.2,1.3l-0.1,0.8l0.2,0.7l-0.5,1.2l0.1,0.2
		l0.1,0.2l-0.4,1.2v0.6l-0.3,0.6v0.7l-0.1,0.8l-0.6,1.2l-0.4,0.5l-0.4-0.1l-0.5-1.2L570.9,225.9"/>
	<path vector-effect="none" class="st1" d="M382.4,131l0.1-1l0.3-0.2l0.1-0.1l0.5-0.8l0.1-0.6l0.4-0.7l0.6-0.6l0.7-0.3l0.3-0.3
		l0.7-0.1l0.2-0.4l0.5-0.3h0.4l0.1-0.5l0.4-0.3v-1.2v-1.2l-0.1-2.4v-1.1l-0.1-2.3l0.8-0.1l0.2-0.4l0.4-0.5l0.4-0.1l0.5,0.3h0.3
		l0.5,0.3l0.7-0.1h0.6l1.7-0.7l0.7-0.3h0.2h0.4l0.9-0.5l0.5-0.1l0.4-0.4l0.5-0.2l0.4-0.4l0.4,0.3l0.3-0.4l0.4-0.2l0.5-0.4l0.5-0.3
		l-0.1-0.8l0.6-0.3l0.7,0.5l0.5,0.3l0.6,0.6l-0.5,1l-0.6,0.8l-0.2,0.4l0.3,0.5l-0.6,0.6l-0.1,0.6l-0.2,0.4l0.3,0.1h0.3l0.6-0.5
		l0.3-0.1l0.4-0.3l0.1-0.6l0.8,0.6l1,0.8h0.2l0.4-0.1l0.7,0.4l0.2-0.1l0.3,0.4l0.5-0.3l0.5,0.5l0.7,0.2l0.6,1.1l0.4,1.1l1.9,0.4
		l2.9,0.6l5.4,1.1l1,0.5l0.6,0.3l1.2,0.6l0.7-0.1l0.6,0.1l0,0l0.2,0.3l0.4-0.1l0.2-0.4l0.6-0.1l1.2,0.5l0.3-0.2l0.7,0.4l0.6-0.1
		l0.7,0.2l0.6,0.3l0,0l0.5,0.6l-0.5,0.8l0.3,0.3l0.5,0.2h0.1l0.5-0.2l0.3,0.4l0.9,0.1l0.5,0.4l0.3,0.2l0.3,0.4l-0.4,0.3l0.5,0.6
		l-0.1,0.5l-0.1,0.7v0.7l-0.4,0.4v0.7v0.6l0.6-0.1l0.5-0.1l0.4-0.4l0.5,0.2v0.7l-0.3,1l-0.2,0.7l0.5,0.6l0.5,0.6l0.6,0.1l-0.3,0.7v1
		l-0.7,0.1l-0.6,0.2l-0.5,0.2l-0.3,0.4l0.1,0.7l-0.1,0.2l-0.4,0.6l-0.3,0.9l-0.4,0.5l-0.1,0.6v0.2l0.1,0.8l-0.4,0.5l0.4,0.4l0.6,0.1
		l0.4-0.7l0.3-0.5l0.9-0.5l0.1-0.2l0.1-0.2l0.1-0.1l0.2-0.2l-0.1-0.4l0.7-1.1l0.6-0.8l0.5-0.1l0.1-0.2l0.7-0.3l0.5-0.7l0.5-1.2
		l0.6-1l0.2-1.2l0.6-0.1l0.5-0.6l0.1-0.7l0.5-0.5l0.4-0.1l0.4,0.1l0.1,0.9l-0.6,0.6l0.1,0.7l-0.1,0.8l-0.7,1l-0.4,0.9l0,0.8
		l-0.6,0.8l-0.3,0.9l-0.4,1.4l-0.2,0.6l-0.4,0.7l-0.4,1.8l-0.3,1.9v0.1l0.3,0.8l0.2,0.7l-0.3,0.7l-0.6,0.4l-0.5,0.7l-0.3,1.7
		l-0.2,1.1l-0.1,0.3l0.2,0.9l0.3,0.6v0.6l0.1,0.6l-0.7,1.7v0.3v0.7l-0.4,1l-0.3,1.6l0.1,1.6v0.1v0.9l0.4,0.8l-0.2,0.7l0.6,1l0.2,1.2
		l0.1,0.1l0.1,0.1l0.6,0.8l-0.1,1.2l-0.1,0.5l-0.1,0.4l0.1,0.9l0.2,1.2l-1,0.1l-3.1,0.2h-0.2l-0.9,0.1l-2.1,0.2l-2.1,0.2l0,0h-0.7
		l-1.7,0.1h-0.5h-0.5l-3.3,0.2h-0.4l-0.9,0.1l-3.5,0.2h-0.9l0,0l-3,0.2l-2.1,0.1H409l-2.1,0.1l-0.4-0.9l-0.3-0.7l-0.5-0.2l-1.1-0.2
		l-0.5-0.1l-0.5-0.1l-0.8-0.5l-0.6-0.8l-0.4-1.2l-0.4-0.5l-0.2-1v-0.2l-0.2-0.7v-0.6v-0.8l0.4-0.6l0.4-0.7l0.3-0.5l-0.5-0.8
		l-0.5-0.3l-0.6-0.5l0.1-0.4l-0.1-0.2l-0.2-0.4l0.1-0.7l-0.2-0.9l-0.2-0.5l-0.2-0.9l0.1-0.8l0.1-0.7l-0.5-1v-0.1l-0.7-0.9l-0.7-0.9
		l-0.2-0.2l-1.2-0.3h-0.1l-0.8-0.5l-0.8-0.9l-1-0.5l-0.4-0.4l-0.4-0.5l-0.3-1.2l-0.5-0.6l-1.2-0.5l-0.3-0.1l-1.2-0.4l-0.1-0.1
		l-0.5-0.4l-0.3-0.7l0,0l-0.5-0.3h-0.4l-1.5-0.2l-0.7-0.5l-0.8-1l-0.4-0.3l-0.6-0.6l-0.1-0.1l0.3-1.2V142l0,0l0.1-1.1l-0.1-1.1
		l-0.4-0.6l0.6-0.7v-0.1l-0.3-1v-0.2v-1l0.1-0.2l0.5-0.6l0.4-0.8l0.1-0.6l-0.4-0.5l-0.4-0.7l-0.3-0.4l-0.4-0.1l-0.8-0.1L382.4,131
		L382.4,131"/>
	<path vector-effect="none" class="st1" d="M402,110.8l0.3-0.2l0.8-0.3l0.9,0.2l0.2,0.3l0.4,0.8l-0.1,0.4l-0.2,0.3l-0.8,0.2
		l-0.4-0.7l-0.3-0.4l-0.5-0.2L402,110.8"/>
	<path vector-effect="none" class="st1" d="M440.9,130.3l0.9-0.5l0.3,0.5l-0.5,0.9l-0.2,0.8l-0.6-0.7L440.9,130.3"/>
</g>
<g transform="matrix(0.999751,0,0,0.999751,-54.8748,-49.3873)">
	<path vector-effect="none" class="st2" d="M440.9,321.4v-0.5v-1.7l0.1-2.5v-0.3v-0.8l0.1-3.8v-1.9l0.1-3.1v-0.9v-2.7v-1.5l0.1-3.5
		v-2.3v-0.7l0.1-4.4v-0.4l0.1-3.3v-2v-1.7v-0.6l0.1-3.8l-0.7-0.4l-0.6-1v-0.2l2.3-0.2h0.2l1.5-0.1l2.6-0.2h0.2l4.3-0.3h0.1h0.1
		l4.3-0.3h0.6l0,0l3.6-0.3l1.7-0.2h0.1l5.1-0.5l2.9-0.3l0.2,0.8l0.2,0.9l0.4,1.5l0.5,1.7l0.1,0.5l0.3,0.9l0.2,0.7l0.5,1.8l0.2,0.8
		l0.6,2.2l0.2,0.6l0.4,1.6l0,0l0.2,0.9l0.5,1.8l0.4,1.6l0.5,1.7l0.2,0.6l0.2,0.8l1.1,4.1l0.1,0.3l0,0l0.9,3.3v0.1l0.3,0.4l0.5,1
		l0.2,0.3l0.4,1l0.2,0.7l0.1,0.3l0.8,0.7l0.1,0.2l0,0l0.4,0.9v0.9v0.2l-0.2,0.4l0.7,0.4l0.8,0.5l-0.3,0.5l-0.1,0.2l-0.7,0.6
		l-0.6,0.8l0.2,0.7v0.4v1v0.3l-0.4,1.1l-0.2,0.8l0.2,0.8l0.1,0.2l0.1,0.4v0.5l0.9,0.9l0.1,0.7l0.2,0.3l-0.1,0.4l-0.2,0.7l0.1,0.5
		l-0.2,1l0.1,0.6v0.2v0.2l-0.2,0.5l0.1,1l1,1l0.2,0.4l0.1,0.3l0.2,0.7h-0.3L481,330l-2.2,0.3l-1.8,0.2h-0.1l-1,0.1l-2,0.2l-1.7,0.2
		l-1.7,0.2l-1.8,0.2l-2.1,0.2h-0.3l-2.1,0.2l-1.5,0.1l-1.2,0.1H461l-1.1,0.1l-2.8,0.2l0,0l-1.8,0.2l-1.4,0.1l-1.1,0.1l-0.9,0.1l0,0
		l0.1,0.6l-0.4,1.2l1.2,1.3l0.3,0.4l1,0.5l0.5,0.4l0.1,0.7l-0.3,0.8l-0.1,0.6l0.4,0.7l0.6,0.2l-0.7,0.5l-0.2,0.8l-0.7,1l-1.6,0.6
		l-1.9,0.5l-0.9-0.1l1-0.7l0.1-0.6l-0.9-0.8l-0.7-0.8l-0.3-0.6l0.3-0.9l-0.2-0.5l-0.3-0.9l-1-0.4l-0.6,0.6v0.8l-0.2,0.6l-0.2,0.7
		l0.1,1.4l-0.3,1.2L446,343l-0.7,0.1l-0.7-0.6l-0.7-0.2l-0.3,0.3l-0.3-2.4l-0.3-2.6v-0.1l-0.5-3.6l-0.2-1.6l-0.5-4.3v-0.2l-0.3-2.6
		l-0.1-1.1l-0.2-1.3L440.9,321.4"/>
</g>
<g transform="matrix(0.999751,0,0,0.999751,-54.8748,-49.3873)">
	<path vector-effect="none" class="st0" d="M132.5,293.3V293l0.6-0.3l0.7-0.9l0.2-0.3l0.4,0.2h0.6h0.6l0.5-0.4l0.9-0.7l0.2-0.8
		l-0.1-0.3l0.1-0.7L137,288h-0.1l-0.6-0.3h-0.6l-0.5-0.2l-0.2-1l0.5-0.7l0.2-1l0.1-0.3l-0.5-0.6l0.3-0.5l0.2-0.7l-0.1-0.4l0.6-0.1
		h0.5l0.1-0.1l0.5-0.7l1-0.7l0.1-0.8l0.2-0.7l0.3-0.4l0.2-0.3v-0.6v-1l0.3-0.5l0.1-0.5l-0.2-0.4l0.4-0.3l0.8-0.6l0.3-0.4l0.2-0.5
		l0.1-0.2l0.3-0.2l0.7-0.2l0.7-0.3l0.8-0.1l0.7-0.6l0.5-0.2l0.1-0.6l0,0l-0.3-0.6l-0.9-1l-0.7-0.8l-0.5-0.1l0.2-0.9l-0.3-1l-0.2-1.6
		l-0.2-0.5l-0.7-1.4l-0.5-0.9l0.2-1l0.1-0.8l0.3-0.9l0.2-0.7l0.2,0.1l0.3-0.2l0.2-1.7v-2.1l-0.3-0.6l0.2-1l0.3-1.2l-0.3-0.6l0.1-1.2
		l0.2-1.1l0.5-0.6l-0.2-0.6l-0.2-0.7l0.1-0.9l0.1-0.8v-0.1l0.2-0.4h0.8l0.5-0.2h0.6l0.7,0.1l0.2,0.4l0.4,0.1l0.4-0.2l0.5,0.1
		l0.3,0.6l0.1,0.7l0.4,0.5l0.6,0.4h0.7l0.2-0.4l0.6-0.9l0.8-0.9l0.2-1l0.2-0.8l0.7-3.9l0.6-3.3l0.4-2.2l0.9,0.2l10.9,2l0.7,0.1
		l0.8,0.1l3.1,0.5h0.1l2,0.3l10.3,1.7h0.1l1.4,0.2l2.3,0.3l3.5,0.5l0,0l3.1,0.5l5.1,0.8l0,0l5.6,0.8l4.9,0.7l-0.2,1.7l-1.5,10.6
		l-0.2,1.6l-0.2,1.7l-0.5,3.7l-0.5,3.5l-0.4,2.6l-0.4,3l0,0l-0.7,5.3l-0.1,0.8l-1.2,9l-0.2,1.3l-0.7,5.1l-0.4,2.8l0,0l-0.8,6l0,0
		l-0.7,4.9l0,0l-0.7,4.8l-0.6,4l-0.9,6.4l-9.2-1.3l-7.4-1.1l-7.2-1.1l-3.2-1.8l-11-6.3l-10.6-6.1l-4.5-2.7l-11.4-6.9l0.1-0.4
		l0.3-0.4l-0.2-0.2L132.5,293.3"/>
	<path vector-effect="none" class="st0" d="M367.2,260h2.9l3.2-0.1h1.3h1h1.9h1.3h1.8h1.2h0.2l1.9-0.1l3-0.1h0.2h0.7l2.3-0.1h0.4
		l2-0.1l2.2-0.1h0.3l1.5-0.1l3.5-0.2h0.3l2.2-0.1h0.5l0,0l3.1-0.2l1.2-0.1l2.6-0.1h0.2l2.1-0.1l0.9-0.1l3.1-0.1h0.7l0.2,0.5l0.2,0.6
		l0.8,0.4l0.1,0.4v0.8l-0.5,0.6l-0.4,0.8l-0.4,0.2l-0.3,0.2l-0.1,0.7l-0.6,0.4l-0.4,1l-0.3,0.7l0.9-0.1l2.1-0.1l1.6-0.1h0.7l1.9-0.1
		l0.6,0.7l0.4,0.3l0.1,0.2v0.1l-0.8,0.4l-0.1,0.4l0.1,0.5l-0.8,0.4l-0.7,0.5l-0.6-0.1l-0.4,0.9l0.7,0.6l0.3,0.3l-0.6,0.3l-0.1,0.7
		l-0.1,0.3l-0.9-0.1v0.8l0.3,0.5l-0.2,0.6l-0.3-0.1l-0.5,0.2l0.3,0.6l-0.3,0.9l-0.5,0.5l0.8,0.3l0.1,0.7v0.5l0.1,0.6l-0.8-0.1
		l-0.2,0.5l-0.1,0.6l-0.8,0.2l-0.4,0.2l-0.1,0.5l0.8,0.8v0.4l-0.7,0.5l0,0l-1,0.6h-0.1h-0.6l-0.1,0.7l-0.3,0.4l-0.4,0.9v0.5
		l-0.2,0.4l-0.1,0.3l0.5,0.6l-0.2,0.6l-0.1,0.9l0.1,0.6l-0.7,0.5l-0.2,0.7l-0.8-0.4l-0.4,0.3l0.2,0.7l-0.7,0.2l-0.3,0.6l-0.6,0.2
		l0.2,0.6l-0.1,0.3l-0.5,0.2v0.4l0,0v0.1l0.5,0.2l0.3,0.3l-0.2,0.6l-0.6,0.2l-0.4,0.3l-0.3,0.3l-0.5-0.1l-0.4,0.4l0.6,0.2l0.1,0.5
		l-0.4,0.4l0.1,0.7l0.3,0.2v0.6l-0.7-0.1h-0.3l-0.3,0.4l0.8,0.4l-0.3,0.8l-0.9,0.2l0.6,0.5l-0.6,0.5l-0.2,0.4l-0.1,0.3l0.3,0.5
		l0.2,0.4l0.3,0.5l0.4,0.5l-0.3,0.6l0.2,1l0.5,0.1l0.2,0.6l-0.1,0.7l-0.2,0.7h-0.6l-0.3,0.5l0.7,0.6l-0.4,0.6l-0.1,0.1h-1.2l-2,0.1
		H405h-0.3l-4.5,0.2l-2.3,0.1l0,0l-1.8,0.1l-3.3,0.1l-2.6,0.1l0,0l-2.9,0.1h-0.2l-2.4,0.1h-0.5h-1.6h-1.3h-0.4h-2.4h-1h-0.1
		l-2.7,0.1v-2v-1.6v-0.8v-1.5v-1.6l0,0l-0.3-0.3l-0.8-0.1l-0.5-0.2l-0.3,0.3l-0.3-0.1l-0.8,0.2h-0.4l-0.2,0.2l-0.4-0.1l-0.4-0.2
		l-0.8-0.8v-2.1V296v-1.1v-2.4v-2.4V288v-1.8v-1.3v-2.3V282v-1.8v-3v-1.3v-0.2v-0.1l-0.2-1.5l-0.3-2l-0.3-1.7v-0.1l-0.5-3.1
		l-0.2-1.6l-0.1-0.8l-0.3-1.9L367.2,260"/>
</g>
<g transform="matrix(0.999751,0,0,0.999751,-54.8748,-49.3873)">
	<path vector-effect="none" class="st1" d="M438.8,237.2l0.2-0.4l0.2-1l-0.2-1l0.4-0.4l0.2-0.7l0.3-0.8l-0.6-0.6v-0.5v-0.1l0.6-0.5
		l0.8-0.6l0.5-0.9l0.3-0.7l0.1-0.2l0.2-0.7l0.6-0.5l-0.1-0.4l0.1-0.4l0.1-0.3l0.1-0.7l0.8-0.6l0.4-1.2l-0.3-0.9l-0.2-0.3l-0.2-0.3
		l0.2-0.4l0,0l-0.1-0.9l-0.6-0.4V220l-0.6-0.6l-0.2-0.8v-0.1l0.6-0.7l-0.2-0.5v-0.2l-0.1-0.7l0.2-0.4l0.5-0.1l-0.2-1.7v-0.1
		l-0.2-1.8l-0.1-0.8l-0.3-3.1l-0.2-1.8l-0.2-1.9l-0.1-1.4l-0.3-3.2v-0.2v-0.6l-0.3-2.8l-0.2-2.2l-0.1-1.6v-0.2l-0.2-2l-0.2-1.9l0,0
		l-0.2-2.4l-0.1-0.8l-0.2-2.5l0.6,0.4l0.5-0.3l0.6,0.8h1.1l0.4-0.2l1-0.4l1-0.4l0.9-0.7l0.2-0.2l0.8-0.5l1.9-0.2l0,0l1.2-0.1h0.2
		l2.8-0.3l0,0l1.7-0.2l2.8-0.3l0,0l1.4-0.1l3.8-0.4l0.6-0.1h0.4l3.8-0.4h0.2l0.1,0.9l0.3,2.3l0.2,1.5v0.2l0.2,1.9v0.3l0.2,1.8
		l0.2,1.8l0.1,0.9l0.3,2.7l0,0l0.3,2.2l0.1,1l0.1,0.5l0.2,1.6l0,0l0.1,0.6l0.3,2.8l0.2,1.4l0.1,1.2l0.3,2.7l0,0l0.2,2.2l0.1,0.6
		l0.2,1.8l0.1,1.2l0,0l0.1,1.1l0.2,1.7l-0.4,0.4l-0.3,0.4l0.2,0.3l0.3,0.4l0.2,0.5l-0.4,0.6l0.2,0.1l0.4,0.2l0.5,0.2l-0.1,0.3v0.1
		v0.9h-0.5l-1.1,0.3l-0.6,0.3l-0.5,0.3l-0.7,0.7l-0.4,0.2l-0.2-0.1L468,222l-0.4-0.2L467,222h-0.1h-0.6l-0.5,0.4l0.2,0.7l0.1,0.9
		l0.1,0.2l0.2,0.5l-0.2,0.3l0,0l-0.4,0.3l-0.2,0.5l-0.9,0.4l-0.3,0.5l-0.1,0.6l-0.1,0.5l-0.3,0.7l-0.7,0.5l-0.5-0.1h-0.2l-0.2,0.6
		l-0.5,0.8v0.1v1l-0.1,1.2l-0.3,0.2l-0.2,0.2l-0.2,0.2l-0.4,0.3l-0.7-0.5l-1.2-0.1l-0.9-1l-0.5-0.6l-0.4,0.2l-0.3,0.2l-0.5,0.6l0,0
		l-0.4,0.6l-0.2,0.1l-0.4,0.1l0.1,1l0.3,0.9h-1l-0.1,0.8l-0.4-0.1l-0.1-0.1l-0.7-0.3l-0.7-0.8l-0.4-0.5l0,0l-0.6,0.4L451,235
		l-0.5,0.2l-0.3,0.1l-0.3,0.7l-0.1,0.7l-0.4,0.9l-0.4-0.5l-0.5-0.4l-0.9-0.3l-0.2-0.1l-0.4-0.2l-0.3-0.2l-1-0.4l-0.3,0.2l-0.4,0.2
		h-0.7l-0.6,0.4l-0.1,0.7H443l-0.4-0.3l-0.1-0.1l-0.9,0.3l-0.8-0.6l-0.5,0.2v0.1l-0.1,0.4l0.4,0.7l-0.3,0.4l-0.4,0.1l-0.7-0.2
		l-0.5-0.8L438.8,237.2"/>
	<path vector-effect="none" class="st1" d="M287.4,208.7l2.3,0.1l3.1,0.2l1.4,0.1l0.9,0.1h0.3l2.5,0.1l3.2,0.2h0.2l2.8,0.1l3,0.1
		l0,0h0.2l3.9,0.2l2,0.1l0,0h1.3l3.4,0.1h1h0.2l3.6,0.1h1.2h1.2l2.5,0.1h2.1h1.5h1.2h0.5l3.8,0.1h0.5l3.8,0.1h1h0.5h0.7h3.6h0.1h2.4
		l0,0h0.9h1.4h0.1h2.4l0,0h4.7h0.3l0.8,0.8l1,0.7l0.7,0.5l0.7-0.5h0.3h0.4l0.2,0.3l0.5,0.7v0.1l0.1,0.7l0.1,0.3l-0.4,0.4h-0.8v0.5
		l-0.7,0.5l-0.1,0.6v0.3l-0.3,0.3l-0.4,0.3l0.2,0.3l0.4,0.5l0.7,0.8l0.2,0.3l0.2,0.3l0.6,0.1l-0.2,1l0.6,0.7l0.3,0.4l0.3,0.5
		l0.1,0.1l0.5,0.4l0.7-0.2l0.6,0.4h0.2h0.1l-0.2,0.6v1v0.9v1.9v1.5l0,0v2.7v1l0,0v1.3v2.1v2.5v0.3v0.7v4.3v0.1v0.3l0.1,3.4v0.7v0.4
		v2.5v1.5v0.8h-1.1h-3.1h-0.1h-0.7h-2.8h-0.9h-1.3H356h-2.4H352h-0.4h-0.4h-2.4h-3.1h0.3h-2.5h-3.9h-0.5h-2.6h-0.9l-3.4-0.1h-0.4
		h-2.7h-0.7l-2.6-0.1h-0.1l-2.1-0.1l-2.7-0.1l-2.3-0.1h-1.4l-3.1-0.1h-0.5h-0.9l-1.3-0.1l-3.7-0.2h-0.1h-1l-5.1-0.2h-0.9l-2.5-0.1
		h-1l-1.3-0.1l-1.6-0.1l-3-0.1h-0.8l-3.8-0.2l-1.4-0.1H285v-0.6l0.1-1l0.1-2.1l0.1-1.8l0.2-3.6l0.1-1.1v-0.2l0.3-5.3l0.1-2.1v-0.1
		l0.1-1.6l0.2-3.2l0.1-1.2l0.3-4.9l0.1-1.2l0.2-3.4l0.2-2.7v-0.1l0.2-3.4L287.4,208.7"/>
</g>
<g transform="matrix(0.999751,0,0,0.999751,-54.8748,-49.3873)">
	<path vector-effect="none" class="st3" d="M594.7,104.2l0.4-0.2l0.1-0.5h0.7l0.5,0.4l0.4,0.7l0.5-0.1V104v-0.2l0.1-0.4l-0.2-0.4
		v-0.5l-0.3-0.3l0.3-0.5h0.3l0.3,0.3l0.5-0.1h0.4l-0.2-0.6l-0.5-0.2l-0.7-0.7l0.1-0.8l0.2-0.6l0.4-0.6l0.2-0.6l0,0l0.9-0.8l0.5-0.6
		l-0.5-0.6l0.1-0.4l0.5-0.8l0.5-0.7l-0.1-0.6l-0.2-0.4l-0.4,0.1v-0.5l-0.2-0.2l-0.1-0.6l0.2-0.6l0.1-0.6l-0.6-0.4l0.1-0.9l0.1-0.6
		l0.2-0.3l-0.1-0.4l0.3-0.5l0.3-0.4l0.3-0.5l0.2-0.3l-0.3-2l-0.2-1.7l1-2.9l1.4-4l0.7-2l1.2-3.3l0.6-0.1l0.5,0.1h0.7v0.6l0.6,1.7
		l0.8,0.2l0.7,0.3l0.8-0.8l1.1-0.7l0.6-0.3v-0.5l0.7-0.4h0.5l0.8-0.3l-0.2-0.4l0.1-0.4l0.8-0.2h0.7l0.6,0.2l0.8,0.4l1,0.5l0.5,0.2
		l0.9,0.9l1.1,0.4l1.1,3.6l0.8,2.6l1.4,4.3l1,3.2l0.4,1.3l0.4,0.2l-0.3,0.8l0.5,0.4l-0.2,0.8l0.4,0.6v0.8l0,0l0.9-0.3l0.5,0.5h0.4
		l1,0.1l0.7-0.4l0.4,0.3l0.3,0.9l-0.5,0.2l0.1,0.6l0.9,0.9v1.1l-0.1,0.5l0.4,0.3l1,1l0.6,0.2l0.3-0.4l0.1-0.7l0.7,0.1h0.4l0.7,0.5
		l0.4,0.5l0.2,0.5l0.8,1.1l0.6,0.3l0.1,0.8l0.5,0.3l-0.5,0.9l-0.3,0.5l-0.3,0.6l-0.3,0.7l-0.5,0.5l-0.4,0.7l-0.8-0.1l-0.2,0.4
		l-0.5,0.2l-0.2,0.7l-0.1,0.7l0.3,0.4l-0.5,0.9l-0.8-0.6l-0.3-0.5l-0.4,0.5l-0.8,0.4l-0.3,0.5v0.7l-0.3,0.5l-0.4-0.1l-0.1,0.1
		l-0.3,0.4l-0.3,0.1l-0.1,0.9l-0.7-0.3l-0.3-0.2l-0.6,0.4l0.3,0.6l-0.1,0.3l-0.2,0.6l0.7,0.4l-1.3,0.3l0.1,0.5l0.2,1.3l-1.1,0.2
		l-0.6,0.4l-0.2,0.2l-0.4,0.4l-0.1,0.9l-0.4,0.2l-0.4-0.9l-1,0.6l-0.8,0.7l-0.5-0.6l-0.5-0.6l0.3-0.5l-0.6-0.5l-0.2-0.2h-0.7H618
		l0.1,0.9v0.6l0.6,0.6l-0.2,0.6l0.4,0.4l-0.2,0.5l-0.5,0.1L618,117l-0.2,0.9l-0.3,0.1l-0.2,0.6L617,119l-0.6-0.7l-0.3-0.3l-0.2-0.1
		l-0.1,0.5l-0.1,0.2l-0.4,1.2l-0.5,0.1l-0.2,0.3l-0.6,0.5l-0.4,0.2l-0.2,0.1l-0.2,0.8l-0.5,0.4l-0.2,0.4h-0.2l-0.3-0.7h-0.3h-0.3
		l-0.5,0.6v0.5l-0.6,0.1h-0.1l-0.1,0.6l-0.7,0.2l-0.1,0.5l-0.1,0.7l0.3,0.5l-0.3,0.4l-0.7,0.4h-0.2h-0.2L608,127l0.7,0.2l-0.4,0.8
		l-0.1,0.8l-0.4,0.4l-0.5,0.1l-0.1,0.2l-0.1,0.2l-0.1,0.8l0.2,0.5v0.1v0.8l-0.2,0.5l-0.2,0.9l-0.3,0.3l-0.6-0.1l-0.8-0.4L605,133
		l-0.2-0.7l0,0v-0.5l-0.8-0.6l-0.7-0.6l-0.8-0.5v-0.8l-0.1-0.6l-0.1-0.5l-0.2-0.4l-0.2-0.4l-0.6-1.7l-0.4-1.2l-0.2-0.6l-1-3.4
		l-0.7-2.2l-0.1-0.3l-0.1-0.2l-0.2-0.5l-0.4-1.3l-0.2-0.8l-1-3.2l-1.2-3.5L594.7,104.2"/>
	<path vector-effect="none" class="st3" d="M620.8,117.5l0.4-0.4l0.5,0.7l-0.2,0.7l-0.7-0.3V117.5"/>
</g>
<g transform="matrix(0.999751,0,0,0.999751,-54.8748,-49.3873)">
	<path vector-effect="none" class="st1" d="M583.4,167.8l1.9-1.9l-1-1l-0.2-1v-0.1l0,0l0,0l-0.2-0.9l-0.2-1.2l-0.3-1.6l-0.1-0.4
		l-0.4-2.2l-0.6-3.1l2.6-0.6l1.1-0.2l0.8-0.2l0.5-0.1h0.1l1.5-0.4l0.5,0.4l0.3-0.1h0.1l0.2-0.5l1.3-0.2l0.8-0.2h0.2l1.1-0.3l0.8-0.2
		l1.2-0.3l0.6-0.1l0.3-0.1l1.2-0.3l1-0.2l0.8-0.2l0.1,0.2l0.8,2.7l0.3,1.1l0,0l0.3,1.2l0.2,0.6l0,0l0.2,0.7l0.4,1.8l-0.4,0.2
		l0.2,0.8l-0.1,0.5l-0.3-0.2l-0.7,0.3l-0.6,0.3L599,161l-0.4,0.3h-0.7l-0.3,0.3l-0.5,0.4l-0.5,0.1h-0.1l-0.3,0.3l-0.3-0.2l-0.6,0.3
		l-0.6,0.4l-0.1,0.1l-0.6-0.1l-0.6,0.2l0,0l-0.3,0.3l-0.7,0.3l-0.3-0.3l-0.9,0.5h-0.3h-0.4l-0.3,0.3l-0.1,0.1l0,0l-0.3,0.5l-0.6,0.3
		l-0.1,0.5v0.2l-0.2,0.1h-0.5h-0.3l-0.5,0.7h-0.1l-0.3,0.1l-0.3,0.1l-0.4,0.2l0.2,0.2l-0.2,0.5l-0.3,0.2l-0.5,0.1l-0.5,0.3l-0.4,0.4
		l-0.3,0.1l-0.5,0.6l0,0l-0.1-0.2V169l-1-1L583.4,167.8"/>
</g>
<g transform="matrix(0.999751,0,0,0.999751,-54.8748,-49.3873)">
	<path vector-effect="none" class="st0" d="M566.4,191.8l0.1-0.5l0.3-0.6l0.5-0.5l0.7-0.3l0.2-0.1l1-0.1l0.8,0.2l-0.4,0.6v0.7
		l-0.2,0.5l-0.1,0.6l-0.2,0.3l0.3,0.4l0.4,0.2v0.6l0.1,0.5l-0.6,0.4l0.3,0.5l0.7,0.6l0.2,0.2l0.5,0.5l0.8,0.8l0.4,1v0.8l0.3,1
		l0.7,0.4l0.6,0.9l0.1,0.1l0.1,0.4l1,0.8l0.9,0.6h0.5l0.2-0.2l0.5,1.3l0.7,2.2l0.3,1.2l-1.4,0.3l-1.7,0.3l-1.5,0.3L571,209l-0.3-1.1
		l-0.1-0.2l-0.3-1l0,0l-0.7-2.6l-1.2-4.3l-0.4-1.4l-0.2-0.7l-0.3-1.1l0,0l-1.3-4.7L566.4,191.8"/>
</g>
<g transform="matrix(0.999751,0,0,0.999751,-54.8748,-49.3873)">
	<path vector-effect="none" class="st2" d="M470,275l1.5-0.2l1-0.1h0.2l1-0.1h0.1l2.5-0.3l0.7-0.1l0,0l1.3-0.2l0.6-0.1h0.4l0.5-0.1
		l1.2-0.1l1.3-0.1l2.1-0.3l2.2-0.3l1.4-0.2l0.8-0.1l0,0l3.6-0.4l0.8-0.1l0.7-0.1l1.8-0.3l2.4-0.4l0,0l-0.1,0.7l-0.1,0.4l-0.6,0.7
		l-0.5,0.5l-0.3,0.5l-0.4,0.5l0.1,0.4l-0.3,0.5l0.1,0.2l0.2,0.4v0.1l0.8,0.4l0.7,0.4l0.8,0.2l0.7,0.6l0.1,0.1l0.6,0.4l0,0l0.6,0.2
		l0,0l0.7-0.2l0.6,0.1l0.5,1l0.3,0.5l0.6,0.8l0.1,0.1l0.4,0.6l0.2,0.4l0.3,0.9l1,0.8l0.7,0.9v0.1l0.4,0.7l0.1,0.1h0.5l1.1,0.8
		l1.3,0.5l1.2,1.1l0.4,0.6l0.2,0.4l0.5,0.6h0.2l0.3,0.1h0.1l1,0.6l0.2,0.2l0.4,0.4l0.8,0.3l0.2,0.7v1l1.1,0.4l0.1,0.8v0.1l1,0.4v0.1
		l0.2,0.6l1.2,0.5l0.5,0.1h0.2l0.8,0.5l0.5,0.3l0.2,1l0.5,0.6l0.6,0.8l0.3,1.2v0.1l0.4,1.2l0.1,0.7l0.1,0.1l0.8,0.4l0.5,0.1h0.1
		l1.1,1l0.1,0.7l0.3,0.3l0.6,0.6l0.2,0.8l-0.2,0.6l0.1,0.1l0.4,0.6l0.2,0.9l0.9,0.3l0.3-0.3l0.8,0.5l0.7,0.2l0.5,0.1v0.5l-0.6,0.7
		l-0.3,0.5l-0.6,0.9l-0.3,0.7l-0.4,0.8l-0.5,0.6v0.2v0.2l0.2,1l-0.3,1v0.2v0.3l-0.3,0.8l-0.4,0.9l-0.1,0.8l0.3,0.6v0.1l-0.1,0.7
		l-0.2,0.6l-0.6,1.1l-0.4,0.2l0.1,0.7l-0.1,0.8l0.2,0.3l0.1,0.2l0.2,1l-0.2,1.3l-0.1,0.8l0.3,0.8l-0.8-0.1h-0.3l-0.4,0.2l-0.9-0.1
		l-0.4-0.1h-0.8l-0.4-0.3l-0.6-0.1l-0.7,0.1l-0.5-0.3l0,0h-0.5l-0.5,0.7l-0.4,0.6v0.8v0.5l0.5,0.7l0.1,1l0.1,1.2l-0.1,0.6l0.1,0.5
		h-0.1l-0.5,0.2l-0.6,0.1h-0.4l-0.5-0.7v-0.7l-0.4-0.6V332l-2.4,0.1H514l0,0l-1.5,0.1l-1.3,0.1l-2.3,0.2l-3.1,0.2h-0.1l-2.1,0.1H503
		l-1.7,0.1L500,333l-1.6,0.1l-0.9,0.1l-2.2,0.2l-0.9,0.1h-0.5l-1.9,0.1l-1.1,0.1l-1.1,0.1l-4.1,0.3h-0.6l0,0l-0.7-0.8l-0.3-0.8
		l-0.1-0.6l-0.7-0.7l-0.3-0.5v-0.3l-0.2-0.7l-0.1-0.3l-0.2-0.4l-1-1l-0.1-1l0.2-0.5v-0.2v-0.2l-0.1-0.6l0.2-1l-0.1-0.5l0.2-0.7
		l0.1-0.4l-0.2-0.3l-0.1-0.7l-0.9-0.9v-0.5l-0.1-0.4l-0.1-0.2l-0.2-0.8l0.2-0.8l0.4-1.1v-0.3v-1v-0.4l-0.2-0.7l0.6-0.8l0.7-0.6
		l0.1-0.2l0.3-0.5l-0.8-0.5l-0.7-0.4l0.2-0.4v-0.2v-0.9l-0.4-0.9l0,0l-0.1-0.2l-0.8-0.7l-0.1-0.3l-0.2-0.7l-0.4-1l-0.2-0.3l-0.5-1
		l-0.3-0.4v-0.1l-0.9-3.3l0,0l-0.1-0.3L476,297l-0.2-0.8l-0.2-0.6l-0.5-1.7l-0.4-1.6l-0.5-1.8l-0.2-0.9l0,0l-0.4-1.6l-0.2-0.6
		l-0.6-2.2l-0.2-0.8l-0.5-1.8l-0.2-0.7l-0.3-0.9l-0.1-0.5l-0.5-1.7l-0.4-1.5l-0.2-0.9L470,275"/>
</g>
<g transform="matrix(0.999751,0,0,0.999751,-54.8748,-49.3873)">
	<path vector-effect="none" class="st0" d="M495.9,275.5l0.3-0.5l-0.1-0.4l0.4-0.5l0.3-0.5l0.5-0.5l0.6-0.7l0.1-0.4l0.1-0.7l1.1-0.5
		l1.2-0.6l1.2-0.6h0.2h0.2l0.6-0.7l1.2-0.5l0.5-0.2l0.8-0.4l0.4-0.4h0.7h0.7l0.9-0.1l1.9-0.2h0.1l0.8-0.1l1.1-0.1l1.2-0.1l3.1-0.3
		l1.4-0.1h0.4l3.2-0.3l0,0l0.1,0.3l-0.1,0.7l0.2,0.4l1.1-1.1l0.4,0.4l0,0l0.9,0.9l0.8,0.8l0.1,1.6l2.7-0.3l0,0l2.7-0.4l2.8-0.4
		l1.7-0.3l0,0l2.6-0.4h0.2l2.8,2l0.2,0.1l1.2,0.9l3.8,2.8l0,0l0,0l3.5,2.5l2.2,1.5l0.5,0.3l1,0.7l-1.4,0.7l-1,0.9l-0.9,1.1l-0.7,1.1
		l-0.5,1.1l-0.3,0.6l-0.5,0.8l-0.4,1.2l-0.1,1.1v1.3l0.2,0.4l-0.4,0.8l-0.6,0.6l-0.2,0.2l-0.4,0.3v0.6l-0.1,0.6h-0.8l-0.7,0.3
		l-0.5-0.4l-0.6,0.5l-0.2,0.5l0.5,0.6l-0.3,0.5l-1,0.8l-0.3,0.7l-1,0.7l-0.5,0.5l-0.1,0.7l-0.9,0.8l-0.3,0.5l-0.9,0.2l-0.8,0.5
		l-0.4,0.5l-0.6,0.3l0,0l-0.9,0.9l-0.7,0.2H534l-0.7-0.2v0.2l-0.1,0.3l0.4,0.7l0.3,0.4l-0.1,0.7l-0.9,0.7l-0.6,0.3l-0.6-0.2
		l-0.9-0.3l-0.5,0.6l0.5,0.3l0.8,0.6l-0.5,0.9l-0.9,0.9l-0.5,0.2l-0.1,0.3l-0.1,0.6l-0.7-0.2l-0.8-0.5l-0.3,0.3l-0.9-0.3l-0.2-0.9
		l-0.4-0.6l-0.1-0.1l0.2-0.6l-0.2-0.8l-0.6-0.6l-0.3-0.3l-0.1-0.7l-1.1-1h-0.1l-0.5-0.1l-0.8-0.4l-0.1-0.1l-0.1-0.7L522,300v-0.1
		l-0.3-1.2l-0.6-0.8l-0.5-0.6l-0.2-1l-0.5-0.3l-0.8-0.5h-0.2l-0.5-0.1l-1.2-0.5l-0.2-0.6v-0.1l-1-0.4v-0.1l-0.1-0.8l-1.1-0.4v-1
		l-0.2-0.7l-0.8-0.3l-0.4-0.4l-0.2-0.2l-1-0.6h-0.1l-0.3-0.1h-0.2l-0.5-0.6l-0.2-0.4l-0.4-0.6l-1.2-1.1L508,286l-1.1-0.8h-0.5
		l-0.1-0.1l-0.4-0.7v-0.1l-0.7-0.9l-1-0.8l-0.3-0.9l-0.2-0.4l-0.4-0.6l-0.1-0.1l-0.6-0.8l-0.3-0.5l-0.5-1l-0.6-0.1l-0.7,0.2l0,0
		l-0.6-0.2l0,0l-0.6-0.4l-0.1-0.1l-0.7-0.6l-0.8-0.2l-0.7-0.4l-0.8-0.4V276l-0.2-0.4L495.9,275.5"/>
</g>
<g transform="matrix(0.999751,0,0,0.999751,-54.8748,-49.3873)">
	<path vector-effect="none" class="st3" d="M272.1,137.1h0.2l0.1-1.8l0.1-1.2l0.1-1.7l0.2-2.2l0.1-0.9l0.2-2.7l0.1-1.6v-0.2l0.1-0.9
		l3.7,0.3l2.2,0.2l2.1,0.2l2.2,0.2h0.5h0.6l1.7,0.1l1.5,0.1l2.2,0.2l2.3,0.2l0.8,0.1l0,0l2,0.1l2.3,0.1l1.9,0.1l2.5,0.1l3.4,0.2
		l2.4,0.1l0,0h0.1l2,0.1l1.4,0.1l2.7,0.1l0,0l1.6,0.1l0,0h1l1.2,0.1l1.4,0.1l2.5,0.1h0.9l0,0l2.7,0.1h1l2.1,0.1l3.4,0.1h0.6h0.3h2
		h2.3h3.1h1.4l5.1,0.1l-0.1,0.9l-0.2,0.8l-0.4,0.5l-0.4,0.7l-0.7,0.4l-0.8,0.7l-0.3,0.5l0.1,0.4l0.1,0.1l0.5,0.7l0.4,0.8l0.3,0.6
		l0.3,0.4h0.6l0.5,0.3l0.4,0.1l0.4,0.4l0.1,0.3l0.1,0.3v0.5v4.1v2.4v2.4v1.2v2.6v2.3l0,0v4.9l0,0v4.2v0.7h-1.5l0.1,0.4l-0.1,0.5
		l0.7,0.7v0.5l-0.1,0.7l-0.5,0.1l0.2,0.5l0.1,0.1l0.3,0.4h0.5l0.2,1.1l0.2,0.4l-0.1,0.4l-0.1,0.2l-0.5,0.4l0.2,0.5l-0.3,0.4l0.2,0.3
		l-0.4,0.5v0.2v0.4l-0.4,0.7l-0.5,0.7v0.8l0.3,0.5l0.7,0.7l0.5,1.1v0.1l-0.2,0.5l0.2,0.1l0.3,0.3l-0.6,0.1l-0.2-0.4l-0.9,0.1
		l-0.2-0.3l-0.3-0.6l-0.5-0.5l0.1-0.8l-0.8-0.1l-0.2-0.5h-0.1l-1-0.5l-0.6,0.1l-0.5-0.5l-0.1-0.1l-1.1-0.1l-0.3-0.3l-0.5-0.4
		l-0.2-0.5l-0.7-0.2l-0.4,0.1l-0.8-0.2l-0.4,0.3l-0.3-0.1l-0.3-0.1h-0.9l-0.4,0.1l-0.7,0.1l-1-0.2l-0.6-0.1l-0.2,0.2l-0.3,0.8
		l-0.5,0.4l-0.9,0.1l-0.7-0.6l-0.4-0.5l0,0l-0.8-0.3l-0.5-0.2l-0.3-0.2l-0.8-0.5l-0.5-0.2l-0.4-0.5l-0.2-0.5l-3.6-0.1l-4.1-0.1
		l-2.8-0.1l-3.2-0.1l-3.6-0.1l0,0l-8.2-0.4l-2.3-0.1l-8.7-0.5l0,0l-3.3-0.2l-3.9-0.3l-2.1-0.2l-4.8-0.4h-0.3l-5.6-0.5l0.3-4l0.2-2.6
		V158l0.1-0.8l0.3-4.1l0,0l0.3-4v-0.5l0.1-1l0.4-4.5l0.1-1.7L272.1,137.1"/>
</g>
<g transform="matrix(0.999751,0,0,0.999751,-54.8748,-49.3873)">
	<path vector-effect="none" class="st1" d="M582.2,154l0.1-3.9V149v-1.2l0,0V146v-1.6l1.2-0.3l1.2-0.3l0,0l0.9-0.2l0.7-0.1l0.6-0.1
		l2.9-0.6l0.6-0.1h0.1l0.4-0.1l1.3-0.3l0.8-0.2l0.8-0.2l0.4-0.1l1.5-0.3l0.3-0.1l0.9-0.2l0.6-0.1l1.1-0.3l2.8-0.7l0.6-0.1l0.2-0.6
		l0,0h0.1l0.6-0.2l-0.2-0.7l0.3-0.4h0.3l0.5-0.1l0.1-0.4l0.1-0.4l0.6-0.3l0.3-0.3h0.7l0.5-0.2l0.5,1.2l0.6,0.9l0.6,0.4h0.5l0.3-0.5
		h0.5l0.2,0.6l-0.4,0.9l-0.4,0.2l-1,0.5l-0.4,0.3l0.3,0.8l-0.4,0.4v0.3v0.2v0.2l-0.4,0.1l-0.3,0.1v0.1l0.3,0.9l0,0v0.2l-0.1,0.3
		l0.1,0.1l0.4,0.5l0.1-0.2l0.2-0.4h0.4l0.4,0.4h0.2h0.5l0.1,0.1l0.6,0.4l0.7,0.9l0.1,0.1l0.6,0.5l0.1,0.5l-0.2,0.6l0.3,0.6l0.6,0.1
		l0.2-0.2l0.5,0.3l0.4,0.7v0.6h0.1l0.6,0.4l0.6,0.1l1.2-0.1l0.6,0.1l0.5-0.4l0.9-0.5l0.9-0.7l0.1-0.3l-0.2-0.6l-0.8-0.3l-0.3-0.7
		l-0.1-0.3l-0.3-0.7h-0.7l-0.4,0.2l-0.7-0.4l0.5-0.4l0.5-0.3l1,0.1l0.8,0.7l0.3,0.7l0.1,0.3l0.8,1.5l0.5,1.6l0.2,0.9l-0.1,1.1
		l-0.4,0.2l-0.3-1l-0.1-0.7l-0.5,0.2l-1,0.5l-1,0.8h-0.6l-0.7,0.5l-0.4,0.3l-0.2,0.5l-0.8,0.4l-0.8,0.7l-0.1,0.1l-0.6,0.5l-0.4,0.7
		l-0.6,0.5l-0.9,0.5v-0.7l1.1-0.9l0.6-0.8l0.2-0.3l-0.1-0.6l-0.3-0.1l-0.6-0.2l0,0l-0.2,0.6l-0.1,0.3h-0.3l0,0l-0.5,0.3l0,0
		l-0.2,0.6l-0.3,0.5l-0.4,0.2l-0.1,0.1h-0.5l-0.3,0.3l-0.6-1.4l-0.2-0.8h-0.7l-0.1-0.1l-0.1-0.1l-0.8-0.7l-0.7-0.2h-0.1l-0.3-0.6
		l-0.2-0.8l-0.4,0.1l-0.2-0.8l-0.1-0.4l-0.1-0.5l-0.8,0.2l-0.4,0.1l-0.6,0.2l-0.3,0.1h-0.1l-1.9,0.6l-0.1-0.2l-0.8,0.2l-1,0.2
		l-1.2,0.3l-0.3,0.1l-0.6,0.1l-1.2,0.3l-0.8,0.2l-1.1,0.3H592l-0.8,0.2l-1.3,0.2l-0.2,0.5h-0.1l-0.3,0.1l-0.5-0.4l-1.5,0.4h-0.1
		l-0.5,0.1l-0.8,0.2l-1.1,0.2l-2.6,0.6v-0.1L582.2,154"/>
	<path vector-effect="none" class="st1" d="M611.6,157.1l0.7-0.4l0.4-1.2l0.7-0.8l0.6,0.3l0.7,0.2h0.3l0.4,0.8l-1.3,0.4l-1.1,0.4
		l-0.6,0.7l-0.3,0.9l-0.4-0.9L611.6,157.1"/>
	<path vector-effect="none" class="st1" d="M617.4,156.1l0.8-0.3l1.1-0.4v-1.1l0.8,0.3l0.6,1.2l-0.5,0.5l-0.8,0.2l-1.2,0.2
		L617.4,156.1"/>
	<path vector-effect="none" class="st1" d="M448.2,180.2l0.9-1.3l0.8-2.4l0.3-0.7l0.9-1.6l0.1-0.2l0.5-2v-0.4l0.2-1.7v-1.3v-0.2
		v-1.7v-0.1l-0.2-1.6l-0.3-1.5l-0.4-1.3l-0.2-0.5l-0.5-1l-1.1-1.9l-0.5-1.3l-0.2-0.5l-0.2-0.6l-0.6-1l-0.2-0.7l0.2-0.8l0.6-1.1v-0.7
		v-0.3l-0.3-1.1l-0.2-0.7l0,0l-0.5-0.7l-0.2-0.5l0.5-0.6l0.3-0.3l0.3-0.8V147l0.3-0.7l0.7-1.7l0.1-0.8l-0.1-1.1l0.1-0.5l0.1-0.7
		l-0.4-1.1v-0.7l0.8-0.5l0.7-0.3l0.1-0.5l0.1-0.6l-0.1-1.3h0.8l0.4-0.9l0.8,0.3l0.7-0.6l0.2-1.1l0.6-0.6l0.4-1.1l0.7-0.6l0.2,0.4
		l-0.1,1.9l0.1,0.2l0.4,0.7l0.4-0.3l0.4-0.4l0.5-0.5v-0.8l-0.3-1.1v-0.4v-0.9l0.7-0.7l0.9-0.7l1-0.1l0.4-0.1l0.9-0.3l0.4-0.5
		l-0.7-0.2h-0.6L459,127l-0.2-0.6l0.5-1l0.8-0.8l-0.5-1l1.4-0.1l0.9-0.6l0.4,0.1h0.1l1.7,0.9l1,0.5l0.4-0.3h0.8l1.2,0.4h0.2l0.8,0.8
		l0.4,0.8h1h0.9l0.8,0.6l1.5,0.4l1,0.5l1.1-0.2l1.2,1l-0.1,0.7l0.2,0.3l0.8,0.8l0.7,1.5l-0.8-0.1l-0.6-0.3l-0.4,0.3l0.2,0.7l0.1,0.8
		l0.9,0.6h0.3l0.1,0.3l0.4,1.4l0.3,0.9l-0.2,1.2l0.2,1.4v0.4l0.1,2.2L478,142l-0.3,0.6l-0.8,0.2l-0.2,1.4v0.1v1.4l-0.9,0.4v0.7
		l-0.9,0.2l-0.8,0.4l-0.2,0.8l-0.1,0.2v1.6l-0.1,0.6l0.5,0.8l0.9-0.1l1,0.6l0.4,0.3l0.2,0.1l1.3-2l0.1-0.2v-0.2l0.2-0.7l0.3-1.3
		l0.2-0.5l1.2-0.4l0.1-0.5l1.2-0.4l0.8-0.4l0.2-0.4l0.9-0.5l1.4,0.5l1,0.9l1,1.5l0.4,1.2l0.2,0.7l0.3,1.5l0.9,2.1l0.6,2.7l0.3,0.8
		l0.3,0.9l0.9,1.2v0.8l-0.3,1l0.3,1.7l-0.2,1.8l-0.6,1.3l-0.9,0.6l-0.5-1.3l0.6-0.7l-0.7-0.1l-0.9,0.8l0.4,0.4l0.2,0.5l-1,0.5l0,0
		v0.1v0.9v0.3l0,0l-0.4,1.5l-0.2,0.1l-0.4,0.2l-1,0.7v0.1l-0.1,0.8l-0.1,0.8l0.2,1.2l-0.5,0.6l-0.1,0.3l-0.1,0.7l-0.4,0.8l-0.6,0.3
		l-0.1,0.6l-0.5,0.5l-0.4,0.7l0.3,0.9l-0.3,0.2l-1.4,0.2l-1.8,0.3l0,0l-1.2,0.2l-2.6,0.4l-2.3,0.4l-0.4,0.1l-0.4,0.1l-3.8,0.6
		l-0.1-0.9H468l-3.8,0.4h-0.4l-0.6,0.1l-3.8,0.4l-1.4,0.1l0,0l-2.8,0.3l-1.7,0.2l0,0l-2.8,0.3h-0.2l-1.2,0.1l0,0l-1.9,0.2
		L448.2,180.2"/>
	<path vector-effect="none" class="st1" d="M405.8,117l0.8-0.6l0.9-0.3l1.8-0.7l1.2-1.1l0.3-0.4l0.5-0.6l1-0.4h0.8l0.7-0.1l0.7-0.2
		l0.8-0.1l1.7-1.1l0.7-1.1l1.1-0.3l0.7-0.2l0.2-0.4l0.1-0.1l0.3-0.8l0.7-0.6l1-1l1.1-0.6l0.6-0.7l0.1-0.1l0.7-1.1l1.2-0.8l0.6-0.4
		l1.2-0.4l1.5-0.3h1.2l1.2,0.1l0.9,0.4l-0.1,0.5l-1.9,0.1l-1.3,0.1v0.8l-0.7,0.5l-0.7,0.7l-0.9,0.8v0.1l-0.3,0.9l-0.9,0.9l-0.3,1.1
		l-0.4,0.9l-0.1,0.3l-0.1,1l1-0.4l1.2-0.9l0.9-0.6l0.8,0.6h0.2h1.4l1.2,0.4l0.9,0.4l1,0.7l0.3,0.8l0.8,1l1.3,0.8l0.2,1h1.9l0.6-0.2
		l1.3-0.4l0.8,0.8l0.9,0.1l0.5-0.5l0.4-1.1l0.7,0.2l0.7,0.6l0.9-1l2.5-1.7l0.4-0.3l1.4-0.2l1.2-0.3l0.2-0.1l3.5-0.3l2-1.3l0.2-0.1
		l0.6-0.2l2-0.4l-0.5,1.4l0.2,1.7l0.7,1l1.2,0.1l1.6-0.6l0.7,0.3l1.1,0.1l0.3-0.4l0.3-0.5h1.2l0.9-0.8l0.8,0.2v0.7v1.4l0.6,1.6
		l-0.1,0.2v0.9l0.9,0.5l0.6,0.6l1,0.4l0.5-1h0.9h1.2l1.3,1.1l-0.3,1.1l-0.5,0.1l-0.8-0.3l-1.4,0.3l-1.1-0.3L468,119l-0.3,0.1
		l-1.3,0.3l-1.1,0.5L464,120l-0.8,0.5h-0.6l-0.9,0.7l0.4,0.8h-0.9l-1.3-0.9l-1-0.9l-1.5-0.5l-1.1-0.1l-1.1-0.1l-1.5,0.2l-0.9,1.4
		l-0.4,0.4l-1.1-0.2l-0.5,0.5l-0.4,0.4l-1.6-0.5l-2,0.5l-0.5,1.6l-0.8,1.1l-0.2,0.2l-0.7,0.7l-0.6,1.3l-0.1,1.1l-0.8-0.9v-1.1
		l0.5-0.6l-1.3-1l-0.5,1.3l-1.2,0.8l-1.1-0.5l-0.9,0.9l-0.7,1.6l-0.3,0.7l-0.5,1.4l-1,2l-0.7,1.2l-0.3,1.4l-0.6-0.1l-0.5-0.6
		l-0.5-0.6l0.2-0.7l0.3-1v-0.7l-0.5-0.2L433,132l-0.5,0.1l-0.6,0.1v-0.6v-0.7l0.4-0.4v-0.7l0.1-0.7l0.1-0.5L432,128l0.4-0.3
		l-0.3-0.4l-0.3-0.2l-0.5-0.4l-0.9-0.1l-0.3-0.4l-0.5,0.2h-0.1l-0.5-0.2l-0.3-0.3l0.5-0.8l-0.5-0.6l0,0l-0.6-0.3l-0.7-0.2l-0.6,0.1
		l-0.7-0.4l-0.3,0.2l-1.2-0.5l-0.6,0.1l-0.2,0.4l-0.4,0.1l-0.2-0.3l0,0l-0.6-0.1l-0.7,0.1l-1.2-0.6l-0.6-0.3l-1-0.5l-5.4-1.1
		l-2.9-0.6l-1.9-0.4l-0.4-1.1l-0.6-1.1l-0.7-0.2l-0.5-0.5l-0.5,0.3L405.8,117"/>
	<path vector-effect="none" class="st1" d="M416,97.6l0.4-0.4l1.5-0.9l0.7-0.4l0.4-0.2l0.7-0.4l0.8-0.7l0.9-0.7l0.8-0.4l1.1-0.6v0.6
		l-1.1,1l-0.2,0.9l-1.3,0.7l-1.2,0.5l-0.4,0.9l-1.3,0.7l-1,0.5l-0.4-0.3l-0.5-0.3L416,97.6"/>
	<path vector-effect="none" class="st1" d="M452.5,124.7l0.5-0.2l1.1-1.3h1.6l-0.1,0.7l-1,2.5l-0.5,0.4l-0.6-0.1l-0.9-1.5
		L452.5,124.7"/>
	<path vector-effect="none" class="st1" d="M462.8,121.3l1.1,0.8l1,0.3l0.7,0.3l-0.3,0.7l-0.9,0.1l-1.1-0.9l-0.7-0.7L462.8,121.3"/>
	<path vector-effect="none" class="st1" d="M449.3,134.8l0.8-1.7l0.6,0.1l0.4,0.4l-0.1,0.8l-0.9,1.1l-0.7-0.1L449.3,134.8"/>
</g>
<g transform="matrix(0.999751,0,0,0.999751,-54.8748,-49.3873)">
	<path vector-effect="none" class="st0" d="M404.1,332.5l0.7,0.1l0.6-0.5l-0.4-0.6v-0.7l0.2-0.7l-0.1-0.8l0.3-0.5l0.6-0.2l-0.3-0.6
		l-0.1-0.5l0.8-0.4l0.1-1.2l0,0l0.7-0.2l0,0l-0.5-0.7l0.1-0.6l0.7,0.1l0.5-0.5l0.1-0.1l0.6-0.6v-0.8l0.7-0.2l0.4-0.5v-0.4l0.5-0.7
		l-0.1-0.1l-0.9-1.4l1.4-0.2l0.5-1l0.3-0.8l-0.8-0.1l0.2-1l-1-0.1l-0.1-1l0.6-0.1l-0.5-0.8l0,0l-0.1-0.1l-0.3-0.3l-0.3-1.2l0.5-0.6
		l-0.7-0.2l-0.5-0.5l-0.1-0.5l0.3-0.5l0.8-0.6l-0.1-0.7l-0.8-0.6l-0.4-0.3l0.1-0.1l0.4-0.6l-0.7-0.6l0.3-0.5h0.6l0.2-0.7l0.1-0.7
		l-0.2-0.6l-0.5-0.1l-0.2-1l0.3-0.6l-0.4-0.5l-0.3-0.5l-0.2-0.4l-0.3-0.5l0.1-0.3l0.2-0.4l0.6-0.5l-0.6-0.5l0.9-0.2l0.3-0.8
		l-0.8-0.4l0.3-0.4h0.3l0.7,0.1v-0.6l-0.3-0.2l-0.1-0.7l0.4-0.4l-0.1-0.5l-0.6-0.2l0.4-0.4l0.5,0.1l0.3-0.3l0.4-0.3l0.6-0.2l0.2-0.6
		l-0.3-0.3l-0.5-0.2v-0.1l0,0v-0.4l0.5-0.2l0.1-0.3l-0.2-0.6l0.6-0.2l0.3-0.6l0.7-0.2l-0.2-0.7l0.4-0.3l0.8,0.4l0.2-0.7l0.7-0.5
		l-0.1-0.6l0.1-0.9l0.2-0.6l-0.5-0.6l0.1-0.3l0.2-0.4v-0.5l0.4-0.9l0.3-0.4l0.1-0.7h0.6h0.1l1-0.6l0,0l0.7-0.5v-0.4l-0.8-0.8
		l5.8-0.3h0.4h0.4l0.9-0.1l2.4-0.2l0.9-0.1l1.8-0.1l2-0.1h0.1l2.2-0.2h0.4l3.6-0.3l1-0.1h0.2l1.2-0.1l0.7-0.1l0.6,1l0.7,0.4
		l-0.1,3.8v0.6v1.7v2l-0.1,3.3v0.4l-0.1,4.4v0.7v2.3l-0.1,3.5v1.5v2.7v0.9l-0.1,3.1v1.9l-0.1,3.8v0.8v0.3l-0.1,2.5v1.7v0.5l0.1,1.4
		l0.2,1.3l0.1,1.1l0.3,2.6v0.2l0.5,4.3l0.2,1.6l0.5,3.6v0.1l0.3,2.6l0.3,2.4l-0.2,0.4h-0.4l-0.3,0.4l-0.6-0.2l-0.7,0.2l-0.4-0.3
		l-0.6-0.1l-0.4,0.3h-0.6l-0.7-0.1h-0.2l-0.9-0.4l-0.9,0.1l-1.3,0.4l-1.2,0.6l-1.3,0.4l-0.1,0.1l-0.4,0.2l-0.9,0.7l-0.2,0.6
		l-0.3,0.2l-0.6,0.2l-1-0.4l-0.4-1.2l-0.6-1.4l-0.3-0.5L428,343l-1-1l-0.4-1.3l-0.1-0.3l-0.2-0.8l0.4-1.3l0.4-1.3l0.2-1.3l0,0
		l-1.3,0.1h-0.7l-4.3,0.3l-1,0.1l0,0l-2.4,0.1h-0.2l-2.3,0.1h-0.8l-2.8,0.2l-1.4,0.1h-0.6l-4.9,0.2l0.1-0.1l0.8-0.7l-0.4-0.6
		l-0.4-0.6l0.3-0.8l0,0l-0.7-0.5L404.1,332.5"/>
</g>
<g transform="matrix(0.999751,0,0,0.999751,-54.8748,-49.3873)">
	<path vector-effect="none" class="st1" d="M267.5,191.5l0.2-2.3l0.1-1.6l0,0l0.2-2.4l0.1-0.7l0.1-1.2l0.2-2.6l0.1-1.6v-0.2l0.3-3.3
		l0.3-3.5l0.1-1.6v-0.3l0.4-5.2l5.6,0.5h0.3l4.8,0.4l2.1,0.2l3.9,0.3l3.3,0.2l0,0l8.7,0.5l2.3,0.1l8.2,0.4l0,0l3.6,0.1l3.2,0.1
		l2.8,0.1l4.1,0.1l3.6,0.1l0.2,0.5l0.4,0.5l0.5,0.2l0.8,0.5l0.3,0.2l0.5,0.2l0.8,0.3l0,0l0.4,0.5l0.7,0.6l0.9-0.1l0.5-0.4l0.3-0.8
		l0.2-0.2l0.6,0.1l1,0.2l0.7-0.1l0.4-0.1h0.9l0.3,0.1l0.3,0.1l0.4-0.3l0.8,0.2l0.4-0.1l0.7,0.2l0.2,0.5l0.5,0.4l0.3,0.3l1.1,0.1
		l0.1,0.1l0.5,0.5l0.6-0.1l1,0.5h0.1l0.2,0.5l0.8,0.1l-0.1,0.8l0.5,0.5l0.3,0.6l0.2,0.3l0.9-0.1l0.2,0.4l0.6-0.1l0.7,0.4l-0.3,0.7v1
		l0.6,0.8l0.2,0.2v0.6v0.1l-0.1,0.7l0.8,0.8v0.9l0.5,0.3l0.9,0.7l-0.3,0.9l0.3,0.6l0.2,0.4l0.4,0.7l-0.2,1l-0.2,0.6v0.1l-0.1,0.8
		l0.3,0.7l0.1,0.5l0.8-0.2l0.1,0.5l0.1,0.5l0.6,0.2l-0.1,0.9v0.3v0.7l0.4,0.6l-0.2,0.6v0.7v0.1h0.6l-0.1,0.4L353,195l0.1,0.6v0.4
		v0.5l0.4,0.6l-0.1,0.7l0.2,0.4l0.1,0.2l-0.3,0.6l0.1,0.9l0,0l-0.6,0.7l0.4,0.8l0.7,0.4l0.4,0.7l-0.2,0.3l0.1,0.8h0.5v0.1l0.2,0.4
		l0.1,0.4l0.4,0.9l0.1,0.4l-0.1,0.6l0.6,0.2l0.5,0.3l0.1,0.4l0,0v0.1l0.8,0.3l-0.1,0.7l0.5,0.7l0.4,0.5l-0.2,0.5l0.3,0.6h0.4
		l0.4,0.4h-0.3h-4.7l0,0h-2.4h-0.1h-1.4h-0.9l0,0H347h-0.1h-3.6h-0.7h-0.5h-1l-3.8-0.1h-0.5l-3.8-0.1h-0.5h-1.2h-1.5h-2.1l-2.5-0.1
		H324h-1.2l-3.6-0.1H319h-1l-3.4-0.1h-1.3l0,0l-2-0.1l-3.9-0.2h-0.2l0,0l-3-0.1l-2.8-0.1h-0.2l-3.2-0.2l-2.5-0.1h-0.3l-0.9-0.1
		l-1.4-0.1l-3.1-0.2l-2.3-0.1l0.3-4.7v-0.2l0.1-1.3l0.2-3.6v-0.7l0,0l0.2-3.6l0,0l-5.3-0.3h-0.7H282l-4.4-0.3l-3.2-0.2l-2-0.2l0,0
		l-5-0.4L267.5,191.5"/>
</g>
<g transform="matrix(0.999751,0,0,0.999751,-54.8748,-49.3873)">
	<path vector-effect="none" class="st0" d="M96.6,188l0.5-1.7l0.3-1.3l0.7-2.5l0.8-3.2l0.6-2.3l0.7-2.7l1.4-5.5l0.5-2l1.1-4.3
		l1.5-5.9l0.9-3.5l0.4-1.6l2.7,0.7l3.7,1l0.4,0.1l1.2,0.3l2.1,0.5l2.3,0.6l2.8,0.6l3.1,0.7l0,0l3.3,0.8l2.5,0.6l2.2,0.5l2.1,0.5
		l1.7,0.4h0.1l4,0.9l3,0.7l4.7,1l2.5,0.5l3.2,0.7l2.8,0.5l1.4,0.3l3,0.7l3.2,0.6l0,0l2.4,0.5l-0.6,3.3l-0.7,3.6l-0.8,3.9l-0.6,2.9
		l0,0l-0.7,3.8l-0.6,3.2l-0.3,1.3l-0.8,3.9l-0.1,0.3l-0.5,2.7l-0.3,1.5l-0.7,3.5l-0.1,0.6l-1.3,6.8l-0.3,1.8l-0.5,2.8l-0.3,1.4l0,0
		l-0.4,2.3l-0.4,2.1l-0.3,1.4l0,0l-0.7,3.7l-0.4,1.9l-0.4,2l0,0l-0.3,1.6l-0.5,2.9l-0.5,2.7l-0.2,1.2l-0.4,2.2l-0.6,3.3l-0.7,3.9
		l-0.2,0.8l-0.2,1l-0.8,0.9l-0.6,0.9l-0.2,0.4h-0.7l-0.6-0.4l-0.4-0.5l-0.1-0.7l-0.3-0.6l-0.5-0.1l-0.4,0.2l-0.4-0.1l-0.2-0.4
		l-0.7-0.1h-0.6l-0.5,0.2h-0.8l-0.2,0.4v0.1l-0.1,0.8l-0.1,0.9l0.2,0.7l0.2,0.6l-0.5,0.6l-0.2,1.1l-0.1,1.2l0.3,0.6l-0.3,1.2l-0.2,1
		l0.3,0.6v2.1l-0.2,1.7L142,259l-0.2-0.1l-0.2,0.7l-0.3,0.9l-1.5-2.3l-2.1-3.2l-1-1.5l-1.3-1.9l-0.9-1.3l-2.1-3.2l0,0l-1.7-2.6
		l-0.4-0.6l-1.7-2.6l-2.4-3.7l-1-1.5l-4.4-6.6l-1.4-2.1l-0.7-1l-3.7-5.5l-1.3-1.9l-1.6-2.4l-3.4-5.1l-0.6-0.9l-3.7-5.5l-1.7-2.5
		l-1-1.5l-0.4-0.6l-2.1-3.1l0,0l-2.6-3.8l-0.8-1.2l0.2-0.9l0.2-0.6l0.2-0.7l0.4-1.7L96.6,188"/>
</g>
<g transform="matrix(0.999751,0,0,0.999751,-54.8748,-49.3873)">
	<path vector-effect="none" class="st1" d="M589,141l0.1-0.5l-0.2-0.8l0.3-0.3l0.3-0.6l-0.1-0.2l-0.2-0.3l0.1-0.6l-0.4-0.9v-0.1
		l0.1-0.7v-0.3v-0.4v-0.8l-0.1-0.2l-0.2-0.3l-0.1-0.9l0,0l-0.1-0.9l-0.3-1.1l0.3-0.5l0,0l0.1-1.6l0.5-0.7l0.1-0.2l0.2-0.5l-0.1-0.9
		l0.4-1.2l-0.3-0.6l0.2-0.6l0,0v-0.1l0.1-1l-0.4-0.7l-0.2-0.3l-0.1-0.9l-0.1-0.6l0.3-0.6l0.5-0.3l0.7-0.2l0.3-0.2l0.2-0.1l0.2-0.7
		l0.1-0.1l0.6-0.4l0.3-0.8l0.5-0.6l-0.2-0.6l0.3-0.5l-0.2-0.6l-0.5-0.4l-0.7-1l0.3-0.9l0.2-1.1l0.2-0.5l-0.6-0.8l0.2-0.6l-0.2-0.8
		l0.3-0.7l0.1-0.9v-0.4l-0.5-0.5l0.6-0.6l0.6-0.6l0.5,0.4l0.7,0.2l0.4-0.1l0.1-0.6l0.2-0.4l1.4,4.1l1.2,3.5l1,3.2l0.2,0.8l0.4,1.3
		l0.2,0.5l0.1,0.2l0.1,0.3l0.7,2.2l1,3.4l0.2,0.6l0.4,1.2l0.6,1.7l0.2,0.4l0.2,0.4l0.1,0.5l0.1,0.6v0.8l0.8,0.5l0.7,0.6l0.8,0.6v0.5
		l0,0l0.2,0.7l0.1,0.1l0.8,0.4l0.6,0.1l-0.1,0.7l-0.2,0.6l-0.1,0.8v0.5v0.2l-0.5,0.2h-0.7l-0.3,0.3l-0.6,0.3l-0.1,0.4l0.1,0.1
		l-0.5,0.1h-0.3l-0.3,0.4l0.2,0.7l-0.6,0.2h-0.1l0,0l-0.2,0.6l-0.6,0.1l-2.8,0.7l-1.1,0.3l-0.6,0.1l-0.9,0.2l-0.3,0.1l-1.5,0.3
		l-0.4,0.1l-0.8,0.2l-0.8,0.2l-1.3,0.3l-0.4,0.1h-0.1l-0.3-0.4l-0.8-0.4l-0.3-0.7L589,141"/>
</g>
<g transform="matrix(0.999751,0,0,0.999751,-54.8748,-49.3873)">
	<path vector-effect="none" class="st0" d="M568.9,192.6l0.2-0.3l0.1-0.6l0.2-0.5v-0.7l0.4-0.6l0,0l0.2-0.2l0.3-0.4l0.1-0.1l0.5-0.1
		l0.3-0.2l0.4-0.2l0.1-0.1l0.2-0.3l0.4-0.3h0.1l-0.2-0.7l0.1-0.3l0.5-0.5l0,0l0.6-0.8l0.1-0.2l0.4-0.4l0.7-0.3l0.3-0.7l0.6-0.2
		l0.4-0.4l0,0l-0.4-0.4l-0.2-0.2l-0.8-0.4l-0.4-0.4l-0.6-0.4l-0.3-0.3l-0.2-0.2l-0.4-0.5l-0.6,0.1l-0.4-0.1l-0.3-0.5v-0.4l-0.4-0.9
		l-0.7-0.2l-0.5,0.2l-0.1-0.3l-0.1-0.2l-0.1-0.4l-0.1-0.5l-0.1-0.5v-0.7l0.6-0.5l0,0V175l0.1-0.6l-0.5-0.5l-0.4-0.5l-0.1-0.2
		l0.5-0.7l0.4-0.7l0.1-0.5l0.1-0.2V171l0.6-0.8l0.2-1.1l0.3-1.1l0.4-0.7l0.6-0.4l2.8,0.9l1.1,0.4l0.8,0.3l0.8,0.2l0,0l0.3,0.1l2,0.6
		l1.7,0.5l0,0v0.7v0.5v0.1v0.5v0.1v0.3l-0.1,0.5v0.1v0.1l-0.1,0.3l-0.2,0.6v0.3v0.1v0.2v0.3v0.2l0,0l-0.1,0.3v0.1l-0.1,0.3l-0.7,0.3
		h-0.1l-0.3,0.3l0,0l0.1,0.5v0.5l-0.3,0.3v0.6l0.1,0.5l0.4,0.1l0.2,0.1l0.5-0.2l0.5-0.1l0.7,0.2l0.1-0.8l0.2-0.1l0.4,0.9l0.3,0.8
		l0.1,1v0.9v1.4v0.3l0.1,1.8l0.1,1l0.2,1.6v0.5v0.1l-0.5,2l-0.7,1.8l0,0v0.5l-0.4,1.1l-0.3,0.7l-1,0.9l-0.2,0.2l-0.3,0.5l-0.5,1
		l-0.2,0.5l-0.3,0.9l0.1,0.2l-0.5,1.3l-0.2,0.6l-0.5,0.8l-0.7,0.3H577l-0.1-1l0.3-1.3v-0.8l-0.3-0.4h0.1h-0.9l-0.6-0.2l-0.4,0.2
		l-0.4,0.5l-0.4-0.5l-0.6-0.4l-0.4-0.2h-0.4l-0.6-0.5l-0.3-0.1l-0.6-0.3l-0.2-0.1l-0.3-0.1l-0.3-0.4l-0.8-0.1v-0.5l-0.1-0.5V194
		l-0.4-0.2L568.9,192.6"/>
</g>
<g transform="matrix(0.999751,0,0,0.999751,-54.8748,-49.3873)">
	<path vector-effect="none" class="st1" d="M197.5,315.6l0.6-4l0.7-4.8l0,0l0.7-4.9l0,0l0.8-6l0,0l0.4-2.8l0.7-5.1l0.2-1.3l1.2-9
		l0.1-0.8l0.7-5.3l0,0l0.4-3l0.4-2.6l0.5-3.5l0.5-3.7l0.2-1.7l0.2-1.6l1.5-10.6l0.2-1.7l4.7,0.6l2.6,0.3l4.2,0.5l5.7,0.7l0.7,0.1
		l0,0l6,0.7l0.1,0.1l4.3,0.5l1.5,0.2l3.7,0.4h0.1l3.1,0.3l0,0l2,0.2l1.3,0.1l1.9,0.2h0.3l0.7,0.1h0.4l4.3,0.4l4.3,0.4l3.7,0.3l3,0.2
		l7.2,0.5l0.9,0.1l-0.1,1.3l-0.2,3.3l-0.1,1l-0.1,1.4h-0.4l-0.5,6.3l-0.3,4.4l-0.1,1.6l0,0l-0.5,6.2v0.5l-0.2,2.7l-0.2,2.9l-0.1,1.8
		L271,287l-0.1,0.9v0.1l-0.2,2.7v0.5l-0.3,3.6l0,0l-0.3,3.6l0,0l-0.2,2.5l-0.2,2.4l-0.3,3.6l-0.1,1.5l-0.3,3.7l-0.1,0.9l-0.4,5.3
		l-0.1,0.8l-0.1,1.2l-3.1-0.2l-4.7-0.4l-3-0.2H257l-7.3-0.6l-2.4-0.2l-0.8-0.1l-2.8-0.3l-7-0.7l-2.9-0.3l-2.4-0.3l-2.1-0.2l-2.8-0.3
		l-0.2,0.4v0.8l-0.2,0.6l0.5,0.9l0.6,0.5l0,0l-5.4-0.6l-3.6-0.4l-1.5-0.2l-9.3-1.2l-0.5,3.9l-0.3,2.3l-5.9-0.8l-1.8-0.2l-2.2-0.3
		L197.5,315.6"/>
</g>
<g transform="matrix(0.999751,0,0,0.999751,-54.8748,-49.3873)">
	<path vector-effect="none" class="st0" d="M484.5,270.2v-0.3l0.6-0.7l0.6,0.3l0.9-0.2l0.7-0.7l0.1-0.1l-0.3-0.7l0.3-0.4l-0.2-0.5
		l0.5-0.7l0.2-0.1h0.1l0.4-0.2l0.7-0.7l0.8-0.7l1.2-0.2h0.1l0.7-0.1l1-0.1l0.4-0.6l0.3-0.2l0.7-0.8h0.6l0.3-0.7l0.1-0.2l0,0l0.6-0.2
		l0.3-0.6l0.7-0.3l0.5-0.2h0.8l0.1-0.2l0.3-0.5l0.3-0.7l-0.2-0.7l0.2-0.1l0.3-0.2l0.5,0.3l0.3-0.4v-0.6l0.6-0.4l1-0.8l0.3,0.3
		l0.1,0.1l-0.1,0.7l0.6,0.2l0.5-0.5l0.4-0.4l0.4-1l0.1-0.2l0.6-0.5l0.5-0.3h0.4l0.4-0.4l0.1-0.1l0.8,0.2l0.2,0.4l0.5-0.1l0,0
		l0.5-0.3l0.5-1.6l0.2-0.6l0.1-0.3l0.1-0.2l0.7-0.8h0.7l0.7-0.1l-0.3-0.7l-0.1-0.3l0.3-0.8l-0.2-1l0.1-0.8l2-0.2l1.6-0.2l2-0.2
		l1.3-0.1l1.8-0.2l0,0l0.7-0.1l1.5-0.2l1-0.1l1.9-0.2h0.1l1.5-0.2l2.7-0.4h0.3l0,0l1.5-0.2l1.9-0.3l2.2-0.4l0,0l0.4-0.1l1.4-0.3
		l1.4-0.2l0.9-0.2l2.2-0.4l1.6-0.3l0.7-0.1l2.5-0.4l0.6-0.1l1.5-0.3l2.1-0.4l1-0.2l1.6-0.3l1.5-0.3h0.2l4.9-1l1.2-0.2l0.3-0.1
		l2.7-0.5l0,0l0,0l1.9-0.5l2.1-0.4l0.5-0.1l1.9-0.4l0,0l2.1-0.4l1-0.2l1.7-0.4l0.7,1.5l0.9,1.9l0.5,0.7l0.9,1.5l0.9,1.1l1.4,2
		l0.8,1.2l0.4,0.5l0.8,1.7l0.3,2.9v2.4l-1.1,0.3l-1.2,0.8l-0.1,0.1l-1.5,1.2l-0.9,1l-1.2,1.3l-0.8,1.4l-0.7,0.9l-0.7,1.1l-0.5,1.1
		l-0.6,1.9l-0.3-0.5l-0.9-0.5l-1.3-0.1l-2,0.6l-2.2,1.1l-0.3,0.1l-1,0.9l-0.8,0.9L563,268l-0.5,0.6l-1.1,1.3l-0.7,1.1l-0.5,0.7
		l-0.5,1.3l-0.3,1.8l-0.2,1l-0.1,0.7l-0.1,1h-0.5l-0.2-0.4l-1.4-0.1l-1.6,0.3l-1.2,0.4l-1.7,1l-1-0.7l-0.5-0.3l-2.2-1.5l-3.5-2.5
		l0,0l0,0l-3.8-2.8l-1.2-0.9l-0.2-0.1l-2.8-2H537l-2.6,0.4l0,0l-1.7,0.3l-2.8,0.4l-2.7,0.4l0,0l-2.7,0.3l-0.1-1.6l-0.8-0.8l-0.9-0.9
		l0,0l-0.4-0.4l-1.1,1.1l-0.2-0.4l0.1-0.7l-0.1-0.3l0,0l-3.2,0.3h-0.4l-1.4,0.1l-3.1,0.3l-1.2,0.1l-1.1,0.1l-0.8,0.1h-0.1l-1.9,0.2
		l-0.9,0.1h-0.7h-0.7l-0.4,0.4l-0.8,0.4l-0.5,0.2l-1.2,0.5l-0.6,0.7h-0.2h-0.2l-1.2,0.6l-1.2,0.6l-1.1,0.5l0,0l-2.4,0.4L494,272
		l-0.7,0.1l-0.8,0.1l-3.6,0.4l0,0l-0.8,0.1l-1.4,0.2l-2.2,0.3V270.2"/>
</g>
<g transform="matrix(0.999751,0,0,0.999751,-54.8748,-49.3873)">
	<path vector-effect="none" class="st3" d="M276.9,81.6l6.3,0.5l4.1,0.3l0.8,0.1l5.9,0.4l1.8,0.1l3.7,0.2l1.2,0.1l3.5,0.2l6.5,0.3
		l2.3,0.1l2.5,0.1l3.6,0.1h1.4l3.5,0.1h1.2l8.6,0.2h1.6l5.1,0.1v0.8l0.4,1.1l0.3,1.3l0.3,0.8l0.2,0.6l-0.4,1.2l-0.1,0.6l0,0V91
		l0.1,1.4v1.2l0.1,1.2l-0.1,0.9V96v0.1l0.4,1.1l0.3,0.9l0.3,1.3l0.4,1.2l0.6,1.4l0.3,1l0.1,0.3l0.3,1.1v1v0.8l0.1,2.3v0.5l0.1,1.2
		l0.1,1l-0.1,1l0.7,1.4l-0.3,1.9v1.2v0.8l0,0v0.1l0.4,0.9l0.3,1.8l0.6,1.1l0.4,0.5v1.4l0.4,1.9l-0.2,0.9v0.1l0.1,1.1l-5.1-0.1h-1.4
		H337h-2.3h-2h-0.3h-0.6l-3.4-0.1l-2.1-0.1h-1l-2.7-0.1l0,0h-0.9l-2.5-0.1l-1.4-0.1l-1.2-0.1h-1l0,0l-1.6-0.1l0,0l-2.7-0.1l-1.4-0.1
		l-2-0.1h-0.1l0,0l-2.4-0.1l-3.4-0.2l-2.5-0.1l-1.9-0.1l-2.3-0.1l-2-0.1l0,0l-0.8-0.1l-2.3-0.2L288,125l-1.5-0.1l-1.7-0.1h-0.6h-0.5
		l-2.2-0.2l-2.1-0.2l-2.2-0.2l-3.7-0.3l0.4-4.7l0.1-0.6l0.2-2.6v-0.4l0.1-1.4l0.1-1l0.3-3.1l0.2-2.7l0.2-2.8l0,0l0.1-0.9l0.3-2.9
		l0.2-2.8l0.2-2.3v-0.3l0,0l0.3-3.4l0.2-2l0.1-1.4l0.2-1.9l0.2-2.9V81.6"/>
</g>
<g transform="matrix(0.999751,0,0,0.999751,-54.8748,-49.3873)">
	<path vector-effect="none" class="st1" d="M601.4,160.3l0.1-0.5l-0.2-0.8l0.4-0.2l-0.4-1.8l-0.2-0.7l0,0l-0.2-0.6l-0.3-1.2l0,0
		l-0.3-1.1l-0.8-2.7l1.9-0.6h0.1l0.3-0.1l0.6-0.2l0.4-0.1l0.8-0.2l0.1,0.5l0.1,0.4l0.2,0.8l0.4-0.1l0.2,0.8l0.3,0.6h0.1l0.7,0.2
		l0.8,0.7l0.1,0.1l0.1,0.1h0.7l0.2,0.8l0.6,1.4L608,156l-0.4,0.5l-0.2-0.1l-0.3-0.1H607h-0.4l-0.1,0.6l-0.4,0.1h-0.4l-0.3,0.1
		l-0.1,0.1l-0.1,0.7l-0.2,0.6l-0.7,0.2l-0.7,0.4l-0.7,0.5l-0.3,0.1l-0.5,0.3L601.4,160.3L601.4,160.3"/>
	<path vector-effect="none" class="st1" d="M604.2,161.8l0.1-1.1l0.5-0.2l0.3,0.8l0.3,0.4l-0.7,0.2L604.2,161.8"/>
	<path vector-effect="none" class="st1" d="M471.8,214.6l-0.1-1.1l0,0l-0.1-1.2l-0.2-1.8l-0.1-0.6l-0.2-2.2l0,0l-0.3-2.7l-0.1-1.2
		l-0.2-1.4l-0.3-2.8l-0.1-0.6l0,0l-0.2-1.6l-0.1-0.5l-0.1-1l-0.3-2.2l0,0l-0.3-2.7l-0.1-0.9l-0.2-1.8l-0.2-1.8v-0.3l-0.2-1.9v-0.2
		l-0.2-1.5l-0.3-2.3l3.8-0.6l0.4-0.1l0.4-0.1l2.3-0.4l2.6-0.4l1.2-0.2l0,0l1.8-0.3l1.4-0.2l0.5,0.5l0.8-0.3l1.1,0.7l0.7,0.2l1.1,0.3
		l0.5,0.5l1,0.4l0.7-1l0.2-0.2l1.3,0.5l0.4,0.6v0.1l0.9,0.8l0.9,0.4h0.8l0.9-0.7h0.1l0.8-0.2l0.8-0.7l1.1-0.5l0.8-0.4l0.3,0.1h0.1
		l0.2,0.1l1.2-0.2h0.1h0.4h0.3l1-0.9l1.3-1.5l0.2-0.2l0.7-0.9l0.9-0.9l1-0.5l1.2-0.9l0.5-0.2l1-0.4l0.9-0.7l2.1-1l0.6-0.4l0.3,1.8
		l0.4,2.5l0.4,2.4v0.1l0.4,2.2l0.2,1.4l0.2,1.4v0.1l0.3,1.9l0.2,1.1v0.1l0,0l0.1,0.7l0.5,3l-0.6,0.4h-0.5l-0.3,0.6l0.6,0.8l0.3,1
		l-0.1,0.8v0.1l0.4,1.1l-0.3,0.8l-0.3,1l-0.1,0.4v0.1l-0.2,1l0.1,0.7l0.1,0.9l-0.2,0.3l-0.3,0.5l-0.1,1l0,0l0.1,0.6l-0.4,0.6
		l0.5,0.6l0.1,0.1l-0.3,0.7l-0.7,0.9l-0.8,1.1l-0.3,0.5l-0.4,0.8l-0.1,0.1l-0.6,0.4l-0.6,0.7l-1,0.8H508h-0.3l-0.3-0.6l-0.5-0.1
		l-0.4,0.6l-0.5,0.7l0.1,0.8l-0.5,0.1l-0.7,0.1l-0.2,0.8l-0.1,0.1l-0.3,0.4v0.1l0.3,1h-0.1l-0.6,0.4l0.2,0.6l0.3,0.8l-0.5,0.6
		l-0.7,0.3l-0.6-0.8l-0.8-0.4l-0.3,0.2l-0.4,0.7l-0.1,0.2l-0.3,0.8l-0.1,1.2l-0.5,0.4l0.2,0.6l0.4,1.4l0.2,0.7l-0.4,0.3l-0.6,0.1
		l-0.1,0.2l-0.1,0.3v0.9l0.3-0.1l-0.6,0.3l-0.7,0.2l-0.6,0.3l-0.5,0.2l-0.4-0.2l-0.4-0.7l-0.6-0.4l-0.1-0.1l-0.6-0.5h-0.8l-0.1-0.1
		l-0.5-0.4l-0.3-1l-0.1-0.6l-0.2-0.3l-0.1-0.2l-0.6,0.3l-0.7,0.3l-0.2,0.2l-0.1,0.1l-0.7,0.6l-0.1,0.5l-0.4,0.3h-0.7l-0.2,0.3
		l-0.2,0.2L489,221l-0.7-0.5h-0.7l-1.1-0.3l-1,0.4l-0.1,0.5l0,0l-0.3,0.2l-0.3-0.1L484,221l-0.2-0.5l-0.6-0.2L483,220l-0.6-0.2
		l-0.3-0.1l-0.6-0.1l-0.8,0.3l0,0l-0.9-0.1l-0.9-0.1l-0.2-0.3l-0.1-0.2v-0.4v-0.1l-0.7-1l-0.2-0.5l-0.3-0.4l-0.1-0.1l-0.8-0.2
		l-0.4-0.5l-0.2-0.4l-0.2-0.1l-0.2,0.1l-0.1,0.2h-0.1h-0.1l-0.5,0.1l-0.6,0.4l-0.2-0.1l-0.6-0.2l-0.4-0.4l-0.4-0.2l-0.7,0.7
		L471.8,214.6"/>
	<path vector-effect="none" class="st1" d="M487.9,177.5l0.3-0.5l0.5,0.3v0.7l-0.5,0.3L487.9,177.5"/>
</g>
<g transform="matrix(0.999751,0,0,0.999751,-54.8748,-49.3873)">
	<path vector-effect="none" class="st0" d="M273.9,254.8l0.2-3.3l0.1-1.3l1.8,0.1l1.6,0.2l3.8,0.3l3.5,0.2h0.2l1.4,0.1l3.8,0.2h0.8
		l3,0.1l1.6,0.1l1.3,0.1h1l2.5,0.1h0.9l5.1,0.2h1h0.1l3.7,0.2l1.3,0.1h0.9h0.5l3.1,0.1h1.4l2.3,0.1l2.7,0.1l2.1,0.1h0.1l2.6,0.1h0.7
		h2.7h0.4l3.4,0.1h0.9h2.6h0.5h3.9h2.5h0.3h3.1h2.4h0.4h0.4h1.6h2.4h0.6h1.3h0.9h2.8h0.7h0.1h3.1h1.1v3.3v1.4v0.8v1.6l0.4,2.8
		l0.3,1.9l0.1,0.8l0.2,1.6l0.5,3.1v0.1l0.3,1.7l0.3,2l0.2,1.5v0.1v0.2v1.3v3v1.8v0.6v2.3v1.3v1.8v2.1v2.4v2.4v1.1v2.1v2.1l-0.5,0.2
		l-0.5-0.7h-0.7l-1-0.5l-0.2-0.2l-0.4-0.4l-0.9,0.1l-0.7-0.5l-0.4-0.5l-0.5-0.6l-0.8-0.1l-0.6-0.6l-0.6-0.4h-0.1l-0.8-0.3l-0.3,0.5
		l-0.3,0.7l-0.3,0.1l-0.5,0.1h-1.1l-0.9-0.2l-0.4-0.6h-0.5l-0.8,0.3l-0.8,0.1l-0.6,0.3l-0.4,0.2h-0.3H353l-0.6-0.2l-1.5,0.5l-1,0.1
		l-0.2,0.4l-0.7,0.7l-0.6-0.3l-0.3,0.5l-0.7,0.6l-0.2-0.3l-0.3-0.4l-0.4-0.5l-0.8,0.1l-0.2-0.6h-0.6l-0.2-0.2v-0.7h-0.1l-0.8-0.5
		l-0.3,0.6l-0.4,0.6l-0.7-0.2l-0.2-0.4l-0.7,0.3l-0.5-0.8l-0.1-0.6h-0.3h-0.1h-0.1l-0.4,0.4v0.4l-0.8,0.4l-0.3,0.6l-0.1,0.5v0.5
		l-0.7,0.2l-0.6-1.2l0.5-0.5l-0.4-0.9l-0.5,0.2l-0.8,0.5l-0.6,0.6l-0.8-0.1l0.1-0.3l-0.4-0.6l0,0l-0.8,0.3l0,0l-0.4-0.3l-0.1-0.6
		l-0.7-0.3l-1,0.9l-0.5,0.6l-0.7,0.4l-1-0.4v-0.2v-0.5l0.1-0.9l-0.7-0.1l-0.9-0.1l-0.2-0.7v-0.8l-0.3-0.7l-0.2,0.2l-0.4,0.4
		l-0.6-0.2l-1.1-0.3l-0.5-0.2l-0.4,0.4l-0.2,0.6h-0.1l-0.6,0.2l-0.6-0.4l-0.5-0.8l-0.4-0.1l-0.4-0.1l-0.5,0.4h-0.5l-0.8-0.4
		l-0.8-0.1L318,292h-0.1l-0.6-0.1l-0.6,0.1l-0.8-0.1l-0.7-0.1l-0.2-1.4l-0.1-0.2l-0.6-0.9l-0.8-0.7l-0.5-0.1l-0.3,0.9L312,289l0,0
		l-1.3-0.2l-0.2,0.5l-1.1-0.1l-0.8-0.8l-0.6-0.8l-0.3-0.3l-1-1l-0.8,0.2l0,0l0.1-2.6l0.2-4l0.1-2.1l0.1-3.4l0.1-2.8l0.2-3.7l0.1-2.5
		l0.3-6.3l0,0l-3.4-0.2l-2.6-0.1h-0.5l-3.3-0.2h-0.8l-1.5-0.1l-6-0.3l-2.3-0.1l-2.3-0.2l-1.4-0.1l-9.4-0.7l0.1-1.4L273.9,254.8"/>
	<path vector-effect="none" class="st0" d="M513.8,184.8l-0.2-1.1l-0.3-1.9v-0.1l-0.2-1.4l-0.2-1.4l-0.4-2.2v-0.1l-0.4-2.4l-0.4-2.5
		l-0.3-1.8l1.8-1.1l1.6-1.4l0.1-0.5l0.4-0.4h0.7l0,0l0.9-0.8l0.7-0.5l0.8-0.6l0.3,1.9l0.3,1.8l1.5-0.3l1.4-0.2l4.2-0.8l0.8-0.1
		l0.7-0.1l3.3-0.6l2.9-0.5l0.4-0.1l0.7-0.1l1.8-0.3l2-0.4l0.8-0.2l1.4-0.3l6.1-1.2l0.4-0.1l0.4-0.1l3.7-0.8l0,0l0.9-0.2h0.1l3.2-0.7
		l0.4-0.1l2.4-0.5l3.2-0.7l0.7-0.2h0.1l1.2-0.2h0.2l0.6,0.5l0.5,0.8l0.8,0.1l0.5,0.1l0.4,0.1l0.5,0.4l0.4,0.6l0.4,1.5l0.1,0.5
		l0.1,0.4l0.9,0.9l1.1,0.4l1,0.1h0.5h0.2l0.6,0.8l-0.6,0.4l-0.4,0.7l-0.3,1.1L571,170l-0.6,0.8v0.1l-0.1,0.2l-0.1,0.5l-0.4,0.7
		l-0.5,0.7l0.1,0.2l0.4,0.5l0.5,0.5l-0.1,0.6v0.8l0,0l-0.6,0.5v0.7l0.1,0.5l0.1,0.5l0.1,0.4l0.1,0.2l0.1,0.3l0.5-0.2l0.7,0.2
		l0.4,0.9v0.4l0.3,0.5l0.4,0.1l0.6-0.1l0.4,0.5l0.2,0.2l0.3,0.3l0.6,0.4l0.4,0.4l0.8,0.4l0.2,0.2l0.4,0.4l0,0l-0.4,0.4l-0.6,0.2
		l-0.3,0.7l-0.7,0.3l-0.4,0.4l-0.1,0.2l-0.6,0.8l0,0l-0.5,0.5l-0.1,0.3l0.2,0.7h-0.1l-0.4,0.3l-0.2,0.3l-0.1,0.1l-0.4,0.2l-0.3,0.2
		l-0.5,0.1l-0.1,0.1l-0.3,0.4l-0.2,0.2l0,0l-0.8-0.2l-1,0.1l-0.2,0.1l-0.7,0.3l-0.5,0.5l-0.3,0.6l-0.1,0.5h-0.2l-0.2,0.1l-3.4,0.7
		l-1,0.2l0,0h-0.1l-1.9,0.4l-1.6,0.3l-1.5,0.3l-0.7,0.2l-2.1,0.4h-0.1l-2.3,0.5h-0.2l-2.3,0.5h-0.1l0,0l-3.1,0.6l-3.2,0.6h-0.2
		l-2.6,0.5l0,0l-0.4,0.1l-3.6,0.7l-0.9,0.2l-1.3,0.2l-1.2,0.2l-3.6,0.7l-0.9,0.2l-3,0.5l-1.6,0.3l-1.3,0.2l-0.4,0.1l-3.6,0.6l-1,0.2
		l-0.5-3.4l-0.1-0.8l-0.3-2l-0.4-2.5l-0.1-0.8l-0.2-1.1l-0.4-2.2l-0.5-3L513.8,184.8L513.8,184.8L513.8,184.8"/>
	<path vector-effect="none" class="st0" d="M452.5,333.6l-0.1-0.6l0,0l0.9-0.1l1.1-0.1l1.4-0.1l1.8-0.2l0,0l2.8-0.2l1.1-0.1h0.5
		l1.2-0.1l1.5-0.1l2.1-0.2h0.3l2.1-0.2l1.8-0.2l1.7-0.2l1.7-0.2l2-0.2l1-0.1h0.1l1.8-0.2l2.2-0.3l1.4-0.2h0.3v0.3l0.3,0.5l0.7,0.7
		l0.1,0.6l0.3,0.8l0.7,0.8l0,0h0.6l4.1-0.3l1.1-0.1l1.1-0.1l1.9-0.1h0.5l0.9-0.1l2.2-0.2l0.9-0.1l1.6-0.1l1.3-0.1l1.7-0.1h0.6
		l2.1-0.1h0.1l3.1-0.2l2.3-0.2l1.3-0.1l1.5-0.1l0,0h0.5l2.4-0.1v0.6l0.4,0.6v0.7l0.5,0.7h0.4l0.6-0.1l0.5-0.2h0.1l-0.1-0.5l0.1-0.6
		l-0.1-1.2l-0.1-1l-0.5-0.7v-0.5v-0.8l0.4-0.6l0.5-0.7h0.5l0,0l0.5,0.3l0.7-0.1l0.6,0.1l0.4,0.3h0.8l0.4,0.1l0.9,0.1l0.4-0.2h0.3
		l0.8,0.1l0.2,0.1v1.4l0.3,1.1l0.1,0.2l0.1,0.1l0.2,0.2l0.5,1.9l0.4,1.2l1.7,4.5l0.3,0.4l0.2,0.8l0.1,0.5l0.8,1.5l0.8,1.5l1,1.7
		l0.9,1.5l1.3,2l0.9,1l1.9,2.4l0.9,1l1.2,1.4l1,1l1,1.8l-0.7,0.8l-0.1,1.1l0.2,1.1l0.4,1.1l0.8,1.7l1.7,2.4l1.1,1.5l1,1.8l0.3,0.5
		l1.2,2.3l1,1.5l0.8,1.2l0.3,0.8l0.4,0.5l0.7,1.3l0.7,1.4l0.2,0.6l0.1,0.4v0.1l0.2,1.3l0.1,0.4l0.1,0.4l0.1,0.6v0.8v1.2l0.1,1.5v1
		l0.1,2.2v0.1l0.1,1l0.1,0.6l0,0l0.1,0.8l0.1,0.6l0,0l0.2,0.7v0.8l-0.2,1.4l-0.3-0.2L552,394l-0.3,1.1l-0.3,0.7v1v0.1l-0.1,1l0.5,1
		l0.9-0.6l0.5-1.5l0.3,0.9l-0.6,1.7l-0.1,0.2l-1.1,2.6l-1.4,2.4l-1.7,2.1l-3.7,2.8l-1.7,0.8l-0.7-0.5l1.3-1.1l2.3-1.5l2.7-2.6l1-1.4
		l0.1-0.9v-0.6h-0.6l-1.3,0.5l-0.7,0.6l-0.5,0.1l-0.9-0.4l-0.6,0.2l-0.2,0.1l-0.4,0.5l-1.2,0.4l-0.9,0.2l-0.9-0.7l-0.5-0.8l0.1-1.2
		l-0.1-1l-1-1.2l-0.6-1.2l-0.8-0.9l-0.9-0.3l-0.5-0.9l-0.8-0.2l-0.4-0.1l-2-0.8l-0.3,0.3l-0.4,0.3l-0.8-0.6l-0.6-1.2l-1-2l-0.8-2.3
		l0,0l-1.2-1.3l-0.4-0.2l-0.7,0.1l-0.7,0.5l-0.7-0.1l-0.8-0.4l-1.1-1.6l-0.4-1.3l-0.1-0.8l-0.3-0.4l-0.6-0.9l-0.9-1.1l-1.3-1.7
		l-1-1.6l-0.4-0.6l-1.1-1.2l-0.5-0.5l-0.6-0.6l-0.8-1.2h0.3h0.9l0.7-1.1l0.3-0.7l0.4-0.9l0.4-0.3l0.5-0.7l-0.3-0.5l-0.3-0.1h-0.2
		l-0.8-0.2l-0.1,0.2l-0.2,0.3l-0.4,0.6l0.1,0.7l-0.3,0.5l-0.5,1.1l-0.3,0.2l-0.2-0.9l-0.2-0.7l-0.7-0.8l-0.8-0.8l-0.1-1.2v-1.1l0,0
		l-0.4-1.1l-0.2-0.9l0,0l1-1.1l0.2-1.2l0.2-1.4l0.1-0.2l0.2-0.8v-0.8l-0.3-1l-0.1-1l0,0L515,358l-0.2-1.1l-0.3-0.7l0.4-0.8l-0.5-0.6
		l-0.5-0.6l-0.1-0.1l-0.1-0.7l-0.9-0.5l0.3-0.3l-0.4-0.6h-1.2h-0.9l-0.1,0.8H510l-0.4-0.9v-0.7l-0.4-0.2l-0.7-0.2l0,0l-0.2-0.7
		l-0.4-0.6l-0.5-0.5h-0.7l-0.2-0.4l-1.2-0.6l-0.2-1l-0.2-1v-0.1l-0.9-0.3l-0.7-0.3l-0.7-0.8l-0.6-0.9l-0.8-0.8l-1.4-0.6l-1.8-0.6
		l-0.8-0.6l-0.1-0.1h-0.8l-0.2,0.1l-0.6,0.2l-0.6,0.3l-0.4-0.1l-0.9,0.5l-0.8,0.8l0.4,0.6l0,0l0.2,0.5l-0.1,0.4h-0.9l-0.6-0.2
		l-0.8,0.3l-0.5,0.4l0.3,1.1l-0.4,0.4l-1,0.4l-0.9,1.1l-1.1,0.7l-1.9,1.2l-1.4-0.6l-0.9-0.3l-0.4-0.1l-1.1,0.4l-0.8-1.3l-0.3-1.1
		l0.3-1.1h-0.1l-0.5-0.3l-0.8-0.1l-1.1-0.8l-0.4-0.4l-1.2-0.4l-1.5-1l-2.4-1l0,0l-1.1-0.3l-1.6-0.4l-2.2-0.3h-0.2h-2.7l-2,0.4
		l-0.6,0.1l-0.8,0.2l-2.8,0.8l-0.9,0.2l-0.5,0.1h-0.6l-1.2,0.4l-1.2,0.3l0.7-1l0.2-0.8l0.7-0.5l-0.6-0.2l-0.4-0.7l0.1-0.6l0.3-0.8
		l-0.1-0.7l-0.5-0.4l-1-0.5l-0.3-0.4l-1.2-1.3L452.5,333.6"/>
	<path vector-effect="none" class="st0" d="M534.4,413l0.6-1.3l0.9-0.8l1-0.7l0.1-0.3l1.5-1l1.9,0.5l1,1l-1.2,0.7l-0.7,0.3l-0.6-0.2
		l-0.9,0.4l-0.9,0.5l-1.1,0.6l-1.6,0.4V413"/>
	<path vector-effect="none" class="st0" d="M531.9,413.8l0.3-0.6l1.5-0.3l-0.5,1.3l-1.4,0.2L531.9,413.8"/>
	<path vector-effect="none" class="st0" d="M529.6,413.6l0.5-0.7l0.8,0.3l-0.1,0.8l-1,0.2L529.6,413.6"/>
</g>
<g transform="matrix(0.999751,0,0,0.999751,-54.8748,-49.3873)">
	<path vector-effect="none" class="st3" d="M166.3,65.2l5,1.1l2.7,0.6l4.4,0.9l0.4,0.1l2.8,0.5l1.8,0.4l1,0.2l1.5,0.3l2,0.4l2.9,0.5
		l2.4,0.4l8.5,1.5l0.5,0.1l2.7,0.5l3.2,0.6l2.1,0.3l2.4,0.4l2.4,0.4l2,0.3l0.9,0.1l2.5,0.4l6.2,0.9h0.1l2.2,0.3l2.3,0.3l4.2,0.6
		l2.8,0.4l4.9,0.6l2.4,0.3l0.7,0.1l1.7,0.2l5.2,0.6l3.6,0.4l1.1,0.1l0.6,0.1l2.5,0.3l3.9,0.4l0.8,0.1l1.9,0.2l1.7,0.2l3.1,0.3
		l4.6,0.4l-0.2,2.1l-0.2,2.9l-0.2,1.9l-0.1,1.4l-0.2,2l-0.3,3.4l0,0V96l-0.2,2.3l-0.2,2.8L275,104l-0.1,0.9l0,0l-0.2,2.8l-0.2,2.7
		l-0.3,3.1l-0.1,1l-0.1,1.4v0.4l-0.2,2.6l-0.1,0.6l-0.4,4.7l-0.1,0.9v0.2l-0.1,1.6l-0.2,2.7l-0.1,0.9l-0.2,2.2l-0.1,1.7l-0.1,1.2
		l-0.1,1.8h-0.2l-9.5-0.9h-0.1h-0.4l-7.6-0.8l-1.7-0.1l-2.4-0.2l0,0l-6.1-0.7l-4.5-0.6l-5.5-0.7l-0.8-0.1L231,133l-2.5-0.3l-1.2-0.2
		l-4.3-0.6l-0.4-0.1l-4.6-0.6l-2.2-0.3l-1.9-0.3l-3.2-0.4l-3.7-0.5l-0.8-0.3l-2.5-0.4l0,0l-0.4,1.8l-0.3,2l-0.1,0.8l-0.1,0.6
		l-0.3,2.1l-0.7-0.4l-0.1-0.6l-0.5-0.6l-0.1-0.7l-0.3-0.7l-0.4-0.9l-0.5-0.5l-0.1-0.1l-0.6,0.4l-0.2,0.3l-0.2,0.2l-0.7,1.3l-0.5,0.3
		l-0.5-0.1l-0.9-0.2l-1.1,0.5l-0.5-0.8l-1.7,0.1H192l-0.9-0.4l-0.6-0.5l-0.8,0.4l-0.5,1.1l-0.8-0.6l-1.2-0.4l-1-0.3h-0.3l-1.1,0.6
		v0.5h-0.1l-0.6,0.2l-0.6-0.6l-0.4-0.9l0.1-0.6l-0.4-0.9l0.2-0.7l-0.3-1.2l-0.2-0.8l-1-1l-0.6,0.2l-0.6-0.6l-0.4-0.2l-0.3-1l0.4-0.5
		l0.2-0.7v-0.7l-0.5-0.7l-0.5-0.5l-0.5-1.6l-0.6-1.4l0.2-0.8l-0.2-0.6l0.2-0.7l-0.3-0.7l0.2-1.1l-0.5-0.4l-0.3-0.4l-0.4-0.6
		l-0.2-0.3h-0.4l-0.1,0.6l-0.8,0.6l-1.2,0.6h-0.7l-0.4,0.7l-0.8-0.3l-0.7-0.9l-0.4-0.3l-0.1-0.4l-0.1-0.3l0.1-0.6l0.4-0.2l0.1-0.7
		l-0.4-0.9l0.6-0.7l1-0.1l0.4-0.3l-0.2-0.4l0.2-0.7l-0.3-0.4l-0.3-0.6l0.4-0.9l-0.5-0.5l0.2-0.6h0.7l0.1-0.9l0.2-0.5l0.2-0.5l0.3-1
		l0.4-0.3l0.1-1.2h0.5l0.4-0.9l0.3-0.9l-0.1-0.1l-0.2-0.2l-0.9,0.1l-0.9-0.1l-0.4-0.2l-0.3-0.1l0.1-0.8l-0.4-0.4l-0.2-0.2l-0.7-0.1
		l-0.1-0.6l-0.8-0.6l-0.4-0.9l0.3-0.6l-0.3-0.3l-0.6-0.7l-0.2-0.8l-0.4-0.6l-0.4-1.1l-0.5-0.7l-0.2-0.5l-0.2-0.7l-0.4-0.2l-0.9-0.5
		l-0.5-0.5l-0.3-0.8l-1.1-0.9l0.3-0.5l0.6-0.2l-0.6-0.9l0.1-0.6l0.4-0.6l-0.3-0.5l0.2-0.5l-0.9-1.1l0.1-0.8l-0.4-0.5l-0.4-0.9
		l-0.4-1.2v-0.2l-0.1-0.2l0.4-1.7l0.3-1.2l0.3-1.3l0.5-2.3l0.1-0.3L166.3,65.2"/>
</g>
<g transform="matrix(0.999751,0,0,0.999751,-54.8748,-49.3873)">
	<path vector-effect="none" class="st1" d="M154.4,225.7L154.4,225.7l0.4-2l0.4-1.9l0.7-3.7l0,0l0.3-1.4l0.4-2.1l0.4-2.3l0,0
		l0.3-1.4l0.5-2.8l0.3-1.8l1.3-6.8l0.1-0.6l0.7-3.5l0.3-1.5l0.5-2.7l0.1-0.3l0.8-3.9l0.3-1.3l0.6-3.2l0.7-3.8l0,0l0.6-2.9l0.8-3.9
		l0.7-3.6l0.6-3.3l2.3,0.5l3.3,0.5l2.5,0.4l2.5,0.4l0,0l3.6,0.6l3.9,0.7l1.1,0.2l0.5,0.1l0,0l3.7,0.6l2.5,0.4l0,0l0.4,0.1l1,0.1
		l3.3,0.5l-0.9,5.9v0.2l-0.5,2.8l-0.2,1.5l-0.6,3.5l5.3,0.9l4.3,0.6l0.8,0.1l0.5,0.1l3,0.4l4.8,0.7l2.1,0.3l-0.3,2.4l-0.3,2.3v0.1
		l-0.9,6l-0.1,0.6l-0.6,4.3l-0.4,3l-0.3,2.3l-0.3,1.8l-0.5,3.4l-1.3,8.7l0,0l-0.4,3.1v1.6v0.2l-0.5,3.8l-0.8,5.5l-1,6.8l-4.9-0.7
		l-5.6-0.8l0,0l-5.1-0.8l-3.1-0.5l0,0l-3.5-0.5l-2.3-0.3l-1.4-0.2h-0.1l-10.3-1.7l-2-0.3h-0.1l-3.1-0.5l-0.8-0.1l-0.7-0.1l-10.9-2
		l-0.9-0.2l0.2-1.2l0.5-2.7l0.5-2.9L154.4,225.7"/>
</g>
<g transform="matrix(0.999751,0,0,0.999751,-54.8748,-49.3873)">
	<path vector-effect="none" class="st3" d="M576.4,126.3v-0.8v-0.2l0.2-1l0.2-0.5v-0.1l-0.2-0.6l-0.3-0.6v-0.4l0.1-0.9l-0.4-0.9
		l-0.5-0.4l-0.2-0.2l-0.1-0.1l-0.4-0.7v-1.2l-0.1-0.7l0.1-0.8l-0.1-0.1l-0.3-0.2l-0.2-0.4l0.2-0.9l-0.2-0.7l-0.1-0.6l1.4-0.4
		l0.2-0.1l1.2-0.3l1.1-0.3l3.4-0.8h0.3h0.2l1.8-0.4l3.1-0.8l1-0.3h0.2l2-0.6l0.8-0.2l1-0.3l-0.2,0.6l0.6,0.8l-0.2,0.5l-0.2,1.1
		l-0.3,0.9l0.7,1l0.5,0.4l0.2,0.6l-0.3,0.5l0.2,0.6l-0.5,0.6l-0.3,0.8l-0.6,0.4l-0.1,0.1l-0.2,0.7l-0.2,0.1l-0.3,0.2l-0.7,0.2
		l-0.5,0.3l-0.3,0.6l0.1,0.6l0.1,0.9l0.2,0.3l0.4,0.7l-0.1,1v0.1l0,0l-0.2,0.6l0.3,0.6l-0.4,1.2l0.1,0.9l-0.2,0.5l-0.1,0.2l-0.5,0.7
		l-0.1,1.6l0,0l-0.3,0.5l0.3,1.1l0.1,0.9l0,0l0.1,0.9l0.2,0.3l0.1,0.2v0.8v0.4v0.3l0.1,0.8v0.1l0.4,0.9l-0.1,0.6l0.2,0.3l0.1,0.2
		l-0.3,0.6l-0.3,0.3l0.2,0.8L589,141v0.1l0.3,0.7l0.8,0.4l0.3,0.4l-0.6,0.1l-2.9,0.6l-0.6,0.1l-0.7,0.1l-0.9,0.2l0,0l-1.2,0.3
		l-1.2,0.3l-0.4-0.7v-0.5l-0.3-1.5l-0.3-1.2v-0.1l-0.8-3.8l-0.1-0.7l-0.5-2.4l-0.7-0.6l-0.5-0.5l-0.5,1l-0.4-0.3l-0.1-0.8l0.1-0.6
		l0.1-0.8v-0.3l-0.4-0.4l-0.1-0.1v-0.8l-0.5-0.7l-0.2-0.6l-0.1-0.5l-0.4-0.4L576.4,126.3"/>
</g>
<g transform="matrix(0.999751,0,0,0.999751,-54.8748,-49.3873)">
	<path vector-effect="none" class="st0" d="M85.6,52.8l0.7,0.1l0.8,0.8l1.2,1.4l1.1,0.6l1.2,1l0.3,0.7l1.5,0.7l1.4,0.4l0.5,0.2
		l1.1,0.5l0.9,0.7l1.1,0.5l0.7,0.1l1.1-0.5l0.5,0.9l0.4,0.6h0.6l0.4-0.1l0.8-0.1l0.7,0.1l0.4,0.7l-0.4,1.2l-0.2,0.6l0.3,0.8h0.2h0.2
		l0.5-0.2l0.3-0.1L104,64l-0.5-0.6l0.4-1l-0.1-0.8l-0.6-0.6l-0.1-1l0.6-0.6l0.7-1.2l0,0v-0.9l0.6-0.6l0.3-0.8v-0.8l-0.1-1.1l0.2-0.9
		l0.1-0.7l-0.4-0.8v-0.8l0.8-0.6l4.5,1.3l1.4,0.4l3.1,0.9l3.2,0.8l2.4,0.6l2.5,0.7l1,0.1l3.1,0.8l3.4,0.9l4.9,1.2l2.9,0.7l2.7,0.7
		l5.8,1.4l1.8,0.4l3.6,0.8l1.6,0.4l1.5,0.3l2.1,0.5l-0.5,2.1l-0.6,2.6l-0.7,3.2l-1,4l-0.2,1.1l-0.2,0.9l-0.7,3.3l-1.1,5l-0.3,1.4
		l-0.3,1.4l-0.1,0.4l-1.8,8l-0.2,1l-0.1,0.6v0.2L149,99l0.5,0.8l0.2,0.7l-0.2,0.7l0.3,0.5l-0.2,0.4l-0.6,0.7l0.3,0.4l0.1,1l-4.2-1
		l-1.2-0.3l-1.2-0.3l-1.1-0.3l-2.5-0.6H139l-3.5-0.8l-2.3-0.6l-0.7-0.2l-2.9-0.7l0,0l-0.8,0.4l-0.7,0.2l-1.2-0.4h-1.1h-0.7h-0.6
		l-0.7-0.5h-0.3l-0.9,0.7l-1.3-0.2h-0.7l-1-0.1l-0.4,0.1l-0.8,0.2h-0.7l-0.8,0.5l-0.7-0.1H115l-0.8-0.2H114l-0.6-0.8l-0.4-0.1l0-0.1
		l-0.4,0.2l-1.7,0.2l-0.5,0.3l-0.2-0.1l-0.3-0.2l-1.4-0.2l-0.5,0.3h-0.6l-0.1-1l-1-0.8l-0.9-0.1l-0.1-0.1l-0.7-0.6l-0.1-0.1
		l-1.4-0.1h-0.7l-0.7-0.4h-0.6l-0.4,0.3h-0.2l-0.3,0.1L99.6,97l-1.1,0.2l-0.8-0.1L97,97.3h-0.1l-0.6-0.2L96,96.7h-0.6L95,96.3
		l-1.3-0.8l-0.8-0.7l-0.1-0.3l-0.1-0.3l0.3-0.6l0.2-0.4L93,92.4l0.2-0.5l0.1-0.2l0-0.7l0.2-0.7l-0.2-0.8l-0.2-1.1L92.6,88l-0.3-0.5
		l-0.8-1L91,86.3l-0.5,0.1l-0.7,0.2L89,86.4h-0.1l-0.4-0.6l0.2-0.6l-0.3-0.7l-0.7-0.1L86.6,84l-0.1-0.6l-0.3,0.1l-0.4,0.1l-0.4-0.2
		l-0.8,0.4l-0.3-0.2L84,83l-0.1-0.2h-1.1l0.4-0.8l0.7-2.2l0.4-1.9l1,0.2l0.5-0.4L85.5,77l-0.9-0.6l0.1-0.8v-0.2V74l-0.3-0.4l0.4-0.9
		l0.5-2.2v-0.2l0.1-1.6L85,67.6l0.4-2.5v-0.2l0.1-2.1l-0.2-1.2l-0.3-1l-0.5-0.8l-0.1-0.1l-0.1-1.1l0.2-1.2l0.2-0.7l-0.1-0.8l0.6-0.8
		l0.5-1L85.6,52.8"/>
	<path vector-effect="none" class="st0" d="M100.2,52.9l1.6,0.2l0.5-0.1l0.6-0.7h0.4l0.9,0.9l0.4,1.3l-0.7,0.6l0.1,0.6l-0.3,0.7
		l-0.4,0.2l-0.1,0.8h-0.7l-0.4-0.4l-0.9-0.6l-0.7-0.9l-0.2-1.3L100.2,52.9"/>
</g>
<g transform="matrix(0.999751,0,0,0.999751,-54.8748,-49.3873)">
	<path vector-effect="none" class="st1" d="M497.6,225.8l0.1-0.6v-0.1v-1l-0.3-0.4v-0.5l-0.1-0.6l0.4,0.2l0.5-0.2l0.6-0.3l0.7-0.2
		l0.6-0.3l0.1-0.7v-0.9l0.1-0.3l0.1-0.2l0.6-0.1l0.4-0.3l-0.2-0.7l-0.4-1.4l-0.2-0.6l0.5-0.4l0.1-1.2l0.3-0.8l0.1-0.2l0.4-0.7
		l0.3-0.2l0.8,0.4l0.6,0.8l0.7-0.3l0.5-0.6l-0.3-0.8l-0.2-0.6l0.6-0.4h0.1l-0.3-1v-0.1l0.3-0.4l0.1-0.1l0.2-0.8l0.7-0.1l0.5-0.1
		l-0.1-0.8l0.5-0.7l0.4-0.6l0.5,0.1l0.3,0.6h0.3h0.2l1-0.8l0.6-0.7l0.6-0.4l0.1-0.1l0.4-0.8l0.3-0.5l0.8-1.1l0.7-0.9l0.3-0.7
		l-0.1-0.1l-0.5-0.6l0.4-0.6L513,200l0,0l0.1-1l0.3-0.5l0.2-0.3l-0.1-0.9l-0.1-0.7l0.2-1v-0.1l0.1-0.4l0.3-1l0.3-0.8l-0.4-1.1v-0.1
		l0.1-0.8l-0.3-1l-0.6-0.8l0.3-0.6h0.5l0.6-0.4l0.4,2.2l0.2,1.1l0.1,0.8l0.4,2.5l0.3,2l0.1,0.8l0.5,3.4l1-0.2l3.6-0.6l0.4-0.1
		l1.3-0.2l1.6-0.3l3-0.5l0.4,2.6l0.4,2.6l0.3,1.9l0.6-0.4l0.6-0.8l0.7-0.6l0.2-0.3l0.8-1.2l0.6-1.1l0.2-0.1l0.3-0.1l0.9,0.3v-0.6
		l0.8-1.2l0.6-1.3l0.4,0.3l0.5,0.7l0.6,0.1l0.7,0.1l1.3-0.2h0.1l0.1-0.6l0.4-0.9l0.5-0.2l0.2-0.1l0.9-0.6l1.5-0.5l0.7,0.6l0.3,0.2
		l0.8-0.3l1.1,0.1l0.2,0.8l0.2,0.3l0.2,0.3l0.8,0.9l0.1,0.7l0.4,0.4l-0.4,1.4l-0.2,0.9l-0.1,0.5l0,0l-2.5-1.4l0,0l0,0l-1.9-1.1
		l-0.5-0.3l-1.4-0.8l0.3,0.8l0.1,0.8l-0.4,1.2l0.1,0.5l-0.1,0.8l0.2,0.4l-0.8,1.2l-0.2,0.5l-0.2,0.7l-0.6,0.5l-0.5,0.9l-0.9,0.6
		l-0.4,1l-0.3,1l-1.6-0.8l-0.2,0.6l-0.3,0.6l-0.1,1.1v0.4l-0.5,0.9l-0.3,1.2l-0.2,0.7v0.1l-0.6,0.9h-0.1h-0.7l-1.2-0.2l-0.9-1.2
		l-1.2-0.3v1.2l-0.1,0.7l0.1,0.4l-0.3,1.1l-0.6,0.7l0.3,0.5l-0.1,0.1l-0.5,0.6l-0.6,0.8l-0.1,1.1l-0.1,0.7l-0.1,0.3l-0.5,1.2
		l-0.2,0.3l-0.7,1l-0.6,1l-0.1,0.7l-0.3,0.9l-0.3,0.5l0,0l0.9,0.7l0,0l-0.6,0.6v0.7l-1,1.2l-0.6,0.6H522l-0.9-0.5l-1.2,1.1l-1.1,0.8
		l-0.8-0.6l-0.2,0.1l0,0h-0.1l-0.1,0.5l0.6,0.6l-0.9,0.5l-0.7,0.2h-0.2l-1.2,0.5l-1.1,0.8l-1.7-1.2l-0.6,1l-0.6,0.4l-0.5,0.5
		l-0.3,0.3l-1.3,0.3l-0.7-0.4h-0.1l-0.4-0.4h-0.8l-0.6-0.6l-0.5-0.7l-0.1-0.4l-0.6-0.4l0.5-0.9l-0.4-0.3l-1.1,0.1l-0.9-0.6l-1-0.7
		l-0.8-0.3l-0.4-0.8l-0.1-0.2l-0.5-0.5l-0.4-0.5l-0.3-0.4l-0.8-0.5v-0.3l0.1-0.6l-1.1-1.1l-1-0.9L497.6,225.8"/>
</g>
<g transform="matrix(0.999751,0,0,0.999751,-54.8748,-49.3873)">
	<path vector-effect="none" class="st3" d="M203,130.5l0.4-1.8l0,0l2.5,0.4l0.8,0.3l3.7,0.5l3.2,0.4l1.9,0.3l2.2,0.3l4.6,0.6
		l0.4,0.1l4.3,0.6l1.2,0.2l2.5,0.3l2.5,0.3l0.8,0.1l5.5,0.7l4.5,0.6l6.1,0.7l0,0l2.4,0.2l1.7,0.1l7.6,0.8h0.4h0.1l9.5,0.9l-0.3,4.3
		l-0.1,1.7l-0.4,4.5l-0.1,1v0.5l-0.3,4l0,0l-0.3,4.1l-0.1,0.8v0.4L270,161l-0.3,4l-0.4,5.2v0.3l-0.1,1.6l-0.3,3.5l-0.3,3.3v0.2
		l-0.1,1.6l-0.2,2.6l-0.1,1.2l-0.1,0.7l-0.2,2.4l0,0l-0.1,1.6l-0.2,2.3l-0.1,1.6l-4.6-0.4l-3.7-0.3l-0.9-0.1l-3.5-0.3l0,0l-9.5-1
		H245l-1.1-0.1l-5.6-0.7l-4.8-0.6l-0.5-0.1l-5.7-0.7l-3.5-0.4l-8.3-1.1l-2.1-0.3l-4.8-0.7l-3-0.4l-0.5-0.1l-0.8-0.1l-4.3-0.6
		l-5.3-0.9l0.6-3.5l0.2-1.5l0.5-2.8v-0.2l0.9-5.9l0.8-4.8l0.4-2.3l0.5-2.9l0.5-3.4l0.1-0.8l0.1-0.7l0.5-3.4l0.4-2.6l0.4-2.6l0.5-3.1
		l0.2-1l0.3-1.8l0.6-3.6l0.2-1.4l0.3-2.1l0.1-0.6l0.1-0.8L203,130.5"/>
</g>
<g transform="matrix(0.999751,0,0,0.999751,-54.8748,-49.3873)">
	<path vector-effect="none" class="st4" d="M374.8,313.4v-1.5v-1.2v-1.9l2.7-0.1h0.1h1h2.4h0.4h1.3h1.6h0.5l2.4-0.1h0.2l2.9-0.1l0,0
		l2.6-0.1l3.3-0.1l1.8-0.1l0,0l2.3-0.1l4.5-0.2h0.3h0.3l2-0.1h1.2l0.4,0.3l0.8,0.6l0.1,0.7l-0.8,0.6l-0.3,0.5l0.1,0.5l0.5,0.5
		l0.7,0.2l-0.5,0.6l0.3,1.2l0.3,0.3l0.1,0.1l0,0l0.5,0.8l-0.6,0.1l0.1,1l1,0.1l-0.2,1l0.8,0.1l-0.3,0.8l-0.5,1l-1.4,0.2l0.9,1.4
		l0.1,0.1l-0.5,0.7v0.4l-0.4,0.5l-0.7,0.2v0.8l-0.6,0.6l-0.1,0.1l-0.5,0.5l-0.7-0.1l-0.1,0.6l0.5,0.7l0,0l-0.7,0.2l0,0l-0.1,1.2
		l-0.8,0.4l0.1,0.5l0.3,0.6l-0.6,0.2l-0.3,0.5l0.1,0.8l-0.2,0.7v0.7l0.4,0.6l-0.6,0.5l-0.7-0.1l-0.3,0.5l0.7,0.5l0,0l-0.3,0.8
		l0.4,0.6l0.4,0.6l-0.8,0.7l-0.1,0.1l4.9-0.2h0.6l1.4-0.1l2.8-0.2h0.8l2.3-0.1h0.2l2.4-0.1l0,0l1-0.1l4.3-0.3h0.7l1.3-0.1l0,0
		l-0.2,1.3l-0.4,1.3l-0.4,1.3l0.2,0.8l0.1,0.3l0.4,1.3l1,1l0.2,0.3l0.3,0.5l0.6,1.4l0.4,1.2l1,0.4l-0.9,0.6l-0.6,0.4l-0.3,0.6
		l-1.2,0.5l-0.7,0.4l0,0v0.9l0.7,0.2l0.6,0.2l0.6,0.6l0.7,0.1l0.6-0.3l0.2-1.4l0.9-0.9l0.6-0.3l1.2-0.1l0.4-0.5l0.8-0.7l0.6-0.2
		l0.1,1.2l-0.3,1l-0.1,1v0.7l-0.6,1.1l0.3,0.6l-1.6-0.1v1.2l-0.7,0.5l-0.4,0.3l0,0l-0.4-0.2l-0.8,0.6l0.5,0.9v0.7l0.5,0.8l0.6,0.4
		l1.3,0.1h0.8l0.7,0.7l0.7-0.2l0.9,0.8l0.3,0.8h1.1l0.2,0.7l-0.6,1.1l-0.6,0.3l-0.3,0.6l0.1,0.5l-1-0.4l-0.5-0.5l-0.7,0.7l-0.9,1.1
		l-0.1-1.2l0.5-0.8l-0.4-0.7l-0.5-0.3l-0.7-0.9l-1-0.3l-0.5-0.1l-0.4-0.5l-1.1-0.1l-1.4-0.1l-0.5,0.2l-0.2,0.2l-0.6,0.6l-1.2,1.1
		l-0.4,0.3l-0.4,0.3l-1.2,0.9l-1.3,0.4l-0.9,0.1l-0.4,0.1h-0.6l-2,0.1l-1.2,0.3h-0.8l-0.7-0.2l-0.2-0.7l-0.8-0.8l-0.7-0.1l-1.2-0.2
		l-0.8-0.4L410,360l-0.7-0.7l0.7-0.5l0.1-0.4l0,0l-0.8-0.4l-0.4-0.4l0.2-0.3L408,357l-0.8,0.4l-0.3-0.4l-0.6-0.4l-0.1-0.5l-0.1-0.4
		l-0.7-0.5h-0.5l0.2-1l-0.6-0.6h-0.9l-0.8,0.4l-0.5,0.3l-0.1,0.5l-0.1,0.6l0.9,0.4l1.1,0.3l-0.6,1.1l-0.6,0.3l-1.2-0.6l-1.4-0.7
		l-0.2-0.1l-0.3-0.1l-1.1,0.1l-1.1,0.6l-0.9,0.1l-1.1-0.2l-0.8-0.2l-1.2-0.2l-0.6-0.1l-0.8-0.2l-2.4-1l-1.4-0.6l-1.2-0.3l-1.1-0.3
		h-1.4l-1.4,0.1l-1.5,0.1l-2.5,0.4l-0.7,0.3l-0.5,0.4l-0.3-0.5l-0.3-0.5l-0.5-0.6l0.7-0.7l0.2-0.3l0.3-0.3l0.3-0.8l0.8-1l0.4-0.4
		l0,0v-0.8v-0.9l-0.1-0.7v-0.3v-0.4l-0.7-0.7l0.2-0.9l0.1-0.1l0.4-0.4l-0.1-1.1l-0.2-0.5l0.5-0.7v-0.5l0.6-0.8l0.1-0.8l0.6-0.9
		l0.1-0.9v-0.1l0.3-0.7l-0.2-0.6l0.1-0.6l0.1-0.6l-0.1-1.1V334h-0.2h-0.6l0,0l-0.2-1.1l-0.7-0.6l0.1-1l-0.4-0.7l-0.6-0.5l0.3-0.5
		l-0.7-0.3l-0.6-0.8l0,0l0.2-0.5l0.1-1.1l-0.6-1.5l-0.3-0.5l-0.4-0.7l-0.8-0.4l-0.6-0.7l-0.2-0.2l-0.1-2v-0.8l-0.1-2.4v-0.4
		l-0.1-2.4L374.8,313.4"/>
</g>
</svg>
