<svg xmlns="http://www.w3.org/2000/svg" width="581.38" height="365.39"><path d="M1.27 109.75l1.5-1.82 2-2.09L6 104.05l.17-.82-.17-.61.12-.72.62-.56.71-1.23.91-2 .06-.35.2-1.16v-1.2l.06-1.17v-.3l-.33-.21-.35-.87.48-.65L9 91l.15-.8 2.08.67 1.77.54 1.63.5 1.38.35.85.22.85.29 1.18.26.86.19 1 .38 2.44.7 3 .8 2.1.61h0l1.86.56 2.55.73 1.7.51 2.26.67h.08l1.89.51 2.14.64 1.55.41 1.88.5 1.91.5 3.2.83 1.83.47-.42 1.63-.89 3.49-1.55 5.92-1.11 4.34-.49 2-1.39 5.46-.69 2.66-.6 2.31-.87 3.15-.66 2.5-.35 1.28-.47 1.75-.09.34-.43 1.72-.18.72-.15.62-.23.93.78 1.17 2.56 3.83h0l2.09 3.2.4.6 1 1.49 1.7 2.53 3.7 5.54.6.91 3.38 5.06 1.57 2.37 1.29 1.91 3.68 5.53.67 1 1.41 2.1 4.39 6.58 1 1.46 2.44 3.65 1.74 2.62.41.61 1.73 2.58h0l2.14 3.21.89 1.32 1.27 1.9 1 1.53 2.13 3.19 1.53 2.25-.12.82-.24 1 .49.92.71 1.44.2.52.18 1.62.32 1-.19.91.49.1.67.83.88 1 .26.61v0l-.1.61-.49.19-.72.62-.77.14-.71.32-.72.19-.3.21-.06.19-.16.49-.3.39-.77.62-.37.34.22.45-.06.51-.27.47V229.1l-.17.34-.32.39-.19.75-.1.76-1 .68-.52.72-.1.13h-.45l-.62.07.13.43-.15.73-.27.45.47.56-.11.34-.21 1-.53.55.22 1 .47.19h.62l.64.3h.06l.2.78-.08.68.1.33-.22.77-.89.72-.54.39H79.44L79 242l-.22.28-3.28-.39-5.43-.65-6.8-.81-.7-.08-5.09-.61-1-.12-2.7-.33-3.1-.29.08-.72v-.46l-.2-.81-.27-.3-.62.14v-.45l.27-1.19-.19-.55v-.24l.13-.14.12.06.11-.12h0l.14-.55V232l-.14-1.2-.3-1.15-.63-1.59-.85-1.59-.48-.42h0l-.39-.87-.73-.45-.05-.34-.05-.08-.72-1.1-.23-.36-.88-.66-.67-.87-.75-1.27-.25-.26-.17-.17-.63.1-.61.16-.34.09-.63-.28-.15-.16-.21-.21-.46-.16-.23-.61.48-.32.06-1.14-.26-1.29-.47-1-.9-.39-.87-.13-.74-.16-.78.26-.44-.58-1-.42h-.11l-1.15-.9-.43-.17-1.09-1.24v-1.35l-.06-.07-.34-.36-.55-.79-.77-1-.17-.11-.6-.39-.8-.57h-.8l-.32.11-.78-.5-.55-.14h-.45l-1-.77-.82-.46-1-.42-1.72-.4-1.82-.14-.39-1.21-.36-.38-.3-.28-.47-.08-.16-.43.88-1.38v-.56l-.1-.13.61-1.59-.5-.8.48-.91.39-.74.2-.6.1-.64-.32-.51-.35-.42-.52.09-.83-.87-.39-.74.36-.58.43-.85v-1l-.69-.53-.49-.23-.81-1.83-.34-1-1-.74-.29-.76.07-1-.12-.21-.46-.85-.45-.72.06-1.22-.33-.74-.42-.27-.23-1.15-.38-1.07-.84-1.13-.45-.34-.44-1 .19-1.27-.06-1.36.06-1.41.69-.56.59.51.77-.83.55-1.23.2-.5-.09-.53-.22-1.26-.33-.64-.47-.17h-.88l-.42-.16-.4-.15-.78-1.12-.35-1-.15-.47-.09-.07-.26-.23-.15-.42-.4-.75v-.9l.39-.86.13-.29.06-.53-.13-.93.07-.35-.39-.56-.13-.46.2-.75.37-.42.29-1v-.31l.05-.39.07-.5.61-.26.73.14.08.24-.11.74.17.18-.11.18h-.36l-.1 1.66 1.09.82.6 1 .48-.12.21-.05-.14-.81.13-.82v-.39h0l-.42-.57-.27-.48.08-.4-.55-.48-.09-.5.39-.19v-1.16l-.48-.09-.29-.82.69-.13.1-.41.28.06h.23l.78-.38v-.14l-.17-.71-.82-.79h0l-1.08.17h0l-.38 1 .35.63-.49.29-.15.61.29.5.16.64-.79.16-.55-.21-.5-.8-.69-.66-.3.1-.38-.72-.29-.69-.52-.71-.81-.46-.52.43-.35-.26 1-1.33.32-.82-.1-.94.15-.48-.09-.36v0l-.6-.21v-1.33l-.51-1.39-.73-.74-.64-1-.06-.48-.47-1.7-.59-.76-.17-.43-.2-.51-.51-.82L2 134l-.36-.71-.06-.64.71-.77.1-1.5-.18-1.06v-1.15l.09-1.29.46-1.12.93-1.29.12-1 .15-.88-.23-.59.22-1.54-.45-.59-.24-.95-.39-1.28-.06-.19-.3-.21v-.82l-.38-.68-.43-.34-.49-.94-.57-1.06-.14-.29.4-.91.06-.62-.19-1 .51-.83M19.15 209l1.33.63 1.08.73.94.08.6.94v.59l-.95.16h-.87l-.53-.61-.13-.45-1.72-1-.87-.75 1.13-.4M35.53 228.19l.43.9.78 1.42.82 1.26-.89.09-.56-.77-.78-1.44-.4-1.33.6-.13" fill="#f37f88" stroke="#fff" stroke-linecap="round" stroke-linejoin="round"/><path d="M24.13 210.55h.7l1.24.64 1.94.43 1.07.26.32.07.87.27-.16.69h-.34l-1.07-.29-.7-.22-1.25-.14-.74.19-.82-.26-.8-.46.11-.59-.32-.59M37 222.31h1.3l1 1.38.76 1-.61.61-.49-.42-1-.33v-.65l-.7-1.1-.23-.53M25.2 222.13l.87-.2.8.8-.16.51-.44.07-.85-.48-.22-.71" fill="#f37f88" stroke="#fff" stroke-linecap="round" stroke-linejoin="round"/><path d="M155.38 172.75h0l1.3-8.73.47-3.36.25-1.83.32-2.27.42-3 .59-4.27.08-.58.86-6v-.13l.32-2.28.32-2.44 8.31 1.12 3.46.43 5.74.68.52.07 4.77.59 5.62.66 1.08.13h.28l9.53 1h0l3.48.34.92.09 3.75.29 4.64.41 5 .41h0l2 .16 3.2.24 4.43.32h1.01l5.29.35h0l-.22 3.55h0v.73l-.23 3.62-.08 1.28v.15l-.3 4.71-.16 2.59-.2 3.45v.08l-.16 2.74-.2 3.38-.07 1.21-.3 4.92-.07 1.16-.2 3.25-.1 1.63v.09l-.13 2.1-.31 5.27v.2l-.07 1.12-.23 3.59-.12 1.84L230 200l-.06 1v.59l-3.47-.25-3.79-.27-1.59-.17-1.77-.14-.93-.07-7.15-.53-3-.22-3.66-.28-4.34-.39-4.29-.43h-.38l-.72-.07h-.34l-1.85-.19-1.27-.13-2-.2h0l-3.08-.32h-.1l-3.71-.38-1.47-.16-4.34-.47-.07-.12-6-.7h0l-.67-.08-5.71-.71-4.16-.53-2.65-.35-4.67-.63 1-6.78.78-5.53.53-3.8v-1.73l.43-3.13" fill="#f8b1b8" stroke="#fff" stroke-linecap="round" stroke-linejoin="round"/><path d="M499.45 156.17l.66-1 .49.33 1.19.81-.59.91-.5.77-.14-.68-.07-.37-.64-.39-.4-.35" fill="#f37f88" stroke="#fff" stroke-linecap="round" stroke-linejoin="round"/><path d="M86.31 76l.39-.43.06-.74.71-.47.34-.41.76-1.19.55-1 .56-.3.89-.24.58-.64.32-.36.48-.73-.09-.73.32-.68.69-.51h0l.39-.43 1-1.8.09-.18.29-.58L95.86 63l1.19-1.51.52-.59-.43-1 .09-.74-.42-.73-.68-.2-.55-.75-.45-.3-.05-.18-.41-.9-.1-.76-.17-.56-.06-1-.3-.41.62-.68.2-.36-.29-.47.15-.73-.16-.75-.46-.83.43-.71v-.22l.11-.63.21-1 1.79-8 .09-.37.32-1.42.32-1.45 1.11-5 .74-3.28.21-.92.24-1.07 1-4 .73-3.16.58-2.56.47-2.06 2.5.55 3.09.68 3.35.71L110 22.5l-.06.28-.49 2.32-.27 1.27-.26 1.24-.37 1.69.06.23v.17l.44 1.16.39.86.43.49-.06.75.85 1.09-.24.55.3.51-.38.59-.09.6.62.85-.61.22-.27.5 1.08.95.29.81.49.52.87.46.39.21.2.69.25.55.5.72.45 1.08.36.63.23.77.55.66.27.32-.28.6.44.89.77.62.11.59.65.11.19.16.42.35-.1.76.27.13.39.19.91.11.93-.1.2.23.12.14-.29.93-.38.92h-.52l-.06 1.22-.42.27-.29 1-.19.49-.18.49-.13.87h-.67l-.18.57.51.5-.37.88.26.65.3.44-.24.66.16.45-.4.3-1 .09-.59.68.4.9-.09.74-.4.18-.14.6.08.32.1.39.43.3.71.87.83.33.42-.73h.65l1.15-.61.79-.56.11-.58h.43l.18.29.38.62.3.35.47.4-.17 1.09.3.66-.17.72.19.64-.19.82.59 1.4.46 1.6.55.51.47.67v.75l-.25.72-.36.54.33 1 .42.19.65.63.59-.23 1 1 .16.83.31 1.18-.25.7.39.91-.12.64.41.86.59.62.6-.25h.06v-.49l1.05-.62h.33l1 .35 1.24.37.77.59.48-1.07.81-.42.57.45.91.37h.92l1.67-.09.49.83 1.13-.5.85.18.53.12.49-.31.71-1.25.16-.21.23-.31.61-.39.07.07.46.46.41.86.34.69.12.7.48.64.11.62.68.39-.24 1.46-.57 3.6-.28 1.82-.16 1-.49 3.06-.4 2.59-.4 2.57-.53 3.38-.12.73-.12.76-.53 3.36-.48 2.89-.38 2.28-.77 4.83-3.35-.53-1-.15-.37-.06h0l-2.48-.41-3.66-.59h0l-.5-.1-1.07-.22-3.91-.67-3.59-.61h0l-2.53-.43-2.52-.43-3.28-.55-2.26-.51-2.44-.48h0l-3.21-.64-3-.69-1.41-.27-2.8-.53-3.16-.68-2.47-.51-4.68-1-3-.65-4-.91H81l1.17-5.2 1.33-5.88.67-3L86 87.32l.27-1.15.46-2 .55-.7.14-.18.43-1.16.36-.59-.21-.81 1-.75h0v-.38l-.57-.34.06-.58-.85-.21-.48-.69-.54.15-.36-.51.07-.1.29-.4-.14-.49-.17-.43" fill="#f8b1b8" stroke="#fff" stroke-linecap="round" stroke-linejoin="round"/><path d="M344.53 157.38l.06-.68v-.3l.21-.75.49-.81.48-.32-.11-.74.09-.83-.3-.32.18-.69.34-.45 1-.4h.64l.66-.52v-.74l.21-.78v-.58l.48-.69.59-.65.32-.61v-.92l-.11-.71v0l-.08-.54-.46-.7h-.46l-.45-.66-.37-.48.35-1.2h0v-.49l.35-.78.64-.13.45.08.58-.39.84-.11.88-.07.84-.48.47-.47.6-.08.53-.09.44-.58.52-.27.24-.28v-.92l.2-.44V135l.61-.56h.06l.61-.45v-.46l.14-.56v-.77l.12-.82-.23-.51v-1.03l-.52-.57-.65-.32-.5-.25-.24-.12-.67-.46-.34-.53.11-.59-.33-.5-.41-.32-.36-.28-.52-.48-.27-.11-.59-.31v-.52l2.11-.1h.11l2.08-.13 3-.16h.91l3.53-.19.94-.05h.36l3.31-.19h1.05l1.68-.11h.71l2.05-.18 2.07-.17.9-.08h.18l3.09-.22 1-.07.06 1-.11.84-.07.85v.05l.44 1.21v0l.49.74.21.32h0l.59.6.08.08.2.64.48 1.32.13.36v0l.14.14v.32l.1.36.26.46.08.15.26.46.33.22.1.33v.22l.22 2.5.07.84.2 2.41h0l.17 1.85.18 2v.2l.15 1.61.27 2.09.25 2.83V150.65l.25 3.18.12 1.44.16 1.92.22 1.81.27 3.06.07.81.17 1.83v.11l.15 1.7-.49.15-.2.41.13.75v.17l.22.49-.62.68v.13l.21.77.62.58v.79l.57.37.1.9v0l-.16.44.16.32.18.35.33.94-.4 1.17-.76.61-.13.73-.09.32-.1.37.11.4-.61.51-.24.65-.09.25-.25.7-.49.94-.79.61-.62.49v.56l.58.6-.32.76-.23.65-.43.39.24 1-.19 1-.17.37-.07.16.5.76-.28.82-.74.71-.25.63.4 1.1v0l.71.57.09.34.06.22-1 .38-1.35.31-.79.74-.65-.18h0l-.5.34-.16.87-.25.71.55 1 .6.94-.16.74-.31.45H379.55l-.35-.21-.59-.36-.94-.33-.67-.14-.95-.52-1.06-.35h-.06l-.74.1-.59.55-.4.71-.69 1h0l.47.73v.51l-.69-.06-.72-.31-.56-.15-.59-.16-.33-.83-.88-1.14-.22-.91-.14-.1-.4-.27.2-.62.23-.16.48-.33v-.72l-.55-.79-.51-.86.09-.42V193l-.18-.62-.24-1-.78-.33-.87-.45-.25-.51-.12-.25-1-.51-.8-.64-.76.52-.12-.13-.49-.52.17-.68h-.59l-.83-.59-.52-.46-.9-.48-.15-.08-.4-.45h0l-.81-.71-.35-.52-.15-.23-.17-1.22.2-.78.07-.1h0l.52-.75.14-.82.09-.32.05-.17.06-.2.64-1v-.68h0l-.17-.38-.19-.53.43-.68h0l.5-.5v-.62l-1.05-.64-.26-.15-.51-.09h-.24l-1.08-.45h-.78l-.3.74-.57.59h-.43l-.71-.6-.06-.2-.2-.69-.46-1 .32-.68-.33-.69-.22-1-.1-.45-1.24-1.12-1.07-.78h0l-1.11-.61-.31-.64-.42-.6-.52-.07-.31-.64-.1-.08-1-.9-.33-.27-.69-.57v-.82l-.41-.46-.43-.32v-.88l-.11-.52h0l-.55-1-.18-.82-.21-1.29v-.43" fill="#f37f88" stroke="#fff" stroke-linecap="round" stroke-linejoin="round"/><path d="M290.49 122.19l.45-.68.42-.71v-.62l.43-.52-.2-.26.28-.39-.19-.49.55-.38.06-.21.13-.44-.2-.42L292 116h-.48l-.31-.37-.06-.14-.15-.49.49-.13.07-.66v-.54l-.73-.69.1-.49-.14-.43H308.41l4.17-.06h4.78l3.26-.07h1.53l2.72-.08 1.82-.06h1.87l3.21-.12h1.05l2.73-.11h1l2.58-.11h1l1.21-.06 1.21-.06 2.76-.13-.11.7.24.43.13.22-.06.42.56.52.5.27.55.81-.28.47-.44.69-.39.58v1.35l.2.71v.16l.23 1 .43.53.35 1.23.59.75.8.46.46.11.46.11 1.13.21.45.25.33.68.36.94v.2l.59.31.27.11.52.48.36.28.41.32.33.5-.11.59.34.53.67.46.24.12.5.25.65.32.52.57v1.03l.23.51-.12.82v.77l-.14.56v.46l-.61.45h-.06l-.61.56v.67l-.2.44v.92l-.24.28-.52.27-.44.58-.53.09-.6.08-.47.47-.84.48-.88.07-.84.11-.58.39-.45-.08-.64.13-.35.78v.49h0l-.35 1.2.37.48.45.66h.46l.46.7.08.54v0l.11.71v.92l-.32.61-.59.65-.48.69v.58l-.21.78v.74l-.66.52h0-.64l-1 .4-.34.45-.18.69.3.32-.09.83.11.74-.48.32-.85-.29-.25-.42-.49-.38-.49-.53-.14-.55-.55-.14-.17-.39-.35-.33-.14-.13-2.21.2h0l-2.49.18-1.8.12-1.08.07-1.94.13h-.81l-2.39.1-1.64.11h-.4l-2.21.1h-.3l-1.92.06h-.43l-1.87.07h-.7l-1.84.08h-18.42l.18-.26-.35-.7-.68-.41-.47-.39.57-.66h0l-.07-.87.32-.58-.09-.16-.2-.38.1-.67-.39-.64v-.93l-.05-.58.07-.5.05-.38h-.55v-.75l.22-.57-.37-.62V141.76l.05-.92-.63-.2-.12-.52-.12-.52-.79.22-.12-.46-.27-.74.07-.78v-.11l.21-.64.24-1-.45-.67-.2-.36-.33-.62.28-.91-.94-.68-.51-.35v-.94l-.81-.75.11-.68v-.7l-.16-.23-.58-.8v-1l.32-.71-.66-.41-.33-.27-.16-.11.17-.54v-.07l-.48-1.13-.66-.66-.33-.53v-.75" fill="#f8b1b8" stroke="#fff" stroke-linecap="round" stroke-linejoin="round"/><path d="M368.79 207.18l.73.07h.8l.27-.87.57-.06h0l.55.62.58.07.26-.81.24-.38.1-.16-.46-.73.46-.59v-.43 0-.82l.26-.65.14-.76v-.19l-.4-.31v-.51l-.47-.73h0l.69-1 .4-.71.59-.55.74-.1h.16l1.06.35.95.52.67.14.94.33.59.36.35.21h.61l.31-.45.16-.74-.6-.94-.55-1 .25-.71.16-.87.5-.34h0l.65.18.79-.74 1.35-.31 1-.38-.06-.22-.09-.34-.71-.57v0l-.4-1.1.25-.63.74-.71.28-.82.65.19.37-.14.32-.42-.44-.71.1-.42v-.12l.52-.23.76.58.9-.32.13.12.38.35h.61l.13-.68.59-.43h.78l.39-.23.32-.19 1 .43.32.18.39.22.17.1.85.29.51.43.4.52.44-.89.1-.68.3-.66.35-.12.53-.18.52-.56.64-.42h0l.39.54.72.84.73.26.13.05.36.13.09-.77h1l-.26-.9-.06-1 .36-.11.17-.05.35-.61h0l.45-.58.32-.19.36-.21.53.64.9 1 1.22.06.74.47.36-.33.22-.2.25-.19.3-.23.06-1.18V181l.52-.78.19-.63h.24l.49.09.69-.46.33-.71.07-.51.08-.56.32-.51.93-.35.21-.53.41-.33h0l.15-.33-.23-.54-.07-.16-.12-.85-.19-.74.49-.38h.73l.61-.16.42.22.44.3.17.12.42-.16.73-.74.52-.3.6-.35 1.11-.3h.48v-1.05l.09-.33-.5-.16-.39-.19-.16-.07.42-.63-.25-.53-.35-.39-.25-.27.35-.41.39-.43.67-.68.42.16.45.43.62.21.16.05.57-.44.47-.09h.14l.11-.22.19-.1.19.08.18.41.41.48.83.17.07.09.31.4.16.46.73 1v.53l.1.17.19.32.86.12.92.14h0l.75-.32.56.11.27.07.59.15.26.47.58.22.19.51.75.19.3.07.33-.21h0l.1-.53 1-.45 1.06.33h.7l.67.46.41.28.21-.23.24-.25h.74l.43-.34.12-.46.68-.61.12-.14.17-.21.71-.29.55-.26.1.19.17.31.09.56.34 1 .49.39.14.11h.82l.61.51.14.09.55.36.38.73.06.58v.51l.34.37v1.12l-.07.57-.16 1 1 .88 1.08 1.07-.08.56v.31l.84.52.28.38.39.53.54.48.11.22.39.8.83.35 1 .67.94.58 1.06-.06-2.21 2.64-1 1.22v.06l-.39.5-1 .45-1.06.75h0l-.07.06-1.6 1.42.15.75-.25.52-.68.33-.52.54.15.74-.15.19-.1.23-1.22.66h-.7l-.33.82-.14.77-1.07.38-1.57.78-.52.36h-.27l-.73.1-.91.58-.61.55-.14.28-2.26.24h-.4l-.63.05h0l-2.65.3h0-.38l-2.64.27-3.09.28h-.08l-1.77.08H418.09l-2 .18h-.22l-1.55.29-.57.11-2.7.22-.63.05-.95.07h-1.14l-1.18.05-1.38.07-2.3.11h-1.07l-.46.25h-.13l-.51-.11-1.73.22-.55.07-2.75.3-.6.06-2.45.26h-.13l-3.25.34h0l-.59.07-1.76.2v-.43h-2.47l.22.65.34 1.09-.13.74h0l-.82.09-4 .29h-.3l-3.34.25h-.2l-1.44.1-2.75.15-1.49.17-.8.09-1.36.11-.4-.54.27-.53M473.36 155.2l-.44-2.6-.4-2.64.89-.16 3.64-.67 1.23-.22 1.26-.23.89-.17 3.61-.66.39-.07h0l2.56-.48h.24l3.22-.61 3.15-.6h.1l2.3-.46h.24l2.28-.46h.09l2.13-.45.74-.16 1.53-.32 1.57-.33 1.88-.4h.07l1-.22 3.38-.73.25-.06 1.25 4.7h0l.31 1.1.19.68.39 1.41 1.2 4.26.75 2.64h0l.28 1 .07.25.32 1.13 2.3-.41 1.47-.3 1.66-.35 1.44-.33V160l-.14.22-.15 1.35-.09 1.33-.07.51-.3 1.06-4 1.35-.36.71-.63-.16-.66.12-.66.92-.34.1-.24-.78.25-1-.08-.29-.17-.55-.85-.15-.24-.85.79-.37-.18-.23-.2-.27h-.62l-1 .14.27.91.4.85.2.61h-.48l-.62-.42-.12-.95-.62-.44-1.09-.83-.48-.17v-.53l-.44-.5-.85-1.1.48-.82-.21-.35v-.58l.5-.17h.31l.4-.08-.14-.41-.14-.43-.26.09-.53-.49-.38.08-.41.57h-.29v-.62l-.61-.26v-.46l.71-.27.25-.84.66.43.25-.3-.14-.35-.19-.49-.09-.5-.5.11-.66.38v.74l-.42.23-.1-1.26.22-1 .12-.51.42.07.38.07-.23-1-.22-.36-.41-.29.17-1 .17-.85.27-.47.08-.55.41-.61.47-.32.2-.13.3-.36-.17-.52-.27.06-.24.06-.76.84-.66.9-.61.87-.22.45-.19.39-.43.33-.24.43-.4.08-.36.09v.09l-.17.34 1.16.43.22.68.13.54.37.36-.5.52-.16.41.27.17-.1.5v.08l-.12.29-.18.52.32.12-.25.79-.25.49.43.37v.16l.12.68.33.63.15 1.07.43.72.56.46.77.6.15.38v.72l.35.14v.82l.59.76.47.48v.47l.27.85-.66-.48-.74-.42-.53.16-.74-.38-.71-.74-.94-.1-.71.14-.75-.09h-.24l-.43-.06-.74-.46-.67-.38-.49-1-.22-.3-.57.42-.47.3-1.06.54-.67-.66-.14-1.44.5-1 .54-.3-.07-.29-.13-.53.41-.53.06-.07.28-.06v-.53l-.09-.53V158l.5-.77.59-.91-1.19-.81-.49-.33-.66 1-.37-.36-.6.07-.55-.15-.1-.57h0l-.73-.22h-1.68l-.28-.37-.45-.13-.12-.55.3-.41.19-.51h0l-.47-.37-.67-.27-.43-.24h-1.43l-.36-.39-.07-.68-.81-.91-.2-.32-.2-.32-.23-.84-1.06-.09-.83.25-.27-.23-.71-.59-1.47.46-.84.56-.2.07-.51.19-.43.92-.14.56h-.08l-1.3.19-.72-.07-.58-.06-.48-.68-.41-.34-.63 1.33-.78 1.21v.57l-.92-.31-.33.07-.25.05-.62 1.14-.83 1.21-.19.27-.66.57-.63.82-.61.43-.31-1.93" fill="#f37f88" stroke="#fff" stroke-linecap="round" stroke-linejoin="round"/><path d="M513.48 166.35l.38-.24.39.38.15.93-.71-.07-.21-1" fill="#f37f88" stroke="#fff" stroke-linecap="round" stroke-linejoin="round"/><path d="M285.4 35.32h19.34v-5.26l.88.42.64-.22h.34l.69.48.58.16.19 1.47.23 1.23.23.35.31 1.37.36 1.6v.61l-.07.7.71.71 1 .5.59.09.15-.08.38-.19 1 .07.29.3V40l1.49.15 1.54.14h.78l.38.81-.08.61 1.33.11 1.05-.2.88-.26v-.64l.87-.21.22-.3L323 40l.62.22h.51l1.25-.1.58.49 1.59.72.87-.08.05.48-.22.58.78.33.57-.12.57.45-.1.87.53.76.48 1 .5-.3.16-.53v-.63l.29-.44.94-.15h1l.54.5.23 1 .83.1.92.4.16.07h.62l.26 1.1 1.26.1.19.75.72-.22 1.21-.1.81-.24.85-.83 1.1-.74h0l1.15-.71.59-.12.42.89.31.76.7.33 1.28-.44.91.18 1.45-.05 1.7-.22 1 .28.59.9 1 .36 1.09-.54 1.18.09 1.28-.13-.58.59-1 .39-.7.51-.51.41-1.2.49-.45.47-.91.33-1.07.52-1.27.42-.91.31-1.07.51-1 .71-.81.49-1.21 1-1.41 1.35h0l-1.12 1.22-1 1.47-1.1 1.25-.64.7-1.09.74-.64.91-.86.65-.52.58-.12.13-.93.63-1 .84-.45.43.51 1.34h-.35l-.49-.31-.41.06-.36.52-.2.43-.84.05.09 2.33v1.09l.09 2.41v2.37l-.42.33-.11.51h-.4l-.55.26-.21.42-.71.07-.33.35-.73.33-.61.59-.35.69-.14.64-.46.76-.14.11-.27.21-.13 1v.07l.1.91.79.12.44.06.3.44.43.73.41.47-.09.59-.37.85-.46.58-.13.16v1.26l.26 1v.14l-.59.69.43.59.15 1.13-.12 1.12h0v.1l-.33 1.22.13.13.62.6.36.34.82 1 .7.47 1.5.22h.38l.46.26h0l.26.73.47.42.13.12 1.23.39.27.12 1.23.54.5.6.29 1.21.4.46.39.45 1 .45.75.87.77.49h.14l1.21.26.18.23.71.91.71.87v.08l.49 1-.1.67-.12.84.25.92.23.49.2.9-2.76.13-1.21.06-1.21.06h-1l-2.58.11h-1l-2.73.11h-1.05 0l-3.21.12h-1.81l-1.82.06-2.72.08h-1.53l-3.26.07h0-4.78l-4.17.06h-15.91v-4.9h0v-4.87h0V86.75l-.12-.27-.12-.27-.38-.41-.4-.15-.55-.31h-.57l-.35-.38-.31-.59-.37-.8-.53-.71-.08-.11-.07-.36.26-.48.8-.66.71-.42.42-.68.43-.49.15-.77.09-.88-.1-1.14v-.07l.18-.87-.39-1.9v-1.39l-.45-.55L290 71l-.33-1.82-.39-.89v-.09 0-1.99l.26-1.88-.7-1.33.15-1-.06-1-.08-1.22v-.54l-.18-2.24V55.18l-.26-1.07-.1-.32-.32-1-.63-1.39-.36-1.28-.28-1.29-.34-.91-.38-1.08v-.34l.13-.89-.07-1.2v-1.19l-.08-1.41v-.16l.05-.55.42-1.16-.19-.63-.29-.82-.31-1.32-.36-1.09v-.76" fill="#f8b1b8" stroke="#fff" stroke-linecap="round" stroke-linejoin="round"/><path d="M299.32 153.09h18.49l1.84-.08h.7l1.87-.07h.43l1.92-.06h.3l2.21-.1h.4l1.64-.11 2.39-.1h.81l1.94-.13 1.08-.07 1.8-.12 2.49-.18h0l2.21-.2.14.13.35.33.17.39.55.14.14.55.49.53.49.38.25.42.85.29-.49.81-.21.75v.3l-.06.68v.43l.21 1.29.18.82.55 1h0l.11.52v.88l.43.32.41.46v.71l.69.57.33.27 1 .9.1.08.31.64.52.07.42.6.31.64 1.11.61h0l1.07.78 1.24 1.12.1.45.22 1 .33.69-.32.68.46 1 .2.69.06.2.71.6h.43l.57-.59.3-.74h.78l1.08.45h.24l.51.09.26.15 1.05.64v.62l-.5.5h0l-.43.68.19.53.17.38h0v.7l-.64 1-.06.2-.05.17-.09.32-.14.82-.52.75h0l-.07.1-.2.78.17 1.22.15.23.35.52.81.71h0l.4.45.15.08.9.48.52.46.83.59h.58l-.17.68.49.52.12.13.76-.52.8.64 1 .51.12.25.25.51.87.45.78.33.24 1 .18.62V193.3l-.09.42.51.86.55.79v.72l-.48.33-.23.16-.2.62.4.27.14.1.22.91.88 1.14.33.83.59.16.56.15.72.31.69.06.4.31v.19l-.14.76-.26.65v1.25l-.46.59.46.73-.1.16-.24.38-.26.81-.58-.07-.55-.62h0l-.57.06-.27.87h-.8l-.73-.07-.27.53.4.54.24.49-.2.6.4.56-.11.48h-.25l-.62.06-.09.48.67.4-.5.59-.85-.09-.14.34.77.51h0l.4.65-.54.49-.39.33-.08.88-.44.31-1.88.14h-.65l-1.62.12-2.08.15-.9.07.29-.74.45-1 .64-.41.13-.65.34-.22.36-.23.41-.75.54-.56v-.76l-.05-.41-.75-.36-.16-.62-.17-.49h-.75l-3.05.15-.91.05-2.11.12H355l-2.61.14-1.21.07-3.1.16h0-.48l-2.15.07h-.33l-3.5.16-1.5.07h-.33l-2.23.09-2 .07h-.39l-2.32.08H332l-3 .1-1.87.05h-8.71l-3.17.05h-2.86V197.17l-.06-3.42V182.17h0v-8.43l.16-.59h-.34l-.61-.38-.66.2-.55-.43-.08-.07-.29-.5-.35-.45-.55-.69.19-1-.62-.09-.21-.31-.18-.26-.74-.75-.45-.55-.24-.29.39-.32.31-.26v-.26l.07-.55.7-.48v-.52h.77l.41-.36-.12-.33-.08-.67v-.09l-.54-.69-.25-.34h-.72l-.66.51-.65-.47-1-.67-.83-.78-.43-.41h-.36l-.34-.6.21-.55-.4-.46-.52-.67.09-.67-.79-.32v-.08l-.06-.38-.48-.26-.58-.18.13-.62-.09-.42-.37-.95-.11-.42-.19-.42v-.05h-.45l-.09-.83M463.41 115.11l1.23-1 1.55-1.5.59-.9.89-.79.82-.64.51-.36v-.07l.14-.66.4-.52v-.64l.7-.51.61-.54.42-.73-.09-.18-.14-.28-.27-.53-.35-.21-.08-.65-.24-.24h-.35l-.68-.41v-.89l-.15-.1h0l-.58-.06v-.8l.06-.29-.26-.94-.27-.53 2.31-1.14 2.73-1.25.81-.17 1.35-.29 1.83-.38 1.52-.14H480.34l.48-.06 1.15.61 1.22.44.46-.3 1.18-.57.33-.16.78-.11 1.31-.38 1.34-.07.47-.09 1-.7.69-.33.41-.36.33-.28.37-.95.12-.12.86-.91.83-.89.45-.16h0l.53.08.78-.41.19-.7-.15-1-.14-.41-.33-1-.3-.66-.82-.59-.68-.08h-.82l.17-.65 1.17-.92-.43-.67-.68.05v-.59l-.17-.36.05-.48.12-.48.36-.63.75-.31.34-.43-.1-.57.58-.39.8-.86.5-.13.7-1 .21-.29.12-.73.27-.69 1.51-2.38 1.1-1.64.72-.88.6-.87 1-.82.65-.58.51-.52.06-.29.8-.27.61-.59.94.13.18-.06.77-.25.32-.1 1.69-.36 2-.4 2-.54 1.46-.4 2.25-.57 2.83-.79.12.55.23.7-.19.92.24.38.29.19.09.06-.05.75.09.71v1.16l.39.66.06.06.2.19.47.45.41.86-.07.85v.38l.26.61.22.62v.08l-.23.45-.23 1v1.77l.4.35.07.5.19.61.51.66v.83l.11.11.43.44v.26l-.14.81-.07.61.09.84.39.35.48-1 .49.48.66.56.46 2.36.14.67.79 3.84v.07l.25 1.2.32 1.52v.46l.45.7v3.44h0v2.31l-.1 3.87.29.4v.05l.56 3.13.39 2.18.06.35.28 1.58.21 1.2.15.9h0v.12l.16 1 1 1-1.85 1.86-.27.27 1 1v.19l.08.25h0l-.26.72-.51.51v.46h.35l.58-.26.31-.36 1.13-.57v-.42h.53l.38-.39.71.2 1.05.07h.07l.74-.53v-.38l.3-.31.74-.07 1.83-.48 1.51-.55 1.18-.58.67-.83.45-.74.49-.45.25-.52.58-.38.9-.78.13.19-.5 1.11-.14.66.76.2.51-.32.15-.94.48.08.05.68.56.34.76-.93.38-.23h.68l-.59 1.09-1.46 1.07-1.85 1.28-.87.75-3.34 2.33-1.52 1.12-.8.69-1.26.79-.59.37-1 .38h-.49l-.69.42-.58.35-.21.13-1.34.48-1.15.18h-.25l-.47.33-1.08.74-.4-.17-.21-.09-.52-.15h0l-.22-.06-.41.82-.78.7-.59.27v-.61l.29-.26v-.5l-.11-.53h0l.26-.26h.1l.74-.25.12-.25v-.05l.14-.32h0v-.98l.17-.63.07-.29V123l.08-.5v-2.04h0l-1.7-.49-2-.61-.26-.08h0l-.78-.25-.76-.28-1.07-.39-2.76-.94-.62-.85h-.67l-1-.12-1.07-.35-.87-.94-.11-.39-.15-.52-.38-1.51-.37-.64-.51-.44-.36-.05-.48-.07-.81-.15-.48-.79-.64-.52h-.19l-1.2.18h-.06l-.71.16-3.21.7-2.38.51-.4.09-3.21.67h-.11l-.86.16h0l-3.74.76-.4.08-.42.09-5.67 1.35-1.42.28-.83.16-2 .38-1.78.34-.66.13-.38.07-2.94.53-3.28.61-.65.12-.79.14-4.19.75-1.41.24-1.53.26-.33-1.83-.33-1.92" fill="#f37f88" stroke="#fff" stroke-linecap="round" stroke-linejoin="round"/><path d="M544.92 111.92l.88-.46.23.51-1.13.53v-.58M9.33 77.83l1.16-1.27h0l.91-1.44L12 74l.42-.81.32-.58v-.48l.62-.4 1-1.06 1-1.46.36-.68.64-1.2 1-2 .29-.6 1.06-2.52.64-1.72.14-.56v-.14l.82-1.64.36-1.14.71-1.71.3-.94L22 53l.26-.47.84-1.42.52-1.24v0l.72-1.22.31-.95.35-.82.12-1 .52-1.06.09-.83.58-.92.47-1.27.19-.63-.08-.73.13-.34.26-.71.23-1-.09-.59.65-.25.34-.84.12-1.42-.53-1 .55-.38.57 1h1.58l.27.43.64-.21h.75l.48-.3.68.05.33.68-.22.63.41.64h.07l.78.25.74-.17.5-.11.46.19.84 1 .27.5.47.44.18 1.06.19.83-.16.65.07.68-.09.22-.23.53.12.77-.17.4-.26.63.1.29.1.3.75.72 1.33.77.43.41h.6l.35.5.64.24h.15l.72-.2.79.14 1.05-.18.6-.25.3-.05h.25l.43-.33L47 47l.67.37h.67l1.36.06.07.06.7.55.14.11.85.07 1 .77.06 1h.62l.47-.33L55 50l.25.19.16.12.49-.31 1.73-.18.42-.18.2-.09.42.1.64.84h.16l.8.22h1.23l.69.11.82-.47h.72l.76-.19.36-.09 1 .05h.65l1.29.19.87-.68H69l.72.46H72l1.22.4.7-.2.84-.39h0l2.93.7.67.16 2.27.55 3.52.84h.19l2.47.58 1.08.27 1.17.29 1.2.29 4.16 1 .17.56.1.76.41.9.08.17.45.3.55.75.68.2.42.73-.09.74.43 1-.52.59L95.86 63l-1.22 1.57-.29.58-.09.18-1 1.8-.39.43h0l-.69.51-.32.68.09.73-.48.73-.32.36-.58.64-.89.24-.56.3-.55 1-.76 1.19-.34.41-.71.47-.06.74-.39.43.16.48.14.49-.29.4-.07.1.36.51.54-.15.48.69.85.21-.06.58.57.34V80h0l-1 .75.22.85-.36.59-.43 1.16-.14.18-.55.7-.46 2-.27 1.09-1.76 7.82-.67 3-1.35 5.86-1.17 5.2-1.73-.4-2.08-.46-2.22-.5-2.51-.58-3.26-.75h0l-3.06-.71-2.77-.63-2.26-.57-2.08-.51-1.16-.3-.36-.09-3.66-1-2.74-.68-1.83-.47-3.2-.83-1.91-.5-1.88-.5-1.55-.41-2.14-.64-1.89-.51h-.08l-2.28-.66-1.7-.5-2.53-.75-1.86-.56h0l-2.1-.61-3-.8-2.44-.7-1-.38-.83-.2-1.18-.26-.85-.29-.85-.22-1.38-.35-1.68-.49-1.77-.54-2.03-.67-.39-.81-.34-.43-.11-.94.12-.71v-.69l-.17-.4.24-.76v-.64l.27-1.22.77-1.23.22-.78.13-.85-.29-.35.08-.18-.42-.79v-1.55M361.67 229.45l.39-.19.77-.19.14-.58.21-.54.8.1-.14-.64v-.55l-.1-.65-.8-.3.48-.45.33-.85-.32-.64.46-.22.29.09.22-.61-.3-.53v-.76l.9.07.14-.27.09-.68.62-.3-.27-.32-.69-.59.41-.86.59.06.72-.54.8-.43-.1-.53.06-.37.82-.35v-.12l-.06-.25-.41-.34-.57-.71.44-.31.08-.88.39-.33.54-.49-.4-.65h0l-.77-.51.14-.34.85.09.5-.59-.67-.4.09-.48.62-.06h.25l.11-.48-.4-.56.2-.6-.24-.49 1.36-.11.8-.09 1.49-.17 2.75-.15 1.44-.1h.2l3.34-.25h.3l4-.29.82-.09h0l.13-.74-.34-1.09-.22-.65h2.47v.43l1.76-.2.59-.07h0l3.25-.34h.13l2.45-.26.6-.06 2.75-.3.55-.07 1.73-.22.51.11h.13l.46-.25h1.07l2.3-.11 1.38-.07 1.18-.05h1.14l.95-.07.63-.05 2.7-.22.57-.11 1.55-.29h.22l2-.18H419.72l1.77-.08h.08l3.09-.28 2.64-.27h.38l2.65-.3h0l.63-.05h.4l2.26-.24.14-.28 2.25-.27 2.17-.27 3.23-.4 1.7-.21 2.44-.36 1.34-.2 2.13-.3.56-.08.77-.11h.31l2.33-.34.08-.33 1.06-.14 2-.26-.29.38-.14.75.2 1-.32.82.15.32.32.68-.7.07h-.72l-.74.75-.08.22-.13.34-.21.55-.55 1.56-.53.34h0l-.51.09-.22-.42-.83-.2-.09.09-.45.44h-.37l-.51.33-.63.54-.06.16-.39 1-.43.41-.5.47-.63-.2.07-.75-.13-.14-.3-.31-1 .77-.55.44v.58l-.26.44-.54-.26-.34.24-.17.12.22.71-.33.72-.26.49-.11.2h-.79l-.52.24-.69.27-.34.58-.62.22v0l-.07.18-.28.68h-.56l-.74.8-.33.16-.44.63-1 .07-.73.08h-.11l-1.21.24-.78.71-.68.74-.39.24h-.06l-.15.1-.46.7.22.48-.3.37.26.71-.06.06-.69.72-.9.21-.56-.33-.6.68v3.38l-2.12.26-1.27.15-1.2.15-.55.07h-.39l-.58.07-1.31.16h0l-.74.09-2.49.31h-.14l-1 .13h-.24l-1 .1-1.48.15-2.93.28-5.07.48h-.09l-1.69.18-3.58.33h0-.6l-4.25.31h-.15l-4.34.33h-.22l-2.57.2-1.51.13h-.17l-2.3.16v.17l-.66.06-1.2.09h-.19l-1 .08-3.6.29h-.41l-2.2.17h-.11l-2 .15-1.75.13-.93.07-2.38.16-.91.06h-.8l-5.84.35.07-.47M171.32 268.12v-.81l.18-.39 2.84.3 2.08.22 2.38.25 2.91.3 7 .72 2.77.26.83.08 2.41.22 7.29.65h.52l3 .25 4.67.37 3.09.23.09-1.21.06-.81.39-5.27.07-.92.27-3.66.13-1.53.31-3.64.22-2.37.24-2.55h0l.32-3.55h0l.31-3.57v-.47l.19-2.66v-.14l.07-.94.26-3.37.14-1.79.22-2.9.2-2.67v-.54l.47-6.17h0l.13-1.64.33-4.44.45-6.26h.44l9.35.65 1.45.1 2.3.15 2.25.14 6 .34 1.46.07h.78l3.25.16h.52l2.62.12 3.42.15h0l-.26 6.25-.1 2.46-.16 3.68-.12 2.77-.14 3.37-.09 2.14-.17 4-.11 2.61h0l.79-.19 1 1 .26.28.58.76.75.79 1.1.13.19-.46 1.25.2h0l.57.25.32-.85.51.09.84.74.59.88.11.16.21 1.41.66.09.83.14.65-.09.58.08h.14l.77.63.75.09.79.37h.54l.49-.42.43.13.38.11.54.78.6.45.6-.23h.1l.2-.61.41-.39.52.16 1.07.29.64.2.36-.38.18-.18.26.71v.78l.17.65.89.11.67.08-.09.94v.65l1 .43.73-.42.52-.62 1-.91.72.34.14.65.4.33h0l.83-.27h0l.37.61.07.66.82.07.64-.64.84-.48.46-.19.45.95-.46.52.64 1.24.68-.18v-.55l.11-.54.27-.6.82-.42v-.45l.42-.36h.55l.09.62.53.79.65-.3.2.38.74.15.36-.63.26-.56.75.48h.05v.7l.23.17h.57l.25.63.76-.09.38.48.27.43.19.3.65-.57.35-.49.56.31.65-.74.25-.44 1-.13 1.49-.47.55.16h.77l.36-.2.6-.33.78-.14.77-.3h.87l.37.58.9.23h1.1l.48-.09.31-.06.34-.74.31-.45.82.32h.07l.64.44.56.59.75.13.49.58.43.48.71.51.87-.13.4.38.2.19 1 .46h.67l.52.67.49-.23.79.84.36.16.39.12.18-.15h.4l.75-.19.29.08.35-.31.47.19.82.06.34.28h0v13.87l.05 2.41v.4l.05 2.35v.81l.05 2 .15.17.63.73.82.45.39.68.3.54.63 1.45-.13 1.1-.2.51h0l.58.81.74.31-.27.51.63.55.37.74-.06 1 .75.56.16 1.07h.78v.79l.14 1.08-.08.61-.11.58.24.59-.26.67v.11l-.1.93-.56.92-.13.82-.65.78v.46l-.52.68.24.53.12 1.07-.42.4-.08.07-.16.94.66.74v.7l.13.71v1.67h0l-.41.44-.79 1-.25.85-.26.32-.24.29-.68.69.48.56.35.52.32.46-.28.17h-1.23l-1.15.18-1.27.51-2.33 1.08-.2.09-1.57.72-1.14.54-.91.53-.73.87.11.52-1 .74-2.7 1.86-1.08 1-.12.12-.81.62-1.29 1.25-1 .95-.71.11-.82.48-1 .58-1.17.69-1.58 1-2.32 1.07-2.39 1.19-1.66 1.09-.62.47-.15.11-.65.89-2.2 1.7-1.09.8-.9.75-.75.7-.43.4-1.45 1.71-.51 1v0l-.58.67-.64 1-.91 1.66-.13.27-.44.91-.5 1.15-.52 1.51-.14.55-.15.6-.29 2.42.12 2.42.52 2.55.43 1.41.41 1.35.32 1.27.37 1.46.45 3.09.07.9.07.64-.14.3-.64-.17-.9.34-.78.16-.36.28.07.46-.17.39h-.64l-.4-.54h-.54l-.58-.56-.5-.25-.76-1-.67-.24-.78-.13-.46-.33h-1.9l-.84-.08-.36.3-.65-.26H268.88l-.55-.21-.68-.53h-.06l-1-.65-.69-.59-.77-.24-.91-.3-.22-.12-.25-.13-.52.21-.55-.43-1-.87-.33-.61-1.06.13-.84-.53-.93-.28-.64.19-.35-.42.27-.69-.16-.33-.81-.71-.06-.27-.26-1.21-.07-1-.39-.89-.3-.77-.74-.53-.38-.69-.3-.75-.72-.63.1-1.12.18-.72-.16-.9-.17-.55v-.09l-.3-.38-.52-.17.58-1.46-.07-.55v-.68h-.39v-1.13l-.32-.49-.83-.31-1-.32-.64-.89-.52-.36-.51-.54-.39-.65-.3-.72-.14-.6-.16-.7-.64-.35-.49-1.17-.55-.74-1.19-.81-.28-.26-.83-.78-.22-.72-.37-.87-.16-.91-.35-.71-.23-.55-.06-.84-.61-.6-.61-.66v-.77l-.29-.66v-.59l-.48-.45-.57-1-.21-.75-.11-1-.1-.73v-.23l-.62-.44-.53-.58-.24-.84-.07-.07-.54-.56-.44-.53-1.29-.84-.72-1.37-.93-.26-.64-.69h-.75l-.57-.84v-.88l-.71-.36-.35-1.05-.62-.34-.6-.1-.68-.46-1.16.34-.72-.08-.56-.19-.57-.19-.79-.1-1.09-.25h-.68l-.64.17-.51-.11-.68-.55-.78-.39-.86-.53-.22.06-.39.12-.28.56-.33.75-.91-.26h-.53l-.49.36h-.75l-.79.08-.26.85-.6.72-.54.88-.41.45-.35 1.07v.63l-.62.62-.3.88.2.65-.62.66-1 .34-.55.77-.51.2-.36.79-.37.6-1.23-.23-.66.08-1-.59-1.18-.76-.69-.81-.62-.55-.8-.35-.77-.35-.71-1h-.06l-.74-.38-1.43-.32-.94-.57-1-.82-.4-.64-.52-.81-.91-.68-.74-.33-.91-.93-1-1.1-.2-1.34-.55-1.08-.56-1-.06-1.11-.18-.5.25-1.14v-1.47l-.39-.7-.2-.61-.66-1-.4-.32v-1l-.13-1.09-.33-1-.56-.13-.1-.23-.19-.64-.71-.26-.39-.49-.71-.61-.64-.69-1.13-.33-.9-.59v-.51l-1-.86-.76-.74-.2-.65-.48-.94-.92-.63-.71-.5-.2-.52-.77-1.29-.78-.51-.12-.66-.47-.38-.1-.07-.88-.18-1-.92-.64-.87-.45-.74-.18-.84-.48-1-.17-.35-.5-.64-.57-.17-.22.14-.46-.55-.58-.5-.55-.87.21-.58" fill="#f37f88" stroke="#fff" stroke-linecap="round" stroke-linejoin="round"/><path d="M434.47 199.81l.91-.58.73-.1h.27l.52-.36 1.57-.78 1.07-.38.14-.77.32-.84h.7l1.22-.66.1-.23.16-.36-.15-.74.52-.54.68-.33.25-.52-.15-.75 1.6-1.42.07-.06h0l1.06-.75 1-.45.39-.5v-.06l1-1.22 2.21-2.64.45.3-.45.89.59.4.1.42.53.74.6.58h.84l.4.4h.06l.74.42 1.28-.26.27-.28.48-.46.56-.38.58-1 1.72 1.2 1.13-.8 1.23-.49h.16l.66-.18.85-.55-.63-.6.12-.53h.07l.22-.08.84.61 1.05-.77 1.17-1.05.92.5h.06l.74-.8 1-1.23v-.7l.55-.63h0l-.88-.71h0l.26-.53.28-.94.1-.65.59-1 .68-1 .17-.26.52-1.18.05-.28.13-.71.07-1.05.59-.8.49-.57.09-.1-.27-.53.64-.72.3-1.12-.09-.45.12-.69v-1.16l1.23.33.94 1.21 1.21.22h.8l.56-.92v-.09l.17-.72.31-1.18.52-.85v-.43l.15-1.05.27-.58.15-.62 1.57.82.34-1 .35-1 .89-.62.51-.91.56-.48.2-.66.16-.55.82-1.16-.23-.37.12-.75-.07-.54.45-1.18-.11-.78-.25-.77 1.44.81.51.29 1.89 1.07h0l2.51 1.41h0l.1-.54.17-.9.37-1.39H493.43l.43.24.67.27.47.37h0l-.19.51-.3.41.12.55.45.13.28.37h1.68l.73.22h0l.1.57.55.15.6-.07.37.36.4.35.64.39.07.37.14.68v.09l.09.53v.53l-.28.06-.06.07-.41.53.13.53-1 .2h-.24l-.32 1.11V163l.29 1.14.44.37.25.21 1.06-.39.72-.25.46-.2.38.37v.38l.38.26.08.06.43.35v.41l.6.12.87.31 1-.18.71-.06h.78l.25.5.81.42.36.36.26.26.81.41 1.31.33 1 .45v.81l-.52.66.19 1V171.82l.69.62v.88l.15.28.29.53.46 1 .16.64-.1 1-1.17-.68-.36-.23-.09.07-.33.26.74.88.39.46-.1.32-.12.38.61.38h.06l.49.59.26.29.32.36v.46l-.07.76.1.09.22.19.18.15.94.28h.15l1 .07.43-.36h.52L518 183l.75 1.39.52.77.5 1-1.74.38-1 .22-2.08.44h0l-1.95.4-.55.12-2.15.44-1.92.46h0l-2.7.55-.28.06-1.19.24-4.94 1h-.19l-1.45.29-1.6.32-1 .19-2.09.42-1.46.29-.58.12-2.46.45-.68.12-1.6.29-2.15.4-.88.16-1.37.25-1.39.25-.45.08h0l-2.21.38-1.95.33-1.49.25h0-.29l-2.66.43-1.52.16h-.1l-1.91.2-1 .11-1.49.25-.68.11h0l-1.78.21-1.27.13-2 .25-1.62.2-2 .18.29-.38-2 .26-1.06.14-.08.33-2.33.34h-.31l-.77.11-.56.08-2.13.3-1.34.2-2.44.36-1.7.21-3.23.4-2.17.27-2.25.27.61-.55M515.89 176.45l.16-1.18-.11-1.08v-1.72l.25-1.08.22-1 .37-.75-.19-.56.81-.53.26-.53-.75-.62.8-.85.36-.71 4-1.35-.63 2-.32.69-.68-.1-.43.62-.41 1.3-.17 1.27-.08.79.22.65-.47 1.21.13.21.12.2-.44 1.23v.56l-.35.63v.73l-.08.79-.64 1.22-.4.5-.43-.06-.46-1.17-.56-1.33M327.39 81.55l.13-1 .27-.21.14-.11.46-.76.14-.64.35-.69.61-.59.73-.33.33-.35.71-.07.21-.42.55-.26h.4l.11-.51.42-.33v-2.37l-.09-2.41v-1.09l-.09-2.33.84-.05.2-.43.36-.52.41-.06.49.31h.35l.53.31.72-.14h.65l1.65-.7.67-.35h.61l.94-.49.49-.14.42-.42.55-.17.41-.44.44.29.34-.37.41-.15.49-.35.46-.34-.09-.79.61-.31.71.51.46.31.62.59-.46 1-.56.83-.17.37.3.55-.57.61-.14.58-.2.36.3.05h.26l.64-.5.32-.14.36-.32.14-.65.75.61 1 .79h.16l.41-.07.68.35.19-.08.32.43.52-.3.48.45.7.22.62 1.07.44 1.14 1.89.4 2.87.6 5.41 1.09 1 .51.59.3 1.23.61.69-.13.56.14h0l.23.32.43-.05.16-.36.65-.13 1.18.48.27-.19.72.39.61-.1.68.17.62.29h0l.46.62-.53.8.32.29.49.15h.09l.5-.22.32.41.86.06.5.41.29.24.27.39-.4.33.51.57-.05.49-.1.71v.72l-.37.44v1.28l.62-.06.48-.06.4-.44.5.17v.74l-.35 1-.24.7.52.61.52.57.58.1-.29.73v1l-.65.09-.64.22-.49.16-.26.44.11.7-.14.24-.45.59-.29.91-.38.54-.09.61v.19l.1.76-.38.55.39.44.62.08.39-.66.27-.51.87-.51.12-.21.11-.2.1-.05.16-.24-.05-.44.65-1.1.58-.8.49-.12.14-.18.66-.29.46-.72.46-1.15.62-1 .15-1.22.61-.14.48-.56.06-.67.46-.55.39-.13.4.08.07.88-.59.62.05.73-.1.79-.66 1-.4.94-.1.88-.62.8-.35.9-.44 1.39-.2.64-.38.66-.36 1.8-.28 1.9v.09l.31.84.2.67-.26.74-.57.44-.48.74-.29 1.66L380 103l-.05.27.17.88.32.58v.63l.07.6-.7 1.7v.98l-.4 1-.35 1.62.06 1.55v1l.38.83-.2.7.62 1 .19 1.22.09.1.07.09.62.75-.09 1.2-.13.47-.1.35.09.91.24 1.21-1 .07-3.09.22h-.18l-.9.08-2.07.17-2.05.18h0-.71l-1.68.11h-1.05l-3.31.19h-.36l-.94.05-3.53.19h-.91 0l-3 .16-2.08.13H354l-2.11.1-.36-.94-.33-.68-.45-.25-1.13-.21-.46-.11-.46-.11-.8-.46-.59-.75-.35-1.23-.43-.53-.23-1v-.16l-.2-.71v-1.35l.39-.58.44-.69.28-.47-.55-.81-.5-.27-.56-.52.06-.42-.13-.22-.24-.43.11-.7-.2-.9-.23-.49-.25-.92.12-.84.1-.67-.49-1v-.08l-.71-.87-.71-.91-.18-.23-1.21-.26h-.14l-.77-.49-.75-.87-1-.45-.39-.45-.4-.46-.29-1.21-.5-.6-1.4-.4-.27-.12-1.23-.39-.13-.12-.47-.42-.26-.73h0l-.46-.26h-.38l-1.5-.22-.7-.47-.82-1-.36-.34-.62-.6-.13-.13.33-1.22v-.1h0l.12-1.12-.15-1.13-.43-.59.59-.69v-.14l-.26-1v-1.27l.13-.16.46-.58.37-.85.09-.59-.41-.47-.43-.73-.3-.44-.44-.06-.79-.12-.1-.91v-.07M347 61.42l.35-.18.85-.31.87.2.17.26.36.76-.1.36-.22.29-.84.17-.45-.66-.33-.39-.55-.21-.1-.3M385.94 80.92l.92-.5.34.49-.52.89-.24.84-.63-.74.12-1" fill="#f8b1b8" stroke="#fff" stroke-linecap="round" stroke-linejoin="round"/><path d="M386 271.89v-2.24l.07-2.46v-1.14l.07-3.8v-1.88l.06-3.06v-5.07l.07-3.47v-2.98l.11-4.43V241l.08-3.32v-4.26l.1-3.81-.68-.37-.6-1v-.17l2.3-.16h.42l1.51-.13 2.57-.2h.22l4.34-.33h.15l4.25-.31h.6l3.58-.33 1.69-.18h.09l5.07-.48 2.93-.28.2.83.24.88.41 1.52.51 1.73.14.48.26.89.2.68.51 1.79.23.79.64 2.21.17.61.43 1.6h0l.24.86.51 1.83.44 1.57.47 1.69.18.64.21.75 1.11 3.98.08.29h0l.92 3.26v.12l.33.45.55 1 .15.28.42 1 .23.68.11.34.83.74.09.18h0l.43.86v1.13l-.25.4.66.36.82.51-.27.49-.1.18-.74.56-.64.77.22.66V267l-.42 1.1-.24.79.25.81.07.23.13.42v.53l.91.95.08.69.23.34-.07.36-.16.74.13.51-.2 1 .12.56v.38l-.16.53.12 1 1 1 .23.43.15.29.19.72h-.34l-1.37.16-2.22.27-1.84.23h-.12l-1 .12-2 .25-1.71.21-1.68.17-1.82.19-2.12.21h-.28l-2.08.2-1.49.13-1.16.1h-.55l-1.14.1-2.8.25h0l-1.78.17-1.36.13-1.12.11-.94.09h0l.14.63-.41 1.24 1.23 1.27.26.39 1 .55.55.45.06.74-.29.79-.11.61.42.67.61.23-.74.53-.17.84-.71 1-1.63.58-1.92.47-.91-.07 1-.65.06-.63-.89-.75-.66-.82-.28-.55.3-.92-.2-.47-.27-.91-1-.37-.59.61v.79l-.15.6-.21.66.09 1.38-.27 1.16-.72.05-.74.09-.71-.64-.65-.22-.35.29-.3-2.41-.31-2.62V288l-.45-3.65-.2-1.61-.54-4.27v-.2l-.33-2.58-.13-1.06-.16-1.29-.12-1.44" fill="#f05057" stroke="#fff" stroke-linecap="round" stroke-linejoin="round"/><path d="M77.56 243.85v-.35l.6-.34.71-.85.13-.31.42.19H80.56l.54-.39.89-.72.22-.77-.1-.33.08-.68-.2-.78h-.06l-.64-.3h-.62l-.47-.19L80 237l.46-.69.21-1 .11-.34-.47-.56.27-.45.15-.73-.13-.43.62-.07h.45l.1-.13.52-.72 1-.68.1-.76.19-.75.32-.39.17-.34V227.37l.27-.47.06-.51-.22-.45.37-.34.77-.62.3-.39.16-.49.06-.19.3-.21.72-.19.71-.32.77-.14.72-.62.49-.19.1-.61v0l-.26-.61-.88-1-.67-.83-.49-.1.19-.91-.32-1-.18-1.62-.2-.52-.71-1.44-.49-.92.24-1 .12-.82.27-.9.2-.72.23.06.34-.19.18-1.74v-2.12l-.31-.64.22-1 .35-1.17-.29-.64.14-1.16.15-1.13.52-.51-.23-.58-.23-.65.06-.94.15-.78V196l.17-.45h.8l.49-.25h.64l.66.14.21.35.42.13.4-.2.49.13.29.56.12.66.43.48.57.4h.71l.22-.36.61-.87.78-.89.19-1 .16-.78.72-3.86.63-3.31.42-2.18.92.18 10.89 2 .74.13.76.14 3.11.55h.07l2 .34 10.33 1.73h.08l1.39.24 2.32.35 3.46.53h0l3.06.55 5.15.78h0l5.55.79 4.94.69-.25 1.74-1.46 10.56-.22 1.59-.24 1.72-.51 3.7-.49 3.5-.36 2.62-.41 3h0l-.74 5.3-.11.79-1.25 9-.19 1.34-.72 5.13-.39 2.79h0l-.82 6h0l-.68 4.88h0l-.66 4.75-.56 4-.9 6.44-9.2-1.33-7.44-1.1-7.24-1.12-3.23-1.83-11-6.34-10.55-6.15-4.51-2.68-11.42-6.87.1-.39.26-.35-.17-.23.25-.36M312.28 210.57h2.86l3.17-.05H327.02l1.87-.05 3-.1h.91l2.32-.08h.39l2-.07 2.23-.09h.33l1.5-.07 3.5-.16h.33l2.15-.07h.48l3.1-.16 1.21-.07 2.61-.14h.2l2.11-.12.91-.05 3.05-.15h.75l.17.49.16.62.75.36.05.41v.76l-.54.56-.41.75-.36.23-.34.22-.13.65-.64.41-.45 1-.29.74.9-.07 2.08-.15 1.62-.12h.65l1.88-.14.57.71.41.34.06.25v.12l-.82.35-.06.37.1.53-.8.43-.53.04-.59-.06-.41.86.69.59.27.32-.62.3-.09.68-.14.27-.9-.07v.76l.3.53-.22.61-.29-.09-.46.22.32.64-.33.85-.48.45.8.3.1.65v.55l.14.64-.8-.1-.21.54-.14.58-.77.19-.39.19-.07.47.78.77v.43l-.67.53h0l-1 .57h-.71l-.07.65-.35.36-.41.91v.55l-.24.43-.14.26.47.64-.19.62-.11.94.13.61-.73.48-.18.69-.81-.36-.39.32.18.74-.68.18-.28.62-.62.2.17.55-.12.33-.49.2v.55l.53.18.32.3-.17.65-.57.15-.42.27-.27.34-.51-.09-.45.36.62.21.13.5-.38.45.14.74.33.24v.6l-.69-.14h-.3l-.35.4.81.42-.26.77-.89.18.58.53-.65.52-.17.42-.1.25.33.49.23.42.3.48.42.46-.3.64.24 1 .46.07.23.56-.14.74-.2.7h-.57l-.3.53.74.58-.43.63-.07.1h-1.15l-2 .09h-.62l-4.5.19-2.27.09h0l-1.79.06-3.25.08-2.59.06h0l-2.87.06H332l-2.44.06H322.3l-2.67.06V251.55h0l-.34-.28-.82-.06-.47-.19-.35.31-.29-.08-.75.19h-.4l-.18.15-.39-.12-.36-.16-.79-.84V225.78l-.19-1.45-.3-2-.25-1.69v-.13l-.47-3.09-.25-1.61-.13-.84-.3-1.94-.39-2.8" fill="#f37f88" stroke="#fff" stroke-linecap="round" stroke-linejoin="round"/><path d="M383.78 187.78l.17-.37.19-1-.24-1 .43-.39.23-.65.32-.76-.58-.6v-.56l.62-.49.79-.61.49-.94.25-.7.09-.25.24-.65.61-.51-.11-.4.1-.37.09-.32.13-.73.76-.61.4-1.17-.33-.94-.18-.35-.16-.32.16-.44v0l-.1-.9-.57-.37v-.79L387 170l-.21-.77v-.13l.62-.68-.22-.49v-.17L387 167l.2-.41.49-.15-.15-1.7v-.11l-.17-1.83-.07-.81-.3-2.99-.16-1.81-.16-1.92-.12-1.44-.25-3.18V149.83L386 147l-.2-2.23-.15-1.61v-.2l-.18-2-.17-1.85h0l-.2-2.41-.07-.84-.22-2.5.6.45.55-.27.59.78h1.09l.39-.16 1-.39 1-.43.93-.68.23-.17.81-.49 1.89-.18h0l1.2-.12h.23l2.85-.3h0l1.69-.17 2.8-.29h0l1.36-.15 3.79-.43.61-.07h.37l3.83-.45h.2l.1.9.29 2.32.18 1.45v.25l.23 1.92v.26l.22 1.83.22 1.85.11.93.33 2.72h0l.26 2.18.12 1 .06.51.17 1.58h0l.06.6.29 2.85.16 1.43.13 1.24.29 2.67h0l.25 2.22.07.64.2 1.82.13 1.21h0l.12 1.09.2 1.7-.39.43-.35.41.25.27.35.39.25.53-.42.63.16.07.39.19.5.16-.09.33v1.05h-.48l-1.11.3-.6.35-.52.3-.73.74-.42.16-.17-.12-.44-.3-.42-.22-.61.16h-.73l-.49.38.19.74.12.85.07.16.23.54-.15.33h0l-.41.33-.21.53-.93.35-.32.51-.08.56-.07.51-.33.71-.69.46-.49-.09h-.24l-.19.63-.52.78v1.1l-.06 1.18-.3.23-.25.19-.22.2-.36.33-.74-.47-1.22-.06-.9-1-.53-.64-.36.21-.32.19-.45.58h0l-.35.61-.17.05-.36.11.06 1 .26.9h-1l-.09.77-.36-.13-.13-.05-.73-.26-.72-.84-.39-.54h0l-.64.42-.52.56-.53.18-.35.12-.3.66-.1.68-.44.89-.4-.52-.51-.43-.85-.29-.17-.1-.39-.22-.32-.18-1-.43-.32.19-.39.23h-.71l-.59.43-.13.68h-.61l-.38-.35-.13-.12-.9.32-.76-.58-.52.23v.12l-.1.42.44.71-.32.42-.37.14-.65-.19-.5-.76.07-.16M232.48 159.25l2.33.15 3.08.19 1.4.08.91.05h.33l2.48.14 3.21.17h.21l2.78.14 3 .14h.17l3.87.16 2 .07h1.31l3.43.12h1.2l3.63.11h2.36l2.45.06H277.91l3.84.07h.5l3.83.06h18.1l.83.78 1 .67.65.47.66-.51h.72l.25.34.54.69v.09l.08.67.12.33-.41.36h-.77v.52l-.7.48-.07.55v.26l-.31.26-.39.32.24.29.45.55.74.75.18.26.21.31.62.09-.19 1 .55.69.35.45.29.5.08.07.55.43.66-.2.61.38h.28l-.16.59V182.37h0v11.58l.06 3.42V203.15H280.62l-3.4-.06h-3.8l-2.61-.06h-.08l-2.11-.06-2.74-.09-2.31-.07h-1.43l-3.08-.11h-1.48l-1.29-.05-3.74-.17h-1.08l-5.13-.22h-.89l-2.46-.1h-1l-1.34-.06-1.61-.08-3-.15h-.78l-3.84-.21-1.39-.08h-.15v-.59l.06-1 .13-2.13.12-1.84.23-3.59.07-1.12v-.2l.31-5.27.13-2.1v-.09l.1-1.63.2-3.25.07-1.16.3-4.92.07-1.21.2-3.38.16-2.74v-.08l.2-3.45.16-2.59" fill="#f8b1b8" stroke="#fff" stroke-linecap="round" stroke-linejoin="round"/><path d="M539.7 54.77l.41-.2.12-.51h.65l.48.38.39.72.48-.06v-.75l.11-.39-.21-.37v-.49l-.27-.27.31-.53h.26l.35.33.51-.07h.45l-.17-.59-.46-.23-.67-.66.14-.81.24-.56.43-.59.22-.6h0l.87-.76.48-.58-.49-.61.1-.35.46-.78.53-.68-.1-.59-.23-.36-.44.14v-.53l-.22-.23-.05-.6.23-.64.09-.63-.64-.45.1-.91.07-.57.2-.28-.13-.42.32-.52.31-.42.26-.45.18-.32L545 35l-.22-1.7 1-2.88 1.38-4 .69-2 1.21-3.42.61-.09.5.08h.69v.63l.64 1.74.8.23.74.28.75-.76 1.07-.7.63-.28v-.47l.69-.42h.48l.75-.31-.22-.44.09-.44.85-.23h.66l.57.2.81.37 1 .48.51.16.89.85 1.13.43 1.1 3.61.8 2.57 1.4 4.29 1 3.22.41 1.34.36.19-.3.8.53.41-.17.76.41.61v.76l.86-.29.53.55h.45l1 .07.71-.35.43.34.35.92-.54.24.12.63.86.88v1.08l-.06.49.37.28 1 1 .6.23.3-.4.07-.67.72.07h.44l.67.53.39.52.25.5.84 1.05.63.34.14.75.54.3-.52.89-.34.49-.26.61-.32.75-.51.52-.4.68-.82-.12-.2.39-.46.18-.23.72-.09.7.31.39-.53.87-.77-.61-.33-.47-.41.48-.8.35-.3.53v.66l-.32.47-.42-.12-.05.08-.25.37-.35.06-.1.9-.66-.29-.3-.24-.56.36.33.56-.09.34-.16.57.69.39-1.3.26.07.53.2 1.25-1.07.19-.59.38-.23.21-.43.4-.07.92-.36.2-.4-.94-1 .56-.78.7-.51-.61-.5-.63.33-.52-.62-.45-.23-.16H563.29l.1.88v.62l.62.56-.2.63.36.38-.19.53-.54.12-.42.11-.15.85-.28.12-.2.63-.31.42-.56-.73-.35-.28-.17-.14-.15.53-.1.23-.35 1.15-.49.09-.18.31-.62.46-.41.23-.19.11-.17.76-.46.36-.15.43h-.22l-.27-.71H556.66l-.54.6v.51l-.61.13h-.09l-.09.63-.71.16-.11.46-.07.73.25.5-.32.35-.69.37h-.39l-.08.64.68.23-.38.77-.12.79-.41.42-.52.09-.12.18-.15.22-.19.89.24.55V82.48l-.15.46-.21.91-.31.32L551 84l-.78-.42-.1-.06-.16-.69h0v-.54l-.78-.56-.71-.6-.78-.54v-.76l-.09-.63-.07-.5-.2-.39-.2-.38-.57-1.75-.42-1.18-.2-.62-1-3.41-.68-2.23-.11-.35-.07-.23-.16-.52-.42-1.33-.25-.8-1-3.16-1.16-3.51-1.36-4.06" fill="#fce5eb" stroke="#fff" stroke-linecap="round" stroke-linejoin="round"/><path d="M565.8 68.11l.4-.4.47.67-.2.73-.66-.27v-.73" fill="#fce5eb" stroke="#fff" stroke-linecap="round" stroke-linejoin="round"/><path d="M528.42 118.33l1.85-1.86-1-1-.16-1v-.12 0h0l-.15-.9-.21-1.2-.28-1.58-.06-.35-.39-2.18-.56-3.13 2.59-.56 1.05-.22.75-.15.45-.09h.09l1.53-.36.51.43.34-.14h.08l.2-.53 1.3-.24.79-.25h.19l1.12-.27.81-.19 1.19-.28.64-.15.34-.08 1.16-.27 1-.24.85-.2.07.21.78 2.72.32 1.11h0l.3 1.15.16.59h0l.16.7.4 1.78-.41.17.25.78-.13.52-.32-.15-.69.27-.61.35-.72.23-.35.3h-.74l-.29.3-.51.43-.47.15h-.09l-.33.31-.25-.18-.65.29-.57.38-.12.08-.58-.12-.56.18h0l-.3.35-.69.25-.34-.26-.89.54h-.6l-.3.32-.12.13h0l-.26.46-.56.32-.12.47v.16l-.2.15h-.78l-.47.7h-.07l-.27.11-.33.13-.4.18.25.21-.25.46-.32.23-.48.06-.45.29-.39.41-.34.09-.53.57h0l-.08-.25v-.19l-1-1 .27-.27" fill="#f8b1b8" stroke="#fff" stroke-linecap="round" stroke-linejoin="round"/><path d="M511.34 142.34l.11-.54.27-.55.48-.52.68-.34.23-.12 1-.07.77.22-.35.6v.74l-.25.47-.15.59-.2.29.26.43.38.17v.62l.11.51-.62.41.34.51.68.59.22.2.5.46.84.77.38 1v.78l.35 1 .7.39.58.91.07.11.06.36 1 .78.94.57h.51l.21-.25.5 1.34.68 2.16.32 1.16-1.44.33-1.66.35-1.47.3-2.3.41-.32-1.13-.07-.25-.28-1h0l-.75-2.64-1.2-4.26-.39-1.41-.19-.68-.31-1.1h0l-1.25-4.7h.15" fill="#f37f88" stroke="#fff" stroke-linecap="round" stroke-linejoin="round"/><path d="M415 225.55l1.48-.15 1-.1h.24l1-.13h.14l2.49-.31.74-.09h0l1.31-.16.58-.07h.39l.55-.07 1.2-.15 1.27-.15 2.12-.26 2.17-.26 1.4-.17.78-.1h0l3.57-.45.79-.14.75-.13 1.8-.31 2.41-.39h0l-.09.66-.09.38-.61.65-.52.51-.31.48-.38.52.1.41-.32.48.06.16.17.42v.06l.76.43.71.4.8.2.68.63.08.07.59.44h0l.64.21h0l.73-.22.61.06.5 1 .29.54.61.8.08.11.42.56.17.43.35.87 1 .81.68.87v.06l.43.68.09.15h.52l1.07.84 1.31.48 1.16 1.1.35.56.25.39.53.59h.23l.33.06h.1l1 .57.17.2.37.44.81.32.18.71v1l1.08.4.12.79v.07l1 .39v.09l.18.62 1.22.5.52.12h.18l.75.46.55.33.18 1 .51.58.65.84.27 1.2v.07l.4 1.15.07.67.13.07.76.42.55.12h.12l1.1 1 .12.74.3.33.58.62.19.8-.22.58.09.13.44.64.21.87.94.26.33-.29.84.48.72.22.52.06v.51l-.63.73-.29.48-.56.89-.33.68-.36.79-.54.64v.33l.23 1-.32 1v.55l-.31.82-.4.89-.13.77.32.62v.13l-.11.73-.18.57-.59 1.08-.38.22.12.73-.11.81.15.34.07.17.19 1-.23 1.26-.13.75.32.8-.78-.07h-.25l-.38.17-.88-.07-.45-.14h-.77l-.42-.28-.57-.14-.72.07-.46-.33h-.5l-.53.66-.38.56V280.44l.51.68.12 1 .05 1.18-.07.63.09.46h-.12l-.51.18-.58.05h-.45l-.48-.72v-.71l-.43-.59v-.62l-2.42.12h-.49 0l-1.49.11-1.27.09-2.26.16-3.06.22h-.06l-2.08.13h-.58l-1.71.11-1.34.1-1.59.11-.93.06-2.24.15-.92.06h-.49l-1.93.14-1.14.09-1.13.08-4.07.25h-.61 0l-.74-.77-.29-.84-.09-.62-.66-.74-.33-.52v-.33l-.19-.72-.15-.29-.23-.43-1-1-.12-1 .16-.53V276l-.12-.56.2-1-.13-.51.16-.74.07-.36-.23-.34-.08-.69-.91-.95v-.53l-.13-.42-.07-.23-.25-.81.24-.79.42-1.1v-1.71l-.22-.66.64-.77.74-.56.1-.18.27-.49-.82-.51-.66-.36.25-.4v-1.13l-.43-.86h0l-.09-.18-.83-.74-.11-.34-.23-.68-.42-1-.15-.28-.55-1-.33-.45v-.12l-.92-3.26h0l-.08-.29-.91-4.1-.21-.75-.18-.64-.47-1.69-.44-1.57-.51-1.83-.24-.86h0l-.43-1.6-.17-.61-.64-2.21-.23-.79-.51-1.79-.2-.68-.26-.89-.14-.48-.51-1.73-.41-1.52-.24-.88-.2-.83" fill="#f05057" stroke="#fff" stroke-linecap="round" stroke-linejoin="round"/><path d="M440.92 226l.32-.48-.1-.41.38-.52.31-.48.52-.51.65-.6.13-.45.09-.66 1.08-.52 1.2-.58 1.23-.59h.43l.59-.73 1.18-.48.49-.2.82-.43.45-.42h1.32l.9-.1 1.89-.23h.1l.79-.08 1.08-.11 1.2-.13 3.1-.33 1.43-.14h.45l3.23-.32v0l.12.33-.13.72.25.36 1.05-1.06.39.4h0l.86.87.81.81.08 1.58 2.67-.34h0l2.72-.39 2.75-.41 1.69-.26h0l2.61-.41h.2l2.83 2 .15.11 1.22.86 3.85 2.83h0l3.48 2.49 2.17 1.54.47.34 1 .73-1.4.74-1 .89-.87 1.05-.69 1.07-.49 1.05-.28.61-.52.8-.38 1.21-.12 1.11v1.27l.17.42-.37.79-.59.61-.17.18-.39.35v.57l-.13.65h-.75l-.66.31-.53-.39-.6.52-.22.52.53.56-.29.46-1 .85-.26.68-1 .73-.5.53-.07.73-.86.78-.3.53-.88.19-.77.48-.41.52-.61.33h0l-.91.87-.74.22h-.12l-.66-.23v.17l-.09.33.43.65.35.44-.13.71-.89.71-.63.3-.6-.16-.89-.34-.52.55.52.3.78.56-.48.88-.95.87-.52.23-.05.31-.12.64-.72-.22-.84-.48-.33.29-.94-.26-.21-.87-.44-.64-.09-.13.22-.58-.19-.8-.58-.62-.3-.33-.12-.74-1.1-1h-.12l-.55-.12-.76-.42-.13-.07-.07-.67-.4-1.15v-.07l-.27-1.2-.65-.84-.51-.58-.18-1-.55-.33-.75-.46h-.18l-.52-.12-1.22-.5-.18-.62v-.09l-1-.39v-.07l-.12-.79-1.08-.4v-1l-.18-.71-.81-.32-.37-.44-.17-.2-1-.57h-.1l-.33-.06h-.23l-.53-.59-.25-.39-.35-.56-1.16-1.1-1.31-.48-1.07-.84h-.52l-.09-.15-.43-.68v-.06l-.68-.87-1-.81-.35-.87-.17-.43-.42-.56-.08-.11-.61-.8-.29-.54-.5-1-.61-.06-.73.22h0l-.64-.21h0l-.59-.44-.08-.07-.68-.63-.8-.2-.71-.4-.76-.43v-.06l-.17-.42-.06-.16" fill="#f37f88" stroke="#fff" stroke-linecap="round" stroke-linejoin="round"/><path d="M217.14 87.72h.18l.14-1.76.1-1.23.14-1.72.17-2.16.08-.94.22-2.67.13-1.6v-.24l.06-.88 3.74.31 2.2.17 2.11.16 2.17.16h1.12l1.71.12 1.5.11 2.17.15 2.35.16.85.05h0l2 .13 2.31.14 1.87.11 2.52.14 3.36.18 2.44.12h.13l2 .1 1.39.07 2.65.12h0l1.58.07h1l1.18.05 1.42.05 2.46.09h.85l2.74.1h1l2.06.08 3.36.08h9.69l5.06.05-.09.88-.15.77-.43.49-.42.68-.71.42-.8.66-.26.48.07.36.08.11.53.71.37.8.31.59.35.38h.57l.55.31.4.15.38.41.12.27.12.27v15.97h0v4.87h0v4.9h-1.47l.14.43-.1.49.73.69v.54l-.07.66-.57.12.2.47.06.14.31.37h.43l.16 1.09.2.42-.13.44-.06.21-.55.38.19.49-.28.39.2.26-.43.52v.62l-.42.71-.45.68v.75l.33.53.66.66.48 1.13v.07l-.17.54.16.11.33.27-.58.11-.24-.39-.89.05-.17-.3-.31-.55-.52-.53.13-.78-.82-.06-.24-.51h-.06l-1-.48-.61.13-.51-.46-.1-.08-1.09-.14-.34-.28-.49-.41-.24-.46-.65-.19-.4.13-.77-.15-.36.27-.33-.06-.32-.06h-.85l-.37.06-.67.1-1-.22-.58-.11-.2.17-.3.75-.47.4-.87.06-.7-.64-.43-.45h0l-.8-.3-.49-.2-.29-.17-.79-.47-.49-.17-.44-.49-.19-.5-3.56-.09-4.15-.13-2.85-.1-3.22-.13-3.55-.15h0l-8.17-.39-2.32-.13-8.7-.54h0l-3.32-.22-3.9-.28-2.12-.16-4.84-.38h-.29l-5.57-.45.33-4 .22-2.63v-.36l.06-.77.35-4.12h0l.34-4v-.55l.08-1 .38-4.48.14-1.68.35-4.27" fill="#fce5eb" stroke="#fff" stroke-linecap="round" stroke-linejoin="round"/><path d="M527.13 104.58l.1-3.87V98.4h0v-3.44l1.23-.26 1.2-.26h0l.89-.19.66-.14.55-.12 2.93-.62.58-.12h.07l.39-.08 1.29-.28.79-.17.79-.17.43-.09 1.52-.33.3-.07.93-.21.6-.13 1.1-.25 2.84-.65.58-.14.24-.64h.1l.62-.18-.23-.71.27-.43h.35l.53-.06.06-.38.07-.43.6-.31.29-.31h.71l.46-.15.45 1.19.58.87.58.45h.5l.26-.47h.46l.25.56-.4.88-.42.18-1 .5-.4.27.34.78-.43.41v.64l-.41.14-.27.09v.05l.31.85v.17l-.06.34.08.1.42.54.13-.24.22-.4h.38l.42.36h.67l.09.05.65.37.74.93.09.07.57.5.07.5-.2.64.33.57.62.12.21-.19.49.35.42.73v.63h.06l.56.4.61.14 1.24-.1.57.06.48-.45.88-.48.86-.66.13-.35-.19-.59-.75-.26-.26-.71-.1-.25-.28-.71h-.72l-.38.2-.71-.44.49-.41.46-.28 1 .13.8.73.34.68.13.27.83 1.46.52 1.57.23.94-.07 1.06-.43.23-.3-1-.14-.72-.46.23-1 .48-1 .75h-.57l-.7.55-.39.32-.19.54-.8.37-.84.66-.13.12-.56.54-.42.7-.6.46-.85.47v-.65l1.13-.93.65-.84.22-.29-.13-.6-.25-.1-.55-.22h0l-.24.65-.11.3h-.33 0l-.48.27h0l-.18.59-.29.52-.36.21-.14.08h-.54l-.31.26-.55-1.38-.16-.79h-.68l-.08-.08-.1-.1-.76-.7-.65-.19h-.14l-.28-.64-.22-.84-.42.12-.21-.8-.12-.45-.12-.46-.76.23-.4.12-.61.18-.31.09h-.15l-1.92.57-.07-.21-.85.2-1 .24-1.16.27-.34.08-.64.15-1.19.28-.81.19-1.12.27h-.19l-.79.25-1.3.24-.2.53h-.08l-.34.14-.51-.43-1.53.36h-.09l-.45.09-.75.15-1.05.22-2.59.56v-.05l-.29-.4" fill="#f8b1b8" stroke="#fff" stroke-linecap="round" stroke-linejoin="round"/><path d="M556.61 107.68l.72-.38.43-1.22.69-.79.62.26.68.22h.35l.4.85-1.29.42-1.15.41-.61.74-.34.86-.36-.86-.14-.5M562.39 106.72l.81-.27 1.13-.4v-1.06l.77.26.61 1.21-.45.52-.83.19-1.18.21-.88-.66M393.22 130.77l.87-1.26.76-2.43.29-.74.87-1.62.09-.17.53-2v-.35l.2-1.73v-3.22l-.23-1.62-.27-1.45-.42-1.3-.25-.47-.54-1-1.12-1.96-.55-1.27-.2-.55-.22-.59-.62-1-.19-.7.23-.79.55-1.08v-.98l-.27-1.06-.23-.72h0l-.46-.67-.18-.49.51-.63.25-.31.31-.79v-.07l.29-.74.66-1.7.09-.79.03-1.21.07-.5.09-.69-.45-1.1v-.72l.83-.5.68-.26.05-.52.06-.61-.06-1.25h.73l.39-.92.81.35.67-.63.22-1.06.58-.65.35-1.14.74-.64.25.44-.13 1.9.13.22.43.7.41-.29.39-.4.45-.47v-.78l-.26-1.09v-1.26l.68-.72.89-.72 1-.15.4-.06.92-.27.4-.52-.7-.19h-.6l-.8-1.1-.18-.65.45-1 .81-.75-.54-1 1.45-.05.85-.63.41.08h.13l1.74.9 1 .53.44-.29h.82l1.22.39h.15l.79.81.4.79h1.88l.75.62 1.47.36 1 .48 1.07-.19 1.17 1-.12.68.24.25.8.84.7 1.5-.76-.11-.63-.32-.38.32.15.7.08.82.95.65h.33l.08.3.38 1.36.33.93-.22 1.17.16 1.35v.36l.09 2.15-.59.52-.34.56-.81.16-.22 1.41v1.51l-.91.41v.68l-.94.17-.77.45-.23.77-.06.22v1.64l-.11.61.5.82.91-.13 1 .59.36.26.18.13 1.31-2 .14-.22v-.17l.18-.71.3-1.34.19-.51 1.21-.42.14-.52 1.23-.44.84-.43.16-.44.91-.47 1.44.45 1 .93 1 1.52.39 1.24.15.68.34 1.5.85 2.13.56 2.71.29.76.33.89.9 1.25v.77l-.29 1 .27 1.75-.18 1.79-.59 1.27-.91.58-.47-1.34.6-.65-.72-.1-.85.77.41.36.17.48-1 .46h0v1.26h0L431 119l-.25.14-.37.22-1 .74v.06l-.08.79-.08.81.17 1.21-.46.57-.06.28-.14.65-.45.77-.55.27-.07.65-.51.45-.39.68.31.92-.29.15-1.35.23-1.82.31h0l-1.2.2-2.61.43-2.32.37-.4.07-.4.06-3.78.58-.1-.9h-.2l-3.83.45h-.37l-.61.07-3.79.43-1.36.15h0l-2.8.29-1.69.17h0l-2.85.3h-.23l-1.2.12h0L392 132l1.26-1.18" fill="#f8b1b8" stroke="#fff" stroke-linecap="round" stroke-linejoin="round"/><path d="M350.82 67.6l.84-.63.85-.29 1.82-.72 1.16-1.08.3-.37.47-.57 1-.44h.75l.69-.14.67-.18.8-.09L362 62l.75-1.06 1.07-.31.66-.15.22-.37.07-.13.28-.84.67-.62 1-1 1.05-.61.64-.66.11-.11.69-1.14 1.21-.81.61-.42 1.24-.38 1.47-.26h1.22l1.17.14.88.36-.08.5-1.86.11-1.34.14v.75l-.66.47-.71.69-.87.8v.14l-.31.87-.89.9-.35 1.09-.45.91-.13.27-.14 1 1-.38 1.17-.9.92-.59.81.6h1.59l1.23.36.9.41 1 .74.29.85.77 1 1.25.83.23 1h1.86l.56-.17 1.31-.41.79.77.92.14.55-.47.42-1.1.68.23.74.58.85-1 2.47-1.68.45-.31 1.37-.15 1.23-.31.22-.06 3.46-.26 2-1.25.18-.05.61-.18 2-.36-.45 1.42.2 1.68.68 1 1.18.09 1.6-.58.73.35 1.13.09.26-.4.34-.53h1.24l.87-.77.77.22v2.04l.59 1.55-.07.22v.94l.93.48.6.63 1 .43.52-1h2.13l1.31 1.15-.3 1.13-.55.11-.76-.4-1.37.29-1.11-.25-1.65.14-.33.08-1.34.33-1.13.48-1.07-.48-.79.52h-.64l-.91.73.36.78h-.85l-1.33-.86-1-.95-1.51-.45-1.13-.08-1.14-.1-1.54.21-.9 1.45-.44.38-1.07-.22-.49.51-.42.44-1.6-.47-2 .53-.54 1.57-.78 1.11-.18.17-.74.66-.61 1.29-.06 1.19-.83-.89v-1.12l.51-.64-1.33-1-.52 1.3-1.16.81-1.1-.54-.92.89-.65 1.63-.28.71-.49 1.36-1 2-.72 1.21-.29 1.38-.58-.1-.52-.57-.52-.61.24-.7.35-1v-.74l-.5-.17-.4.44-.48.06-.62.06v-1.28l.37-.44v-.72l.1-.71.05-.49-.51-.57.4-.33-.27-.39-.29-.24-.5-.41-.86-.06-.32-.41-.5.22h-.09l-.49-.15-.32-.29.53-.8-.46-.62h0l-.62-.29-.68-.17-.61.1-.72-.39-.27.19-1.18-.48-.65.13-.16.36-.43.05-.23-.32h0l-.56-.14-.69.13-1.23-.61-.59-.3-1-.51-5.41-1.09-2.87-.6-1.89-.4-.44-1.14-.62-1.07-.7-.22-.48-.45-.52.3-.32-.43M361 48.23l.37-.4 1.46-.91.7-.43.43-.24.71-.36.78-.68.85-.71.77-.43 1.11-.58v.61l-1.09 1-.2.87-1.27.73-1.24.51-.37.93-1.33.72-1 .52-.44-.33-.53-.32.29-.47" fill="#f8b1b8" stroke="#fff" stroke-linecap="round" stroke-linejoin="round"/><path d="M397.53 75.31l.48-.15 1.11-1.34h1.61l-.08.69-1 2.54-.48.39-.62-.13-.89-1.47-.11-.53M407.84 71.9l1.06.8 1 .28.66.31-.29.66-.88.06-1.13-.93-.7-.65.28-.53M394.29 85.4l.75-1.72.55.06.39.41-.14.81-.92 1.12-.74-.1.1-.58" fill="#f8b1b8" stroke="#fff" stroke-linecap="round" stroke-linejoin="round"/><path d="M349.1 283l.69.06.64-.45-.35-.64v-.73l.23-.69-.12-.83.3-.52.61-.2-.26-.57-.1-.45.79-.37.12-1.24h0l.72-.21h0l-.5-.7.13-.62.66.09.52-.53.1-.1.61-.64v-.75l.7-.23.4-.53v-.38l.49-.74-.06-.1-.89-1.36 1.38-.16.46-1 .27-.84-.78-.09.19-1-1-.14-.14-1 .57-.09-.48-.77h0l-.07-.07-.3-.29-.29-1.17.46-.59-.68-.17-.54-.48-.07-.51.25-.53.76-.6-.05-.69-.76-.56-.38-.31.07-.1.43-.63-.74-.58.3-.53h.57l.2-.7.14-.74-.23-.56-.46-.07-.24-1 .3-.64-.42-.46-.3-.48-.23-.42-.33-.49.1-.25.17-.42.65-.52-.58-.53.89-.18.26-.77-.88-.44.35-.4h.3l.69.14v-.6l-.33-.24-.14-.74.38-.45-.13-.5-.62-.21.45-.36.51.09.27-.34.42-.27.57-.15.17-.65-.32-.3-.53-.18v-.55l.49-.2.12-.33-.17-.55.62-.2.28-.62.68-.18-.18-.74.39-.32.81.36.18-.69.73-.48-.13-.61.11-.94.19-.62-.47-.64.14-.26.24-.43v-.55l.41-.91.35-.36.07-.65h.71l1-.57h0l.67-.53v-.43l-.78-.77 5.84-.35h.8l.91-.06 2.38-.16.93-.07 1.75-.13 2-.15h.11l2.2-.17h.41l3.6-.29 1-.08h.19l1.2-.09.66-.06.6 1 .68.37-.1 3.81v4.04l-.08 3.32v.4l-.11 4.43v2.98l-.07 3.47v5.07l-.06 3.06v1.88l-.07 3.8v1.14l-.07 2.46v2.24l.12 1.44.16 1.29.13 1.06.33 2.58v.2l.54 4.27.2 1.61.45 3.65v.05l.31 2.62.3 2.41-.15.39h-.45l-.27.41-.63-.23-.71.18-.4-.29-.62-.06-.42.29h-.56l-.65-.09h-.23l-.94-.39-.93.1-1.33.42-1.21.61-1.27.42-.15.06-.44.18-.92.73-.24.58-.33.21-.58.19-1-.44-.4-1.25-.91-1.53-.29-.54-.17-.32-1-1-.45-1.27-.07-.35-.17-.81.45-1.33.41-1.33.18-1.26h0l-1.29.09h-.74l-4.33.29-1 .07h0l-2.4.15h-.23l-2.29.13h-.8l-2.8.15-1.39.07h-.58l-4.94.23.1-.09.8-.48-.43-.56-.35-.62.33-.79v0l-.68-.54.25-.48" fill="#f37f88" stroke="#fff" stroke-linecap="round" stroke-linejoin="round"/><path d="M212.57 142.07l.2-2.3.14-1.61h0l.2-2.4.06-.69.1-1.18.22-2.63.14-1.63v-.2l.28-3.27.29-3.51.14-1.56v-.27l.43-5.18 5.57.45h.29l4.84.38 2.12.16 3.9.28 3.32.22h0l8.7.54 2.32.13 8.17.39h0l3.55.15 3.22.13 2.85.1 4.15.13 3.56.09.19.5.44.49.49.17.79.47.29.17.49.2.8.3h0l.43.45.7.64.87-.06.47-.4.3-.75.2-.17.58.11 1 .22.67-.1.37-.06h.85l.32.06.33.06.36-.27.77.15.4-.13.65.19.24.46.49.41.34.28 1.09.14.1.08.51.46.61-.13 1 .48h.06l.24.51.82.06-.13.78.52.53.31.55.17.3.89-.05.24.39.58-.11.66.41-.32.71v1l.58.8.16.23v.7l-.11.68.81.75v.94l.51.35.94.68-.28.91.33.62.2.36.45.67-.24 1-.21.64v.11l-.07.78.27.74.12.46.79-.22.12.52.12.52.63.2-.05.92v1.02l.37.62-.22.57v.75h.55l-.05.38-.07.5.05.58v.93l.39.64-.1.67.2.38.09.16-.32.58.07.87h0l-.54.7.45.76.68.41.35.7-.18.26.09.83h.45v.05l.19.42.11.42.37.95.09.42-.13.62.58.18.48.26.06.38v.08l.79.32-.09.67.52.67.4.46-.21.55.34.6h.36l.43.41h-18.02l-3.83-.06h-.5l-3.84-.07H272.66l-2.46-.29h-2.36l-3.63-.11H263l-3.43-.12h-1.31 0l-2-.07-3.87-.16h-.17l-3-.14-2.78-.14h-.21l-3.21-.17-2.48-.14h-.33l-.91-.05-1.4-.08-3.08-.19-2.33-.15.3-4.71v-.15l.08-1.28.23-3.62v-.73h0l.22-3.55h0l-5.29-.35h-1.01l-4.43-.32-3.2-.24-2-.16h0l-5-.41.14-1.59" fill="#f8b1b8" stroke="#fff" stroke-linecap="round" stroke-linejoin="round"/><path d="M41.65 138.57l.47-1.75.35-1.28.66-2.5.85-3.19.61-2.31.69-2.66 1.39-5.46.49-2 1.11-4.34 1.55-5.92.89-3.49.42-1.63 2.74.68 3.66 1 .36.09 1.16.3 2.08.51 2.26.57 2.77.63 3.06.71h0l3.26.75 2.51.58 2.22.5 2.08.46 1.73.4h.08l4 .91 3 .65 4.68 1 2.47.51 3.16.68 2.8.53 1.41.27 3 .69 3.21.64h0l2.44.48-.62 3.32-.7 3.62-.77 3.93-.56 2.87h0l-.74 3.78-.64 3.19-.26 1.35-.75 3.89-.05.26-.52 2.65-.3 1.55-.66 3.48-.11.59-1.34 6.84-.33 1.76-.55 2.79-.29 1.44h0l-.45 2.33-.41 2.14-.26 1.4h0l-.71 3.7-.38 1.87-.39 2h0l-.3 1.56-.55 2.87-.52 2.72-.22 1.22-.42 2.18-.63 3.31-.71 3.81-.16.78-.19 1-.78.89-.61.87-.22.36h-.71l-.57-.4-.43-.48-.12-.66-.29-.56-.49-.13-.4.2-.42-.13-.21-.35-.66-.14h-.64l-.49.25h-.8l-.17.45v.06l-.15.78-.06.94.23.65.21.62-.51.62-.15 1.13-.11 1.25.29.64-.35 1.17-.22 1 .31.64v2.12l-.18 1.74-.34.19-.23-.06-.2.72-.27.9-1.53-2.28-2.13-3.19-1-1.53-1.27-1.9-.89-1.32-2.14-3.21h0L75.35 195l-.41-.61-1.74-2.62-2.44-3.65-1-1.46-4.36-6.56L64 178l-.67-1-3.67-5.52-1.29-1.91-1.57-2.37-3.38-5.06-.6-.91-3.7-5.54-1.7-2.53-1-1.49-.4-.6-2.09-3.12h0l-2.56-3.83-.78-1.17.23-.93.15-.62.18-.72.43-1.72.09-.34" fill="#f37f88" stroke="#fff" stroke-linecap="round" stroke-linejoin="round"/><path d="M534 91.59l.13-.49-.2-.77.35-.27.35-.62-.13-.2-.18-.3.12-.65-.4-.87v-.11l-.09-.76V85l-.1-.22-.15-.33-.07-.94h0l-.06-.92-.27-1.1.34-.54h0l.05-1.63.48-.69.06-.21.16-.55-.1-.92.36-1.19-.25-.55.23-.61h0v-.07l.14-1-.36-.73-.16-.32-.15-.86-.08-.63.31-.56.51-.32.67-.17.33-.24.17-.12.22-.74.13-.09.64-.42.26-.76.53-.61-.24-.6.3-.54-.24-.64-.45-.43-.7-1 .34-.93.19-1.14.16-.49-.59-.77.16-.58-.17-.77.33-.66.06-.91v-.41l-.46-.47.63-.61.62-.63.49.36.69.21.4-.14.14-.61.16-.38 1.36 4.06 1.16 3.51 1 3.16.25.8.42 1.33.16.52.07.23.11.35.76 2.22 1 3.41.2.62.39 1.23.57 1.75.2.38.2.39.07.5.09.63v.76l.78.54.71.6.78.56v.54h0l.16.69.1.06.85.34.59.13-.13.73-.16.58-.14.78V87l-.46.15h-.71l-.29.31-.6.31-.07.43-.06.38-.53.06h-.35l-.27.43.23.71-.62.18h-.1 0l-.24.64-.58.14-2.84.65-1.1.25-.6.13-.93.21-.3.07-1.52.33-.43.09-.79.17-.79.17-1.29.28-.39.08h-.07l-.31-.42-.77-.44-.32-.69v-.11" fill="#f8b1b8" stroke="#fff" stroke-linecap="round" stroke-linejoin="round"/><path d="M513.86 143.13l.2-.29.15-.59.25-.47v-.74l.35-.6h0l.17-.21.33-.41.09-.1.49-.15.35-.16.37-.17.09-.1.25-.28.4-.26h.08l-.18-.69.12-.29.63-.62h0l.58-.78.15-.17.35-.4.67-.35.26-.66.57-.2.4-.43v0l-.38-.36-.17-.16-.79-.44-.45-.42-.6-.42-.33-.27-.24-.2-.38-.53-.58.08-.36-.1-.27-.51v-.38l-.38-.88-.68-.24-.5.2-.09-.32-.06-.22-.11-.39-.13-.54-.13-.53v-.7l.6-.51h0v-.84l.15-.56-.46-.49-.38-.47-.14-.18.52-.67.43-.71.13-.49.06-.2v-.07l.62-.79.16-1.08.31-1.06.43-.74.61-.39 2.76.94 1.07.39.76.28.78.25h0l.26.08 2 .61 1.7.49h0v2.04l-.08.5V123v.07l-.07.29-.17.63V124.97h0l-.14.32v.05l-.12.25-.74.25h-.1l-.26.26h0l.11.53v.5l-.29.26v.61l.11.52.43.13.22.06.48-.21.52-.07.7.2.13-.79.2-.13.44.88.25.81.12 1v2.56l.1 1.76.08 1 .22 1.56v.63l-.51 2-.67 1.85h0v.53l-.43 1.1-.35.68-1 .91-.16.23-.33.5-.5 1-.16.5-.26.93.14.21-.52 1.27-.19.58-.45.76-.69.33h-.37l-.09-1 .28-1.31v-.81l-.3-.39h-1l-.6-.21-.43.16-.39.51-.44-.49-.6-.45-.4-.24h-.45l-.56-.46-.35-.14-.56-.33-.21-.09-.31-.13-.35-.45-.81-.14v-.53l-.11-.51v-.62l-.38-.17-.26-.43" fill="#f37f88" stroke="#fff" stroke-linecap="round" stroke-linejoin="round"/><path d="M142.59 266.18l.56-4 .66-4.75h0l.68-4.88h0l.82-6h0l.39-2.79.72-5.13.19-1.34 1.25-9 .11-.79.74-5.3h0l.41-3 .36-2.62.49-3.5.51-3.7.24-1.72.22-1.59 1.46-10.57.25-1.74 4.67.63 2.65.35 4.16.53 5.71.71.67.08h0l6 .7.07.12 4.34.47 1.47.16 3.71.38h.1l3.08.32h0l2 .2 1.27.13 1.85.19h.34l.72.07h.38l4.29.43 4.34.39 3.66.28 3 .22 7.15.53.93.07-.09 1.27-.25 3.29-.07 1-.11 1.44h-.44l-.45 6.26-.33 4.44-.13 1.64h0l-.47 6.17v.54l-.2 2.67-.22 2.9-.14 1.79-.26 3.37-.07.94v.14l-.19 2.66v.47l-.31 3.57h0l-.32 3.55h0l-.24 2.55-.22 2.37-.31 3.64-.13 1.53-.27 3.66-.07.92-.39 5.27-.06.81-.09 1.21-3.09-.23-4.67-.37-3-.25h-.52l-7.29-.65-2.41-.22-.83-.08-2.77-.26-7-.72-2.91-.3-2.38-.25-2.08-.22-2.84-.3-.18.39v.81l-.21.58.55.87.58.5h0l-5.44-.62-3.57-.42-1.47-.18-9.25-1.16-.51 3.94-.3 2.31-5.9-.77-1.82-.23-2.23-.31.9-6.44" fill="#f8b1b8" stroke="#fff" stroke-linecap="round" stroke-linejoin="round"/><path d="M429.52 220.72v-.29l.6-.68.56.33.9-.21.69-.72.06-.06-.26-.71.3-.37-.22-.48.46-.7.15-.1h.06l.39-.24.68-.74.78-.71 1.21-.24h.11l.73-.08 1-.07.44-.63.33-.16.74-.8h.56l.28-.68.07-.18v0l.62-.22.34-.58.69-.27.52-.24h.79l.11-.2.26-.49.33-.72-.22-.71.17-.12.34-.24.54.26.26-.44v-.58l.55-.44 1-.77.3.31.13.14-.07.75.63.2.5-.47.43-.41.39-1 .06-.16.63-.54.51-.33h.37l.45-.44.09-.09.83.2.22.42.51-.09h0l.53-.34.55-1.56.21-.55.13-.34.08-.22.74-.75h.72l.7-.07-.32-.68-.15-.32.32-.82-.2-1 .14-.75 2-.18 1.62-.2 2-.25 1.27-.13 1.78-.21h0l.68-.11 1.49-.25 1-.11 1.91-.2h.1l1.52-.16 2.66-.43h.29l1.49-.25 1.95-.33 2.21-.38h0l.45-.08 1.39-.25 1.37-.25.88-.16 2.15-.4 1.6-.29.68-.12 2.46-.45.58-.12 1.46-.29 2.09-.42 1-.19 1.6-.32 1.45-.29h.19l4.94-1 1.19-.24.28-.06 2.7-.55h0l1.92-.46 2.15-.44.55-.12 1.95-.4h0l2.08-.44 1-.22 1.74-.38.65 1.53.89 1.89.45.74.92 1.5.94 1.14 1.44 2 .84 1.17.38.5.81 1.72.31 2.89v2.4l-1.11.32-1.16.75-.09.06-1.53 1.24-.94 1-1.16 1.31-.83 1.36-.71.91-.66 1.11-.51 1.11-.6 1.93-.31-.51-.85-.46-1.28-.09-2 .6-2.19 1.09-.25.13-1 .86-.77.9-1.4 1.2-.49.59-1.14 1.34-.7 1.13-.45.73-.51 1.29-.3 1.84-.16 1-.08.75-.11 1h-.55l-.21-.38-1.4-.07-1.58.3-1.2.38-1.65 1-1-.73-.47-.34-2.17-1.54-3.48-2.49h0l-3.85-2.83-1.22-.86-.15-.11-2.83-2h-.2l-2.61.41h0l-1.69.26-2.75.41-2.72.39h0l-2.67.34-.08-1.58-.81-.81-.86-.87h0l-.39-.4-1.05 1.06-.25-.36.13-.72-.12-.33v0l-3.23.32h-.45l-1.43.14-3.1.33-1.2.13-1.08.11-.79.08h-.1l-1.89.23-.9.1h-1.32l-.45.42-.82.43-.49.2-1.18.48-.59.73h-.43l-1.23.59-1.2.58-1.08.52h0l-2.41.39-1.8.31-.75.13-.79.14-3.57.45h0l-.78.1-1.4.17-2.17.26v-3.09" fill="#f37f88" stroke="#fff" stroke-linecap="round" stroke-linejoin="round"/><path d="M221.94 32.23l6.25.52 4.06.3.82.06 5.89.42 1.82.11 3.68.22 1.2.07 3.45.19 6.46.32 2.32.11 2.5.11 3.61.14h1.39l3.51.11h1.22l8.56.21h1.63l5.09.08v.76l.36 1.09.31 1.32.29.82.19.63-.42 1.16-.05.55v.16l.08 1.41v1.19l.07 1.2-.13.89v.34l.38 1.07.34.91.28 1.29.38 1.24.63 1.39.32 1 .1.32.26 1.07V56.83l.14 2.27v.54l.08 1.22.06 1-.15 1 .66 1.36-.26 1.88v2.05l.39.89L290 71l.59 1.07.45.55v1.39l.39 1.9-.18.87v.07l.1 1.14-5.06-.05H276.6l-3.36-.08-2.06-.08h-1l-2.74-.1h0-.85l-2.46-.09-1.42-.05-1.18-.05h-1 0l-1.53-.37h0l-2.68-.12-1.39-.07-2-.1h-.13l-2.44-.12-3.36-.19-2.52-.14-1.87-.11-2.31-.14-2-.13h0l-.85-.05-2.35-.16-2.17-.15-1.5-.11-1.71-.12h-1.12l-2.17-.16-2.11-.25-2.2-.17-3.74-.31.39-4.66.05-.62.22-2.57v-.43l.12-1.4.09-1 .26-3.05.24-2.68.25-2.81v0l.08-.9.25-2.85.25-2.77.18-2.33v-.34h0l.27-3.39.16-2 .12-1.45.16-1.93.24-2.94.18-2.1" fill="#fce5eb" stroke="#fff" stroke-linecap="round" stroke-linejoin="round"/><path d="M546.36 110.88l.13-.52-.25-.78.41-.17-.4-1.78-.16-.7h0l-.16-.59-.3-1.15h0l-.32-1.11-.78-2.72 1.92-.57h.15l.31-.09.61-.18.4-.12.76-.23.12.46.12.45.21.8.42-.12.22.84.28.64h.14l.65.19.76.7.1.1.08.08h.68l.16.79.55 1.38-.16.21-.43.52-.23-.07-.32-.09h-.49l-.14.57-.39.11h-.42l-.26.14-.11.06-.1.7-.15.57-.74.17-.65.35-.69.53-.27.12-.55.25-.72.42v-.15M549.22 112.37l.13-1.07.46-.2.33.8.27.4-.74.24-.46-.17M416.85 165.17l-.12-1.09h0l-.13-1.21-.2-1.82-.07-.64-.25-2.22h0l-.29-2.67-.13-1.24-.16-1.43-.29-2.85-.06-.6h0l-.17-1.58-.06-.51-.12-1-.26-2.18h0l-.33-2.72-.11-.93-.22-1.85-.22-1.83v-.26l-.23-1.92v-.25l-.18-1.45-.29-2.32 3.78-.58.4-.06.4-.07 2.32-.37 2.61-.43 1.2-.2h0l1.82-.31 1.35-.23.53.52.83-.26 1.09.67.74.19 1.05.26.48.5 1 .44.65-1 .24-.19 1.29.47.37.59v.06l.86.79.94.4h.76l.94-.71h.14l.81-.17.81-.7 1.09-.52.75-.36.29.11h.09l.25.09 1.18-.23h.88l1-.89 1.29-1.54.2-.24.67-.93.93-.9 1-.53 1.24-.95.49-.22 1-.44.93-.73 2.13-1 .59-.38.29 1.78.41 2.5.39 2.36v.15l.36 2.16.23 1.4.22 1.38v.12l.31 1.91.18 1.12v.09l.12.68.49 3-.62.43h-.46l-.34.59.62.78.35 1-.12.75v.14l.45 1.09-.28.8-.27 1-.13.45v.08l-.16 1 .09.65.12.88-.21.33-.34.51-.06 1v0l.1.64-.39.6.46.56.07.09-.27.74-.7.91-.84 1.12-.35.46-.36.8-.06.13-.57.36-.58.67-1 .78h-.5l-.29-.57-.49-.13-.42.58-.51.68.06.77-.51.09-.68.13-.24.81-.09.13-.27.42v.05l.26 1h-.07l-.57.37.25.59.31.8-.48.57-.72.34-.59-.82-.77-.4-.35.22-.42.66-.07.23-.27.83L446 167l-.46.38.17.58.38 1.38.22.69-.44.3-.6.06-.06.2-.08.29v.91l-.12.69-.59.29-.69.21-.64.27-.54.22-.39-.19-.38-.73-.55-.36-.14-.09-.61-.51h-.82l-.14-.11-.49-.39-.34-1-.09-.56-.17-.31-.1-.19-.55.26-.71.29-.17.21-.12.14-.68.61-.12.46-.43.34h-.74l-.24.25-.21.23-.41-.28-.67-.46h-.7l-1.06-.33-1 .45-.1.53h0l-.33.21-.3-.07-.75-.19-.19-.51-.58-.22-.26-.47-.59-.15-.27-.07-.56-.11-.75.32h0l-.92-.14-.86-.12-.19-.32-.1-.17v-.53l-.73-1-.16-.46-.31-.4-.07-.09-.83-.17-.41-.48-.18-.41-.19-.08-.19.1-.11.22h-.14l-.47.09-.57.44-.16-.05-.62-.21-.45-.43-.42-.16-.67.68-.2-1.7" fill="#f8b1b8" stroke="#fff" stroke-linecap="round" stroke-linejoin="round"/><path d="M432.94 128.06l.33-.46.5.34v.72l-.52.28-.35-.88" fill="#f8b1b8" stroke="#fff" stroke-linecap="round" stroke-linejoin="round"/><path d="M218.94 205.33l.25-3.29.09-1.27 1.77.14 1.59.17 3.79.27 3.47.25h.1l1.39.08 3.84.21h.78l3 .15 1.61.08 1.34.06h1l2.46.1h.89l5.13.22h1.08l3.74.17 1.29.05h1.48l3.08.11h1.43l2.31.07 2.74.09 2.11.06h.08l2.61.06h3.8l3.4.06H312.18v7.42l.39 2.8.3 1.94.13.84.25 1.61.47 3.09v.13l.25 1.69.3 2 .19 1.45v24.69l-.49.23-.52-.67h-.67l-1-.46-.2-.19-.4-.38-.87.13-.71-.51-.43-.48-.49-.58-.75-.13-.56-.59-.64-.44h-.07l-.82-.32-.31.45-.34.74-.31.06-.48.09h-1.1l-.9-.23-.37-.58h-.54l-.77.3-.78.14-.6.33-.36.2h-.77l-.55-.16-1.49.47-1 .13-.25.44-.65.74-.56-.31-.35.49-.65.57-.19-.3-.27-.43-.38-.48-.87-.1-.25-.63h-.57l-.23-.17v-.7h-.05l-.75-.48-.26.56-.36.63-.74-.15-.2-.38-.65.3-.53-.79-.09-.62h-.55l-.42.36v.45l-.82.42-.27.6-.11.54v.55l-.68.18-.64-1.24.46-.52-.45-.95-.46.19-.84.48-.64.64-.82-.07-.07-.66-.37-.61h0l-.83.27h0l-.4-.33-.14-.65-.72-.34-1 .91-.52.62-.73.42-1-.43v-.65l.09-.94-.67-.08-.89-.11-.17-.65v-.78l-.26-.71-.18.18-.36.38-.64-.2-1.07-.29-.52-.16-.41.39-.2.61h-.1l-.6.23-.6-.45-.54-.78-.38-.11-.43-.13-.49.42h-.54l-.79-.37-.75-.09-.77-.63h-.14l-.58-.08-.65.09-.83-.14-.66-.09-.21-1.41-.11-.16-.59-.88-.84-.74-.51-.09-.32.85-.57-.25h0l-1.25-.2-.19.46-1.1-.13-.75-.79-.58-.76-.26-.28-1-1-.79.19h0l.11-2.61.17-4 .09-2.14.14-3.37.12-2.77.16-3.68.1-2.46.26-6.25h0l-3.42-.15-2.62-.12h-.52l-3.25-.16h-.78l-1.46-.07-6-.34-2.25-.14-2.3-.15-1.45-.1-9.35-.65.11-1.44.07-1M458.82 135.34l-.18-1.12-.31-1.91v-.12l-.22-1.38-.23-1.4-.36-2.16v-.15l-.39-2.36-.41-2.5-.29-1.78 1.8-1.13 1.61-1.39.1-.52.43-.4h.71l.87-.78.74-.52.76-.62.33 1.92.33 1.83 1.53-.26 1.41-.24 4.19-.75.79-.14.65-.12 3.28-.61 2.94-.53.38-.07.66-.13 1.78-.34 2-.38.83-.16 1.42-.28 6.11-1.24.42-.09.4-.08 3.74-.76h0l.86-.16h.11l3.21-.67.4-.09 2.38-.51 3.21-.7.71-.16h.06l1.2-.18h.19l.64.52.48.79.81.15.48.07.36.05.51.44.37.64.38 1.51.15.52.11.39.87.94 1.07.35 1 .12h.67l.62.85-.61.39-.43.74-.31 1.06-.16 1.08-.62.79v.07l-.06.2-.13.49-.43.71-.52.67.14.18.38.47.46.49-.15.56v.84h0l-.6.51v.7l.13.53.13.54.11.39.06.22.09.32.5-.2.68.24.38.88v.38l.27.51.36.1.58-.08.38.53.24.2.33.27.6.42.45.42.79.44.17.16.38.36v0l-.4.43-.57.2-.26.66-.67.35-.35.4-.15.17-.68.67h0l-.53.51-.12.29.18.69h-.08l-.4.26-.25.28-.09.1-.37.17-.35.16-.49.15-.09.1-.33.41-.17.21h0l-.77-.22-1 .07-.23.12-.68.34-.48.52-.27.55-.11.54h-.15l-.25.06-3.38.73-1 .22h-.07l-1.88.4-1.57.33-1.53.32-.74.16-2.13.45h-.09l-2.28.46h-.24l-2.3.46h-.1 0l-3.15.6-3.22.61h-.24l-2.56.48h0l-.39.07-3.61.66-.89.17-1.26.23-1.23.22-3.64.67-.89.16-3 .53-1.6.27-1.33.22-.36.06-3.64.61-1 .17-.55-3.35-.12-.75-.33-2-.42-2.54-.13-.8-.18-1.08-.37-2.24-.49-3-.12-.68v-.09M397.47 284.16l-.14-.63h0l.94-.09 1.12-.11 1.36-.13 1.78-.17h0l2.8-.25 1.14-.1h.55l1.16-.1 1.49-.13 2.08-.2h.28l2.12-.21 1.82-.19 1.68-.17 1.71-.21 2-.25 1-.12h.12l1.84-.23 2.22-.27 1.37-.16h.34v.33l.33.52.66.74.09.62.29.84.74.77h.61l4.07-.25 1.13-.08 1.14-.09 1.93-.14h.49l.92-.06 2.24-.15.93-.06 1.59-.11 1.34-.1 1.71-.11h.58l2.08-.13h.06l3.06-.22 2.26-.16 1.27-.09 1.49-.11h.49l2.42-.12v.62l.43.59v.71l.48.72h.45l.58-.05.51-.18h.12l-.09-.46.07-.63-.05-1.18-.12-1-.51-.68V279.4l.38-.56.53-.66h.5l.46.33.72-.07.57.14.42.28h.77l.45.14.88.07.38-.17h.25l.78.07.23.13v1.37l.27 1.07.1.22.06.13.21.17.48 1.93.45 1.16 1.75 4.5.29.4.23.82.14.51.8 1.48.81 1.5 1 1.65.94 1.53 1.33 2 .9 1 1.88 2.36.91 1 1.23 1.4 1 1 1 1.78-.66.79-.07 1.06.21 1.07.35 1.07.81 1.69 1.65 2.38 1.06 1.52 1 1.84.27.52 1.18 2.3 1 1.48.77 1.19.32.76.36.49.65 1.32.72 1.44.19.6.14.43v.14l.18 1.31.07.42.08.44.06.59v2l.07 1.47v1l.07 2.18v.09l.12 1 .07.58v0l.09.78.14.56v0l.18.73v.79l-.17 1.39-.32-.22-.77-.54-.29 1.09-.35.69v1.13l-.11 1 .51 1 .88-.6.52-1.47.32.91-.61 1.71-.06.15-1.12 2.61-1.42 2.04-1.66 2.13-3.67 2.87-1.66.8-.67-.46 1.27-1.07 2.26-1.46 2.66-2.6 1-1.4.07-.87v-.6h-.61l-1.33.46-.68.62-.46.14-.9-.39-.56.21-.21.08-.44.53-1.15.4-.88.23-.93-.75-.5-.8.1-1.23-.14-1-1-1.2-.61-1.22-.78-.92-.9-.28-.51-.94-.78-.25-.41-.13-2-.78-.29.27-.36.35-.79-.59-.58-1.21-1-2-.81-2.33h0l-1.18-1.31-.45-.15-.72.11-.7.52-.68-.1-.75-.45-1.06-1.59-.43-1.3-.12-.8-.26-.42-.56-.88-.86-1.1-1.3-1.68-1-1.65-.38-.59-1.06-1.22-.55-.49-.63-.58-.81-1.2h1.16l.68-1.12.29-.74.36-.89.42-.3.48-.7-.29-.55-.32-.06h-.21l-.84-.24-.13.19-.21.31-.38.57.06.65-.27.49-.51 1.12-.32.22-.19-.89-.2-.71-.66-.75-.81-.77-.09-1.15v-1.16l-.44-1.09-.24-.95v0l1-1.13.24-1.17.23-1.37.06-.19.22-.75v-.85l-.29-1-.14-1v0l-.58-.27-.16-1.09-.3-.66.39-.84-.52-.6-.48-.6-.06-.07-.1-.65-.86-.51.27-.26-.42-.56h-2.09l-.14.76H455l-.44-.87v-.71l-.43-.23-.75-.19h0l-.17-.74-.42-.64-.53-.47h-.66l-.22-.41-1.23-.6-.17-1-.24-1v-.06l-.88-.27-.7-.25-.66-.82-.63-.9-.77-.77-1.42-.64-1.82-.64-.82-.6-.11-.08h-.76l-.16.05-.57.19-.62.32-.37-.12-.93.5-.84.79.38.61v0l.15.5-.14.39h-.91l-.6-.23-.77.3-.46.37.28 1.06-.43.39-1 .45-.9 1.1-1.15.65L430 300l-1.45-.62-.9-.27-.4-.12-1.09.43-.76-1.3-.3-1.14.26-1.13h-.06l-.48-.31-.76-.07-1.11-.79-.4-.38-1.21-.44-1.5-1-2.36-1h0l-1.13-.34-1.65-.39-2.15-.26h-2.85l-2 .36-.6.11-.81.25-2.78.84-.88.19-.45.1h-.62l-1.18.4-1.16.34.71-1 .17-.84.74-.53-.61-.23-.42-.67.11-.61.29-.79-.06-.74-.55-.45-1-.55-.26-.39-1.23-1.27.41-1.24M479.41 363.53l.6-1.27.91-.78 1-.68.13-.29 1.5-1 1.89.52 1 1-1.18.69-.73.31-.58-.17-.89.43-.94.53-1.08.64-1.6.42v-.32M476.87 364.26l.32-.57 1.46-.26-.46 1.26-1.4.2.08-.63M474.59 364.16l.47-.73.8.33-.07.8-1 .2-.2-.6" fill="#f37f88" stroke="#fff" stroke-linecap="round" stroke-linejoin="round"/><path d="M111.4 15.76l5 1.06 2.67.57 4.39.87.45.09 2.76.54 1.79.37 1 .2 1.47.29 2 .39 2.91.53 2.38.44 8.47 1.49.46.08 2.66.46 3.25.56 2.12.34 2.45.39 2.4.37 2 .3.86.12 2.46.37 6.19.89h.1l2.2.32 2.31.33 4.22.57 2.83.37 4.92.62 2.44.31.72.08 1.7.2 5.2.6 3.55.39 1.13.12.57.06 2.55.26 3.89.4.84.08 1.92.19 1.69.16 3.08.28 4.59.4-.18 2.1-.24 2.94-.16 1.93-.12 1.45-.16 2-.27 3.39h0v.34l-.18 2.33-.25 2.77-.25 2.85-.08.9v0l-.23 2.81-.24 2.68-.26 3.05-.09 1-.12 1.4v.43l-.22 2.57-.05.62-.39 4.66-.06.88v.24l-.13 1.6-.31 2.76-.08.94-.21 2.14-.14 1.72-.1 1.23-.14 1.76h-.18l-9.54-.9h-.51l-7.6-.76-1.75-.14-2.35-.2h0l-6.15-.72-4.54-.61-5.5-.68-.84-.11-2.47-.3-2.48-.31-1.19-.16-4.32-.59-.39-.14-4.62-.61-2.2-.32-1.92-.29-3.24-.43-3.74-.48-.76-.27-2.54-.38h0l-.42 1.84-.3 2-.13.82-.09.57-.27 2.1-.68-.39-.11-.62-.48-.64-.12-.7-.34-.69-.41-.86-.46-.46-.07-.07-.61.39-.23.31-.16.21-.71 1.25-.49.31-.53-.12-.85-.18-1.13.5-.49-.83-1.67.09h-.92l-.91-.37-.57-.45-.81.42-.54.98-.77-.59-1.23-.38-1-.35h-.27l-1.05.62v.49h-.06l-.6.25-.59-.62-.41-.86.12-.64-.39-.91.25-.7-.31-1.18-.19-.85-1-1-.59.23-.65-.63-.42-.19-.33-1 .36-.54.25-.72v-.75l-.47-.67-.55-.51-.46-1.6-.59-1.4.19-.82-.19-.64.17-.72-.3-.66.17-1.09-.47-.4-.3-.35-.38-.62-.18-.29h-.43l-.11.58-.79.56-1.15.61h-.65l-.42.73-.83-.33-.71-.87-.43-.3-.1-.39-.08-.32.14-.6.4-.18.09-.74-.4-.9.59-.68 1-.09.4-.3-.16-.45.24-.66-.3-.44-.26-.65.37-.88-.51-.5.18-.57h.67l.13-.87.18-.49.19-.49.29-1 .42-.27.06-1.22h.52l.38-.92.29-.93-.12-.14-.2-.23-.93.1-.91-.11-.39-.19-.27-.13.1-.76-.42-.35-.19-.16-.65-.11-.11-.59-.77-.62-.44-.89.28-.6-.27-.32-.55-.66-.23-.77-.36-.63-.54-1.11-.5-.72-.25-.55-.2-.69-.39-.21-.87-.46-.49-.52-.29-.81-1.01-.96.27-.5.61-.22-.62-.85.09-.6.38-.59-.3-.51.24-.55-.87-1.06.06-.75-.43-.49-.39-.86-.44-1.16v-.17l-.06-.23.37-1.69.26-1.24.27-1.27.49-2.32.06-.28 1.44-6.75" fill="#fce5eb" stroke="#fff" stroke-linecap="round" stroke-linejoin="round"/><path d="M99.48 176.3h0l.39-2 .38-1.87.71-3.7h0l.26-1.4.41-2.14.45-2.33h0l.29-1.44.55-2.79.33-1.76 1.34-6.84.11-.59.66-3.48.3-1.55.52-2.65.05-.26.75-3.89.26-1.35.64-3.19.74-3.78h0l.56-2.87.77-3.93.7-3.62.62-3.32 2.26.51 3.28.55 2.52.43 2.53.43h0l3.59.61 3.91.67 1.07.22.5.1h0l3.66.59 2.48.41h0l.37.06 1 .15 3.35.53-.93 5.87v.2l-.46 2.85-.24 1.52-.56 3.52 5.25.85 4.34.65.76.11.5.07 3 .43 4.83.65 2.09.29-.32 2.44-.32 2.28v.13l-.86 6-.08.58-.59 4.27-.42 3-.32 2.27-.25 1.83-.47 3.36-1.3 8.73h0l-.43 3.13v1.73l-.53 3.8-.78 5.53-1 6.78-4.94-.69-5.55-.79h0l-5.15-.78-3.06-.55h0l-3.46-.53-2.32-.35-1.39-.24h-.08L116.36 188l-2-.34h-.07l-3.11-.55-.76-.14-.74-.13-10.89-2-.92-.18.22-1.22.52-2.72.55-2.87.3-1.56" fill="#f8b1b8" stroke="#fff" stroke-linecap="round" stroke-linejoin="round"/><path d="M521.4 76.87v-1l.23-1 .23-.45v-.08l-.22-.62-.26-.61v-.38l.07-.85-.41-.86-.47-.45-.2-.19-.06-.06-.39-.66V68.5l-.09-.71.05-.75-.09-.06-.29-.19-.24-.38.19-.92-.23-.7-.12-.55 1.44-.38.22-.06 1.16-.31 1.08-.26 3.41-.81h.5l1.77-.42 3.12-.81 1-.28h.16l2-.56.78-.22 1-.28-.16.58.59.77-.16.49-.19 1.14-.34.93.7 1 .45.43.24.64-.3.54.24.6-.53.61-.26.76-.64.42-.13.09-.22.74-.17.12-.33.24-.67.17-.51.32-.31.56.08.63.15.86.16.32.36.73-.14 1v.07h0l-.23.61.25.55-.36 1.19.1.92-.16.55-.06.21-.48.69-.05 1.63h0l-.34.54.27 1.1.06.92h0l.07.94.15.33.1.22v1.53l.09.76v.11l.4.87-.12.65.18.3.13.2-.35.62-.35.27.2.77-.13.49v.11l.32.69.77.44.31.42-.58.12-2.93.62-.55.12-.66.14-.89.19h0l-1.2.26-1.23.26-.45-.7v-.46l-.32-1.52-.25-1.2V91l-.79-3.84-.14-.67-.43-2.34-.66-.56-.49-.48-.48 1-.39-.35-.09-.84.07-.61.14-.81v-.26l-.43-.44-.11-.11v-.83l-.51-.66-.19-.61-.07-.5-.4-.35v-.82" fill="#fce5eb" stroke="#fff" stroke-linecap="round" stroke-linejoin="round"/><path d="M30.69 3.36l.67.14.81.79 1.21 1.37 1.09.62 1.15 1 .3.66 1.47.69 1.38.38.51.15 1.05.48.88.65 1.11.48.68.23 1.08-.52.5.95.45.56h.56L46 12l.8-.12.69.07.41.7-.36 1.15-.16.58.26.82h.33l.49-.23.31-.15.14-.38-.45-.63.39-1-.15-.81-.59-.61-.12-1 .62-.62.74-1.19h0v-.92l.55-.61.29-.75v-.83l-.05-1.12.17-.92.07-.68L50 2v-.84l.8-.64 4.54 1.3 1.37.39 3.09.93L63 4l2.43.64 2.47.68 1.21.33 3.07.8 3.38.9 4.91 1.24 2.95.74 2.67.66 5.79 1.4 1.77.42 3.58.83 1.61.38 1.47.34 2.14.49-.45 2.02-.58 2.56-.73 3.16-1 4-.24 1.07-.21.92-.74 3.28-1.11 5-.32 1.45-.32 1.42-.09.37-1.79 8-.21 1-.11.63v.22l-.43.71.46.83.16.75-.15.73.29.47-.2.36-.62.68.3.41.06 1-4.16-1-1.26-.36-1.17-.29-1.04-.24-2.47-.58h-.19l-3.52-.84-2.26-.58-.67-.16-2.93-.7h0l-.84.39-.7.2-1.21-.46H69.68l-.68-.56h-.3l-.87.68-1.29-.19h-.65l-1-.05-.36.09-.76.19H63l-.82.47-.69-.11h-1.21l-.8-.22h-.16l-.64-.84-.42-.1-.2.09-.42.18-1.74.1-.48.28-.16-.12L55 50l-1.37-.24-.47.33h-.62l-.06-1-1-.77-.85-.07-.14-.11-.7-.55-.07-.06-1.36-.06h-.67L47 47h-.58l-.42.4h-.25l-.3.05-.6.25-1.05.18-.8-.09-.72.2h-.15l-.64-.24-.35-.5h-.6l-.43-.41-1.33-.77-.78-.67-.1-.3-.1-.29.26-.63.17-.4-.11-.78.23-.53.09-.22-.07-.68.16-.65-.19-.83-.18-1.09-.47-.44-.27-.5-.84-1-.46-.19-.5.11-.74.17-.77-.15h-.07l-.41-.64.22-.63-.33-.73-.68-.05-1.1-.44-.14-.6-.3.09-.36.13-.4-.24-.82.39-.29-.17-.29-.55-.08-.23h-1.14l.39-.75.75-2.2.44-1.87 1 .23.49-.38-.32-.7-.89-.58.1-.83v-1.6l-.3-.39.38-.88.49-2.23v-.24l.09-1.62-.48-1.14.41-2.46v-.17l.08-2.09-.23-1.17-.33-1.12-.48-.78-.08-.13-.11-1.14.23-1.16.19-.66-.09-.82.56-.79.51-1-.14-1.34" fill="#f37f88" stroke="#fff" stroke-linecap="round" stroke-linejoin="round"/><path d="M45.26 3.48l1.56.22.54-.15.59-.7h.4l.9.92.36 1.29-.72.62.09.63-.27.69-.45.23-.08.77h-.68l-.4-.43-.93-.57-.75-.87-.22-1.29.06-1.33" fill="#f37f88" stroke="#fff" stroke-linecap="round" stroke-linejoin="round"/><path d="M442.58 176.41l.07-.57v-1.12l-.34-.37v-.51l-.06-.58.39.19.54-.22.64-.27.69-.21.59-.29.12-.69v-.91l.08-.29.06-.2.6-.06.44-.3-.22-.69-.38-1.38-.17-.58.37-.36.12-1.17.27-.83.07-.23.42-.66.35-.22.77.4.59.82.72-.34.48-.57-.31-.8-.25-.59.57-.37h.07l-.26-1v-.05l.27-.42.09-.13.24-.81.68-.13.51-.09-.06-.77.51-.68.42-.58.49.13.29.57h.5l1-.78.58-.67.57-.36.06-.13.36-.8.35-.46.84-1.12.7-.91.27-.74-.07-.09-.46-.56.39-.6-.1-.64v0l.06-1 .34-.51.21-.33-.12-.88-.09-.65.16-1v-.08l.13-.45.27-1 .28-.8-.45-1.09v-.14l.12-.75-.35-1-.62-.78.34-.59h.46l.62-.43.37 2.24.18 1.08.13.8.42 2.54.33 2 .12.75.55 3.35 1-.17 3.64-.61.36-.06 1.33-.22 1.6-.27 3-.53.4 2.64.44 2.6.31 1.93.61-.43.63-.82.66-.57.19-.27.83-1.21.62-1.14.25-.05.33-.07.92.31v-.57l.78-1.21.63-1.33.41.34.48.68.58.06.72.07 1.3-.19h.08l.14-.56.43-.92.51-.19.2-.07.85-.56 1.47-.46.71.59.27.23.83-.25 1.06.09.23.84.2.32.2.32.81.91.07.68.36.39-.37 1.39-.17.9-.1.54h0l-2.51-1.41h0l-1.79-1.16-.51-.29-1.44-.81.25.77.11.78-.45 1.18.07.54-.12.75.23.37-.82 1.16-.16.55-.2.66-.56.48-.51.91-.89.62-.35 1-.34 1-1.57-.82-.15.62-.27.58-.15 1.05v.43l-.52.85-.31 1.18-.17.72v.09l-.56.92h-.8l-1.21-.22-.94-1.21-1.23-.33v1.16l-.12.69.09.45-.3 1.12-.64.72.27.53-.09.1-.49.57-.59.8-.07 1.05-.13.71-.05.28-.52 1.18-.17.26-.68 1-.59 1-.1.65-.28.94-.26.53h0l.88.71h0l-.55.63v.7L468 183l-.62.62h-.06l-.92-.5-1.17 1.05-1.05.77-.84-.61-.22.08h0-.07l-.12.53.63.6-.85.55-.66.18h-.16l-1.23.49-1.13.8-1.72-1.2-.58 1-.56.38-.48.46-.27.28-1.28.26-.74-.42h-.06l-.4-.4h-.84l-.6-.58-.53-.74-.1-.42-.59-.4.45-.89-.45-.3-1.06.06-.94-.58-1-.67-.83-.35-.39-.8-.11-.22-.54-.48-.39-.53-.28-.38-.84-.52v-.31l.08-.56-1.08-1.07-1-.88.16-1" fill="#f8b1b8" stroke="#fff" stroke-linecap="round" stroke-linejoin="round"/><path d="M148.05 81.12l.42-1.84h0l2.54.38.76.27 3.74.48 3.24.43 1.92.29 2.2.32 4.62.61.39.14 4.32.59 1.19.16 2.48.31 2.47.3.84.11 5.5.68 4.54.61 6.15.72h0l2.35.2 1.75.14 7.6.76h.51l9.54.9-.33 4.32-.14 1.68-.38 4.48-.08 1v.55l-.34 4h0l-.35 4.12-.06.77v.36l-.22 2.63-.33 4-.43 5.18v.27l-.14 1.56-.29 3.51-.28 3.27v.2l-.14 1.63-.22 2.63-.1 1.18-.06.69-.2 2.4h0l-.14 1.61-.2 2.3-.14 1.59-4.64-.41-3.91-.2-.92-.09-3.48-.34h0l-9.53-1h-.28l-1.08-.13-5.62-.66-4.77-.59-.52-.07-5.74-.68-3.46-.43-8.31-1.12-2.09-.29-4.83-.65-3-.43-.5-.07-.76-.11-4.34-.65-5.25-.85.56-3.52.24-1.52.46-2.85v-.2l.93-5.87.77-4.83.38-2.28.48-2.89.53-3.36.12-.76.12-.73.53-3.38.4-2.57.4-2.59.49-3.06.16-1 .28-1.82.57-3.6.22-1.37.27-2.1.09-.57.13-.82.3-2" fill="#fce5eb" stroke="#fff" stroke-linecap="round" stroke-linejoin="round"/><path d="M319.8 264v-4.57l2.67-.06h7.26l2.44-.06h.21l2.87-.06h0l2.59-.06 3.25-.08 1.79-.06h0l2.27-.09 4.5-.19h.62l2-.09h1.15l.38.31.76.56.05.69-.76.6-.25.53.07.51.54.48.68.17-.46.59.29 1.17.3.29.07.07h0l.48.77-.57.09.14 1 1 .14-.19 1 .78.09-.27.84-.46 1-1.38.16.89 1.36.06.1-.49.74v.38l-.4.53-.7.23v.75l-.61.64-.1.1-.52.53-.66-.09-.13.62.5.7h0l-.72.21h0l-.12 1.24-.79.37.1.45.26.57-.61.2-.3.52.12.83-.23.69v.59l.35.64-.64.45-.69-.06-.25.48.68.54v0l-.33.79.35.62.43.56-.78.66-.1.09 4.94-.23h.58l1.39-.07 2.8-.15h.8l2.29-.13h.23l2.4-.15h0l1-.07 4.33-.29h.74l1.29-.09h0l-.18 1.26-.41 1.33-.45 1.33.17.81.07.35.45 1.27 1 1 .17.32.29.54.64 1.44.4 1.25 1 .44-.94.59-.61.38-.28.61-1.17.51-.73.42v.89l.71.22.64.19.56.57.67.1.58-.29.19-1.44.92-.87.58-.32 1.24-.06.44-.49.8-.66.59-.25.06 1.19-.29 1-.12 1v.68l-.62 1.08.32.63-1.57-.09v1.24l-.72.47-.41.28h0l-.39-.21-.78.59.52.9v.7l.51.79.64.35 1.26.12h.83l.71.66.69-.16.87.85.27.82h1.11l.19.66-.56 1.11-.59.27-.35.65.11.52-1-.36-.53-.46-.72.72-.9 1.13-.11-1.15.47-.8-.41-.69-.54-.32-.67-.87-1-.32-.52-.1-.44-.51-1.07-.12-1.43-.11-.49.2-.22.21-.62.59-1.26.83-.37.29-.39.3-1.18.9-1.34.38-.91.13-.4.06h-.56l-2 .13-1.16.31h-.79l-.69-.16-.15-.67-.83-.76-.72-.06-1.16-.19-.8-.38-1.5-.34-.72-.68.69-.47.12-.44h0l-.85-.38-.39-.39.19-.34-.61-.71-.79.42-.32-.39-.58-.43-.1-.48-.07-.39-.73-.48h-.53l.2-1-.56-.62h-.85l-.84.38-.53.33-.09.5-.11.56.87.4 1.14.32-.65 1.13-.64.26-1.17-.57-1.43-.69-.16-.06-.27-.1-1.14.1-1.11.64-.87.14-1.06-.18-.78-.16-1.16-.18-.61-.14-.82-.19-2.41-1-1.4-.56-1.17-.32-1.09-.26h-1.44l-1.4.14-1.55.1-2.46.44-.69.31-.46.35-.32-.46-.35-.52-.48-.56.68-.69.24-.29.26-.32.25-.85.79-1 .41-.44h0V299.15l-.13-.71v-.7l-.66-.74.16-.94.08-.07.42-.4-.12-1.07-.24-.53.52-.68v-.46l.65-.78.13-.82.56-.92.1-.93v-.11l.26-.67-.24-.59.11-.58.08-.61-.14-1.08v-.79h-.78 0l-.16-1.07-.75-.56.06-1-.37-.74-.63-.55.27-.51-.74-.31-.58-.81h0l.2-.51.13-1.1-.63-1.45-.3-.54-.39-.68-.82-.45-.63-.73-.15-.17-.05-2V271l-.05-2.35v-.4l-.05-2.41v-1.81" fill="#ee2a2d" stroke="#333" stroke-linecap="round" stroke-linejoin="round" stroke-width="3"/></svg>