<?xml version="1.0" encoding="utf-8"?>
<!-- Generator: Adobe Illustrator 20.1.0, SVG Export Plug-In . SVG Version: 6.00 Build 0)  -->
<svg version="1.1" id="Layer_1" xmlns="http://www.w3.org/2000/svg" xmlns:xlink="http://www.w3.org/1999/xlink" x="0px" y="0px"
	 viewBox="0 0 581.4 365.4" style="enable-background:new 0 0 581.4 365.4;" xml:space="preserve">
<style type="text/css">
	.st0{fill:none;stroke:#DCDBDB;stroke-width:0.2;stroke-linecap:round;stroke-linejoin:round;stroke-miterlimit:10;}
	.st1{fill:url(#SVGID_1_);}
	.st2{fill:url(#SVGID_2_);}
	.st3{fill:url(#SVGID_3_);}
	.st4{fill:url(#SVGID_4_);}
	.st5{fill:url(#SVGID_5_);}
	.st6{fill:url(#SVGID_6_);}
</style>
<g transform="matrix(0.999751,0,0,0.999751,-54.8748,-49.3873)">
	<path vector-effect="none" class="st0" d="M374.5,308.9v-2v-1.6v-0.8V303v-1.6l0,0l-0.1-0.3l-0.8-0.1l-0.5-0.2l-0.3,0.3l-0.3-0.1
		l-0.8,0.2h-0.4l-0.2,0.2l-0.4-0.1l-0.4-0.2l-0.8-0.8v-2.1v-2.1V295v-2.4v-2.4v-2.1v-1.8V285v-2.3v-0.6v-1.8v-3V276v-0.2v-0.1
		l-0.2-1.5l-0.3-2l-0.3-1.7v-0.1l-0.5-3.1l-0.2-1.6l-0.1-0.8l-0.3-1.9l-0.4-2.8"/>
	<path vector-effect="none" class="st0" d="M367.2,260h2.9l3.2-0.1h1.3h1h1.9h1.3h1.8h1.2h0.2l1.9-0.1l3-0.1h0.2h0.7l2.3-0.1h0.4
		l2-0.1l2.2-0.1h0.3l1.5-0.1l3.5-0.2h0.3l2.2-0.1h0.5l0,0l3.1-0.2l1.2-0.1l2.6-0.1h0.2l2.1-0.1l0.9-0.1l3.1-0.1h0.7l0.2,0.5l0.2,0.6
		l0.8,0.4l0.1,0.4v0.8l-0.5,0.6l-0.4,0.8l-0.4,0.2l-0.3,0.2l-0.1,0.7l-0.6,0.4l-0.4,1l-0.3,0.7l0.9-0.1l2.1-0.1l1.6-0.1h0.7l1.9-0.1
		l0.6,0.7l0.4,0.3l0.1,0.2v0.1l-0.8,0.4l-0.1,0.4l0.1,0.5l-0.8,0.4l-0.7,0.5l-0.6-0.1l-0.4,0.9l0.7,0.6l0.3,0.3l-0.6,0.3l-0.1,0.7
		l-0.1,0.3l-0.9-0.1v0.8l0.3,0.5l-0.2,0.6l-0.3-0.1l-0.5,0.2l0.3,0.6l-0.3,0.9l-0.5,0.5l0.8,0.3l0.1,0.7v0.5l0.1,0.6l-0.8-0.1
		l-0.2,0.5l-0.1,0.6l-0.8,0.2l-0.4,0.2l-0.1,0.5l0.8,0.8v0.4l-0.7,0.5l0,0l-1,0.6h-0.1h-0.6l-0.1,0.7l-0.3,0.4l-0.4,0.9v0.5
		l-0.2,0.4l-0.1,0.3l0.5,0.6l-0.2,0.6l-0.1,0.9l0.1,0.6l-0.7,0.5l-0.2,0.7l-0.8-0.4l-0.4,0.3l0.2,0.7l-0.7,0.2l-0.3,0.6l-0.6,0.2
		l0.2,0.6l-0.1,0.3l-0.5,0.2v0.4l0,0v0.1l0.5,0.2l0.3,0.3l-0.2,0.6l-0.6,0.2l-0.4,0.3l-0.3,0.3l-0.5-0.1l-0.4,0.4l0.6,0.2l0.1,0.5
		l-0.4,0.4l0.1,0.7l0.3,0.2v0.6l-0.7-0.1h-0.3l-0.3,0.4l0.8,0.4l-0.3,0.8l-0.9,0.2l0.6,0.5l-0.6,0.5l-0.2,0.4l-0.1,0.3l0.3,0.5
		l0.2,0.4l0.3,0.5l0.4,0.5l-0.3,0.6l0.2,1l0.5,0.1l0.2,0.6l-0.1,0.7l-0.2,0.7h-0.6l-0.3,0.5l0.7,0.6l-0.4,0.6l-0.1,0.1"/>
</g>
<g transform="matrix(0.999751,0,0,0.999751,-54.8748,-49.3873)">
	<path vector-effect="none" class="st0" d="M377.9,356l-0.3,0.2h-1.2l-1.1,0.2l-1.3,0.5l-2.3,1.1l-0.2,0.1l-1.6,0.7l-1.1,0.5
		l-0.9,0.5l-0.7,0.9l0.1,0.5l-1,0.7l-2.7,1.9l-1.1,1l-0.1,0.1l-0.8,0.6l-1.3,1.3l-1,0.9l-0.7,0.1l-1.4,1l-0.2-0.5l-1.2,0.7l-1.6,1
		l-2.3,1.1l-2.4,1.2l-1.7,1.1l-0.6,0.5l-0.1,0.1l-0.7,0.9l-2.3,1.3L343,377l-0.9,0.7l-0.8,0.7l-0.4,0.4l-1.5,1.7l-0.5,1l0,0
		l-0.6,0.7l-0.6,1l-0.9,1.7l-0.1,0.3l-0.4,0.9l-0.5,1.2l-0.5,1.5l-0.1,0.5l-0.2,0.6l-0.3,2.4l0.1,2.4l0.5,2.6l0.4,1.4l0.4,1.3
		l0.3,1.3l0.4,1.5l0.4,3.1l0.1,0.9l0.1,0.6l-0.1,0.3l-0.6-0.2l-0.9,0.3L335,408l-0.4,0.3l0.1,0.5l-0.2,0.4h-0.6l-0.4-0.5H333
		l-0.6-0.6l-0.5-0.3l-0.8-1l-0.7-0.2l-0.8-0.1L329,406h-0.9H328h-0.9l-0.8-0.1l-0.4,0.3l-0.7-0.3h-0.7h-0.6h-0.1l-0.6-0.2l-0.7-0.5
		h-0.1l-1-0.6l-0.7-0.6l-0.8-0.2l-0.9-0.3l-0.2-0.1l-0.3-0.1l-0.5,0.2l-0.6-0.4l-1-0.9l-0.3-0.6l-1.1,0.1l-0.8-0.5l-0.9-0.3
		l-0.6,0.2l-0.4-0.4l0.3-0.7l-0.2-0.3l-0.8-0.7l-0.1-0.3l-0.3-1.2l-0.1-1l-0.4-0.9l-0.3-0.8"/>
	<path vector-effect="none" class="st0" d="M310.5,289.3l0.2-0.5l1.3,0.2l0,0l0.6,0.2l0.3-0.9l0.5,0.1l0.8,0.7l0.6,0.9l0.1,0.2
		l0.2,1.4l0.7,0.1l0.8,0.1l0.6-0.1l0.6,0.1h0.1l0.8,0.6l0.8,0.1l0.8,0.4h0.5l0.5-0.4l0.4,0.1l0.4,0.1l0.5,0.8l0.6,0.4l0.6-0.2h0.1
		l0.2-0.6l0.4-0.4l0.5,0.2l1.1,0.3l0.6,0.2l0.4-0.4l0.2-0.2l0.3,0.7v0.8l0.2,0.7l0.9,0.1l0.7,0.1l-0.1,0.9v0.5v0.2l1,0.4l0.7-0.4
		l0.5-0.6l1-0.9l0.7,0.3l0.1,0.6l0.4,0.3l0,0l0.8-0.3l0,0l0.4,0.6l0.1,0.7l0.8,0.1l0.6-0.6l0.8-0.5l0.5-0.2l0.4,0.9l-0.5,0.5
		l0.6,1.2l0.7-0.2v-0.5l0.1-0.5l0.3-0.6l0.8-0.4v-0.4l0.4-0.4h0.1h0.1h0.3l0.1,0.6l0.5,0.8l0.7-0.3l0.2,0.4l0.7,0.2l0.4-0.6l0.3-0.6
		l0.8,0.5h0.1v0.7l0.2,0.2h0.6l0.2,0.6l0.8-0.1l0.4,0.5l0.3,0.4l0.2,0.3l0.7-0.6l0.3-0.5l0.6,0.3l0.7-0.7l0.2-0.4l1-0.1l1.5-0.5
		l0.6,0.2h0.5h0.3l0.4-0.2l0.6-0.3l0.8-0.1l0.8-0.3h0.5l0.4,0.6l0.9,0.2h1.1l0.5-0.1l0.3-0.1l0.3-0.7l0.3-0.5l0.8,0.3h0.1l0.6,0.4
		l0.6,0.6l0.8,0.1l0.5,0.6l0.4,0.5l0.7,0.5l0.9-0.1l0.4,0.4l0.2,0.2l1,0.5h0.7l0.5,0.7l0.5-0.2"/>
</g>
<g transform="matrix(0.999751,0,0,0.999751,-54.8748,-49.3873)">
	<path vector-effect="none" class="st0" d="M440.5,277.7v-0.2l2.3-0.2h0.2l1.5-0.1l2.6-0.2h0.2l4.3-0.3h0.1h0.1l4.3-0.3h0.6l0,0
		l3.6-0.3l1.7-0.2h0.1l5.1-0.5l2.9-0.3l0.2,0.8l0.2,0.9l0.4,1.5l0.5,1.7l0.1,0.5l0.3,0.9l0.2,0.7l0.5,1.8l0.2,0.8l0.6,2.2l0.2,0.6
		l0.4,1.6l0,0l0.2,0.9l0.5,1.8l0.4,1.6l0.5,1.7l0.2,0.6l0.2,0.8l1.1,4.1l0.1,0.3l0,0l0.9,3.3v0.1l0.3,0.4l0.5,1l0.2,0.3l0.4,1
		l0.2,0.7l0.1,0.3l0.8,0.7l0.1,0.2l0,0l0.4,0.9v0.9v0.2l-0.2,0.4l0.7,0.4l0.8,0.5l-0.3,0.5l-0.1,0.2l-0.7,0.6l-0.6,0.8l0.2,0.7v0.4
		v1v0.3l-0.4,1.1l-0.2,0.8l0.2,0.8l0.1,0.2l0.1,0.4v0.5l0.9,0.9l0.1,0.7l0.2,0.3l-0.1,0.4l-0.2,0.7l0.1,0.5l-0.2,1l0.1,0.6v0.2v0.2
		l-0.2,0.5l0.1,1l1,1l0.2,0.4l0.1,0.3l0.2,0.7h-0.3l-1.4,0.2l-2.2,0.3l-1.8,0.2h-0.1l-1,0.1l-2,0.2l-1.7,0.2l-1.7,0.2l-1.8,0.2
		l-2.1,0.2h-0.3l-2.1,0.2l-1.5,0.1l-1.2,0.1h-0.5l-1.1,0.1l-2.8,0.2l0,0l-1.8,0.2l-1.4,0.1l-1.1,0.1l-0.9,0.1l0,0l0.1,0.6l-0.4,1.2
		l1.2,1.3l0.3,0.4l1,0.5l0.5,0.4l0.1,0.7l-0.3,0.8l-0.1,0.6l0.4,0.7l0.6,0.2l-0.7,0.5l-0.2,0.8l-0.7,1l-1.6,0.6l-1.9,0.5l-0.9-0.1
		l1-0.7l0.1-0.6l-0.9-0.8l-0.7-0.8l-0.3-0.6l0.3-0.9l-0.2-0.5l-0.3-0.9l-1-0.4l-0.6,0.6v0.8l-0.2,0.6l-0.2,0.7l0.1,1.4l-0.3,1.2
		L446,343l-0.7,0.1l-0.7-0.6l-0.7-0.2l-0.3,0.3"/>
</g>
<g transform="matrix(0.999751,0,0,0.999751,-54.8748,-49.3873)">
	<path vector-effect="none" class="st0" d="M416.6,279.4l5.8-0.3h0.4h0.4l0.9-0.1l2.4-0.2l0.9-0.1l1.8-0.1l2-0.1h0.1l2.2-0.2h0.4
		l3.6-0.3l1-0.1h0.2l1.2-0.1l0.7-0.1l0.6,1l0.7,0.4l-0.1,3.8v0.6v1.7v2l-0.1,3.3v0.4l-0.1,4.4v0.7v2.3l-0.1,3.5v1.5v2.7v0.9
		l-0.1,3.1v1.9l-0.1,3.8v0.8v0.3l-0.1,2.5v1.7v0.5l0.1,1.4l0.2,1.3l0.1,1.1l0.3,2.6v0.2l0.5,4.3l0.2,1.6l0.5,3.6v0.1l0.3,2.6
		l0.3,2.4l-0.2,0.4h-0.4l-0.3,0.4l-0.6-0.2l-0.7,0.2l-0.4-0.3l-0.6-0.1l-0.4,0.3h-0.6l-0.7-0.1h-0.2l-0.9-0.4l-0.9,0.1l-1.3,0.4
		l-1.2,0.6l-1.3,0.4l-0.1,0.1l-0.4,0.2l-0.9,0.7l-0.2,0.9l-0.3,0.2l-0.6,0.2l-1-0.4"/>
</g>
<g transform="matrix(0.999751,0,0,0.999751,-54.8748,-49.3873)">
	<path vector-effect="none" class="st0" d="M367.1,256.3v1.4v0.8v1.6l0.4,2.8l0.3,1.9l0.1,0.8l0.2,1.6l0.5,3.1v0.1l0.3,1.7l0.3,2
		l0.2,1.5v0.1v0.2v1.3v3v1.8v0.6v2.3v1.3v1.8v2.1v2.4v2.4v1.1v2.1v2.1l-0.5,0.2l-0.5-0.7h-0.7l-1-0.5l-0.2-0.2l-0.4-0.4l-0.9,0.1
		l-0.7-0.5l-0.4-0.5l-0.5-0.6l-0.8-0.1l-0.6-0.6l-0.6-0.4h-0.1l-0.8-0.3l-0.3,0.5l-0.3,0.7l-0.3,0.1l-0.5,0.1h-1.1l-0.9-0.2
		l-0.4-0.6h-0.5l-0.8,0.3l-0.8,0.1l-0.6,0.3l-0.4,0.2h-0.3H353l-0.6-0.2l-1.5,0.5l-1,0.1l-0.2,0.4l-0.7,0.7l-0.6-0.3l-0.3,0.5
		l-0.7,0.6l-0.2-0.3l-0.3-0.4l-0.4-0.5l-0.8,0.1l-0.2-0.6h-0.6l-0.2-0.2v-0.7h-0.1l-0.8-0.5l-0.3,0.6l-0.4,0.6l-0.7-0.2l-0.2-0.4
		l-0.7,0.3l-0.5-0.8l-0.1-0.6h-0.3h-0.1h-0.1l-0.4,0.4v0.4l-0.8,0.4l-0.3,0.6l-0.1,0.5v0.5l-0.7,0.2l-0.6-1.2l0.5-0.5l-0.4-0.9
		l-0.5,0.2l-0.8,0.5l-0.6,0.6l-0.8-0.1l0.1-0.5l-0.4-0.6l0,0l-0.8,0.3l0,0l-0.4-0.3l-0.1-0.6l-0.7-0.3l-1,0.9l-0.5,0.6l-0.7,0.4
		l-1-0.4v-0.2v-0.5l0.1-0.9l-0.7-0.1l-0.9-0.1l-0.2-0.7v-0.8l-0.3-0.7l-0.2,0.2l-0.4,0.4l-0.6-0.2l-1.1-0.3l-0.5-0.2l-0.4,0.4
		l-0.2,0.6h-0.1l-0.6,0.2l-0.6-0.4l-0.5-0.8l-0.4-0.1l-0.4-0.1l-0.5,0.4h-0.5l-0.8-0.4l-0.8-0.1L318,292h-0.1l-0.6-0.1l-0.6,0.1
		l-0.8-0.1l-0.7-0.1l-0.2-1.4l-0.1-0.2l-0.6-0.9l-0.8-0.7l-0.5-0.1l-0.3,0.9L312,289l0,0l-1.3-0.2l-0.2,0.5"/>
</g>
<radialGradient id="SVGID_1_" cx="256.1667" cy="345.6667" r="4.3333" gradientUnits="userSpaceOnUse">
	<stop  offset="0.4078" style="stop-color:#FFFFFF"/>
	<stop  offset="1" style="stop-color:#FFFFFF;stop-opacity:0"/>
</radialGradient>
<circle class="st1" cx="256.2" cy="345.7" r="4.3"/>
<radialGradient id="SVGID_2_" cx="426.9051" cy="280.5" r="4.3333" gradientUnits="userSpaceOnUse">
	<stop  offset="0.4078" style="stop-color:#FFFFFF"/>
	<stop  offset="1" style="stop-color:#FFFFFF;stop-opacity:0"/>
</radialGradient>
<circle class="st2" cx="426.9" cy="280.5" r="4.3"/>
<radialGradient id="SVGID_3_" cx="415.5" cy="225.6442" r="4.3333" gradientUnits="userSpaceOnUse">
	<stop  offset="0.4078" style="stop-color:#FFFFFF"/>
	<stop  offset="1" style="stop-color:#FFFFFF;stop-opacity:0"/>
</radialGradient>
<circle class="st3" cx="415.5" cy="225.6" r="4.3"/>
<radialGradient id="SVGID_4_" cx="312.2338" cy="207.8008" r="4.3333" gradientUnits="userSpaceOnUse">
	<stop  offset="0.4078" style="stop-color:#FFFFFF"/>
	<stop  offset="1" style="stop-color:#FFFFFF;stop-opacity:0"/>
</radialGradient>
<circle class="st4" cx="312.2" cy="207.8" r="4.3"/>
<radialGradient id="SVGID_5_" cx="255.5479" cy="239.6413" r="4.3333" gradientUnits="userSpaceOnUse">
	<stop  offset="0.4078" style="stop-color:#FFFFFF"/>
	<stop  offset="1" style="stop-color:#FFFFFF;stop-opacity:0"/>
</radialGradient>
<circle class="st5" cx="255.5" cy="239.6" r="4.3"/>
<radialGradient id="SVGID_6_" cx="361.6215" cy="208.8483" r="4.3333" gradientUnits="userSpaceOnUse">
	<stop  offset="0.4078" style="stop-color:#FFFFFF"/>
	<stop  offset="1" style="stop-color:#FFFFFF;stop-opacity:0"/>
</radialGradient>
<circle class="st6" cx="361.6" cy="208.8" r="4.3"/>
</svg>
