<?xml version="1.0" encoding="utf-8"?>
<!-- Generator: Adobe Illustrator 20.1.0, SVG Export Plug-In . SVG Version: 6.00 Build 0)  -->
<svg version="1.1" id="Layer_1" xmlns="http://www.w3.org/2000/svg" xmlns:xlink="http://www.w3.org/1999/xlink" x="0px" y="0px"
	 viewBox="0 0 581.4 365.4" style="enable-background:new 0 0 581.4 365.4;" xml:space="preserve">
<style type="text/css">
	.st0{fill:none;stroke:#DCDBDB;stroke-width:0.2;stroke-linecap:round;stroke-linejoin:round;stroke-miterlimit:10;}
</style>
<g transform="matrix(0.999751,0,0,0.999751,-54.8748,-49.3873)">
	<path vector-effect="none" class="st0" d="M374.5,308.9l0-2l0-1.6l0-0.8l0-1.5l0-1.6l0,0l-0.1-0.3l-0.8-0.1l-0.5-0.2l-0.3,0.3
		l-0.3-0.1l-0.8,0.2l-0.4,0l-0.2,0.2l-0.4-0.1l-0.4-0.2l-0.8-0.8l0-2.1l0-2.1l0-1.1l0-2.4l0-2.4l0-2.1l0-1.8l0-1.3l0-2.3l0-0.6
		l0-1.8l0-3l0-1.3l0-0.2l0-0.1l-0.2-1.5l-0.3-2l-0.3-1.7l0-0.1l-0.5-3.1l-0.2-1.6l-0.1-0.8l-0.3-1.9l-0.4-2.8"/>
	<path vector-effect="none" class="st0" d="M367.2,260l2.9,0l3.2-0.1l1.3,0l1,0l1.9,0l1.3,0l1.8,0l1.2,0l0.2,0l1.9-0.1l3-0.1l0.2,0
		l0.7,0l2.3-0.1l0.4,0l2-0.1l2.2-0.1l0.3,0l1.5-0.1l3.5-0.2l0.3,0l2.2-0.1l0.5,0h0l3.1-0.2l1.2-0.1l2.6-0.1l0.2,0l2.1-0.1l0.9-0.1
		l3.1-0.1l0.7,0l0.2,0.5l0.2,0.6l0.8,0.4l0.1,0.4l0,0.8l-0.5,0.6l-0.4,0.8l-0.4,0.2l-0.3,0.2l-0.1,0.7l-0.6,0.4l-0.4,1l-0.3,0.7
		l0.9-0.1l2.1-0.1l1.6-0.1l0.7,0l1.9-0.1l0.6,0.7l0.4,0.3l0.1,0.2l0,0.1l-0.8,0.4l-0.1,0.4l0.1,0.5l-0.8,0.4l-0.7,0.5l-0.6-0.1
		l-0.4,0.9l0.7,0.6l0.3,0.3l-0.6,0.3l-0.1,0.7l-0.1,0.3l-0.9-0.1l0,0.8l0.3,0.5l-0.2,0.6l-0.3-0.1l-0.5,0.2l0.3,0.6l-0.3,0.9
		l-0.5,0.5l0.8,0.3l0.1,0.7l0,0.5l0.1,0.6l-0.8-0.1l-0.2,0.5l-0.1,0.6l-0.8,0.2l-0.4,0.2l-0.1,0.5l0.8,0.8l0,0.4l-0.7,0.5l0,0
		l-1,0.6l-0.1,0l-0.6,0l-0.1,0.7l-0.3,0.4l-0.4,0.9l0,0.5l-0.2,0.4l-0.1,0.3l0.5,0.6l-0.2,0.6l-0.1,0.9l0.1,0.6l-0.7,0.5l-0.2,0.7
		l-0.8-0.4l-0.4,0.3l0.2,0.7l-0.7,0.2l-0.3,0.6l-0.6,0.2l0.2,0.6l-0.1,0.3l-0.5,0.2l0,0.4l0,0l0,0.1l0.5,0.2l0.3,0.3l-0.2,0.6
		l-0.6,0.2l-0.4,0.3l-0.3,0.3l-0.5-0.1l-0.4,0.4l0.6,0.2l0.1,0.5l-0.4,0.4l0.1,0.7l0.3,0.2l0,0.6l-0.7-0.1l-0.3,0l-0.3,0.4l0.8,0.4
		l-0.3,0.8l-0.9,0.2l0.6,0.5l-0.6,0.5l-0.2,0.4l-0.1,0.3l0.3,0.5l0.2,0.4l0.3,0.5l0.4,0.5l-0.3,0.6l0.2,1l0.5,0.1l0.2,0.6l-0.1,0.7
		l-0.2,0.7l-0.6,0l-0.3,0.5l0.7,0.6l-0.4,0.6l-0.1,0.1"/>
</g>
<g transform="matrix(0.999751,0,0,0.999751,-54.8748,-49.3873)">
	<path vector-effect="none" class="st0" d="M414.5,226.8l0.2,0.5l0.2,0.4l0,0l0,0.7l-0.6,1l-0.1,0.2l-0.1,0.2l-0.1,0.3l-0.1,0.8
		l-0.5,0.8l0,0l-0.1,0.1l-0.2,0.8l0.2,1.2l0.2,0.2l0.3,0.5l0.8,0.7v0l0.4,0.4l0.1,0.1l0.9,0.5l0.5,0.5l0.8,0.6l0.6,0l-0.2,0.7
		l0.5,0.5l0.1,0.1l0.8-0.5l0.8,0.6l1,0.5l0.1,0.2l0.2,0.5l0.9,0.4l0.8,0.3l0.2,1l0.2,0.6l0,0.1l0,0.2l-0.1,0.4l0.5,0.9l0.6,0.8
		l0,0.7l-0.5,0.3l-0.2,0.2l-0.2,0.6l0.4,0.3l0.1,0.1l0.2,0.9l0.9,1.1l0.3,0.8l0.6,0.2l0.6,0.1l0.7,0.3l0.7,0.1l0.4,0.3l0,0.2
		l-0.1,0.8l-0.3,0.7l0,0.8l0,0l0,0.4l-0.5,0.6l0.5,0.7l-0.1,0.2l-0.2,0.4l-0.3,0.8l-0.6-0.1l-0.6-0.6l0,0l-0.6,0.1l-0.3,0.9h-0.8
		l-0.7-0.1l-0.3,0.5l0.4,0.5l0.2,0.5l-0.2,0.6l0.4,0.6l-0.1,0.5l-0.2,0l-0.6,0.1l-0.1,0.5l0.7,0.4l-0.5,0.6l-0.9-0.1l-0.1,0.3
		l0.8,0.5l0,0l0.4,0.6l-0.5,0.5l-0.4,0.3l-0.1,0.9l-0.4,0.3l-1.9,0.1l-0.7,0l-1.6,0.1l-2.1,0.1l-0.9,0.1l0.3-0.7l0.4-1l0.6-0.4
		l0.1-0.7l0.3-0.2l0.4-0.2l0.4-0.8l0.5-0.6l0-0.8l-0.1-0.4l-0.8-0.4l-0.2-0.6l-0.2-0.5l-0.7,0l-3.1,0.1l-0.9,0.1l-2.1,0.1l-0.2,0
		l-2.6,0.1l-1.2,0.1l-3.1,0.2h0l-0.5,0l-2.2,0.1l-0.3,0l-3.5,0.2l-1.5,0.1l-0.3,0l-2.2,0.1l-2,0.1l-0.4,0l-2.3,0.1l-0.7,0l-0.2,0
		l-3,0.1l-1.9,0.1l-0.2,0l-1.2,0l-1.8,0l-1.3,0l-1.9,0l-1,0l-1.3,0l-3.2,0.1l-2.9,0l0-1.6l0-0.8l0-1.4l0-3.3l0-0.8l0-1.5l0-2.5
		l0-0.4l0-0.7l-0.1-3.4l0-0.3v-0.1l0-4.3l0-0.7l0-0.3l0-2.5l0-2.1l0-1.3l0,0l0-1l0-2.7v0l0-1.5"/>
	<path vector-effect="none" class="st0" d="M377.9,356l-0.3,0.2l-1.2,0l-1.1,0.2l-1.3,0.5l-2.3,1.1l-0.2,0.1l-1.6,0.7l-1.1,0.5
		l-0.9,0.5l-0.7,0.9l0.1,0.5l-1,0.7l-2.7,1.9l-1.1,1l-0.1,0.1l-0.8,0.6l-1.3,1.3l-1,0.9l-0.7,0.1l-1.4,1l-0.2-0.5l-1.2,0.7l-1.6,1
		l-2.3,1.1l-2.4,1.2l-1.7,1.1l-0.6,0.5l-0.1,0.1l-0.7,0.9l-2.3,1.3l-1.1,0.8l-0.9,0.7l-0.8,0.7l-0.4,0.4l-1.5,1.7l-0.5,1l0,0
		l-0.6,0.7l-0.6,1l-0.9,1.7l-0.1,0.3l-0.4,0.9l-0.5,1.2l-0.5,1.5l-0.1,0.5l-0.2,0.6l-0.3,2.4l0.1,2.4l0.5,2.6l0.4,1.4l0.4,1.3
		l0.3,1.3l0.4,1.5l0.4,3.1l0.1,0.9l0.1,0.6l-0.1,0.3l-0.6-0.2l-0.9,0.3l-0.8,0.2l-0.4,0.3l0.1,0.5l-0.2,0.4l-0.6,0l-0.4-0.5l-0.5,0
		l-0.6-0.6l-0.5-0.3l-0.8-1l-0.7-0.2l-0.8-0.1L329,406l-0.9,0l-0.1,0l-0.9,0l-0.8-0.1l-0.4,0.3l-0.7-0.3l-0.7,0l-0.6,0l-0.1,0
		l-0.6-0.2l-0.7-0.5l-0.1,0l-1-0.6l-0.7-0.6l-0.8-0.2l-0.9-0.3l-0.2-0.1l-0.3-0.1l-0.5,0.2l-0.6-0.4l-1-0.9l-0.3-0.6l-1.1,0.1
		l-0.8-0.5l-0.9-0.3l-0.6,0.2l-0.4-0.4l0.3-0.7l-0.2-0.3l-0.8-0.7l-0.1-0.3l-0.3-1.2l-0.1-1l-0.4-0.9l-0.3-0.8"/>
	<path vector-effect="none" class="st0" d="M310.5,289.3l0.2-0.5l1.3,0.2l0,0l0.6,0.2l0.3-0.9l0.5,0.1l0.8,0.7l0.6,0.9l0.1,0.2
		l0.2,1.4l0.7,0.1l0.8,0.1l0.6-0.1l0.6,0.1l0.1,0l0.8,0.6l0.8,0.1l0.8,0.4l0.5,0l0.5-0.4l0.4,0.1l0.4,0.1l0.5,0.8l0.6,0.4l0.6-0.2
		l0.1,0l0.2-0.6l0.4-0.4l0.5,0.2l1.1,0.3l0.6,0.2l0.4-0.4l0.2-0.2l0.3,0.7l0,0.8l0.2,0.7l0.9,0.1l0.7,0.1l-0.1,0.9l0,0.5l0,0.2
		l1,0.4l0.7-0.4l0.5-0.6l1-0.9l0.7,0.3l0.1,0.6l0.4,0.3l0,0l0.8-0.3l0,0l0.4,0.6l0.1,0.7l0.8,0.1l0.6-0.6l0.8-0.5l0.5-0.2l0.4,0.9
		l-0.5,0.5l0.6,1.2l0.7-0.2l0-0.5l0.1-0.5l0.3-0.6l0.8-0.4l0-0.4l0.4-0.4l0.1,0l0.1,0l0.3,0l0.1,0.6l0.5,0.8l0.7-0.3l0.2,0.4
		l0.7,0.2l0.4-0.6l0.3-0.6l0.8,0.5l0.1,0l0,0.7l0.2,0.2l0.6,0l0.2,0.6l0.8-0.1l0.4,0.5l0.3,0.4l0.2,0.3l0.7-0.6l0.3-0.5l0.6,0.3
		l0.7-0.7l0.2-0.4l1-0.1l1.5-0.5l0.6,0.2l0.5,0l0.3,0l0.4-0.2l0.6-0.3l0.8-0.1l0.8-0.3h0.5l0.4,0.6l0.9,0.2l1.1,0l0.5-0.1l0.3-0.1
		l0.3-0.7l0.3-0.5l0.8,0.3l0.1,0l0.6,0.4l0.6,0.6l0.8,0.1l0.5,0.6l0.4,0.5l0.7,0.5l0.9-0.1l0.4,0.4l0.2,0.2l1,0.5l0.7,0l0.5,0.7
		l0.5-0.2"/>
</g>
<g transform="matrix(0.999751,0,0,0.999751,-54.8748,-49.3873)">
	<path vector-effect="none" class="st0" d="M440.5,277.7l0-0.2l2.3-0.2l0.2,0l1.5-0.1l2.6-0.2l0.2,0l4.3-0.3l0.1,0l0.1,0l4.3-0.3
		l0.6,0l0,0l3.6-0.3l1.7-0.2l0.1,0l5.1-0.5l2.9-0.3l0.2,0.8l0.2,0.9l0.4,1.5l0.5,1.7l0.1,0.5l0.3,0.9l0.2,0.7l0.5,1.8l0.2,0.8
		l0.6,2.2l0.2,0.6l0.4,1.6l0,0l0.2,0.9l0.5,1.8l0.4,1.6l0.5,1.7l0.2,0.6l0.2,0.8l1.1,4.1l0.1,0.3l0,0l0.9,3.3l0,0.1l0.3,0.4l0.5,1
		l0.2,0.3l0.4,1l0.2,0.7l0.1,0.3l0.8,0.7l0.1,0.2l0,0l0.4,0.9l0,0.9l0,0.2l-0.2,0.4l0.7,0.4l0.8,0.5l-0.3,0.5l-0.1,0.2l-0.7,0.6
		l-0.6,0.8l0.2,0.7l0,0.4l0,1l0,0.3l-0.4,1.1l-0.2,0.8l0.2,0.8l0.1,0.2l0.1,0.4l0,0.5l0.9,0.9l0.1,0.7l0.2,0.3l-0.1,0.4l-0.2,0.7
		l0.1,0.5l-0.2,1l0.1,0.6l0,0.2l0,0.2l-0.2,0.5l0.1,1l1,1l0.2,0.4l0.1,0.3l0.2,0.7l-0.3,0l-1.4,0.2l-2.2,0.3l-1.8,0.2l-0.1,0l-1,0.1
		l-2,0.2l-1.7,0.2l-1.7,0.2l-1.8,0.2l-2.1,0.2l-0.3,0l-2.1,0.2l-1.5,0.1l-1.2,0.1l-0.5,0l-1.1,0.1l-2.8,0.2h0l-1.8,0.2l-1.4,0.1
		l-1.1,0.1l-0.9,0.1h0l0.1,0.6l-0.4,1.2l1.2,1.3l0.3,0.4l1,0.5l0.5,0.4l0.1,0.7l-0.3,0.8l-0.1,0.6l0.4,0.7l0.6,0.2l-0.7,0.5
		l-0.2,0.8l-0.7,1l-1.6,0.6l-1.9,0.5l-0.9-0.1l1-0.7l0.1-0.6l-0.9-0.8l-0.7-0.8l-0.3-0.6l0.3-0.9l-0.2-0.5l-0.3-0.9l-1-0.4l-0.6,0.6
		l0,0.8l-0.2,0.6l-0.2,0.7l0.1,1.4l-0.3,1.2L446,343l-0.7,0.1l-0.7-0.6l-0.7-0.2l-0.3,0.3"/>
</g>
<g transform="matrix(0.999751,0,0,0.999751,-54.8748,-49.3873)">
	<path vector-effect="none" class="st0" d="M416.6,279.4l5.8-0.3l0.4,0l0.4,0l0.9-0.1l2.4-0.2l0.9-0.1l1.8-0.1l2-0.1l0.1,0l2.2-0.2
		l0.4,0l3.6-0.3l1-0.1l0.2,0l1.2-0.1l0.7-0.1l0.6,1l0.7,0.4l-0.1,3.8l0,0.6l0,1.7l0,2l-0.1,3.3l0,0.4l-0.1,4.4l0,0.7l0,2.3l-0.1,3.5
		l0,1.5l0,2.7l0,0.9l-0.1,3.1l0,1.9l-0.1,3.8l0,0.8l0,0.3l-0.1,2.5l0,1.7l0,0.5l0.1,1.4l0.2,1.3l0.1,1.1l0.3,2.6l0,0.2l0.5,4.3
		l0.2,1.6l0.5,3.6l0,0.1l0.3,2.6l0.3,2.4l-0.2,0.4l-0.4,0l-0.3,0.4l-0.6-0.2l-0.7,0.2l-0.4-0.3l-0.6-0.1l-0.4,0.3l-0.6,0l-0.7-0.1
		l-0.2,0l-0.9-0.4l-0.9,0.1l-1.3,0.4l-1.2,0.6l-1.3,0.4l-0.1,0.1l-0.4,0.2l-0.9,0.7l-0.2,0.9l-0.3,0.2l-0.6,0.2l-1-0.4"/>
</g>
<g transform="matrix(0.999751,0,0,0.999751,-54.8748,-49.3873)">
	<path vector-effect="none" class="st0" d="M311.3,252.3l1.3,0.1l0.9,0l0.5,0l3.1,0.1l1.4,0l2.3,0.1l2.7,0.1l2.1,0.1h0.1l2.6,0.1
		l0.7,0l2.7,0l0.4,0l3.4,0.1l0.9,0l2.6,0l0.5,0l3.9,0l2.5,0h0.3l3.1,0h2.4h0.4h0.4l1.6,0l2.4,0l0.6,0l1.3,0l0.9,0l2.8,0l0.7,0h0.1
		l3.1,0l1.1,0l0,3.3l0,1.4l0,0.8l0,1.6l0.4,2.8l0.3,1.9l0.1,0.8l0.2,1.6l0.5,3.1l0,0.1l0.3,1.7l0.3,2l0.2,1.5l0,0.1l0,0.2l0,1.3l0,3
		l0,1.8l0,0.6l0,2.3l0,1.3l0,1.8l0,2.1l0,2.4l0,2.4l0,1.1l0,2.1l0,2.1l-0.5,0.2l-0.5-0.7l-0.7,0l-1-0.5l-0.2-0.2l-0.4-0.4l-0.9,0.1
		l-0.7-0.5l-0.4-0.5l-0.5-0.6l-0.8-0.1l-0.6-0.6l-0.6-0.4l-0.1,0l-0.8-0.3l-0.3,0.5l-0.3,0.7l-0.3,0.1l-0.5,0.1l-1.1,0l-0.9-0.2
		l-0.4-0.6h-0.5l-0.8,0.3l-0.8,0.1l-0.6,0.3l-0.4,0.2l-0.3,0l-0.5,0l-0.6-0.2l-1.5,0.5l-1,0.1l-0.2,0.4l-0.7,0.7l-0.6-0.3l-0.3,0.5
		l-0.7,0.6l-0.2-0.3l-0.3-0.4l-0.4-0.5l-0.8,0.1l-0.2-0.6l-0.6,0l-0.2-0.2l0-0.7l-0.1,0l-0.8-0.5l-0.3,0.6l-0.4,0.6l-0.7-0.2
		l-0.2-0.4l-0.7,0.3l-0.5-0.8l-0.1-0.6l-0.3,0l-0.1,0l-0.1,0l-0.4,0.4l0,0.4l-0.8,0.4l-0.3,0.6l-0.1,0.5l0,0.5l-0.7,0.2l-0.6-1.2
		l0.5-0.5l-0.4-0.9l-0.5,0.2l-0.8,0.5l-0.6,0.6l-0.8-0.1L335,297l-0.4-0.6l0,0l-0.8,0.3l0,0l-0.4-0.3l-0.1-0.6l-0.7-0.3l-1,0.9
		l-0.5,0.6l-0.7,0.4l-1-0.4l0-0.2l0-0.5l0.1-0.9l-0.7-0.1l-0.9-0.1l-0.2-0.7l0-0.8l-0.3-0.7l-0.2,0.2l-0.4,0.4l-0.6-0.2l-1.1-0.3
		l-0.5-0.2l-0.4,0.4l-0.2,0.6l-0.1,0l-0.6,0.2l-0.6-0.4l-0.5-0.8l-0.4-0.1l-0.4-0.1l-0.5,0.4l-0.5,0l-0.8-0.4l-0.8-0.1l-0.8-0.6
		l-0.1,0l-0.6-0.1l-0.6,0.1l-0.8-0.1l-0.7-0.1l-0.2-1.4l-0.1-0.2l-0.6-0.9l-0.8-0.7l-0.5-0.1l-0.3,0.9L312,289l0,0l-1.3-0.2
		l-0.2,0.5"/>
</g>
</svg>
